<svg height="116.000038" width="60.499981" xmlns="http://www.w3.org/2000/svg"><g transform="scale(1.008333 .966667)"><path d="m0 60v-60h30 30v60 60h-30-30z" fill="#fefefe"/><path d="m22.298549 102.04048c-8.467102-5.16269-8.467102-18.91827 0-24.080964 3.830075-2.335335 10.639342-2.560114 14.654568-.48376 9.206606 4.760921 9.206606 20.287567 0 25.048484-4.015226 2.07636-10.824493 1.85158-14.654568-.48376zm0-59.999996c-4.041053-2.463974-6.298549-6.779467-6.298549-12.040484 0-8.280704 5.661929-13.98925 13.881966-13.996262 10.725167-.009149 17.215568 10.666436 12.511572 20.57937-3.288718 6.930459-13.244642 9.634278-20.094989 5.457376z" fill="#d3d3d3"/><path d="m22.641297 102.16259c-4.346164-2.957317-6.62727-7.098406-6.634708-12.044556-.019349-12.867441 14.715933-18.862179 23.867944-9.710168 3.357129 3.357129 3.625467 4.067088 3.625467 9.592134 0 5.540852-.262515 6.229182-3.678461 9.645128-3.136931 3.136932-4.461882 3.736182-9 4.070552-4.085442.30102-5.985564-.05973-8.180242-1.55309zm1.858703-59.067714c-1.1-.487891-3.35-2.313378-5-4.056638-2.638289-2.787408-3-3.883058-3-9.087234 0-5.509519.259793-6.177464 3.766667-9.684337 3.50473-3.504731 4.177148-3.766667 9.669436-3.766667 4.916133 0 6.349987.41787 8.578347 2.5 7.238248 6.763256 7.281853 15.197032.113197 21.893657-2.791622 2.607803-10.502297 3.809199-14.127647 2.201219z" fill="#b4b4b4"/><path d="m24.5 103.04051c-1.1-.45799-3.35-2.25901-5-4.002272-2.638289-2.787408-3-3.883058-3-9.087234 0-5.477301.271936-6.189606 3.65426-9.57193 6.717173-6.717173 16.817292-5.394387 21.851142 2.861786 6.616849 10.852498-5.655618 24.73339-17.505402 19.79965zm-1.25914-61.035108c-6.817298-4.156557-9.123521-12.40533-5.246262-18.764542 5.752054-9.434121 18.25875-9.434121 24.010804 0 7.127092 11.689364-7.075178 25.891634-18.764542 18.764542z" fill="#8e8e8e"/><path d="m23.24086 102.0054c-9.434121-5.752052-9.434121-18.258748 0-24.010802 8.769448-5.346797 20.761584 1.879163 20.753848 12.505402-.004789 6.578025-7.176642 13.49252-13.994708 13.49252-1.925 0-4.966613-.8942-6.75914-1.98712zm15.187711-3.576829c1.698323-1.698322 2.074666-3.428571.745743-3.428571-.454127 0-1.882569 1.125-3.174314 2.5-1.863284 1.983375-2.017392 2.5-.745743 2.5.881587 0 2.310029-.707143 3.174314-1.571429zm-14.428571-16.011904c0-1.765927-2.152759-1.45839-2.770833.395833-.217709.653125.316666 1.1875 1.1875 1.1875.870833 0 1.583333-.7125 1.583333-1.583333zm-.75914-40.35272c-9.436762-5.923179-9.436762-18.315685 0-24.069349 11.174946-6.813448 25.155634 6.340504 19.061503 17.934317-3.797265 7.224129-12.74049 10.102546-19.061503 6.135032z" fill="#707070"/><path d="m23.24086 102.06395c-9.436762-5.923182-9.436762-18.315688 0-24.069352 11.174946-6.813448 25.155634 6.340504 19.061503 17.934317-3.797265 7.224125-12.74049 10.102545-19.061503 6.135035zm15.304595-3.518495c2.326722-2.326723 3.32512-5.564988 1.704545-5.528628-.4125.009255-2.51659 1.809255-4.675755 4-3.551855 3.603803-3.714201 3.983173-1.704546 3.983173 1.221666 0 3.325756-1.104545 4.675756-2.454545zm-13.868353-15.14638c.631322-1.645199-1.454455-3.654712-2.879356-2.774075-.43876.271169-.797746 1.366476-.797746 2.434017 0 2.339795 2.81001 2.599664 3.677102.340058zm-.606017-41.096712c-12.334658-6.483546-9.241641-24.243657 4.51549-25.927962 7.309197-.894876 14.110482 4.627988 15.039024 12.212174 1.277196 10.431922-10.322804 18.568311-19.554514 13.715788zm14.100174-3.957351c1.727144-1.563043 2.520456-4.345012 1.239034-4.345012-.768326 0-4.333847 4.276646-4.377024 5.25-.054132 1.220313 1.184178.863188 3.13799-.904988zm-14.171259-15.845012c0-.825-.675-1.5-1.5-1.5-1.561574 0-1.983967 1.1827-.833333 2.333333 1.150633 1.150634 2.333333.728241 2.333333-.833333z" fill="#5f5f5f"/><path d="m24.071085 102.30236c-12.334658-6.483543-9.241641-24.243654 4.51549-25.927959 7.309197-.894876 14.110482 4.627988 15.039024 12.212174 1.277196 10.431922-10.322804 18.568315-19.554514 13.715785zm13.834924-3.05236c2.989932-2.799027 5.003016-7.25 3.279026-7.25-1.197626 0-9.185035 7.928808-9.185035 9.11765 0 1.77444 3.043638.81196 5.906009-1.86765zm-12.906009-16.190983c0-2.692686-1.891736-3.595853-3.714286-1.773303s-.919383 3.714286 1.773303 3.714286c1.254644 0 1.940983-.686339 1.940983-1.940983zm-.928915-40.756654c-5.180647-2.723137-7.571085-6.607394-7.571085-12.302363 0-8.33232 6.871251-14.610214 14.913425-13.625599 5.302144.649149 8.708887 3.424363 11.021643 8.978494 1.913423 4.595126 1.913423 4.699084 0 9.29421-1.064288 2.555908-3.099027 5.513864-4.521643 6.573237-3.757533 2.798103-9.694659 3.262193-13.84234 1.082021zm14.47437-3.756908c2.564066-2.564067 3.045894-4.061947 1.595053-4.958616-.955917-.590789-6.140508 4.816699-6.140508 6.404503 0 1.739624 1.99433 1.105237 4.545455-1.445887zm-14.545455-15.486438c0-2.284371-1.576623-3.553072-2.519515-2.027442-.840031 1.359199.138409 3.968425 1.48813 3.968425.567262 0 1.031385-.873442 1.031385-1.940983z" fill="#4f4f4f"/><path d="m24.415186 102.63083c-9.15591-4.141542-10.954044-16.633846-3.318998-23.058313 8.0613-6.783137 20.392398-2.442584 22.324867 7.858364.839414 4.47446-2.12076 11.671027-5.789417 14.074819-3.500373 2.29354-9.503577 2.80459-13.216452 1.12513zm14.184814-4.03083c2.186638-2.186638 3.4-4.362969 3.4-6.098367 0-2.603638-.189365-2.510607-5.394118 2.65-2.966764 2.941602-5.190207 5.685867-4.940983 6.098367.98282 1.6267 3.694615.59049 6.935101-2.65zm-13.155773-14.509758c.955925-1.546719-.564021-4.090242-2.444227-4.090242s-3.400152 2.543523-2.444227 4.090242c.309243.500367 1.409146.909758 2.444227.909758s2.134984-.409391 2.444227-.909758zm-1.029041-41.511654c-9.137153-3.978319-10.955236-16.580601-3.318998-23.006071 4.297521-3.616126 8.771431-4.167012 14.230429-1.752237 10.536736 4.660899 10.75558 19.515259.357066 24.236341-4.928487 2.237607-7.09738 2.338072-11.268497.521967zm14.130269-4.033133c1.958894-1.958895 3.474388-6.545455 2.162753-6.545455-.160486 0-2.279179 2.025-4.708208 4.5-3.954222 4.029059-4.180562 4.5-2.162753 4.5 1.239514 0 3.358208-1.104545 4.708208-2.454545zm-13.545455-15.486438c0-2.521198-1.714582-3.540782-3.484364-2.071994-1.820778 1.511112-.828659 4.012977 1.591353 4.012977 1.207158 0 1.893011-.703233 1.893011-1.940983z" fill="#404040"/><path d="m25.5 102.79377c-12.503483-4.369271-12.133053-22.126961.540784-25.924135 3.256253-.975597 4.641983-.8806 8.467836.580507 4.806645 1.835674 6.970977 4.248523 8.456192 9.427163.651438 2.271434.565303 3.122695-.315973 3.122695-1.496111 0-11.648839 9.567641-11.648839 10.97753 0 .56236.476558 1.02247 1.059017 1.02247s.780902.45.440983 1c-.762814 1.23426-3.072506 1.16621-7-.20623zm.302469-20.174122c-.400085-2.803722-5.104848-3.003587-5.637167-.239475-.437773 2.27317 1.354231 3.558233 3.997865 2.866907 1.295341-.338739 1.841077-1.213432 1.639302-2.627432zm15.283129 13.880352c.10413-1.894223 1.770759-5.083849 1.828804-3.5.030235.825-.381246 2.175-.914402 3s-.944637 1.05-.914402.5zm-16.878747-54.492388c-3.371098-1.529988-4.723253-2.920787-6.295754-6.475687-5.127237-11.59097 5.059782-22.488087 16.823004-17.995671 5.450537 2.081579 8.25696 6.262753 8.262161 12.309454.004898 5.693766-2.497403 9.734386-7.540142 12.175534-5.022105 2.431159-5.864792 2.430138-11.249269-.01363zm14.518927-3.360325c1.224177-1.181008 2.51899-3.722287 2.877361-5.647287l.651584-3.5-5.581173 5.420225c-3.069646 2.981124-5.339088 5.811929-5.043205 6.290678.783565 1.267834 4.525227-.084047 7.095433-2.563616zm-13.963388-13.897287c.615018-.763216.668945-2.143254.138479-3.543765-.731459-1.931164-1.187497-2.123204-2.884835-1.214816-2.279092 1.219733-2.587508 3.037107-.816034 4.808581 1.523195 1.523195 2.303498 1.512243 3.56239-.05z" fill="#2d2d2d"/><path d="m19.607038 98.118275c-3.295561-3.641553-3.914525-8.634724-1.692947-13.656969 1.618221-3.658255 2.886653-4.927974 6.53533-6.541957 3.781376-1.672683 5.16922-1.829854 8.422497-.953838 5.45248 1.4682 6.516331 3.108523 5.821427 8.975898-.731613 6.177326-1.917424 8.057529-7.182506 11.388469-4.949174 3.131082-9.510315 3.433172-11.903801.788397zm6.392962-15.059258c0-1.617541-.4407-3.213351-.979333-3.546244-1.794703-1.109188-5.020667 1.47536-5.020667 4.022411 0 2.072018.478086 2.464816 3 2.464816 2.653289 0 3-.339891 3-2.940983zm-4.440915-43.141283c-5.381469-4.724993-6.374325-11.241937-2.680444-17.594005.942268-1.620344 1.063933-1.530052 1.09095.80964.020327 1.760312.681291 2.803578 1.993641 3.146765 2.469943.645905 4.291179-1.465383 3.860297-4.475092-.255409-1.784028-.894348-2.251413-2.826764-2.067779-2.213631.210358-2.289954.114994-.673036-.840951 3.511918-2.076295 7.637949-2.745678 11.074816-1.796714 3.426461.946092 9.616334 6.877839 9.5849 9.185198-.009105.668362-2.934105 4.127904-6.5 7.68787-3.565895 3.559967-6.483445 7.047467-6.483445 7.75 0 2.35504-4.89513 1.308308-8.440915-1.804932z" fill="#0e0e0e"/></g></svg>