<svg height="128" viewBox="0 0 1199.7107 546.13333" width="281.18219" xmlns="http://www.w3.org/2000/svg" xmlns:xlink="http://www.w3.org/1999/xlink"><filter id="a" color-interpolation-filters="sRGB" height="1.254809" width="1.22733" x="-.113665" y="-.127404"><feGaussianBlur stdDeviation="2.63027069462"/></filter><linearGradient id="b" gradientUnits="userSpaceOnUse" x1="139.91209" x2="154.45309" y1="98.640602" y2="98.640602"><stop offset="0" stop-color="#bbb"/><stop offset="1" stop-color="#888"/></linearGradient><filter id="c" color-interpolation-filters="sRGB" height="1.254809" width="1.22733" x="-.113665" y="-.127404"><feGaussianBlur stdDeviation="2.63027069061"/></filter><linearGradient id="d" gradientTransform="matrix(2.1999942 0 0 2.2275492 3703.4922 1890.748)" gradientUnits="userSpaceOnUse" x1="111.7876" x2="111.7876" y1="230.2852" y2="142.84979"><stop offset="0" stop-color="#fff"/><stop offset=".1019" stop-color="#fafafa"/><stop offset=".2256" stop-color="#ebebeb"/><stop offset=".3606" stop-color="#d2d2d2"/><stop offset=".5037" stop-color="#b0b0b0"/><stop offset="1" stop-color="#fff"/></linearGradient><radialGradient id="e" cx="223.2383" cy="994.02441" gradientTransform="matrix(1.358 -.622 .5218 1.1393 -474.15479 -646.64117)" gradientUnits="userSpaceOnUse" r="45.424"><stop offset="0" stop-color="#fff"/><stop offset="1" stop-color="#ccc"/></radialGradient><linearGradient id="f" gradientTransform="matrix(2.1999942 0 0 2.2275492 3703.4922 1890.748)" gradientUnits="userSpaceOnUse" x1="131.50101" x2="141.1622" y1="96.0942" y2="105.7555"><stop offset="0" stop-color="#fff"/><stop offset="1" stop-color="#a3a3a3"/></linearGradient><linearGradient id="g" gradientTransform="matrix(2.1999942 0 0 2.2275492 3703.4922 1890.748)" gradientUnits="userSpaceOnUse" x1="139.91209" x2="154.45309" xlink:href="#b" y1="98.640602" y2="98.640602"/><linearGradient id="h" gradientTransform="matrix(2.1911257 0 0 2.2062326 4428.6439 1426.3208)" gradientUnits="userSpaceOnUse" x1="128.33372" x2="111.7876" y1="234.18401" y2="142.84979"><stop offset="0" stop-color="#fff"/><stop offset=".1019" stop-color="#fafafa"/><stop offset=".2256" stop-color="#ebebeb"/><stop offset=".3606" stop-color="#d2d2d2"/><stop offset=".3920839429" stop-color="#b0b0b0"/><stop offset=".5634457469" stop-color="#848484"/><stop offset=".8081" stop-color="#4e4e4e"/><stop offset=".9646" stop-color="#0f0f0f"/><stop offset="1"/></linearGradient><radialGradient id="i" cx="223.2383" cy="994.02441" gradientTransform="matrix(1.358 -.622 .5218 1.1393 -441.83173 -874.15512)" gradientUnits="userSpaceOnUse" r="45.424"><stop offset="0" stop-color="#9b9b9b"/><stop offset="1"/></radialGradient><linearGradient id="j" gradientTransform="matrix(2.1911257 0 0 2.2062326 4428.6439 1426.3208)" gradientUnits="userSpaceOnUse" x1="131.50101" x2="141.1622" y1="96.0942" y2="105.7555"><stop offset="0" stop-color="#fff"/><stop offset="1" stop-color="#4c4c4c"/></linearGradient><linearGradient id="k" gradientTransform="matrix(2.1911257 0 0 2.2062326 4428.6439 1426.3208)" gradientUnits="userSpaceOnUse" x1="139.91209" x2="154.45309" xlink:href="#b" y1="98.640602" y2="98.640602"/><g transform="translate(-3252.8894 -1945.5626)"><g transform="translate(230.10932 9.204373)"><g transform="matrix(1.2234871 0 0 1.1527691 -882.64527 -337.53187)"><path d="m3837.8305 2214.872c0 62.4114 49.964 112.9924 111.5947 112.9924 61.6328 0 111.5925-50.581 111.5925-112.9924 0-62.3982-49.9597-112.988-111.5925-112.988-61.6307 0-111.5947 50.5898-111.5947 112.988z" fill="#ececec"/><path d="m3844.206 2214.872c0 58.7471 47.2053 106.5392 105.217 106.5392 58.0204 0 105.2169-47.7921 105.2169-106.5392 0-58.7427-47.1965-106.5304-105.2169-106.5304-58.0117 0-105.217 47.7877-105.217 106.5304z" fill="url(#d)" opacity=".6"/><path d="m338.17921 378.57183c5.498 12.01 21.556 16.426 35.869 9.871 14.314-6.555 21.457-21.602 15.958-33.607-5.501-12.006-21.558-16.43-35.872-9.873-14.313 6.554-21.456 21.601-15.955 33.609z" fill="url(#e)" filter="url(#a)" transform="matrix(2.1999942 0 0 2.2275492 3122.9534 1373.169)"/><path d="m4008.4312 2094.1833c-23.5839 23.8816-25.3593 43.4551-16.6627 52.2606 8.6921 8.801 28.0279 7.0078 51.6096-16.867-2.4178-20.8321-5.1568-30.1677-34.9469-35.3936z" fill="#d9d9d9"/><path d="m3990.2131 2133.5976c0 4.5241 1.3882 8.1216 3.8104 10.563 7.2005 7.2953 24.5915 5.3127 45.9842-15.8022-2.277-18.6914-5.2162-25.922-30.4743-30.6422-13.7896 14.3521-19.3203 26.9311-19.3203 35.8814z" fill="url(#f)"/><path d="m4009.8194 2092.7822c-5.0578 5.1211 1.452 16.3012 10.1486 25.1112 8.6922 8.8055 19.7405 15.3968 24.7939 10.2712 5.071-5.13-1.4432-16.3057-10.1442-25.1112-8.6921-8.801-19.7361-15.3968-24.7983-10.2712z" fill="#d9d9d9"/><path d="m4012.0766 2095.0677c-2.8006 2.8312 1.7446 12.0332 10.1442 20.5447 8.404 8.5092 17.4877 13.1091 20.2861 10.2712 2.805-2.8401-1.7314-12.0332-10.1441-20.5447-8.4018-8.5048-17.4812-13.1091-20.2862-10.2712z" fill="url(#g)"/></g><path d="m3676.3574 1936.3583h546.13336v546.13336h-546.13336z" fill="none"/></g><path d="m4393.5314 2055.2741c1.07-.51-2.3354-11.3998-2.4637-12.6466-9.1872 3.2846-65.453 19.5005-74.5597 23.2188-24.9754 10.1975-45.533 29.7405-48.0508 35.309.8299 1.1088 2.5776 2.6923 3.3586 3.8591l7.7359 4.5327c2.5282-5.2521 20.9401-19.7965 41.2445-30.2962 10.1289-5.2378 65.3284-20.4467 72.7352-23.9768z" fill="#784421"/></g><g transform="translate(-4634.8227 -1451.5255)"><g transform="translate(234.30508 -17.355932)"><path d="m4400.5176 1468.8815h546.13336v546.13336h-546.13336z" fill="none"/><g transform="matrix(1.2284391 0 0 1.1639071 -1067.6294 -285.51774)"><path d="m4562.4406 1747.3431c0 61.8142 49.7627 111.9111 111.1449 111.9111 61.3844 0 111.1426-50.0969 111.1426-111.9111 0-61.801-49.7582-111.9068-111.1426-111.9068-61.3822 0-111.1449 50.1058-111.1449 111.9068z"/><path d="m4568.7905 1747.3431c0 58.1849 47.015 105.5197 104.7928 105.5197 57.7865 0 104.7928-47.3348 104.7928-105.5197 0-58.1806-47.0063-105.5109-104.7928-105.5109-57.7778 0-104.7928 47.3303-104.7928 105.5109z" fill="url(#h)" opacity=".6"/><path d="m370.50227 151.05788c5.498 12.01 21.556 16.426 35.869 9.871 14.314-6.555 21.457-21.602 15.958-33.607-5.501-12.006-21.558-16.43-35.872-9.873-14.313 6.554-21.456 21.601-15.955 33.609z" fill="url(#i)" filter="url(#c)" transform="matrix(2.1911257 0 0 2.2062326 3778.7975 1407.0418)"/><path d="m4732.3537 1627.8094c-23.4889 23.653-25.2571 43.0392-16.5956 51.7604 8.6571 8.7168 27.9149 6.9408 51.4016-16.7056-2.4081-20.6327-5.136-29.879-34.806-35.0548z"/><path d="m4714.2089 1666.8465c0 4.4808 1.3826 8.0439 3.7951 10.4619 7.1715 7.2254 24.4924 5.2619 45.7989-15.651-2.2678-18.5125-5.1952-25.6739-30.3515-30.3489-13.734 14.2147-19.2425 26.6733-19.2425 35.538z" fill="url(#j)"/><path d="m4733.7363 1626.4217c-5.0374 5.0721 1.4461 16.1452 10.1076 24.8708 8.6572 8.7213 19.661 15.2495 24.694 10.173 5.0506-5.081-1.4374-16.1497-10.1033-24.8709-8.6571-8.7168-19.6566-15.2495-24.6983-10.1729z"/><path d="m4735.9844 1628.6853c-2.7893 2.8041 1.7375 11.918 10.1032 20.348 8.3701 8.4279 17.4173 12.9837 20.2044 10.173 2.7937-2.813-1.7244-11.9181-10.1033-20.3481-8.3679-8.4234-17.4107-12.9837-20.2043-10.1729z" fill="url(#k)"/></g></g><path d="m5123.1763 1559.3662c1.07-.51-2.3354-11.3998-2.4637-12.6466-9.1872 3.2847-65.453 19.5005-74.5597 23.2188-24.9754 10.1975-45.5329 29.7405-48.0508 35.309.8299 1.1089 2.5776 2.6924 3.3586 3.8591l7.736 4.5328c2.5281-5.2522 20.94-19.7965 41.2444-30.2963 10.1289-5.2378 65.3284-20.4467 72.7352-23.9768z" fill="#784421"/></g><g transform="matrix(.49999997 0 0 .49999997 -1140.4267 -150.01622)"><g transform="translate(230.10932 9.204373)"><g transform="matrix(1.2234871 0 0 1.1527691 -882.64527 -337.53187)"><path d="m3837.8305 2214.872c0 62.4114 49.964 112.9924 111.5947 112.9924 61.6328 0 111.5925-50.581 111.5925-112.9924 0-62.3982-49.9597-112.988-111.5925-112.988-61.6307 0-111.5947 50.5898-111.5947 112.988z" fill="#ececec"/><path d="m3844.206 2214.872c0 58.7471 47.2053 106.5392 105.217 106.5392 58.0204 0 105.2169-47.7921 105.2169-106.5392 0-58.7427-47.1965-106.5304-105.2169-106.5304-58.0117 0-105.217 47.7877-105.217 106.5304z" fill="url(#d)" opacity=".6"/><path d="m338.17921 378.57183c5.498 12.01 21.556 16.426 35.869 9.871 14.314-6.555 21.457-21.602 15.958-33.607-5.501-12.006-21.558-16.43-35.872-9.873-14.313 6.554-21.456 21.601-15.955 33.609z" fill="url(#e)" filter="url(#a)" transform="matrix(2.1999942 0 0 2.2275492 3122.9534 1373.169)"/><path d="m4008.4312 2094.1833c-23.5839 23.8816-25.3593 43.4551-16.6627 52.2606 8.6921 8.801 28.0279 7.0078 51.6096-16.867-2.4178-20.8321-5.1568-30.1677-34.9469-35.3936z" fill="#d9d9d9"/><path d="m3990.2131 2133.5976c0 4.5241 1.3882 8.1216 3.8104 10.563 7.2005 7.2953 24.5915 5.3127 45.9842-15.8022-2.277-18.6914-5.2162-25.922-30.4743-30.6422-13.7896 14.3521-19.3203 26.9311-19.3203 35.8814z" fill="url(#f)"/><path d="m4009.8194 2092.7822c-5.0578 5.1211 1.452 16.3012 10.1486 25.1112 8.6922 8.8055 19.7405 15.3968 24.7939 10.2712 5.071-5.13-1.4432-16.3057-10.1442-25.1112-8.6921-8.801-19.7361-15.3968-24.7983-10.2712z" fill="#d9d9d9"/><path d="m4012.0766 2095.0677c-2.8006 2.8312 1.7446 12.0332 10.1442 20.5447 8.404 8.5092 17.4877 13.1091 20.2861 10.2712 2.805-2.8401-1.7314-12.0332-10.1441-20.5447-8.4018-8.5048-17.4812-13.1091-20.2862-10.2712z" fill="url(#g)"/></g><path d="m3676.3574 1936.3583h546.13336v546.13336h-546.13336z" fill="none"/></g><path d="m4393.5314 2055.2741c1.07-.51-2.3354-11.3998-2.4637-12.6466-9.1872 3.2846-65.453 19.5005-74.5597 23.2188-24.9754 10.1975-45.533 29.7405-48.0508 35.309.8299 1.1088 2.5776 2.6923 3.3586 3.8591l7.7359 4.5327c2.5282-5.2521 20.9401-19.7965 41.2445-30.2962 10.1289-5.2378 65.3284-20.4467 72.7352-23.9768z" fill="#784421"/></g><g transform="matrix(.49999997 0 0 .49999997 -2182.7269 97.002282)"><g transform="translate(234.30508 -17.355932)"><path d="m4400.5176 1468.8815h546.13336v546.13336h-546.13336z" fill="none"/><g transform="matrix(1.2284391 0 0 1.1639071 -1067.6294 -285.51774)"><path d="m4562.4406 1747.3431c0 61.8142 49.7627 111.9111 111.1449 111.9111 61.3844 0 111.1426-50.0969 111.1426-111.9111 0-61.801-49.7582-111.9068-111.1426-111.9068-61.3822 0-111.1449 50.1058-111.1449 111.9068z"/><path d="m4568.7905 1747.3431c0 58.1849 47.015 105.5197 104.7928 105.5197 57.7865 0 104.7928-47.3348 104.7928-105.5197 0-58.1806-47.0063-105.5109-104.7928-105.5109-57.7778 0-104.7928 47.3303-104.7928 105.5109z" fill="url(#h)" opacity=".6"/><path d="m370.50227 151.05788c5.498 12.01 21.556 16.426 35.869 9.871 14.314-6.555 21.457-21.602 15.958-33.607-5.501-12.006-21.558-16.43-35.872-9.873-14.313 6.554-21.456 21.601-15.955 33.609z" fill="url(#i)" filter="url(#c)" transform="matrix(2.1911257 0 0 2.2062326 3778.7975 1407.0418)"/><path d="m4732.3537 1627.8094c-23.4889 23.653-25.2571 43.0392-16.5956 51.7604 8.6571 8.7168 27.9149 6.9408 51.4016-16.7056-2.4081-20.6327-5.136-29.879-34.806-35.0548z"/><path d="m4714.2089 1666.8465c0 4.4808 1.3826 8.0439 3.7951 10.4619 7.1715 7.2254 24.4924 5.2619 45.7989-15.651-2.2678-18.5125-5.1952-25.6739-30.3515-30.3489-13.734 14.2147-19.2425 26.6733-19.2425 35.538z" fill="url(#j)"/><path d="m4733.7363 1626.4217c-5.0374 5.0721 1.4461 16.1452 10.1076 24.8708 8.6572 8.7213 19.661 15.2495 24.694 10.173 5.0506-5.081-1.4374-16.1497-10.1033-24.8709-8.6571-8.7168-19.6566-15.2495-24.6983-10.1729z"/><path d="m4735.9844 1628.6853c-2.7893 2.8041 1.7375 11.918 10.1032 20.348 8.3701 8.4279 17.4173 12.9837 20.2044 10.173 2.7937-2.813-1.7244-11.9181-10.1033-20.3481-8.3679-8.4234-17.4107-12.9837-20.2043-10.1729z" fill="url(#k)"/></g></g><path d="m5123.1763 1559.3662c1.07-.51-2.3354-11.3998-2.4637-12.6466-9.1872 3.2847-65.453 19.5005-74.5597 23.2188-24.9754 10.1975-45.5329 29.7405-48.0508 35.309.8299 1.1089 2.5776 2.6924 3.3586 3.8591l7.736 4.5328c2.5281-5.2522 20.94-19.7965 41.2444-30.2963 10.1289-5.2378 65.3284-20.4467 72.7352-23.9768z" fill="#784421"/></g></svg>