<svg height="509.245605" width="345.514557" xmlns="http://www.w3.org/2000/svg" xmlns:xlink="http://www.w3.org/1999/xlink"><linearGradient id="a"><stop offset="0" stop-color="#c17d11"/><stop offset=".49965063" stop-color="#8f5902"/><stop offset="1" stop-color="#c17d11"/></linearGradient><linearGradient id="b"><stop offset="0" stop-color="#d3d7cf"/><stop offset=".31745353" stop-color="#a1a39d"/><stop offset=".560866" stop-color="#888a85"/><stop offset="1" stop-color="#babdb6"/></linearGradient><linearGradient id="c"><stop offset="0" stop-color="#fff"/><stop offset="1" stop-color="#fff" stop-opacity="0"/></linearGradient><linearGradient id="d"><stop offset="0" stop-color="#e9b96e"/><stop offset="1" stop-color="#3c3232"/></linearGradient><linearGradient id="e" gradientTransform="matrix(.42943 0 0 1.0120889 981.62141 1377.9604)" gradientUnits="userSpaceOnUse" x1="1218.023926" x2="1370.638306" xlink:href="#c" y1="143.968185" y2="143.968185"/><linearGradient id="f" gradientTransform="matrix(.49218516 0 0 .34057876 1953.3747 1528.9321)" gradientUnits="userSpaceOnUse" x1="-387.555908" x2="71.249008" xlink:href="#b" y1="516.425842" y2="603.098267"/><linearGradient id="g" gradientTransform="matrix(.49218516 0 0 -.68898011 1953.8223 2154.3594)" gradientUnits="userSpaceOnUse" x1="-212.600372" x2="-212.600372" xlink:href="#d" y1="609.319092" y2="481.612549"/><linearGradient id="h" gradientTransform="matrix(.58685351 0 0 .77157377 1281.9512 1463.9498)" gradientUnits="userSpaceOnUse" x1="815.937256" x2="1154.338257" xlink:href="#a" y1="153.035706" y2="189.565308"/><filter id="i" color-interpolation-filters="sRGB" height="1.086493" width="1.203848" x="-.101924" y="-.043247"><feGaussianBlur stdDeviation="2.7832615"/></filter><linearGradient id="j" gradientTransform="matrix(.49218516 0 0 .34057876 2959.709693 2026.441698)" gradientUnits="userSpaceOnUse" x1="-387.555908" x2="71.249008" xlink:href="#b" y1="516.425842" y2="603.098267"/><linearGradient id="k" gradientTransform="matrix(.49218516 0 0 -.68898011 2960.319401 2651.868998)" gradientUnits="userSpaceOnUse" x1="-212.600372" x2="-212.600372" xlink:href="#d" y1="609.319092" y2="481.612549"/><linearGradient id="l" gradientTransform="matrix(.58685351 0 0 .77157377 2288.286193 1961.643046)" gradientUnits="userSpaceOnUse" x1="815.937256" x2="1154.338257" xlink:href="#a" y1="153.035706" y2="189.565308"/><linearGradient id="m" gradientTransform="matrix(.577361 0 0 .94918981 874.116948 515.493547)" gradientUnits="userSpaceOnUse" x1="791.13208" x2="1112.277344" y1="186.245819" y2="182.92627"><stop offset="0" stop-color="#808080"/><stop offset=".5"/><stop offset="1" stop-color="#808080"/></linearGradient><linearGradient id="n" gradientTransform="matrix(.484326 0 0 -.49769992 1535.142048 1140.876726)" gradientUnits="userSpaceOnUse" x1="-212.600372" x2="-212.600372" y1="609.319092" y2="481.612549"><stop offset="0" stop-color="#e9b96e"/><stop offset="1"/></linearGradient><linearGradient id="o" gradientTransform="matrix(.42943 0 0 1.27616787 874.116948 515.493547)" gradientUnits="userSpaceOnUse" x1="1218.023926" x2="1370.638306" xlink:href="#c" y1="143.968185" y2="143.968185"/><linearGradient id="p" gradientTransform="matrix(.484326 0 0 .33111838 1535.142048 636.221056)" gradientUnits="userSpaceOnUse" x1="-338.580353" x2="-89.848923" y1="545.68396" y2="544.236633"><stop offset="0" stop-color="#fff"/><stop offset=".5" stop-color="#808080"/><stop offset="1" stop-color="#fff"/></linearGradient><linearGradient id="q" gradientTransform="matrix(.58685351 0 0 .77157377 1722.38365 1514.100361)" gradientUnits="userSpaceOnUse" x1="815.937256" x2="1154.338257" xlink:href="#a" y1="153.035706" y2="189.565308"/><linearGradient id="r" gradientTransform="matrix(.49218516 0 0 -.68898011 2393.976467 2204.326313)" gradientUnits="userSpaceOnUse" x1="-212.600372" x2="-212.600372" xlink:href="#d" y1="609.319092" y2="481.612549"/><linearGradient id="s" gradientTransform="matrix(.49218516 0 0 .34057876 2393.528867 1578.899013)" gradientUnits="userSpaceOnUse" x1="-387.555908" x2="71.249008" xlink:href="#b" y1="516.425842" y2="603.098267"/><linearGradient id="t" gradientTransform="matrix(.21093659 0 0 .14509076 2297.979007 287.763942)" gradientUnits="userSpaceOnUse" x1="-387.555908" x2="71.249008" xlink:href="#b" y1="516.425842" y2="603.098267"/><linearGradient id="u" gradientTransform="matrix(.21093659 0 0 -.29351404 2298.240311 554.2037)" gradientUnits="userSpaceOnUse" x1="-212.600372" x2="-212.600372" xlink:href="#d" y1="609.319092" y2="481.612549"/><linearGradient id="v" gradientTransform="matrix(.25150875 0 0 .32869996 2010.225958 260.158915)" gradientUnits="userSpaceOnUse" x1="815.937256" x2="1154.338257" xlink:href="#a" y1="153.035706" y2="189.565308"/><g transform="translate(-1231.209506 -85.780124)"><path d="m971.62447019 462.07192334c-4.70273259-2.26432385-7.16228102-5.84901744-7.16228102-10.43873848 0-1.25318684.87248379-5.21339549 1.93885287-8.80046368 1.50839497-5.07396147 1.8796898-7.33986315 1.67237274-10.20599231-.33950381-4.69359225-1.6845985-6.56478368-6.44168424-8.96117159-3.53279087-1.77964784-4.07890407-1.86820103-11.4941034-1.86378853-9.55578495.00568628-11.62795948.62994127-28.32483861 8.53302731-18.63647816 8.8211509-26.27758048 10.993809-40.57208723 11.53619863-10.29134946.39049414-16.75738977-.38958217-24.83553446-2.99620962-10.82931775-3.49436633-15.57017613-7.65214886-15.57017613-13.65520777 0-4.75245824 1.95780592-6.65317799 11.97777849-11.62852761 7.33156719-3.6404401 8.82840081-4.63741704 10.43549-6.95063413 1.66718974-2.39972482 1.87414564-3.19763021 1.85770934-7.16228102-.0215726-5.20359302-1.30909624-8.16864021-5.06688802-11.66857191-3.34690125-3.11723652-5.01241976-4.03998402-9.92583541-5.49921224-3.7089984-1.10153008-6.42266101-1.30705098-19.86597417-1.50456166-13.66767025-.20080696-16.00810305-.38286139-19.15418569-1.48993995-6.7410962-2.37213192-10.70657311-6.03727704-12.96623064-11.98421224-4.60731019-12.12545479 4.67597575-26.65305969 21.22129304-33.20963748 7.42983877-2.94429626 13.46117-3.80159113 26.78070294-3.80661554 18.22023071-.00687305 45.4649143.49552886 45.4649143.83838962 0 .16598128-.88908864 6.19508611-1.97575254 13.39801074-2.17178691 14.39563551-2.71465868 26.91971606-1.27600738 29.43755776 1.18974787 2.08222576 3.40676101 2.32583394 10.05892245 1.10528699 6.39410306-1.17319808 6.22328628-1.17724914 25.89020734.61400877 9.70461762.88389398 14.74631398.99107619 28.02631703.59581583 8.90614075-.26507858 28.98563663-.54276706 44.62110197-.61708551s28.73015244-.32179151 29.09930466-.54994013c1.16222181-.71829258 2.09930895-5.52991525 1.70802365-8.77011847-.20682713-1.71271937-1.37795708-7.1778512-2.60251101-12.14473738-2.26233983-9.1762267-2.27596411-9.31316281-2.98018957-29.9535468l-.20387615-5.97547556 4.10451355.89176522c5.7847512 1.25682127 17.70810012 1.07371649 24.65714604-.37865548 3.08289487-.64433451 11.3506584-2.87375933 18.37280783-4.95427739 7.02214943-2.08051805 15.11798185-4.2512206 17.99073871-4.82378345 6.75064796-1.34545678 14.32707199-1.00356936 17.82882881.80452893 8.86405204 4.57686761 10.77263172 13.35987873 6.26252994 28.81926839-3.47120758 11.8983458-5.21304526 16.32270625-7.7159616 19.59895325-3.29526784 4.3134128-6.65670252 5.82720001-16.14189735 7.26933584-10.1028555 1.5360454-11.69940779 1.9751257-15.15861217 4.16888813-11.295213 7.16321191-11.50012453 26.25260064-.40281949 37.52633127 5.93815679 6.03256195 14.19012465 9.08191902 31.90298416 11.7891383 13.93179416 2.12932428 17.89492407 3.10638298 23.20650359 5.72126498 5.12254362 2.52181993 9.73381486 7.47613154 11.03422173 11.85507639 1.18113807 3.97732323 1.17877076 4.55744064-.0331116 8.11411972-3.93271215 11.54187525-19.14866252 16.29036729-52.26901804 16.31176564-14.46239529.00934384-22.43766184-.57977164-34.01795807-2.51283208-31.31482505-5.22727989-40.88652157-5.0587488-58.38341261 1.02797032-10.98702803 3.82210494-17.36403172 4.5757686-21.57231859 2.54951596z" fill="#c8c8c8" opacity=".99"/><g transform="translate(-966.596533 -518.175461)"><path d="m1431.38434782 594.70636042c-31.09715 9.20130784-16.84836 147.75344145-18.26351 166.99968144l-42.14222 33.59499375 122.34626.86767711-41.613-34.72242926c-1.41496-19.2435437 14.62113-160.03500086-17.96937-166.7609672z" fill="url(#m)" stroke="#000" stroke-width=".232495"/><path d="m1371.15276782 901.12413178 4.2188-63.4475463 113.68811-.05791529 4.13588 63.55952426z" fill="url(#n)" fill-rule="evenodd"/><path d="m1429.53072782 601.86069602c-16.6578 8.89433161-9.02516 142.8241095-9.78321 161.42826689l-22.57432 32.47420578 65.53721.83873043-22.29083-33.56402485c-.75795-18.60155426 7.8321-154.69594893-9.62565-161.19752642z" fill="url(#o)"/><path d="m1371.15276782 795.72783204 4.2188 42.21148761 113.68811.03853164 4.13588-42.28598614-122.04279.03596688z" fill="url(#p)" fill-rule="evenodd" stroke="#000" stroke-width=".400462"/></g><g transform="translate(-891.351555 -1451.529014)"><path d="m1848.3808 1528.3399c-31.6084 7.4796-17.1254 120.1054-18.5638 135.7501l-42.8351 27.3086 124.3578.7053-42.2972-28.225c-1.4382-15.6427 14.8615-130.0887-18.2648-135.556l-2.3969.018z" fill="url(#h)" stroke="#000" stroke-width=".211332"/><path d="m1792.0811 1735.7358c-2.5127 10.6142-6.2755 20.9978-7.2189 31.9368-.8455 7.8829-1.966 15.7326-2.8834 23.6072-1.1989 8.7903-3.3017 17.5478-2.9385 26.4792.1985 2.1623.024 4.4729 1.0049 6.466 1.5103 2.1314 4.5018 2.2472 6.7471 1.3958 6.8919-2.0228 14.2207-1.7628 21.22-.4963 12.4457 1.0594 24.9511 2.4036 37.4475 1.4049 13.6308-.7209 27.2787-1.119 40.9271-1.2612 8.9709-.073 18.0225-.6443 26.9111.9175 2.197.1792 4.7491-1.0317 5.198-3.3944 1.2004-3.8914-.043-7.9398-.6895-11.8141-1.8742-8.4196-4.857-16.7467-4.6355-25.4923-.01-8.5067.5096-17.1143-1.2369-25.5004-.9989-5.7419-2.2762-11.4518-4.0596-16.9974-.7964-2.0532-1.4627-6.926-1.4627-6.926s-7.9432-.021-11.0327-.1039c-34.1045-.1099-68.2088-.3029-102.3135-.3179-.3281.032-.6563.064-.9845.097v-.0002zm94.2869 88.2642c.1346.1541-.1385.0004 0 0zm-65.9913 1.6071c.2559.3732-.2489-.1433 0 0zm-11.5595 1.0286c.081.044.015-.1855 0 0zm5.1446.1607c.059.21.1744-.1527 0 0zm32.7415.032c.091.3812.1286-.1405 0 0zm-1.1114.9963c.1823.1515.067-.134 0 0zm-6.2562.2894c-.1006.4226.2718-.6306 0 0z" fill="url(#g)" fill-rule="evenodd"/><path d="m1537.0352 1446.4554c-16.6578 7.0539-9.0252 113.2694-9.7832 128.0238l-22.5743 25.7543 65.5372.6651-22.2909-26.6185c-.7579-14.7523 7.8321-122.6845-9.6256-127.8407l-1.2632.017z" fill="url(#e)" filter="url(#i)" opacity=".5" transform="matrix(.97075537 0 0 1.028571 350.92048 48.527359)"/><path d="m1786.9819 1691.3986 4.0298 45.0151 115.533.039 4.795-44.3489-62.1788-.3526-62.179-.3527z" fill="url(#f)" fill-rule="evenodd" stroke="#000" stroke-width=".409"/></g><path d="m1396.4646855 477.12066029c-3.89805071 1.46831818-8.13934721 1.91400843-12.29357859 1.60885398-4.15423138-.30515446-8.23008725-1.34498913-12.14661127-2.76329699-7.83304805-2.83661571-15.03240535-7.16263768-22.64822904-10.53936095-19.19067709-8.5088112-41.75231594-10.68537515-61.25001164-2.90579819-3.22704498 1.28759035-6.4217052 2.88464855-8.82168106 5.39698293-1.19998793 1.25616719-2.18369808 2.73380461-2.7740394 4.36764186-.59034131 1.63383726-.77710749 3.42703742-.42617726 5.12844126.49367246 2.39345649 2.02116231 4.48255993 3.90572268 6.03844512 1.88456037 1.55588518 4.11649064 2.62983857 6.37194116 3.57073677s4.56494197 1.76714392 6.72969918 2.90123947 4.20599087 2.60686179 5.62308559 4.59788892c1.13381905 1.593023 1.83390407 3.48282806 2.07170421 5.42363177s.01827996 3.92965817-.57929986 5.79142246c-1.19515965 3.72352859-3.87959629 6.86622362-7.13429686 9.03417103-4.18171372 2.78542841-9.22716179 4.02889775-14.23426271 4.44636813-5.00710092.41747039-10.04126346.05832757-15.06326636-.09924136s-10.10772268-.10636416-14.98341474 1.10729478-9.57392701 3.6912027-12.66098271 7.65547164c-1.90147564 2.44179618-3.13549467 5.38211987-3.6524173 8.43347517-.51692263 3.05135531-.32523116 6.20914158.45249516 9.20465822 1.55545264 5.99103329 5.41511118 11.22062919 10.1926329 15.15600708 9.71325041 8.00107526 22.77374997 10.75359311 35.35256878 11.12474829 12.57881881.37115517 25.14212903-1.36828867 37.72438535-1.14187194 20.03839881.36058943 39.69518413 5.70431159 58.44484978 12.78368228 12.85193154 4.85254453 25.82926852 10.62562753 39.56671867 10.58324923 9.83953426-.03035372 19.39454635-3.06391536 28.7426887-6.13467918s18.83693466-6.23979456 28.67143005-6.55611122c9.02741543-.29035774 17.95490666 1.84243892 26.61278978 4.41529664 8.65788313 2.57285771 17.21269673 5.60838637 26.10221109 7.20684548 3.75646573.67546512 7.60475778 1.09083907 11.38823224.58823692s7.52447008-1.98912089 10.22244143-4.68879468c1.94165798-1.94288318 3.27607374-4.44705495 4.01580514-7.092358s.90157841-5.43040756.69192229-8.16918011c-.41931225-5.4775451-2.28657554-10.72155432-3.82881405-15.99420294-1.04266008-3.56467575-1.94821308-7.1873027-3.44416515-10.58674098s-3.64393265-6.61215829-6.69658549-8.72766388c-3.82835654-2.65307264-8.65021529-3.32787402-13.28195257-3.81992886-4.63173728-.49205485-9.43398723-.92348979-13.49359458-3.20706077-3.28858618-1.84986363-5.87415734-4.84546856-7.45550018-8.27127494s-2.18496409-7.2631227-1.9882397-11.03115853c.34513125-6.61060345 3.19619549-13.07027579 7.89005778-17.73791442 6.00149647-5.96796733 14.47702068-8.7348486 22.80673737-10.23498651 8.32971669-1.50013792 16.86820302-1.94162204 25.02035256-4.21693561 5.05778595-1.41165823 10.02716099-3.59334099 13.81349563-7.23169882 1.89316732-1.81917891 3.46567412-3.99071371 4.47586101-6.41414452 1.01018689-2.4234308 1.44630517-5.10214443 1.11999331-7.70733444-.33796403-2.69821803-1.48664819-5.26663616-3.1343291-7.42990864s-3.78238018-3.9309987-6.1283695-5.30611118c-4.69197864-2.75022495-10.12789386-3.91971245-15.49647185-4.78963846-19.30033097-3.12743148-39.07652656-2.8872145-58.43260035-.12569125-9.43681232 1.34634621-18.7941711 3.28803955-28.28461589 4.18108633s-19.22748214.70623585-28.32861865-2.12844037c-6.36906907-1.98373561-12.41190625-5.25195152-19.04088273-5.99822133-3.31448824-.3731349-6.76116327-.07744621-9.8009616 1.2953932s-5.63268088 3.90149552-6.66931153 7.07174139c-.77358385 2.36579055-.65866234 4.94390878-.14890288 7.3802056s1.39859519 4.77364323 2.16718181 7.14106198c.76858661 2.36741874 1.42403172 4.80699837 1.44131299 7.2959938s-.65986927 5.05676056-2.29110203 6.93678092c-1.3093058 1.50899468-3.13543307 2.47845646-5.00502999 3.18269645" fill="#c8c3c3" stroke="#000" stroke-width="2"/><g transform="translate(-1624.162319 -1502.48919)"><path d="m2288.81325039 1578.49046121c-31.6084 7.4796-17.1254 120.1054-18.5638 135.7501l-42.8351 27.3086 124.3578.7053-42.2972-28.225c-1.4382-15.6427 14.8615-130.0887-18.2648-135.556l-2.3969.018z" fill="url(#q)" stroke="#000" stroke-linejoin="round"/><path d="m2232.23526745 1785.70271345c-2.5127 10.6142-6.2755 20.9978-7.2189 31.9368-.8455 7.8829-1.966 15.7326-2.8834 23.6072-1.1989 8.7903-3.3017 17.5478-2.9385 26.4792.1985 2.1623.024 4.4729 1.0049 6.466 1.5103 2.1314 4.5018 2.2472 6.7471 1.3958 6.8919-2.0228 14.2207-1.7628 21.22-.4963 12.4457 1.0594 24.9511 2.4036 37.4475 1.4049 13.6308-.7209 27.2787-1.119 40.9271-1.2612 8.9709-.073 18.0225-.6443 26.9111.9175 2.197.1792 4.7491-1.0317 5.198-3.3944 1.2004-3.8914-.043-7.9398-.6895-11.8141-1.8742-8.4196-4.857-16.7467-4.6355-25.4923-.01-8.5067.5096-17.1143-1.2369-25.5004-.9989-5.7419-2.2762-11.4518-4.0596-16.9974-.7964-2.0532-1.4627-6.926-1.4627-6.926s-7.9432-.021-11.0327-.1039c-34.1045-.1099-68.2088-.3029-102.3135-.3179-.3281.032-.6563.064-.9845.097v-.0002zm94.2869 88.2642c.1346.1541-.1385.0004 0 0zm-65.9913 1.6071c.2559.3732-.2489-.1433 0 0zm-11.5595 1.0286c.081.044.015-.1855 0 0zm5.1446.1607c.059.21.1744-.1527 0 0zm32.7415.032c.091.3812.1286-.1405 0 0zm-1.1114.9963c.1823.1515.067-.134 0 0zm-6.2562.2894c-.1006.4226.2718-.6306 0 0z" fill="url(#r)" fill-rule="evenodd"/><path d="m2528 1719.46875c-5.72417902.55114724-9.62575859 4.1960711-12.28125 8.8125s-4.13802933 10.23222826-5.1875 14.875c-7.24319009 36.81830751-2.67856935 74.50692206-1.875 111.59375-12.93623864 8.45309747-26.04352002 16.64920234-39.0625 25a.48059885.48059885 0 0 0 .25.875l114.3125.59375a.48059885.48059885 0 0 0 .28125-.875c-12.8915943-8.61595675-25.87823898-17.09308164-38.65625-25.875.88345176-37.575048 6.77833132-75.96140463-1.34375-113.21875a.48059885.48059885 0 0 0 0-.03125c-1.1049322-3.95969102-2.59814519-9.15659459-5.09375-13.5s-6.06482381-7.8678995-11.28125-8.25a.48059885.48059885 0 0 0 -.0625 0z" fill="none" stroke="#c17d11" transform="translate(-237.421984 -139.979304)"/><path d="m1537.0352 1446.4554c-16.6578 7.0539-9.0252 113.2694-9.7832 128.0238l-22.5743 25.7543 65.5372.6651-22.2909-26.6185c-.7579-14.7523 7.8321-122.6845-9.6256-127.8407l-1.2632.017z" fill="url(#e)" filter="url(#i)" opacity=".5" transform="matrix(.97075537 0 0 1.028571 792.320262 97.248658)"/><path d="m2227.13606745 1741.36551345 4.0298 45.0151 115.533.039 4.795-44.3489-62.1788-.3526-62.179-.3527z" fill="url(#s)" fill-rule="evenodd" stroke="#000" stroke-width=".409"/><g fill="none" stroke="#c17d11" transform="translate(-237.421984 -139.979304)"><path d="m2528 1719.46875c-5.72417902.55114724-9.62575859 4.1960711-12.28125 8.8125s-4.13802933 10.23222826-5.1875 14.875c-7.24319009 36.81830751-2.67856935 74.50692206-1.875 111.59375-12.93623864 8.45309747-26.04352002 16.64920234-39.0625 25a.48059885.48059885 0 0 0 .25.875l114.3125.59375a.48059885.48059885 0 0 0 .28125-.875c-12.8915943-8.61595675-25.87823898-17.09308164-38.65625-25.875.88345176-37.575048 6.77833132-75.96140463-1.34375-113.21875a.48059885.48059885 0 0 0 0-.03125c-1.1049322-3.95969102-2.59814519-9.15659459-5.09375-13.5s-6.06482381-7.8678995-11.28125-8.25a.48059885.48059885 0 0 0 -.0625 0z"/><path d="m2528 1719.46875c-5.72417902.55114724-9.62575859 4.1960711-12.28125 8.8125s-4.13802933 10.23222826-5.1875 14.875c-7.24319009 36.81830751-2.67856935 74.50692206-1.875 111.59375-12.93623864 8.45309747-26.04352002 16.64920234-39.0625 25a.48059885.48059885 0 0 0 .25.875l114.3125.59375a.48059885.48059885 0 0 0 .28125-.875c-12.8915943-8.61595675-25.87823898-17.09308164-38.65625-25.875.88345176-37.575048 6.77833132-75.96140463-1.34375-113.21875a.48059885.48059885 0 0 0 0-.03125c-1.1049322-3.95969102-2.59814519-9.15659459-5.09375-13.5s-6.06482381-7.8678995-11.28125-8.25a.48059885.48059885 0 0 0 -.0625 0z"/><path d="m2528 1719.46875c-5.72417902.55114724-9.62575859 4.1960711-12.28125 8.8125s-4.13802933 10.23222826-5.1875 14.875c-7.24319009 36.81830751-2.67856935 74.50692206-1.875 111.59375-12.93623864 8.45309747-26.04352002 16.64920234-39.0625 25a.48059885.48059885 0 0 0 .25.875l114.3125.59375a.48059885.48059885 0 0 0 .28125-.875c-12.8915943-8.61595675-25.87823898-17.09308164-38.65625-25.875.88345176-37.575048 6.77833132-75.96140463-1.34375-113.21875a.48059885.48059885 0 0 0 0-.03125c-1.1049322-3.95969102-2.59814519-9.15659459-5.09375-13.5s-6.06482381-7.8678995-11.28125-8.25a.48059885.48059885 0 0 0 -.0625 0z"/></g></g><g transform="translate(-1460.504985 -1939.486021)"><path d="m2854.71579298 2026.03314571c-31.6084 7.4796-17.1254 120.1054-18.5638 135.7501l-42.8351 27.3086 124.3578.7053-42.2972-28.225c-1.4382-15.6427 14.8615-130.0887-18.2648-135.556l-2.3969.018z" fill="url(#l)" stroke="#000" stroke-linejoin="round" stroke-width="1.5"/><path d="m2856.62297762 2027.32179363c-5.4365366.54729939-9.14206016 4.16677615-11.664112 8.75097537s-5.58155818 15.22528926-6.5782925 19.83564741c-5.00177372 36.05342353-1.89011236 69.56559845-.4596072 106.4107454l-39.04202314 25.0881185 113.55428745.6997025-38.92251793-26.72769407c.86118269-19.06964818 3.21424272-41.44710927 3.01518509-64.78154739-.01275401-23.16250821-.24311951-45.42816592-9.129198-61.08354523-2.38626986-4.59045098-5.78598107-7.17044011-10.77372177-8.19240248z" fill="none" stroke="#c17d11" stroke-width="1.505116"/><path d="m2798.57820112 2233.24539795c-2.5127 10.6142-6.2755 20.9978-7.2189 31.9368-.8455 7.8829-1.966 15.7326-2.8834 23.6072-1.1989 8.7903-3.3017 17.5478-2.9385 26.4792.1985 2.1623.024 4.4729 1.0049 6.466 1.5103 2.1314 4.5018 2.2472 6.7471 1.3958 6.8919-2.0228 14.2207-1.7628 21.22-.4963 12.4457 1.0594 24.9511 2.4036 37.4475 1.4049 13.6308-.7209 27.2787-1.119 40.9271-1.2612 8.9709-.073 18.0225-.6443 26.9111.9175 2.197.1792 4.7491-1.0317 5.198-3.3944 1.2004-3.8914-.043-7.9398-.6895-11.8141-1.8742-8.4196-4.857-16.7467-4.6355-25.4923-.01-8.5067.5096-17.1143-1.2369-25.5004-.9989-5.7419-2.2762-11.4518-4.0596-16.9974-.7964-2.0532-1.4627-6.926-1.4627-6.926s-7.9432-.021-11.0327-.1039c-34.1045-.1099-68.2088-.3029-102.3135-.3179-.3281.032-.6563.064-.9845.097v-.0002zm94.2869 88.2642c.1346.1541-.1385.0004 0 0zm-65.9913 1.6071c.2559.3732-.2489-.1433 0 0zm-11.5595 1.0286c.081.044.015-.1855 0 0zm5.1446.1607c.059.21.1744-.1527 0 0zm32.7415.032c.091.3812.1286-.1405 0 0zm-1.1114.9963c.1823.1515.067-.134 0 0zm-6.2562.2894c-.1006.4226.2718-.6306 0 0z" fill="url(#k)" fill-rule="evenodd"/><path d="m1537.0352 1446.4554c-16.6578 7.0539-9.0252 113.2694-9.7832 128.0238l-22.5743 25.7543 65.5372.6651-22.2909-26.6185c-.7579-14.7523 7.8321-122.6845-9.6256-127.8407l-1.2632.017z" fill="url(#e)" filter="url(#i)" opacity=".5" transform="matrix(.97075537 0 0 1.028571 1359.011541 544.791343)"/><g stroke="#000"><path d="m2854.71579298 2026.03314571c-31.6084 7.4796-17.1254 120.1054-18.5638 135.7501l-42.8351 27.3086 124.3578.7053-42.2972-28.225c-1.4382-15.6427 14.8615-130.0887-18.2648-135.556l-2.3969.018z" fill="none" stroke-linejoin="round" stroke-width="1.5"/><path d="m2793.31689298 2188.90819795 4.0298 45.0151 115.533.039 4.795-44.3489-62.1788-.3526-62.179-.3527z" fill="url(#j)" fill-rule="evenodd" stroke-width=".409"/></g></g><g transform="translate(-584.83936 -52.84693)"><path d="m2252.98160241 287.58989365c-13.5464628 3.18640202-7.33946021 51.16638454-7.95591761 57.83122006l-18.35790767 11.63380105 53.29622227.30046652-18.127379-12.02419877c-.61637169-6.6639835 6.36921695-55.4193937-7.8277747-57.74853106l-1.02724329.00766822z" fill="url(#v)" stroke="#000" stroke-linejoin="round" stroke-width=".640935"/><path d="m2253.7989676 288.13887359c-2.32994523.2331563-3.91802742 1.77509813-4.99890723 3.72802364-1.08087981 1.95292552-2.39209736 6.48616136-2.81926939 8.4502309-2.14361821 15.35920393-.81004849 29.63580456-.1969746 45.33229245l-16.73230262 10.68784849 48.66614352.29808191-16.68108608-11.07492442c.36907845-8.12390577 1.37753317-17.96838423 1.29222272-27.90914322-.00546601-9.86751472-.10419412-19.35296004-3.91251506-26.02234507-1.02268751-1.95558884-2.47970721-3.05469609-4.61731126-3.49006469z" fill="none" stroke="#c17d11" stroke-width=".8"/><path d="m2228.92262442 375.86487361c-1.07687188 4.52178036-2.68950112 8.94532227-3.09381558 13.60547144-.36235729 3.35821281-.84257178 6.70228201-1.23574337 10.05695891-.5138145 3.74477642-1.41501488 7.47557964-1.25935767 11.2804664.08507146.92116652.01028572 1.90551067.43067161 2.7545959.6472717.90800274 1.92934366.95733497 2.89161549.59462805 2.95367266-.8617378 6.09458826-.75097458 9.09428951-.21142993 5.33387366.45131749 10.69333304 1.0239633 16.04893528.59850476 5.84177387-.30711231 11.69087631-.47670783 17.54019304-.53728678 3.84467303-.0310989 7.7239318-.27447976 11.53333339.39086634.94157182.07634141 2.03532942-.43951695 2.22771522-1.44605634.51445736-1.65778449-.01842858-3.38245291-.29550012-5.03295259-.80322891-3.58685364-2.0815723-7.13430114-1.98664369-10.86003481-.00428572-3.62395932.21840009-7.29090328-.53010022-10.86348551-.42810018-2.44612035-.97551469-4.87860831-1.7398293-7.24110244-.34131443-.87468857-.62687169-2.95056158-.62687169-2.95056158s-3.40422999-.00894626-4.72830198-.04426268c-14.61622039-.04681876-29.23235507-.12903914-43.84866118-.13542933-.14061434.0136324-.28127155.02726479-.42192875.0413232v-.0000852zm40.40868831 37.60163988c.05768574.0656485-.05935717.0001704 0 0zm-28.28199753.68464446c.10967147.15898781-.10667147-.06104757 0 0zm-4.9540735.43819631c.0347143.01874454.00642857-.07902529 0 0zm2.20482949.06846019c.02528572.08946259.07474289-.06505209 0 0zm14.03207729.0136324c.03900002.16239591.05511431-.05985474 0 0zm-.47631448.42443611c.0781286.06454087.0287143-.05708566 0 0zm-2.68122969.12328798c-.0431143.18003282.11648576-.26864339 0 0z" fill="url(#u)" fill-rule="evenodd"/><path d="m1537.0352 1446.4554c-16.6578 7.0539-9.0252 113.2694-9.7832 128.0238l-22.5743 25.7543 65.5372.6651-22.2909-26.6185c-.7579-14.7523 7.8321-122.6845-9.6256-127.8407l-1.2632.017z" fill="url(#e)" filter="url(#i)" opacity=".5" transform="matrix(.41603819 0 0 .43818396 1611.965227 -343.437418)"/><g stroke="#000"><path d="m2252.98160241 287.58989365c-13.5464628 3.18640202-7.33946021 51.16638454-7.95591761 57.83122006l-18.35790767 11.63380105 53.29622227.30046652-18.127379-12.02419877c-.61637169-6.6639835 6.36921695-55.4193937-7.8277747-57.74853106l-1.02724329.00766822z" fill="none" stroke-linejoin="round" stroke-width=".8"/><path d="m2226.66777713 356.97667854 1.72705786 19.17698885 49.51416354.01661448 2.05500086-18.89317942-26.64806828-.15021196-26.64815399-.15025456z" fill="url(#t)" fill-rule="evenodd" stroke-width=".174762"/></g></g></g></svg>