<svg height="150" width="800" xmlns="http://www.w3.org/2000/svg"><g transform="translate(158.475197 -27.630992)"><path d="m-19.17510199 42.56587161c-.52301079.1435952-1.10410552.11948121-1.57664107.41556066-.3482174.31765114.00062305.77713948.20285609 1.06782858-.22740539.26544887-.71990223-.02753409-1.03596284.11965403-.31944065.16290649.43064051.50643279-.00134917.65363823-.3441305.31384301-.50851441-.59609887-.78174698-.21895267-.08471361.29306434-.39856988.87144979-.65340981.36954059-.1914068-.31444353-.29590551-.73268574-.64686043-.91142316-.37476609-.11461422-.62306297.2962984-.6306643.6223131-.0721798.3640997-.22020982.8568196-.65448523.90447857-.4384033.02524928-.73057974-.47816706-1.18373033-.37672845-.48016367.09319945-.66306547.60938197-.79273867 1.02042661-.10446407.34669807-.17718574.70760536-.34968663 1.02941663-.17974568-.38184803-.9442266-.07712587-.57274222.2805809-.19990601.03154584-.59672382-.09568286-.85223927.06723236-.72291894.32389421-1.04642034 1.10301103-1.56734424 1.65077636-.22620829.27725955-.55110338.44011059-.86171854.58851829-1.25956858 1.04722537-2.57752808 2.02384298-3.80330335 3.1116577-1.06585109 1.51326749-2.66670117 2.49958265-4.06358534 3.67012211-3.02854203 2.33035004-6.00829202 4.74083934-8.71005961 7.4496408-5.17162338 5.00267988-10.34123334 10.00755738-15.5405839 14.98144403-3.39123065 3.24390069-6.81451316 6.45400909-10.23483863 9.66711017-6.67136372 6.32311602-13.12296608 12.87538668-19.40718466 19.58260645-8.80453011 9.26883916-17.58607093 18.56760479-25.95965255 28.23067633-4.66469481 5.6511229-8.86269634 11.66284674-13.21237035 17.55425099-1.68999258 2.34833954-3.36487495 4.70901929-4.9408402 7.13596455-.13024064.44228421-.09265039 1.0411185.3573986 1.28764812.6287582.33144464 1.38349651.1423623 1.99699973-.13165932.35395601-.16570801.6867656-.39775193.91708933-.71802648 10.38335323-6.16866733 20.24304873-13.16104132 30.08154806-20.15150465 12.39048214-8.95137001 23.77776654-19.17356537 35.45562828-29.01059982 9.79449766-8.49437232 19.6590625-16.90796366 29.41950951-25.4415302 5.35404006-4.82716151 10.17434747-10.20611499 14.852991-15.67942729 1.58667577-1.90961885 3.01267739-3.9464542 4.59312236-5.86065053 1.29689881-1.4248338 2.72246532-2.80166699 3.54145587-4.57648223.5187216-.94360684 1.6308869-1.42623893 2.01803702-2.45875293.08484858-.34948664.12801842-.81735128.54186036-.92853616.35893975-.20629848.76294236-.50722839.75949988-.9657473-.03316033-.19823546-.04077002-.45750054.23552245-.4269641.72910304-.26463248 1.07683-1.01349975 1.44837289-1.63529814.26682437-.44590053.5945651-.89391114 1.0804998-1.11608904.21368758-.36399151.00435598-.86907501.24030543-1.19129727.21168263.0161499.59120843.19147073.35961456-.17697387-.2423889-.41618526-.78400326-.38982479-1.17723234-.56215738-.36873242-.10984838-.5084186-.50381408-.54927237-.82116772-.40127294.24526506-.44709359-.50408512-.68462342-.69597799-.23360814-.25694228-.41589281.3653881-.64970226.05863701-.27822366.01413625-.52548473-.29626432-.38481032-.48394888-.33577634.44800607-.95082314.47228625-1.36689844.8095121-.23247011.17182199-.41651539.38928118-.3106253.70576993.0215676.2517685.2089162.93750909-.24827171.78837105-.25909319-.29670181-.60820041-.17896908-.82037413.10321978-.38501935.3840136-.71407429.95239397-1.31477926.9940659-.18382887.02140551.23292561.20361436-.02484578.29781742-.26569002.06212865-.4479014.37792259-.12455051.50910578.23767036.04277519.52055771.27308152.17654229.42309828-.23188875.11565456-.60104565.12613787-.62990568.42002272-.24339946.0640963-.76207396-.12530603-.72594659.29299173.05659087.39763456-.43265166.48749772-.71794732.58384191-.49735217.11497444-1.07171258-.01022209-1.42040392-.39493033-.06261287-.15482155-.14477027-.43744909-.23240788-.12364303-.31296889.27835923-.54523906-.2755806-.67591218-.50014537-.06037789-.36824608-.56565002-.51822233-.59863563-.04961883-.13722974.36255888.36850747.59097825.27518332.89569763-.27911131.18029214-.65805212.09415302-.83668433.44053508-.31004151.35474232-.79654214.43772904-1.24368869.43764845-.39125738-.05480478-.54678715.35260855-.84431344.52062903-.75846234.5502936-1.68226691.78759545-2.51224612 1.19852346-.33111057.18236704-.57688026.59311789-1.00023676.5480785-.5050948-.01746394-.81057231-.60172053-.66607212-1.05482784.09125176-.39386307.45387625-.64105935.8239382-.74253253.78185987-.27285966 1.16236611-1.14587831 1.95256738-1.40865981-.31531785-.2188449-.37214724-.81314401.06296806-.92999646.31030932-.12500846.66124117.26038559.91099124-.03026928.73483976-.56822796 1.15853039-1.49957391 2.04028452-1.88260736.26630148-.11340707.56318456-.16335603.85076803-.11963776-.01047902-.2184274-.03217535-.64999464.31848137-.51455523.14300825-.30352911.33083998-.5875076.60574189-.78659916.41343487-.36565575.89837742-.76929216.95367847-1.35833604.00410248-.39214119.21402385-.75920841.13282428-1.15783827.0319291-.38737667.44037735-.4808681.67065485-.69955063.32974219-.64375418.4142314-1.42744399.94782329-1.95774048.31988997-.21784868-.29367492-.14053594-.44349414-.23311814-.29675083-.00622283-.42095927-.33801862-.10315776-.44272807.22367031-.18220519.79464223.11597228.78258904-.2634959-.13748657-.17141724-.65036751-.22469838-.59311116-.39014663.33691568-.12218156.7460103-.46281876.56832126-.85998684-.20831914-.48696667-.70534606-.75837804-1.14716011-1.00236977l-.04715991-.02302439-.04746081-.0223982z"/><path d="m-123.23145185 43.01644562c.05320367.5027883-1.04432804.25468286-.43052697.79614363.20878202.76714396.39783597 1.53836715.68718489 2.27479161.38302908.61974103.89465146 1.26304344.55028417 1.98544733.89009084-.08612652.51683236 1.1381227.28525958 1.5469059-.58873854-.26169234-1.14030478-.74220171-1.56568282-1.08184701-.46624013-.03017522-.06424593-.51600184-.53821954-.38024415-.42591699-.21692249-.78532226-.92731931-1.1585163-.67131499-.0740041-.55861068-.67813659-.76365098-.58346711-1.40457064-.53639246-.54139232-1.38374349-.86773888-1.71827482-1.68346352-.14444845-.27401465-.72256163-1.09895884-.69737267-.35131425.14252977.3634849-.83509975.43489029-.56351763-.07792937.08649672-.52610675-.54840694-.64849262-.39885446-.05205635-.1837893.68357997-.09228697 1.51715437.1166458 2.07925573-.27610926-.40413964-.93227929-.20687737-.30076674.11324158.30047177.30063617-.64828879.36806079-.13856641.75788386.06606558.70423297.13380898-.76269751.49618563-.11669763.23577722.45271889-.17547532.88889069.28820713 1.26481437.10317587.36394108.54932942.71613035.50278259 1.2510702.2540899.50976479.9084996.77906998.97422792 1.41792809.29489548.27569799.64524217.5916517.51302833 1.01550538.53601955-.1087592.71301041.72339763.37073278.97600537-.05293841.64716795-.98816815.58631676-1.0568154.02694189-.39613218-.13002967-.50230352-.65083816-.6281507-.76616823-.38537738.18327733-.20279446-.68643582-.73767467-.36751433-.36255334.23958152-.31372352-.59891081-.84683247-.55888489-.47445635-.02847675-.51941281-1.04565234-.72289049-.32317867-.50734318.1745436-.48996926-.31145737-.27507505-.53112324-.06086864-.92521673-1.08924203-.60555072-1.58228238-.83051016-.25928227-.42205296.55915719-.6963857-.09088311-.64542506-.08115917-.32952338-.21573781-1.04664366-.7150359-.60770839.07465201.71043552-.41373821.20090139-.36045188-.24069879-.36839889-.6109809-.14607421.48987361-.01686431.71609914.01449832.32751825-.28638048.26302853-.18295224-.00865734-.43982882.34512807-.12254316-.6600047-.58378236-.16061573.41516648.49789285.10111538 1.30870806-.51236521.94806997-.16274368.70240741.63966588 1.14114553.53118178 1.84224839.3857141.36927783 1.02628456.49856257.98841226 1.20552689.04770751.65966038.77208699.71611129 1.03783181 1.07962804-.25387269.55377735 1.01236925.57266605.70337081 1.18637956.79385483.47256051 1.21206189 1.3539123 1.89854556 1.95282487.78864775.61697907 1.25124023 1.48273318 1.76888061 2.30875186.88317173 1.15005089 1.9509238 2.1438493 2.82539673 3.30169091.98894578 1.05219987 2.04413374 2.0399119 3.02740802 3.09804081.81303068.8049666 1.5880678 1.65565467 2.25877389 2.57941576.8059839.16351081.85064781 1.03063877 1.55568297 1.4022195.84727609.44325539 1.3007469 1.33372941 1.98274604 1.9684287 2.47913372 2.74065608 5.30602589 5.13861059 7.81831424 7.8474975 1.64342456 1.61393588 3.23420955 3.28112759 4.7979728 4.97096883 1.37283136 1.3377182 2.7021632 2.72165976 3.96834961 4.15900809 1.45264656 1.39128753 2.72476131 2.9549725 4.18231278 4.34186462 1.75023809 1.69518206 3.41070115 3.48469289 5.22699437 5.10996165 1.68360596 1.46857267 3.23867115 3.07904666 4.9122779 4.56007403 5.54929426 5.14370606 11.05006757 10.33981928 16.62322347 15.45770968 1.97439249 1.65746361 3.84336725 3.4345167 5.75131769 5.16698811 2.37822747 2.23103714 4.91103008 4.28870022 7.30880453 6.49862476 3.54666585 3.17744641 7.01749591 6.44811583 10.75896731 9.39902424.97622886.83828651 2.00149338 1.61011958 3.03656241 2.37261416 1.04046922.89714562 2.20005614 1.6459236 3.23138903 2.55543795 1.06527473.86083664 2.19628293 1.63651666 3.28547486 2.46320274.951039.88219449 1.96950809 1.68321969 3.02965852 2.43012899 2.5185302 1.83741893 5.0170842 3.70166608 7.51269333 5.56960959 2.74727815 1.99221194 5.59552164 3.83921426 8.36530656 5.7988572 1.12095742.74966807 2.34545605 1.32907874 3.58267834 1.84938696.50339222.59758981 1.93605853.70470869 1.60102827-.40366515-.30510965-.6894202-.73169779-1.32186992-1.01236472-2.02671256-.71489527-1.63612856-1.53791454-3.2294596-2.60918204-4.66431333-1.86679766-2.59000724-3.83952278-5.10126386-5.72748682-7.67559039-1.34380636-1.9416992-2.66108877-3.90253461-3.96746205-5.86978215-1.01106887-1.57980586-1.88508987-3.24681605-3.00994618-4.75318184-1.28530387-1.79416965-2.5640971-3.60215736-4.09504619-5.19969973-2.85610677-3.12856092-5.75425406-6.21926726-8.64618704-9.31400012-1.53014787-1.46043577-2.78950555-3.164105-4.19690873-4.73621657-1.22968842-1.56145183-2.4633231-3.12128629-3.75116456-4.63652808-1.18567603-1.43646405-2.50882898-2.75146156-3.73728656-4.15124097-3.03082034-3.32160625-6.47851863-6.22701729-9.5903276-9.4695504-1.47236839-1.43130128-2.99769103-2.80789534-4.38379469-4.32567181-.9609668-1.00106176-1.96624001-1.95906111-2.82966605-3.04842013-1.39857827-1.51589021-2.86078304-2.97475636-4.20812208-4.53866747-1.87327677-2.25708049-3.98297006-4.3047117-5.8334674-6.58118809-1.46335108-1.59675197-2.91433791-3.20459403-4.36678466-4.81143384-2.75787273-2.97733437-5.56522935-5.90868097-8.36774397-8.84380998-2.05781538-2.10708541-4.21167132-4.11814162-6.39056747-6.0985251-1.23169118-1.0570014-2.49058797-2.08774997-3.82067277-3.01846296-1.91052821-1.25838105-3.81346166-2.53922938-5.61532758-3.94807207-.66927783-.69769624-1.57954172-1.05079267-2.35796129-1.59154898-.88846035-.71664754-1.77676794-1.434209-2.7591008-2.02194654-1.44761878-.95511845-2.96445753-1.80329928-4.4440686-2.70169092-.63081758-.42088037-1.17653113-.85824692-1.44831148-1.57937134-.51037005-.43133794-1.22874144-.54677635-1.78051766-.95500864-.82018902-.45941861-1.58802765-1.01374053-2.26079818-1.67046916-.22938449-.26904712-.55219255.0857509-.74000652-.1515274z"/></g><g transform="translate(-1.997042 -207.446018)"><path d="m298.26624528 218.67465278c-.5456756.25542571-1.19114936.17261249-1.72149633.471107.08065294.38705285.52086933.8662697.16163723 1.22308933-.29163022.08801532-1.07932375-.30976034-.76333965.32049945.21252877.50096567-.57541579.37396123-.72673437.08070593-.36802175.05868785-.30332188 1.06600503-.82594632.51749689-.28017474-.34604608-.32487052-1.39991704-.98353442-.86551525-.39858038.42658506-.23216481 1.21978461-.82113298 1.48955227-.51431996.15873886-.88624337-.82584952-1.38034173-.35586898-.26421192.45051456-.7919848.78348219-.80995978 1.34697352.20832315.47269237-.15701245.68456414-.5954312.57165852-.30808374.12479968-.19133993.72629518-.71890608.47433553-.49348754-.15359995-.67381222.39103885-.98190987.64912231-.49472253.53088494-.74489572 1.36117491-1.49241514 1.60270546-.76232136.29537906-1.1126394 1.10333662-1.73460831 1.58417311-.606701.63659167-1.5496906.88286945-2.02501936 1.6578193-.64797264.84634823-1.3089278 1.70121396-2.16767374 2.34658366-1.88845714 1.67486781-3.85406267 3.25962805-5.77914308 4.89122018-3.85048667 3.40845972-7.27946861 7.2505452-10.87699506 10.91624309-8.33675694 8.64047033-16.85699095 17.10140658-25.22375756 25.71246549-6.28128685 6.55439739-12.24332943 13.40302102-18.28822675 20.17319159-6.42760645 7.24873725-12.75858829 14.58354276-18.97721707 22.01235774-1.94798236 2.3346185-3.80798066 4.74189259-5.56470964 7.22371689-2.27880628 3.19727466-4.48893488 6.44274801-6.73486873 9.66302579-2.70450679 3.94051326-5.41917358 7.87951617-7.89821619 11.96719443-.26196669.49919591-.39587292 1.2159089.05902981 1.64777636.54131071.43287739 1.284645.15492888 1.79471794-.19223675 2.56584764-1.65565234 5.16237715-3.26542331 7.67788238-4.9981989 5.30861608-3.6146471 10.47858187-7.42744583 15.63719859-11.25151374 4.29763115-3.21313602 8.5836283-6.44493997 12.75516128-9.82111189 9.49535354-7.75900821 18.45205597-16.14232853 27.53945967-24.36718987 7.46003205-6.77056353 14.82055965-13.64972487 22.23902929-20.46564393 4.77362426-4.40801021 9.66310844-8.70595696 14.11583178-13.44641135 1.58322121-1.66129497 3.07152478-3.40846585 4.5569299-5.15656511 3.24640332-3.76870666 6.43891095-7.59881893 9.23197195-11.72098226.5771831-.82521305 1.15219172-1.66295301 1.90039556-2.34484565.61880854-.69669716 1.12170394-1.48938608 1.75760484-2.17099742.69811383-.9841507.93957385-2.30809146 1.97265558-3.0362828.469972-.36179269.80038364-.87872019 1.02392713-1.41665561.08293649-.47743845.17220475-1.15059833.79418418-1.15475348.51656503-.05083077.41239366-.60904576.38971311-.97286696-.03512858-.52752241.55495703-.37582881.85348535-.54212001.37850128-.41644707.51477287-.98627208.85087032-1.43389318.34549104-.55724921.89309362-.93933722 1.33527726-1.406155.31549699-.34248251-.5314233-.99149508.13295786-1.10008971.57775262.33306132.38364576-.7330289-.06443301-.69656756-.42413258.13555115-.951029-.05558146-1.04943741-.52347256.02835364-.51419298-.78527721-.35595108-.75216095-.85289212-.03714939-.50792792-.53519363-.54774178-.87610728-.33389084-.36258143.02155318-.35666341-.53526683-.63257965-.17829677-.36244075.09687105-.83025386.08806506-.91028586.53982108-.21952327.20805857-.62802343.00364409-.57278552.44956959.00739373.36205421.49251835 1.12552041-.22082278 1.01574454-.56166579-.34106144-.84977073.33135144-1.05250605.73101986-.33430017.33194479-.90575168.36967011-1.13348843.85041536-.55703552.4728185.53049076.5270298.36855579.95963314-.34848438.16273795-.71590535.28005603-.99715303.53562926-.41672518-.07706762-.57985094.20968567-.63396098.56579726-.27578563.49492724-.82973151.04471995-1.20069858.33524703-.40778547.24297182-.75282523-.22111736-.84566609-.58417077-.16013697-.27308941-.55142041.21586478-.69059008-.20690088-.07957144-.38280395-.72044954-1.00020051-.87563142-.36241183-.02960406.42788992.56280278.94914366-.13293004 1.15614046-.51881882.07430937-.6374003.79979216-1.20480891.76979108-.58070415-.23379668-.96554856.34672152-1.44288694.60498528-.59425064.22699083-1.0925145.63904265-1.67599724.8885073-.62700615.25674941-1.19510106.63427404-1.79230948.95098579-.63565921-.01337143-.77761599-.85467147-.41714959-1.27346391.21860059-.61466882.91389369-.65133288 1.31797971-1.03928957.21614312-.40032877.39334866-.86022692.93800177-.84644161.54974718-.07121074.4158468-.63275174.21104862-.96688847-.10743399-.49659462.64649663-.4728377.89760433-.22174623.46163328.20721196.58281258-.61071836.88552019-.84776343.36319092-.40973449.67474055-.89809754 1.17210962-1.14410221.40157392-.20876643 1.1957788-.14970944 1.14920342-.78519.48045829-.12494243.47052949-.94714144 1.07620823-1.02918481.46577617-.23187721.74362638-.74539471.57578272-1.2476238.12933291-.39273155.36217616-.74941481.22449519-1.17502584.01058038-.54071254.89300113-.49078705.80595789-1.08592951-.06004571-.51415478.29923929-.83994338.52942268-1.21900001.04675039-.29804314.63559123-1.01153228.03377843-.98237085-.62025478.23693666-.36519383-.58166693.08679197-.51116731.25441978.09592374.89238671-.03201037.42142979-.31668379-.31288558-.04128752-.6773991-.33591066-.19891209-.4884948.51999289-.31475216.14084032-.82749623-.16632639-1.12934189-.2176343-.28266933-.5503454-.43778308-.84260021-.62809168z"/><path d="m194.84182542 219.16746624c.05303465.38812629-.78535554.40134491-.39973668.82667982.18796084.48950872.10386011 1.06204093.37862656 1.52032442.26084534.6923252.39804416 1.49631833.95481994 2.00497906.1908409.31254629-.33087328.7138502.00252581.96125063.41208443.06024695.51870773.56279904.37735807.92253478.01366184.27921027-.14173756.91291651-.48607056.63880776-.32098576-.26884956-.73616204-.41831631-.97607985-.78871537-.33874274-.24800388-.63839133-.55944168-.9993409-.76014558-.41166669-.05789114-.38455454-.69487864-.81988647-.62981957-.30402031-.0071955-.24541402-.4462557-.50665026-.57616721-.32289488-.28838231-.04710111-.8275168-.41993373-1.09550163-.25548246-.2474384-.64478874-.258998-.85875644-.57456354-.31792166-.35314662-.51632808-.8083693-.84404589-1.15261426.09724859-.41100807-.63190281-.67989231-.51567435-.12493712-.18890253.41209006-.78480604.08424787-.54729401-.30568941-.04574337-.40018546-.57783919-.2310853-.44164471.13412114-.05511503.48958434-.12837498.99023122-.06308952 1.4811696.05604881.12679178.27720129.7402697.02988166.4445712-.22183507-.14672884-.50897281.15456162-.16541818.26177315.26662904.31648991-.38036745.49280107-.19551501.78621264.21671049.30726959.19321108-.28336542.46431126-.11251335.38936211.22315608.05971148.67619284.18960154 1.00574067.08317415.36994228.29849382.67987145.51429097.97148263.17903806.38184813.11219446.88583723.44605324 1.18238978.30469581.28542639.61940603.58713501.68659093 1.03764206.08392717.40774348.60621532.45419786.5483105.91867856-.03262109.42633357.52576946.25678299.50213706.68604577-.00005894.41681271-.15623428.96685037-.58070878 1.0840921-.35777947.10899741-.46905439-.30466624-.66897184-.51162256-.18185503-.20175175-.39649667-.38105065-.51539632-.63681389-.25311765-.15854902-.36066133-.64946205-.72901998-.5108417-.37173295.07843951-.37084073-.38235152-.62887771-.49487954-.26195938-.13127817-.64120294-.19417636-.71183042-.55142994-.14908012-.31341-.28132541.36560658-.51836726.10728142-.33522326-.16623687.02746715-.54960216-.08887891-.81005726-.12140866-.41362908-.59157727-.67570115-.97014913-.48579952-.39881901.11151185-.78782627-.31300428-.49088624-.6835395-.11402958-.23732617-.27961949-.43681026-.25833773-.72570281-.14019831-.36244672-.57400974-.23412325-.58646055.12767696-.22151454.2680596-.33363357-.10400568-.30844078-.31005011-.0030362-.2241427-.33143626-.3570682-.2779953-.04073779.09057607.23352406.39168362.86337795.04022848.82278611-.06825838-.20015266-.34658098-.03326235-.29130976-.31894604-.05266482-.39754251-.45345616.08912847-.20768963.27667692.2953783.34770433-.04064655.81735606-.43251856.77011564-.3309335.05671997-.19578669.50118592-.06344462.6999398.17199618.25550365.36916688.51991948.36315943.85309945.00828222.44244774.3420783.70774853.71285823.78261731.33764689.2047467.2111373.66772506.37521909.98315972.08920798.35623838.34569831.53678847.64484685.65802119.26235634.130694.33866031.45574725.43851552.68738104.26970515.21954627.59432307.437527.67435992.81509964.25794118.34746667.59853291.61795485.82401831.99424257.6061763.78719994 1.31789015 1.47332901 1.94876663 2.23511302.41497942.71362561.75618868 1.4941461 1.33194685 2.0832457.78088756.93591399 1.58018103 1.85618852 2.31064941 2.83801162.94889109 1.07214901 1.95428527 2.08562196 2.89734743 3.16374566.82585112.89268435 1.63933593 1.80672961 2.32386389 2.82978284.28304892.23384112.80741561.24530601.85605576.71432033.15963445.54209438.72833459.70358705 1.09450474 1.04492314.63074133.55997319 1.06704803 1.31728632 1.65212026 1.92585653 2.46082776 2.84080241 5.20007629 5.386712 7.68347111 8.204154 1.48101919 1.6073727 2.98578056 3.19135545 4.39846292 4.86848932 1.03266167 1.14987083 2.12425944 2.23868931 3.12459863 3.42180775.61737613.72659494 1.21355747 1.47557932 1.88774293 2.1440319.95107889 1.03054032 1.82224172 2.14163884 2.78974965 3.15552536 1.48985929 1.60602007 3.0112913 3.1783443 4.49935273 4.78623724 1.05465092 1.08341917 2.18221626 2.08257414 3.2264836 3.17794081 1.12633304 1.16170449 2.28150447 2.29056415 3.43492181 3.42130919 5.21911386 5.15443133 10.37620501 10.38031372 15.62054077 15.5056064 1.3771049 1.30962201 2.7794118 2.58920855 4.12737913 3.93348909 2.01877153 1.98332091 4.0343915 3.97143805 6.12208712 5.87248582 3.78044942 3.51633127 7.42152735 7.20042835 11.23001895 10.68262468 1.42710216 1.27328822 2.87479439 2.52045333 4.32230115 3.76686504.70861097.5583758 1.42284729 1.11005949 2.09465103 1.71876217.8472308.68719234 1.70301836 1.36318389 2.51459435 2.09866379.93960127.82294468 1.94309682 1.55619996 2.91221066 2.3375138.78101241.63563785 1.46970255 1.38964078 2.26894051 2.00087005 1.19886724.93995747 2.40475288 1.86965561 3.59844328 2.81721157 1.88153444 1.47625254 3.73960535 2.98656074 5.62559321 4.45620442 2.40518123 1.82691772 4.87248562 3.55827858 7.28389184 5.37564628 1.16137985.8421873 2.40692193 1.54820156 3.70441139 2.11899992.40299389.20859337.7988589.43470296 1.2156235.61133581.44204446.02604566.7474224-.57036972.53123886-.96900129-.2679047-.75600069-.76548731-1.39502414-.99605937-2.16871202-.79450141-1.90051106-1.70562524-3.76269919-2.91715094-5.40218534-1.39235686-2.02491212-2.80484876-4.03390449-4.23436939-6.02904052-1.08985637-1.54192019-2.11884601-3.1315345-3.11197735-4.74582368-1.13513937-1.77907304-2.27204594-3.55996597-3.27329268-5.43013101-.65398627-1.18305865-1.38203012-2.31652752-2.14305594-3.42340889-1.10102434-1.65915523-2.24743741-3.29063443-3.55705178-4.77075188-2.70723122-3.16684668-5.45157643-6.29725836-8.19170359-9.43158986-.87460673-.98993555-1.79117677-1.93937201-2.59905895-2.99431836-1.07447321-1.41126519-2.22987143-2.75184147-3.25300905-4.20763277-1.52074278-2.04939449-3.09005975-4.05983207-4.76742518-5.96597646-1.44196761-1.70421579-2.89426717-3.40136288-4.45486354-4.98389558-2.07588146-2.13259969-4.1965125-4.21640147-6.21164863-6.41555614-1.35266232-1.46515234-2.80655085-2.8203883-4.1267301-4.32043976-.87479612-1.02795267-1.83139932-1.97340832-2.6927928-3.01427933-.75099705-.94405862-1.52554741-1.86757129-2.3547605-2.73434365-1.57747886-1.75249644-3.0382771-3.61833879-4.56101716-5.42372799-1.41495069-1.63670482-2.81484607-3.28914254-4.16260592-4.98931582-1.35784082-1.56112361-2.68051901-3.15650182-4.02523514-4.73030165-2.48900771-2.86740912-5.02923462-5.68344967-7.54387066-8.52508437-2.14154864-2.36686594-4.3751641-4.63731433-6.65453907-6.85192264-1.20882068-1.14793741-2.46642607-2.23882007-3.77496893-3.25456188-1.00045317-.75688779-2.04667616-1.44139022-3.04707775-2.19856627-1.20345379-.88743586-2.38629995-1.80877514-3.51270661-2.80544736-.38761328-.33427782-.82637103-.58811878-1.2708844-.82202459-.89137158-.57704444-1.60297683-1.41693874-2.50166743-1.98352044-1.63549398-1.16619566-3.33550453-2.22417119-5.02818293-3.2912092-.35451354-.27193148-.70166092-.55674552-1.05800006-.82461707-.26882238-.29782053-.20976659-.83227293-.58426805-1.03753701-.41017086-.22517993-.84846006-.38728703-1.24606273-.6401633-.7892874-.45155487-1.5335558-.98967756-2.23410143-1.58435291-.202525-.33679154-.58496233-.63983701-.97464956-.49280274-.0637089-.00787191-.12570631-.04040132-.16646982-.09403732z"/></g><g transform="translate(147.830521 -252.978055)"><path d="m202.73898914 264.45550583c-.49080705.34297043-.50456073.98533091-.23782651 1.43394634.24319132.5114882.53577823 1.00839514.68328416 1.55163976.28794845.57908954.98590516.99126083 1.00984742 1.66935834.00357724.43877995.45522626.71785571.5853603 1.11955215.1268577.29320723.11553545.68139961-.17697629.90178626-.39304553.14711199-.77514661-.11315102-1.09167522-.28667293-.43788859-.29075197-.82933925-.64789777-1.33394592-.85049278-.62987654-.45153427-1.52442729-.6384405-1.94653043-1.29811255-.16204754-.35180202-.26476909-.7788347-.66930588-.98120957-.55328124-.36265585-1.33279101-.56228843-1.59512234-1.18344706-.12943186-.27082878-.38571165-.58679772-.76102175-.56471935-.28468279.05299318-.38945685.62999045-.74383892.3314252-.11731989-.13794848-.20289229-.66959575-.46416981-.47956489-.25530823.70663489-.02943749 1.43859933.14112787 2.12877862.06533462.28673756-.42129914-.00068976-.34700315.30543607.1740194.20479639.14711833.40618896.03060172.62557602-.05736983.23541747.19727904.42357768.38232113.19438732.36004711.09084964.30696334.56230713.48618522.81357515.16488596.43733673.34139504.89627002.72424467 1.22111884.27560042.86787254 1.29002439 1.30046438 1.66747832 2.11522795.29907853.52280093 1.0157744.82562476 1.08074078 1.45825115.00668919.36738841-.28270268.83285538-.74384573.80988247-.48319309-.0803972-.76773319-.47492785-1.07982499-.77328968-.25969196-.35072161-.70617555-.527067-1.14093996-.64996653-.58785619-.21667232-1.14780635-.50336777-1.62132084-.88337028-.22152711.10669899-.79052328.35040326-.66099082-.08774954.15228179-.34959327-.03926637-.80634729-.49245652-.83063573-.407957-.10780285-.84110514-.10104182-1.2598394-.16230313.08864736-.49535065-.18386845-1.01347703-.65446141-1.27455251-.3143993-.11220895-.59033886.65394393-.69085598.09662867-.04558033-.21444293-.51968533-.30137199-.31408816.00298988.30820444.17581816.26805406.87052439-.18704623.60361788-.10508884-.14919193-.32616479-.2869056-.26954209.00704957.01381341.32759307.18800218.84322719-.28602467.98587275-.42904272.1566009-.20950432.54864364-.04084987.79038936.22750563.36900775.55486161.69844282.65921537 1.12080314.61275104.07586624.93568271.60942956 1.15698891 1.06679108.15819572.36135658.4669495.6411.84789615.81467827.68018942.44810965 1.15817511 1.08521378 1.7718066 1.59588568 1.04997469.98236282 2.28738466 1.79447015 3.25012412 2.84737383 1.04240909 1.52073621 2.67889287 2.57011345 3.9521972 3.90407113 2.13259889 1.93154316 4.54809382 3.58715616 6.47418867 5.68844665.97052983.28237701 1.31818332 1.35011673 2.26908068 1.65887931.83891475.60524546 1.47906508 1.40441479 2.25183024 2.07382537 3.34836582 2.954899 6.83552307 5.74254394 10.03101957 8.7964701 2.1963621 2.05599689 4.34750952 4.14409692 6.49982634 6.21941424 2.76101545 2.79307715 5.51560769 5.57437844 8.32634497 8.28141714 1.62139615 1.58177456 3.27189296 3.12755848 4.93867033 4.64845904 5.97410982 5.62345552 11.74985122 11.36149525 17.38198066 17.16084795 2.57575057 2.59850403 5.16234392 5.16880072 7.64199895 7.83159262 1.99089209 2.10365116 4.01907131 4.15792104 6.00309754 6.2472375 4.44838266 4.77397533 8.73436465 9.67604201 13.40634263 14.10396638 1.89018057 1.89242284 3.78590665 3.76983518 5.66993955 5.65054651 1.82631467 2.09308022 3.93750597 3.85578684 5.83789563 5.84749327 2.64708743 2.6604871 5.31757627 5.27760091 8.05201633 7.79842959 1.58006257 1.53703303 3.16553527 3.10738964 5.04865482 4.19548688.36401946.25952263.70860874.68248463 1.18866654.62774796.40599946-.08417868.50299272-.60790678.38527332-.96970735-.16030666-.9892986-.72650297-1.83338599-.86765416-2.8296831-.71957614-2.77021904-2.11084167-5.24606938-3.43940794-7.71834865-1.28647422-2.40363392-2.60849636-4.79230199-3.81751385-7.25380392-1.39460358-2.79441889-2.6972268-5.64643305-3.98284908-8.51125113-1.44677488-2.94322127-3.10357688-5.78614094-5.06873888-8.39990451-2.71385049-3.79847063-5.5375927-7.53128352-8.37249396-11.27584868-1.57898865-2.25550602-3.11736277-4.54720153-4.64183653-6.85402896-3.02020974-4.33299446-6.38229212-8.44365029-10.06163012-12.28598225-2.25917642-2.44438184-4.48340109-4.93271591-6.78767194-7.36068504-1.8241892-1.9915231-3.55380323-4.07105625-5.32892727-6.11864073-2.44826803-2.67843088-4.6833709-5.5446543-7.16047192-8.22557939-4.98106671-5.82276213-10.34124199-11.39831574-15.97118692-16.79463275-3.15470623-2.92614344-6.38956251-5.83252167-10.09851714-8.22241982-2.57951341-1.61682844-5.32577339-3.03400905-7.81128576-4.80358588-.94840409-.58125719-2.06909682-.93702413-2.9112996-1.65938586-2.52348315-1.64957109-5.43090496-2.7548378-8.13004829-4.18550746-.59280518-.5849672-1.10343145-1.3193053-1.98912566-1.58522254-1.03408541-.24578774-1.96535939-.7395993-2.82835706-1.28450023-.29643907-.18022942-.54611511-.4257353-.87026095-.56616884-.28513858-.08829777-.59933994-.05701407-.8874668-.13537978z"/><path d="m304.36312982 264.31476201c-.43898161-.0168694-.85394147.12492971-1.25402896.26212195-.16446001-.16809344-.77476095-.52736312-.67520734-.06046899.10739589.3327666.00506766.75987884.35156529.99987052.15835928.4364508-.49113164.32672904-.74663457.24518365-.21492439-.08873935-.79926845-.39235509-.70983563.00770826.34087776.16633753.4863601.62515869-.00444758.67444565-.47463089.03648337-.0404306-.57658009-.51156997-.55272419-.38053582-.00829252-.42316867.34912071-.26933374.56958825-.07296411.41081508-.83475393.23027217-.78496924-.15469656-.24143288-.28242454.07538072-.84544877-.35849001-.97888599-.22059238.12168154-.58592384-.01443985-.7155894.11068276-.00865827.28812376-.06135805.57516575-.40788341.65036114-.12157644.23217487.19858673.84703545-.34886849.61363712-.34041935.10373501-.82988799.2217699-.88998166-.25315541-.05456476-.33546362-.53037443-.56714232-.72569678-.1972087-.14674834.34789175-.45566921.56104933-.81410445.71603951-.42072344.22223728-.24392588.69067367-.20553093 1.0448392.05108186.20116652-.1671117.43167059-.30306236.1651842-.18791359-.27616953-1.04286617-.27539786-.81137371.13318568.1444977.07650347.45468739.31394804.09373506.31427004-.33481205-.08534581-.73429218-.55350286-1.03008969-.14547756-.18804458.30221976-.52994775.42582803-.86356878.5527053-.34310896.16145894-.26740965.58961197-.67130538.70793032-.30511167.16900895-.11035109.7104159-.62039819.64661059-.32934689-.0520115-.67467382.00405099-.89052502.24611931-.20038042.19008004-.40961731.38587303-.68600697.47990542-.33483927.25133552-.59058006.62142113-1.04138543.7166949-.2970692.20558183-.43539006.61293782-.89785488.57018069-.41125175.02837713-.68312118.31121843-.96831437.54191407-.85991614.73416252-1.53406056 1.66958409-2.58904203 2.19743894-1.69608205 1.09877095-3.32071642 2.28933455-5.08438581 3.29870972-4.68846628 2.93415901-8.76942691 6.55870081-12.91524537 10.05607577-8.09676157 6.91434987-15.99181666 13.94191367-23.58822208 21.09462884-2.750904 2.63045546-5.4121902 5.32454887-8.01186276 8.04955848-2.76469906 2.90984843-5.39695059 5.91031831-7.93630006 8.9577208-2.65683423 3.17569727-5.2519178 6.37081486-7.77885442 9.58584223-3.01941758 3.90181557-5.9061073 7.85968139-8.6339134 11.88379532-2.99878941 4.42701875-5.88905116 8.87228667-8.46246045 13.4753153-1.2459425 2.23315041-2.31553227 4.568964-3.3560256 6.90405693-1.83737016 4.13959414-3.56663053 8.29934389-5.10700204 12.52132779-1.01947355 2.79497595-1.96914145 5.61013447-2.81116751 8.46251356-.13809806.54930476-.25991171 1.18257142-.046582 1.75661441.18434935.42128085.63038627.60132245.95361929.40736824.64628657-.29402823 1.03823819-1.03452287 1.55917499-1.55171113 2.15969489-2.43325914 4.39058189-4.8510751 6.59677305-7.37476426 5.79529447-6.50043287 11.98908086-12.97691077 18.55495532-19.37455632 2.80694486-2.80249256 5.57677271-5.71838196 8.47128572-8.54731816 4.88699347-4.85129292 9.81531704-9.82672256 15.05313785-14.58312459 2.96918124-2.69756375 5.98078315-5.39010297 9.029949-8.07707805 6.09832951-5.35848718 12.41989742-10.61019508 18.96869302-15.68922953 4.48108277-3.49060217 9.05474194-6.92150092 13.49401628-10.53923745 2.50424141-2.13732901 4.91339796-4.38159126 7.37604513-6.57650596 2.47921347-2.26943774 4.95228542-4.55384338 7.32336027-6.93413248.81977401-.85621421 1.58530487-1.75850283 2.44043812-2.5851686.74753198-.77705274 1.45960003-1.62549206 2.45143498-2.14442641.54869478-.45819716.88407662-1.12428967 1.54315031-1.46825005.42368617-.35019868.78574633-.77648866.99847455-1.27126101.40239577-.32382199.54691298-.85070307.98265226-1.14506961.23300249-.31769037.52628058-.67037179.97725109-.69165856.42928552-.1347182.59259317-.56658169.76103075-.91868214.21772858-.31071333.61335546-.54596867.63116832-.95263399-.20214037-.47538153.52110893-.3319837.7720544-.33840418.31319156-.19443928.54254245-.51925505.56860144-.87618815-.2920996-.05709257-.43593823-.47480439-.01688963-.4320447.31267677.01326893.71905904.25303726.95034287-.04504533.20609025-.32049833.35374336-.73404296.76399432-.87630696.31943148-.1995972.28433212-.66135411.67204189-.8093567.30055492-.1660325.47634899-.4706443.83450136-.53369675.33921874-.11708926.70644175-.48818029.42887734-.82748976-.19555726-.19078069-.23167595-.82988397.14349614-.63927458-.00490693.23694924.12454137.54364066.43673137.3714965.3641565-.23626981.03365546-.81201493-.36304785-.84104958-.33803467.01054952-.71947441-.06857894-.78917509-.42927691-.29387891-.20317675-.62688844-.45919019-.37222838-.80273585.03484092-.21857785-.18622061-.25655125-.22773503-.04223988-.26585671.26428904-.56533563-.13776239-.33788175-.36633089.08192473-.27065602-.17366813-.82408895-.51688775-.57104543-.09066213.21397185-.27372538.14607514-.31665238-.02342153-.18045775-.01235442-.77771004.06343219-.39614443-.18493682.27816949-.13109837-.029923-.59947878-.17147204-.2216796-.20352958.39473611-.70124059.30883702-1.05271905.1690582-.42924302.081734.16023385.51250143-.25150005.6325035-.24260402.07792278-.11758804-.48055097-.470562-.25042825-.14137042.167035.09649196.37470831-.09892837.55884385-.19880996.2686946-.1136535.59235151.1717718.76562225.13284647.23522294-.17343396.42019074-.32949076.16947098-.31416722-.16312981-.70475084-.38439251-1.06045595-.22506405-.10462435.35938157-.31364792.74814554-.73040472.85588893-.23873115.19069501-.98369741-.02764263-.8970497.35974267.23267988.01592038.28909465.38247584.03041496.21542213-.3798118-.18826747-.64228782.53778762-.20413323.58962585.48927792-.23861144.60370476.64759596.0908977.56960302-.16936271-.03292689-.53138541-.51688534-.45034746-.09522379.14869136.43648217-.57689383.49870333-.69273688.12412667-.48478615-.11038094-.34356588.52321206-.44767811.76802262-.35593307.43142947-.81390798-.2865791-1.19324506-.06016773-.13224717.12174948-.59717528.50490819-.58121134.12566215.14908166-.38135826-.66214164-.14499146-.47937545-.60330127.02793942-.14628162.31162947-.54593681-.05462326-.45025642-.10574523.17373481-.22754903.6568689-.55129534.47107286.0737723-.30821326-.03478688-.72946984-.44476722-.81095232.08105739-.25818362-.19354793-.67117709-.42405829-.30427897-.20993502.19160461-.38277427.58949756-.0851663.78987365.19930604-.00492963.6172768.27156395.23027917.32598721-.388415.09911292-.73577006.45456891-1.15913942.41996666-.15251451.29287922-.42454523.76586317-.8374604.44772569-.19799933-.26287881-.6898267-.45935113-.62213535.01931395-.12760648.28288916-.47735483.03147241-.64976015.27352805-.33139102.14131118-.64230648.27693478-.96316615.42369667-.30823767-.00073413-.52882624.05022048-.71752528.28859913-.37388887.23857524-.85090862.13045914-1.24738886.35072988-.46463114.06177632-.79800138.37360265-1.225057.51192049-.41031837.13026931-.69043319-.27306179-.64897948-.60875839-.06482351-.30746586-.01335604-.60670325.35316588-.71816548.39189006-.10839812-.02717775-.78737963.51612033-.64544387.40095677.21141065.94449374.0736679 1.0076804-.38253191.05667023-.31379828.33827528-.56094015.69371556-.54314213.31381967-.01726195.72022923.04950148.92339001-.22224444.21527192-.39882736-.50491989-.41680615-.44341737-.74250012.10488729-.30706699.58342434-.5447394.88766462-.30740131.19214478.17985646.52905159.69567964.75198743.26977808.10099865-.25875037.09135137-.64626995.47661947-.67652659.43128144-.08138291.3009004-.63603833.75376771-.70446896.45832996-.07261463.59161199-.5942162 1.08398919-.58498483.35260761-.04569384.93041608.1434292 1.09157115-.24574006.09035977-.22775925-.63954499-.18573188-.28506633-.36206281.16483284.07825489.61335293.38213488.57733722.05402791-.24370691-.13622685-.26807236-.62455656.12220165-.44746856.50919539.13685354.58726758-.49208239.97918195-.58143836.26590579-.08608001.69617777-.17112999.65085502-.50784003-.19246024-.27155218-.26108731-.84589963.239651-.82752021.34881825.03849814.15534226-.27000598.03266034-.40032528.30638714-.10895247.09994269-.31609091-.10146664-.39488839-.12598456-.40584375.59077291-.20931036.80592303-.3826473.33341404-.22613693.46644544-.65016634.3590567-1.0185901.0108358-.38533444.66320906-.25714797.73965931-.61533844-.21170652-.36741359.22009436-.71763281.54956821-.68946245.06752033-.46295826-.65436495-.44651973-.86458451-.21153959-.19670908-.20062048.13806502-.58984787.36133935-.68792499.32295494.02470853.79426271.56639611.99699601.08793737-.0534567-.53914228-.73064995-.21809683-1.01142635-.50097551-.1177787-.36319416.54002257-.26933231.77366768-.38095792.41039205-.07645687.29797825-.50425869-.06117229-.58562806-.33207016-.15874509.04264061-.56104126-.33321143-.72370256-.23981044-.16731824-.58990686-.23287009-.72774426-.50155096z"/></g><g transform="translate(158.487366 -72.205601)"><path d="m346.13154851 83.56455865c-.15609816.31963045-.74675276.50029311-.56991465.92240332.2549266.28443179.30568797.64265113.43098591.98594073.4434856 1.0407436 1.34441711 1.86332231 1.5596441 3.00387894.1644042.45600463.71959049.74804182.66014557 1.28346494.00284533.44834316-.53060128.75907478-.91671192.5196571-.60692748-.25485325-1.03090181-.80544374-1.64011971-1.05682233-.73388373-.4726738-1.69781973-.59391281-2.26954586-1.30448799-.2349527-.32915241-.33516279-.76033487-.68948899-.99622162-.61919419-.50756103-1.50206871-.686909-1.95037794-1.39590947-.17339648-.31517626-.59659362-.79802366-.96013916-.45253374-.11821026.22156004-.36200022.54991018-.56909471.21037021-.16968075-.14587622-.373214-.73121711-.61781126-.43799116-.10451894.37441494-.2023631.77367191-.06886859 1.15512318.09068992.34793343.25445295.69138028.22483447 1.05878112-.06169122.21100847-.64026458.0614905-.29735355.34307956.26824123.28261455-.46564921.62470178-.03138922.87507199.22487406-.08995242.55638825-.49746572.68819976-.05095471.09992272.32585589.16258041.66396652.32579247.96802171.35594667.76358348.89755714 1.42143118 1.47323536 2.02919436.82744443.51086225 1.09492513 1.59087991 1.96862723 2.04681253.26997658.42156469.05244703 1.03036177-.4033273 1.21862062-.40949338.20834703-.99138093.05094527-1.17140066-.3911784-.36752596-.6361759-1.10196729-.88210266-1.75939605-1.09967745-.36171244-.12264666-.70308374-.29943027-1.01228521-.5223834-.35602704-.18442538-.7696347-.13180116-1.15374424-.10268759.11112056-.5087796-.2113772-1.10332276-.752109-1.17827655-.36894982-.13100365-.7590757.17273207-1.10478026.0072871-.30995121-.21615601.0202279-.70053532-.35194158-.86390998-.27459282-.11670541-.14403557-.69321099-.56665743-.50259185-.23536123.09942064-.66741287.60147077-.76244288.09790941-.05480208-.36000421-.5785279-.09091868-.26194711.14096667.28762356.19574598.17801289.82413474-.20439752.48703445-.09754197-.13172433-.54693162-.42847584-.41506716-.06258156.22768774.30610336.21564494.78487536-.19767568.92077613-.34429894.05637528-.4919932.36986711-.28744463.65619254.34749746.86152655 1.07639758 1.49673279 1.83830184 1.99180567.23624303.7472219.96278508 1.14421717 1.56591398 1.5632455.54940336.4292493 1.06138291.90411763 1.60596369 1.33969131.75127995.63831578 1.5165227 1.26186728 2.32905459 1.82106025.71544087.54267958 1.32702937 1.20933849 1.87412362 1.91765194 1.23838863 1.23283431 2.65524532 2.26828573 3.90549783 3.48826953 2.01162226 1.71086557 4.19949524 3.23568442 5.97486885 5.2071996 1.00864686.5742384 1.77402454 1.47963404 2.76061289 2.08565956 1.79668672 1.6770334 3.54402524 3.40950946 5.4265891 4.99200268 4.04022339 3.53483206 7.80106468 7.3727919 11.48272228 11.27525139 2.91652159 3.06100093 5.6397024 6.29965762 8.56176301 9.35554093 3.46079161 3.76034884 7.09108506 7.36003539 10.56302439 11.10996016 5.6767219 6.05093974 11.20438355 12.24140129 16.9656901 18.21291186 2.78011068 3.03011005 5.66969164 5.95694749 8.5642634 8.87701236 4.66341062 4.81596238 9.36122647 9.63728973 14.65141834 13.77616395 2.08999811 1.69213942 4.15999712 3.41180146 6.32369375 5.00973082 2.78606094 2.37844252 5.8573723 4.38582801 8.8504821 6.48767159 3.02693145 2.0950891 6.11320955 4.11242664 9.33959553 5.88914983 2.27750717 1.31666378 4.52243055 2.75534659 7.04168365 3.57340046.84781857.10579045 1.509988.83238723 2.38946192.79492965.36904067.00529867.7176235-.27898633.70441718-.66406272.0098971-.56855609-.43745894-.99085569-.76317776-1.40713564-.26396844-.30809281-.50475417-.6434233-.64493003-1.02668244-1.04729935-1.90198388-2.33052716-3.67137612-3.80374482-5.26590442-3.09545597-3.51564607-6.31098298-6.94419382-9.03831167-10.76293305-1.87113911-2.46522838-3.46110212-5.12590131-5.23958845-7.65580349-1.84128882-2.59325443-3.87898192-5.0436699-6.05138342-7.36541124-3.15696081-3.53832633-6.35553546-7.04231008-9.38337588-10.69299475-3.03991634-3.87610421-5.7130457-8.03233277-8.90257274-11.79233162-3.25863491-4.1556347-7.00614649-7.89182989-10.39086174-11.94051097-2.7249027-2.97478761-5.18870409-6.17282604-7.70072844-9.32543006-2.14449684-2.60100242-4.09905791-5.35173892-6.23881284-7.95651666-4.63597498-6.04227865-9.55914694-11.86551931-14.76976794-17.42028135-2.77671975-2.93088738-5.69486816-5.7472851-8.91724452-8.18823507-2.88033337-2.12534207-6.06726685-3.7967396-8.92095846-5.96036177-1.94475144-.89688913-3.59383982-2.30511831-5.5063222-3.2613773-1.83943095-.97704562-3.75557438-1.79952863-5.60406723-2.75858864-.71855704-.53816765-1.21960016-1.38910278-2.10814175-1.68004958-.75282238-.17244305-1.45167108-.5194908-2.14729159-.84600246-.63639371-.31658201-1.25060749-.68047947-1.82053134-1.10598739-.3458822-.16558333-.73660516-.18835302-1.11336181-.20408723z"/><path d="m454.19337865 83.34233839c-.49194283.15627168-1.06891514-.08140064-1.51684404.22815252-.34199152.22012749-.04176668.56113115-.06422837.86603432.06883094.40428662-.39977631.48265807-.64580843.24981324-.31392861-.19616853-.46142675.20838192-.21334138.38824922-.13842957.45223789-.67198609.17903065-.80798962-.13112365-.21393648.18702524-.32010027.50401155-.59877795.60837257-.37602344-.1057642-.14190566-.6311059-.38538926-.87467111-.15190359-.287671-.55787534-.46701341-.83071763-.22952514-.38877092.2566878-.26473993.80113393-.5479842 1.12461153-.27441455.23669729-.69937329.09959904-.91453116-.15454712-.19234819-.21772208-.53201564-.56453892-.80879616-.25540693-.28925721.27960634-.60384588.54904611-.785269.91884368-.1912124.24720083-.2647465.86105015-.33377021.94445086-.09626938-.32137766-.48686081-.27638185-.6941925-.09959007-.22172203.20965215-.45479783.29228362-.75388882.23298773-.67676389.05939764-1.15700989.60655084-1.5858231 1.07719892-.22515173.26028997-.45035853.539521-.78976103.65379874-.42679241.16908578-.88595083.28235896-1.2501611.57603508-.83411428.5112206-1.56180977 1.2423292-2.53655608 1.48599807-.53602928.16857877-.98095339.53474916-1.34159464.95482632-1.55140984 1.4306864-3.48483471 2.32609842-5.28230667 3.39431635-2.77441156 1.52584823-5.59588657 2.99828415-8.14414942 4.89176791-4.66867022 3.30374202-9.07726729 6.95277708-13.6159586 10.42864915-8.03270628 6.34789978-16.01707135 12.80933407-23.20013265 20.12452429-2.83630477 2.95895288-5.60373313 5.98295828-8.39365699 8.98528716-6.56203955 7.49783596-11.96806926 15.90850295-17.10303773 24.42103374-1.66178486 2.72438883-3.25903109 5.48755017-4.80203785 8.28083566-1.73447878 3.13585679-3.42789808 6.29448779-5.10162859 9.46302101-3.14654671 6.34324376-6.28192399 12.70418999-9.93772609 18.7745624-1.75148974 2.96891999-3.60289161 5.87770387-5.41103504 8.81159649-.33246036.71585233.32489129 1.58934103 1.08472548 1.58641649.82615947-.03611236 1.48223641-.59610647 2.16490291-.99450663 1.06526325-.75219261 2.11903532-1.52116568 3.2031677-2.24605423 6.64011414-4.7686933 12.40232758-10.64027022 17.71000193-16.8290035 1.06014638-1.25323953 2.12115529-2.5060524 3.23142533-3.71556105 2.64052319-2.90855744 5.37215413-5.74237785 7.79840008-8.83714512 3.20396461-3.95654626 6.35712847-7.95618385 9.68749934-11.80829568 3.60596183-4.29446272 7.27880972-8.55682568 11.41951151-12.35066055 9.46844957-8.94623593 20.03739697-16.62101282 30.76240334-23.97508416 3.61347272-2.46983045 7.26528269-4.89410737 10.70814236-7.60173726 1.54242409-1.20155485 3.01765795-2.48545381 4.52797129-3.72641316 4.10651758-3.43317479 8.1271297-6.99707933 11.69343203-10.99853686 1.14640842-1.09885318 2.43116399-2.05352474 3.49747364-3.23472638.71401462-.8552508 1.18256508-1.92100938 2.07466235-2.62110682.60006342-.13405581.94551282-.69903841 1.18804434-1.21648445.15748879-.31475491.29622913-.64612989.50840622-.92748958.26096168-.26296215.75648722-.15296789.93930554-.50949605.07155994-.29548649-.0513109-.6789779.25548728-.88602865.22707229-.21873083.57903417-.22252279.81968435-.39275121.57063795-.61745235.94679227-1.40327523 1.60661227-1.93982356.40327907-.08834798.61632499-.50513876.61199353-.8912404-.00884147-.22143432-.06097744-.69616143.30484768-.48624736.47101457.26071947.26010695-.49482681-.00574899-.59690814-.35421141-.27329019-.92909765-.35516279-1.0560093-.84985857-.13325567-.51948887-.42882434-.99056542-.79175951-1.38143959-.34497246.17944302-.59377861-.27339541-.82939766-.3007733-.40278508.15146896-.86122171.24141144-1.17225234.56035313-.41260977-.03841577-.42941235.44046198-.34970712.72457528.0880292.298436.02480957.77151381-.37461407.53735901-.47989532-.05235979-.89044949.27371889-1.18343531.61738787-.39028869.35861258-1.03423464.46109172-1.23423186 1.00547822-.15687385.28681386.74117917.55911586.13805782.69303976-.31864839.07276881-.5853595.38706463-.93587644.2708037-.31597675-.00054648-.42339305.37534318-.57870634.5929422-.18363865.3370942-.54959586.09241736-.8309521.12614054-.32733998.00198489-.767483-.0025207-.92139127-.35393993-.10686138-.16410699.03902299-.76183401-.25139339-.38627544-.35134145.213536-.49567399-.31743662-.59418774-.55667941-.04684976-.32651735-.4335225-.57117879-.63342288-.20458222-.21606017.26045825.07160374.5533708.17784843.79436824.10393576.37750594-.46792352.1765449-.62943267.4051904-.46857101.26347705-1.0092919.63242038-1.56802359.41616402-.33083516.03595639-.641591.34353499-.97937048.45735651-.3409355.17775316-.72993369.21527225-1.07111587.38853-.43581298.18861612-.90356874.28655228-1.36624313.37482327-.50112213.19774245-.99685621.62112647-1.56828871.45598114-.38839304-.14339478-.44012492-.65513207-.27121746-.98507011.22070665-.52823944.80202377-.71889751 1.29289184-.90743749.38196372-.08463467.49348015-.51785173.83889569-.63260652.32863358-.1346008.7583565-.11205198.99653892-.41028379.20857298-.29282124-.26341111-.61194074-.01184787-.88090299.28595521-.23116568.77436912-.1760484.99881414.11814833.32073852.23700687.53460108-.26159534.70197289-.46433705.21795935-.31194542.54961867-.50947405.82017818-.77282827.4426137-.37471061 1.00847419-.64762835 1.60034761-.58785938.31704708-.09390335.33896238-.4914179.61716707-.62963281.0874456-.27859727.24436139-.67759044.61543665-.53607592.59545772-.1776379 1.05669617-.73194238 1.10641768-1.35312439.13355988-.33359536.48469524-.62531695.37927239-1.01887724-.1601123-.30623428.29113676-.45437517.5016599-.57066638.33474067-.1154871.4568582-.44893581.50677471-.76635474.19754268-.56467938.58864927-1.03067125.97963168-1.47228108.05045989-.42180309-.68643981-.19161049-.60733698-.56739936.13062359-.33918402.5433327-.19107248.81532114-.18296043.44172128.03844461.05836779-.44546103-.17522735-.47661553-.35655865-.15504997-.03056437-.41385019.21710242-.39153757.32799127-.06410903.38723994-.46490178.24928585-.7200796-.13487694-.31714084-.4197874-.52805814-.63606703-.78643692-.10880538-.11129197-.22007717-.22016862-.32736368-.33294424z"/></g><g transform="translate(158.475204 -31.188385)"><path d="m505.45219866 42.54312493c-.2907688.45657185-.96315518.65572821-.32901674 1.19280746.2312334 1.39742432 1.49706633 2.38372867 1.73906764 3.68203668.20306284.53261157 1.03571844.97701786.48698706 1.75227027-.92907453.4636268-1.93747468-.99231833-2.90225702-1.26025473-.46137916-.30085797-.82544464-.72503844-1.25241686-.44858329-.48086301-.80569075-1.00652245-1.96683081-2.11839632-2.12831304-.60839491-.3391107-1.38116497-2.15490911-1.92258033-.92447661-.50154695.39360872-.87615433-1.47855919-1.01853974-.30652162-.3139133.62908658.40539659 1.96438493.08420416 2.03807628-.81675307-.11451387.30289423.41953097-.25225096.63829103-.04785146.51489361.15088716.69720027.36817701.24808555.68881512.26865267.35797632 1.48649465 1.13817909 1.87450069.3185693.92415155 1.14882832 1.37137414 1.71327237 2.08824205.44760641.61796336.8798573 1.03201975 1.29974435 1.53461409.12062701 1.27931089-1.2667088 1.27231186-1.79424084.36740557-.78687078-.96513261-1.97817985-.76335778-2.81511845-1.54966891-.32511093-.45530021-.98211659.64456447-.95612807-.32414236.23647012-1.50203275-2.28963873-.10713339-2.00397871-1.60155314-.37207036-.75383128-.92382676-.67049669-1.1842761-.12855151-.20197873-.31561444-.73951655-1.09241414-.44254005-.19056502.46694189.8916742-.40667255.40046109-.63095289.19225409.06018569.34082023.32653276 1.49075481-.60412244 1.22248815.17583941 1.03860221.93103065 1.95288413 1.83860238 2.37751689.39210598 1.11329708 1.36704759 1.4032755 2.12085449 2.13982953.79473002.63343583 1.53832576 1.30710146 2.32532398 1.95653734 1.05300781.76385933 2.09283189 1.54625502 2.84956015 2.62859532 1.2382255 1.28638924 2.68964918 2.35073485 3.95480898 3.61158017 1.97821242 1.666427 4.09637421 3.20802635 5.83248946 5.1272441.89058518.41174817 1.4223128 1.25052503 2.25063786 1.73934795 1.06166586.63512943 1.76101443 1.70283483 2.71085936 2.48249995 2.99251391 2.77469505 6.14582754 5.37544078 9.01944075 8.27747493 2.35435463 2.30142937 4.64721144 4.66633311 6.94857746 7.01974055 2.72176583 2.90045098 5.44387479 5.80091451 8.28987029 8.58120575 2.59035376 2.58536535 5.30779499 5.04130924 7.94315586 7.58106223 5.47572176 5.15770954 11.02516225 10.2372058 16.64626618 15.23552104 3.6614547 3.49510705 6.86772592 7.42490243 10.21987993 11.20792868 4.35508349 5.21103916 8.42739565 10.67819637 13.25025432 15.47959278 1.67028442 1.80988602 3.41234199 3.55371417 5.17665484 5.26809962 2.30316888 2.55972907 5.01850083 4.69677287 7.58826163 6.97520742 3.09886924 2.69150679 6.41546012 5.11528513 9.84452707 7.36655244 2.15283493 1.47220096 4.39297614 2.89882113 6.89319123 3.68831018.75922463.85944992 3.07668855.86688568 2.14566235-.70574553-.87711659-1.0078705-1.27327165-2.29854059-1.99017378-3.41392599-1.58351233-2.81510591-3.82123722-5.16932961-5.74177831-7.74691281-3.19958785-4.02651789-5.93970854-8.40332671-8.32875608-12.953192-1.77915643-3.47450976-3.83765362-6.81316392-6.1984691-9.92404947-2.83176849-3.89852929-5.67655878-7.78935315-8.45013575-11.72893776-2.59499146-3.89902438-4.84147665-8.02931705-7.69639946-11.7532246-2.31551133-3.23463719-5.00274019-6.17235151-7.72418417-9.06527926-1.95829123-2.16240542-4.02913476-4.21411173-6.10929482-6.2580655-3.21814461-3.21094109-6.49207039-6.3784896-9.4001208-9.87994237-2.32193117-2.57807756-4.56611244-5.22354883-6.83957952-7.84347112-4.21948035-4.76624268-8.46979687-9.51392957-12.97856953-14.01010715-3.11165645-3.04811794-6.36739793-6.00213323-10.12920029-8.23583574-1.87731646-1.11284869-3.64895876-2.39640795-5.44461968-3.62851733-1.85701246-.88015908-3.40924122-2.26189001-5.25752518-3.16001131-1.79189899-.95268186-3.65532944-1.77928812-5.43718531-2.74141543-.6714569-.84492635-1.43082915-1.57969174-2.54201236-1.76142803-1.20570563-.46215976-2.33846968-1.10471111-3.37777016-1.86897844-.26471599-.0525307-.5758709.18113972-.80592046-.03324872z"/><path d="m610.42675731 42.17423807c-.60344239.23241102-1.25963417.0571154-1.88214595.16680337-.19364043.42260422.30830958.7738043.2324208 1.18613086-.33508272.44721714-.90879438-.25543712-1.23429536.06893903.2036022.2342572.1092722.89224005-.29738999.58365707-.13916706-.27008235-.44557883-.57428781-.62123113-.14061504-.06069816.44572682-.67370435.69450725-.75659309.12399853-.06295739-.36415923-.06527601-.89104285-.51020111-.99997862-.42979454-.06697272-.7717714.31297859-.81917569.71445724-.05073576.38797644-.27939173.90665919-.763209.78712827-.48511857-.02850957-.67730864-.75375026-1.17489197-.60640132-.48184187.22425443-.85072595.65432129-1.11190223 1.10740087-.06783556.31650721-.05484271.95812026-.57038115.80659421-.26745555-.38604647-.81260281-.05639428-.55872523.34567758-.47211422-.24880947-1.0495963-.082948-1.43848073.25790635-.34546205.27018215-.70870314.52752622-.96656519.89406317-.2832544.32977765-.60480443.73869756-1.0803839.73156759-.85310965.19850531-1.40783056.94711566-2.14681715 1.36326237-.54764348.37152708-1.16667979.6156945-1.74774734.92174643-1.06958114.70427525-1.80269461 1.83158603-2.95716224 2.42119256-2.28125707 1.49435053-4.62046253 2.89737716-6.9248797 4.35484196-4.80030363 3.14935767-9.12580643 6.94288321-13.52225758 10.6172071-8.07723952 6.84460519-16.01066096 13.88452183-23.35825216 21.51583514-3.3925762 3.54036734-6.59895149 7.26412816-9.50292662 11.21727112-4.88641783 6.46280357-9.95404133 12.78573965-14.91936082 19.18759696-5.07231093 6.53910443-10.09969662 13.12168236-14.75858885 19.96447962-1.59676259 2.33559656-3.02286068 4.78094177-4.38595638 7.25848186-2.19513884 3.98565881-4.2452771 8.05014417-6.21178554 12.15288522-1.47175843 3.14417515-2.85545092 6.33484814-4.02010413 9.60611184-.13915725.59605054.2249087 1.39366841.89747547 1.42005399.64636788-.07984555 1.03352803-.68972453 1.48676805-1.0898357 8.78163089-8.23303148 17.74012431-16.27795741 26.87074705-24.12251435 3.65069711-3.178876 7.21071771-6.46134878 10.67966945-9.83750955 4.57091547-4.34336608 9.07825698-8.77180028 13.15409219-13.59005721 8.73711531-9.74188049 18.46241872-18.56528085 28.74887056-26.64177354 3.91954269-3.10137414 7.91449995-6.1055115 11.88023047-9.14698102 4.25544026-3.33154434 8.23984143-6.98730978 12.24527192-10.61035775 2.69136512-2.45272953 5.31359247-4.98499633 7.77278592-7.67199831.71089567-.77241373 1.49050151-1.47844519 2.33706268-2.09879078.57464682-.53936245 1.1454927-1.08232606 1.72182246-1.62014176.49200303-.45030192.82937036-1.02573586 1.19721839-1.57266556.45916695-.6388074 1.07187997-1.16397035 1.7759714-1.51143126.58134086-.46878474.84950056-1.19012794 1.14317878-1.85179067.3761688-.25004238 1.07921923-.07269485 1.20750427-.62910699-.07672182-.33654544-.12182964-.91858618.40232957-.83535706.51221087.14763875.85922719-.33182697 1.07740716-.72060827.46306507-.76839066 1.16414112-1.40970723 2.00215537-1.74424996.32115914-.32004621-.11208804-.79255652.08747277-1.12763928.25242367-.12585192.59641537.49407775.67349198-.06926861.08838991-.54709106-.54100756-.57332776-.91805367-.60916567-.45828271-.21170651-.61886852-.74652441-.78061551-1.18625132-.48339971.00830317-.40114845-.61768857-.62931559-.88996375-.32177647-.15330974-1.0876389.14028756-.96902435-.47949552-.30566859.37782223-.81987242.2096207-1.19033432.28398439-.13504094.27353978-.2711347.56908976-.59632789.3611028-.43434281.27956909-.07132138.82539178-.12453499 1.2264503-.14756568.42949342-.64461534-.25120983-.98235464-.09793567-.4678886.04909022-.33741714.75593616-.78975701.85440905-.32942035.13270545-.9160961.05201551-.99830823.48771886-.17518993.19317828-.66019437.46846759-.16775767.65817203.33938197.16844876.26400116.77134181-.18346371.53348919-.37800275.03212822-.5912501.45551411-1.01862114.25573523-.3687911.10341219-.3283105.81128445-.80725604.75853764-.35841752-.39777796-.83628622.00701194-1.2148718-.07017767-.25530898-.233037-.51618848-.39845845-.51913294-.79925478-.1596638-.09473424-.67066609.28601725-.72460008-.1977468-.0592354-.39796009-.45131133-1.12111162-.85676503-.55723286-.33338181.37942899.65182279 1.04891144-.10087274 1.12174251-.51481743.06219773-.86655113.44346357-1.23952467.72404057-.36655371.07941428-.88259953-.50610178-1.05769981.0670402-.50951112.27537405-1.19636838.36559674-1.74460143.66098763-.6551537.35306904-1.41363936.40480286-2.09837969.67672964-.37222758.35413236-1.09397835.60705047-1.47251082.13417398-.28642311-.37958244-.04327911-.8392568.25268339-1.12312535.22266505-.42463722.67452236-.53312893 1.11376259-.58826693.51232427-.0387501.46628432-.67061408.88547983-.83581447.33897068-.14799065.9483996.07379654 1.08343646-.38232911.01167425-.32717008-.50037935-.79710771-.0055516-.98608456.45059819-.16668453.73685972.40048786 1.17154429.32986954.288582-.37794504.63686492-.73505864 1.00344983-1.06118495.45669153-.42574926.98342937-.89454201 1.65108959-.86654996.4242522.05660973.77380866-.22824176.85785937-.56370835.38830342.0390555.18505462-.80712215.72455096-.61666184.40025294-.15693179.80754066-.37937201 1.07918989-.71948945.21694723-.39193088.20841422-.86341293.50624068-1.22474384.19105652-.38248699-.18652499-.99246894.49979756-.97036028.54944687.03377323.55365547-.54007333.60390754-.92309016.28206762-.40724859.60580247-.80098028.8650948-1.20739997.29944422-.08110727.43504518-.48907711-.00418267-.43395434-.57271917.10469794-.54847226-.80414512.02444714-.58966356.26251198.21710447.97023237-.02877555.50194956-.3085163-.44957788-.01926904-.71529402-.44805609-.11136642-.4649674.39459045-.13209773.37797092-.62765326.16852599-.91253889-.15446853-.37258539-.40145702-.67458624-.80875505-.78029395-.09520608-.05211468-.18187362-.12588466-.23100643-.22443359z"/></g></svg>