<svg height="48" width="48" xmlns="http://www.w3.org/2000/svg" xmlns:xlink="http://www.w3.org/1999/xlink"><radialGradient id="a" cx="23.857143" cy="40" gradientTransform="matrix(1 0 0 .5 0 20)" gradientUnits="userSpaceOnUse" r="17.142857"><stop offset="0"/><stop offset="1" stop-opacity="0"/></radialGradient><linearGradient id="b" gradientUnits="userSpaceOnUse" x1="9.303052" x2="38.826411" xlink:href="#c" y1="25.004466" y2="25.004466"/><linearGradient id="c"><stop offset="0" stop-color="#7e807a"/><stop offset=".25" stop-color="#babbb8"/><stop offset=".5" stop-color="#a5a6a3"/><stop offset="1" stop-color="#333432"/></linearGradient><linearGradient id="d" gradientUnits="userSpaceOnUse" x1="25.064731" x2="25.207587" xlink:href="#e" y1="20.142859" y2="23.714288"/><linearGradient id="e"><stop offset="0" stop-color="#7d4b01"/><stop offset="1" stop-color="#535353"/></linearGradient><linearGradient id="f" gradientUnits="userSpaceOnUse" x1="10.11607" x2="38.013392" xlink:href="#g" y1="15.797492" y2="15.797492"/><linearGradient id="g"><stop offset="0" stop-color="#f79403"/><stop offset=".18691589" stop-color="#fdb343"/><stop offset=".43008122" stop-color="#fdb74f"/><stop offset="1" stop-color="#8f5601"/></linearGradient><linearGradient id="h" gradientUnits="userSpaceOnUse" x1="17.160094" x2="37.969397" xlink:href="#i" y1="12.290198" y2="54.861628"/><linearGradient id="i"><stop offset="0" stop-color="#fff"/><stop offset="1" stop-color="#fff" stop-opacity="0"/></linearGradient><linearGradient id="j" gradientUnits="userSpaceOnUse" x1="24" x2="24" xlink:href="#k" y1="16.525082" y2="13.284962"/><linearGradient id="k"><stop offset="0" stop-color="#fff"/><stop offset="1" stop-color="#e7e6ae"/></linearGradient><linearGradient id="l" gradientUnits="userSpaceOnUse" x1="15.928573" x2="15.642858" xlink:href="#i" y1="20.428571" y2="30.928571"/><linearGradient id="m" gradientUnits="userSpaceOnUse" x1="9.303052" x2="38.826411" xlink:href="#c" y1="25.004466" y2="25.004466"/><linearGradient id="n" gradientUnits="userSpaceOnUse" x1="25.064731" x2="25.207587" xlink:href="#e" y1="20.142859" y2="23.714288"/><linearGradient id="o" gradientUnits="userSpaceOnUse" x1="10.11607" x2="38.013392" xlink:href="#g" y1="15.797492" y2="15.797492"/><linearGradient id="p" gradientUnits="userSpaceOnUse" x1="17.160094" x2="37.969397" xlink:href="#i" y1="12.290198" y2="54.861628"/><linearGradient id="q" gradientUnits="userSpaceOnUse" x1="24" x2="24" xlink:href="#k" y1="16.525082" y2="13.284962"/><linearGradient id="r"><stop offset="0" stop-color="#4a381c"/><stop offset="1" stop-color="#303030"/></linearGradient><linearGradient id="s" gradientUnits="userSpaceOnUse" x1="75.1619984779" x2="91.42825625627" xlink:href="#c" y1="46.59380095313" y2="46.59380095313"/><linearGradient id="t" gradientUnits="userSpaceOnUse" x1="83.8460893916" x2="83.92479766193" xlink:href="#r" y1="43.91523877871" y2="45.88296151484"/><linearGradient id="u" gradientUnits="userSpaceOnUse" x1="78.81241203709" x2="78.65499384354" xlink:href="#i" y1="44.15629485" y2="49.941399"/><linearGradient id="v" gradientUnits="userSpaceOnUse" x1="79.49093340942" x2="90.9560748517" xlink:href="#i" y1="39.67235861303" y2="63.12761160012"/><linearGradient id="w" gradientUnits="userSpaceOnUse" x1="75.60994174512" x2="90.98031443808" xlink:href="#g" y1="41.60474538204" y2="41.60474538204"/><linearGradient id="x" gradientUnits="userSpaceOnUse" x1="287.73709633853" x2="317.01651799432" xlink:href="#c" y1="-288.61081420625" y2="-288.61081420625"/><linearGradient id="y" gradientUnits="userSpaceOnUse" x1="303.36854415056" x2="303.5102198" xlink:href="#r" y1="-293.43225208118" y2="-289.89033208472"/><linearGradient id="z" gradientUnits="userSpaceOnUse" x1="288.54339676104" x2="316.21021658007" xlink:href="#g" y1="-297.59116539944" y2="-297.59116539944"/><linearGradient id="A" gradientUnits="userSpaceOnUse" x1="295.52921937186" x2="316.16658508964" xlink:href="#i" y1="-301.06948031261" y2="-258.84979760442"/><linearGradient id="B" gradientUnits="userSpaceOnUse" x1="294.3078794882" x2="294.0245252141" xlink:href="#i" y1="-292.99834914" y2="-282.5851056"/><linearGradient id="C" gradientUnits="userSpaceOnUse" x1="294.90966611249" x2="294.70502444375" xlink:href="#i" y1="-225.735661025" y2="-218.2150985"/><linearGradient id="D" gradientUnits="userSpaceOnUse" x1="295.79173594118" x2="310.69627539958" xlink:href="#i" y1="-231.56472309417" y2="-201.07318965668"/><linearGradient id="E" gradientUnits="userSpaceOnUse" x1="290.74649566313" x2="310.72778655656" xlink:href="#g" y1="-229.05264463507" y2="-229.05264463507"/><linearGradient id="F" gradientUnits="userSpaceOnUse" x1="290.16416635808" x2="311.31009657785" xlink:href="#c" y1="-222.56693428906" y2="-222.56693428906"/><linearGradient id="G" gradientUnits="userSpaceOnUse" x1="301.45337515984" x2="301.55569491985" xlink:href="#r" y1="-226.04903137625" y2="-223.491016605"/><linearGradient id="H" gradientUnits="userSpaceOnUse" x1="298.22201617995" x2="298.06459773497" xlink:href="#i" y1="-167.83368799" y2="-162.0485746"/><linearGradient id="I" gradientUnits="userSpaceOnUse" x1="298.9005405103" x2="310.36570026477" xlink:href="#i" y1="-172.31762606303" y2="-148.86233561308"/><linearGradient id="J" gradientUnits="userSpaceOnUse" x1="295.01954264727" x2="310.38993988987" xlink:href="#g" y1="-170.38523620759" y2="-170.38523620759"/><linearGradient id="K" gradientUnits="userSpaceOnUse" x1="294.57159966459" x2="310.83788342351" xlink:href="#c" y1="-165.39617253438" y2="-165.39617253438"/><linearGradient id="L" gradientUnits="userSpaceOnUse" x1="303.25570444857" x2="303.33441284461" xlink:href="#r" y1="-168.07473898701" y2="-166.10701310802"/><linearGradient id="M" gradientUnits="userSpaceOnUse" x1="300.75818327254" x2="300.63224726627" xlink:href="#i" y1="-111.25067906" y2="-106.6225424"/><linearGradient id="N" gradientUnits="userSpaceOnUse" x1="301.30100950082" x2="310.4732283659" xlink:href="#i" y1="-114.83786556681" y2="-96.07344691427"/><linearGradient id="O" gradientUnits="userSpaceOnUse" x1="298.19618038574" x2="310.4926202585" xlink:href="#g" y1="-113.29193833454" y2="-113.29193833454"/><linearGradient id="P" gradientUnits="userSpaceOnUse" x1="297.83782244183" x2="310.85097864319" xlink:href="#c" y1="-109.30064510625" y2="-109.30064510625"/><linearGradient id="Q" gradientUnits="userSpaceOnUse" x1="304.78517524212" x2="304.84814258409" xlink:href="#r" y1="-111.44351954275" y2="-109.86932321099"/><linearGradient id="R" gradientUnits="userSpaceOnUse" x1="299.59998604696" x2="299.53702152098" xlink:href="#i" y1="-65.966771845" y2="-63.6528313"/><linearGradient id="S" gradientUnits="userSpaceOnUse" x1="299.87138091205" x2="304.45723709538" xlink:href="#i" y1="-67.76026821795" y2="-58.37857698599"/><linearGradient id="T" gradientUnits="userSpaceOnUse" x1="298.31905208029" x2="304.46693250626" xlink:href="#g" y1="-66.98734728558" y2="-66.98734728558"/><linearGradient id="U" gradientUnits="userSpaceOnUse" x1="298.13988300276" x2="304.64610180416" xlink:href="#c" y1="-64.99181172031" y2="-64.99181172031"/><linearGradient id="V" gradientUnits="userSpaceOnUse" x1="301.61336758327" x2="301.6448495157" xlink:href="#r" y1="-66.0631897728" y2="-65.27613507121"/><g transform="translate(.329557 -1.750914)"><path d="m41 40c0 4.733869-7.675118 8.571428-17.142857 8.571428-9.467738 0-17.1428562-3.837559-17.1428562-8.571428s7.6751182-8.571428 17.1428562-8.571428c9.467739 0 17.142857 3.837559 17.142857 8.571428z" display="block" fill="url(#a)" transform="matrix(1.058752 0 0 1.151259 -1.115944 -10.27691)"/><path d="m23.937499 7.191965c-7.859427 0-14.2499993 2.8025009-14.2500003 6.250001v23.125c0 3.447501 6.3905723 6.25 14.2500003 6.25s14.504466-2.8025 14.504464-6.25c0-.204061 0-22.920939 0-23.125 0-3.4475011-6.645037-6.250001-14.504464-6.250001z" display="block" fill="url(#b)" stroke="url(#d)" stroke-miterlimit="10"/><path d="m23.941292 7.4484874c-7.625145 0-13.825221 2.7189626-13.825222 6.0636946v6.557844c0 3.344734 6.200076 5.647898 13.825222 5.647898s14.072102-2.303164 14.0721-5.647898c0-.197978 0-6.359866 0-6.557844 0-3.344733-6.446955-6.0636946-14.0721-6.0636946z" display="block" fill="url(#f)"/><path d="m23.946122 7.9712859c-7.327758 0-13.286026 2.6129201-13.286027 5.8272051v22.126271c0 3.214287 5.958268 5.827205 13.286027 5.827205 7.327758 0 13.523277-2.612919 13.523275-5.827205 0-.190256 0-21.936013 0-22.126271 0-3.214286-6.195518-5.8272051-13.523275-5.8272051z" display="block" fill="none" opacity=".544304" stroke="url(#h)" stroke-miterlimit="10"/><path d="m36.857142 14.071428c0 3.037566-5.756338 5.5-12.857142 5.5s-12.857142-2.462434-12.857142-5.5 5.756338-5.4999997 12.857142-5.4999997 12.857142 2.4624337 12.857142 5.4999997z" display="block" fill="#fed496" stroke="url(#j)" stroke-miterlimit="10" stroke-width="1.004927" transform="matrix(1.037291 0 0 .954619 -.894979 -.075721)"/><path d="m41 40c0 4.733869-7.675118 8.571428-17.142857 8.571428-9.467738 0-17.1428562-3.837559-17.1428562-8.571428s7.6751182-8.571428 17.1428562-8.571428c9.467739 0 17.142857 3.837559 17.142857 8.571428z" display="block" fill="url(#a)" opacity=".658228" transform="matrix(.36343 0 0 .36343 15.47247 -4.118577)"/><path d="m23.889443 6.465348c-2.002794 0-4.631284.714153-4.631284 1.592669v2.629659c0 .878516 2.62849 1.592669 4.631284 1.592669 2.002795 0 4.410416-.714153 4.410415-1.592669 0-.052 0-2.577659 0-2.629659 0-.878517-2.40762-1.592669-4.410415-1.592669z" display="block" fill="#fcaf3e" stroke="#b46c02" stroke-miterlimit="10"/><path d="m13.642858 17.999999.357142 16.785715 4.571429 1.285714-.142857-16.714286s2.071428 0 5.428571-.214286c-5.215743-.233073-11.183373-2.47468-13.214285-3.928571 1.416899 2.092176 3 2.785714 3 2.785714z" display="block" fill="url(#l)" opacity=".493671"/><path d="m36.857142 14.071428c0 3.037566-5.756338 5.5-12.857142 5.5s-12.857142-2.462434-12.857142-5.5 5.756338-5.4999997 12.857142-5.4999997 12.857142 2.4624337 12.857142 5.4999997z" display="block" fill="#fed496" stroke="url(#j)" stroke-miterlimit="10" stroke-width="4.119866" transform="matrix(.271979 0 0 .216619 17.27048 5.409742)"/></g><g transform="matrix(.5509623 0 0 .5509623 56.988053 -177.88128)"><path d="m41 40c0 4.733869-7.675118 8.571428-17.142857 8.571428-9.467738 0-17.1428562-3.837559-17.1428562-8.571428s7.6751182-8.571428 17.1428562-8.571428c9.467739 0 17.142857 3.837559 17.142857 8.571428z" display="block" fill="url(#a)" transform="matrix(1.058752 0 0 1.151259 -1.115944 -10.27691)"/><path d="m23.937499 7.191965c-7.859427 0-14.2499993 2.8025009-14.2500003 6.250001v23.125c0 3.447501 6.3905723 6.25 14.2500003 6.25s14.504466-2.8025 14.504464-6.25c0-.204061 0-22.920939 0-23.125 0-3.4475011-6.645037-6.250001-14.504464-6.250001z" display="block" fill="url(#m)" stroke="url(#n)" stroke-miterlimit="10"/><path d="m23.941292 7.4484874c-7.625145 0-13.825221 2.7189626-13.825222 6.0636946v6.557844c0 3.344734 6.200076 5.647898 13.825222 5.647898s14.072102-2.303164 14.0721-5.647898c0-.197978 0-6.359866 0-6.557844 0-3.344733-6.446955-6.0636946-14.0721-6.0636946z" display="block" fill="url(#o)"/><path d="m23.946122 7.9712859c-7.327758 0-13.286026 2.6129201-13.286027 5.8272051v22.126271c0 3.214287 5.958268 5.827205 13.286027 5.827205 7.327758 0 13.523277-2.612919 13.523275-5.827205 0-.190256 0-21.936013 0-22.126271 0-3.214286-6.195518-5.8272051-13.523275-5.8272051z" display="block" fill="none" opacity=".544304" stroke="url(#p)" stroke-miterlimit="10"/><path d="m36.857142 14.071428c0 3.037566-5.756338 5.5-12.857142 5.5s-12.857142-2.462434-12.857142-5.5 5.756338-5.4999997 12.857142-5.4999997 12.857142 2.4624337 12.857142 5.4999997z" display="block" fill="#fed496" stroke="url(#q)" stroke-miterlimit="10" stroke-width="1.004927" transform="matrix(1.037291 0 0 .954619 -.894979 -.075721)"/><path d="m41 40c0 4.733869-7.675118 8.571428-17.142857 8.571428-9.467738 0-17.1428562-3.837559-17.1428562-8.571428s7.6751182-8.571428 17.1428562-8.571428c9.467739 0 17.142857 3.837559 17.142857 8.571428z" display="block" fill="url(#a)" opacity=".658228" transform="matrix(.36343 0 0 .36343 15.47247 -4.118577)"/><path d="m23.889443 6.465348c-2.002794 0-4.631284.714153-4.631284 1.592669v2.629659c0 .878516 2.62849 1.592669 4.631284 1.592669 2.002795 0 4.410416-.714153 4.410415-1.592669 0-.052 0-2.577659 0-2.629659 0-.878517-2.40762-1.592669-4.410415-1.592669z" display="block" fill="#fcaf3e" stroke="#b46c02" stroke-miterlimit="10"/><path d="m13.642858 17.999999.357142 16.785715 4.571429 1.285714-.142857-16.714286s2.071428 0 5.428571-.214286c-5.215743-.233073-11.183373-2.47468-13.214285-3.928571 1.416899 2.092176 3 2.785714 3 2.785714z" display="block" fill="url(#l)" opacity=".493671"/><path d="m36.857142 14.071428c0 3.037566-5.756338 5.5-12.857142 5.5s-12.857142-2.462434-12.857142-5.5 5.756338-5.4999997 12.857142-5.4999997 12.857142 2.4624337 12.857142 5.4999997z" display="block" fill="#fed496" stroke="url(#q)" stroke-miterlimit="10" stroke-width="4.119866" transform="matrix(.271979 0 0 .216619 17.27048 5.409742)"/></g><g transform="matrix(.60605853 0 0 .60605853 29.372158 -178.73152)"><path d="m41 40c0 4.733869-7.675118 8.571428-17.142857 8.571428-9.467738 0-17.1428562-3.837559-17.1428562-8.571428s7.6751182-8.571428 17.1428562-8.571428c9.467739 0 17.142857 3.837559 17.142857 8.571428z" display="block" fill="url(#a)" transform="matrix(1.058752 0 0 1.151259 -1.115944 -10.27691)"/><path d="m23.937499 7.191965c-7.859427 0-14.2499993 2.8025009-14.2500003 6.250001v23.125c0 3.447501 6.3905723 6.25 14.2500003 6.25s14.504466-2.8025 14.504464-6.25c0-.204061 0-22.920939 0-23.125 0-3.4475011-6.645037-6.250001-14.504464-6.250001z" display="block" fill="url(#m)" stroke="url(#n)" stroke-miterlimit="10"/><path d="m23.941292 7.4484874c-7.625145 0-13.825221 2.7189626-13.825222 6.0636946v6.557844c0 3.344734 6.200076 5.647898 13.825222 5.647898s14.072102-2.303164 14.0721-5.647898c0-.197978 0-6.359866 0-6.557844 0-3.344733-6.446955-6.0636946-14.0721-6.0636946z" display="block" fill="url(#o)"/><path d="m23.946122 7.9712859c-7.327758 0-13.286026 2.6129201-13.286027 5.8272051v22.126271c0 3.214287 5.958268 5.827205 13.286027 5.827205 7.327758 0 13.523277-2.612919 13.523275-5.827205 0-.190256 0-21.936013 0-22.126271 0-3.214286-6.195518-5.8272051-13.523275-5.8272051z" display="block" fill="none" opacity=".544304" stroke="url(#p)" stroke-miterlimit="10"/><path d="m36.857142 14.071428c0 3.037566-5.756338 5.5-12.857142 5.5s-12.857142-2.462434-12.857142-5.5 5.756338-5.4999997 12.857142-5.4999997 12.857142 2.4624337 12.857142 5.4999997z" display="block" fill="#fed496" stroke="url(#q)" stroke-miterlimit="10" stroke-width="1.004927" transform="matrix(1.037291 0 0 .954619 -.894979 -.075721)"/><path d="m41 40c0 4.733869-7.675118 8.571428-17.142857 8.571428-9.467738 0-17.1428562-3.837559-17.1428562-8.571428s7.6751182-8.571428 17.1428562-8.571428c9.467739 0 17.142857 3.837559 17.142857 8.571428z" display="block" fill="url(#a)" opacity=".658228" transform="matrix(.36343 0 0 .36343 15.47247 -4.118577)"/><path d="m23.889443 6.465348c-2.002794 0-4.631284.714153-4.631284 1.592669v2.629659c0 .878516 2.62849 1.592669 4.631284 1.592669 2.002795 0 4.410416-.714153 4.410415-1.592669 0-.052 0-2.577659 0-2.629659 0-.878517-2.40762-1.592669-4.410415-1.592669z" display="block" fill="#fcaf3e" stroke="#b46c02" stroke-miterlimit="10"/><path d="m13.642858 17.999999.357142 16.785715 4.571429 1.285714-.142857-16.714286s2.071428 0 5.428571-.214286c-5.215743-.233073-11.183373-2.47468-13.214285-3.928571 1.416899 2.092176 3 2.785714 3 2.785714z" display="block" fill="url(#l)" opacity=".493671"/><path d="m36.857142 14.071428c0 3.037566-5.756338 5.5-12.857142 5.5s-12.857142-2.462434-12.857142-5.5 5.756338-5.4999997 12.857142-5.4999997 12.857142 2.4624337 12.857142 5.4999997z" display="block" fill="#fed496" stroke="url(#q)" stroke-miterlimit="10" stroke-width="4.119866" transform="matrix(.271979 0 0 .216619 17.27048 5.409742)"/></g><g transform="matrix(.66115476 0 0 .66115476 2.041977 -180.4389)"><path d="m41 40c0 4.733869-7.675118 8.571428-17.142857 8.571428-9.467738 0-17.1428562-3.837559-17.1428562-8.571428s7.6751182-8.571428 17.1428562-8.571428c9.467739 0 17.142857 3.837559 17.142857 8.571428z" display="block" fill="url(#a)" transform="matrix(1.058752 0 0 1.151259 -1.115944 -10.27691)"/><path d="m23.937499 7.191965c-7.859427 0-14.2499993 2.8025009-14.2500003 6.250001v23.125c0 3.447501 6.3905723 6.25 14.2500003 6.25s14.504466-2.8025 14.504464-6.25c0-.204061 0-22.920939 0-23.125 0-3.4475011-6.645037-6.250001-14.504464-6.250001z" display="block" fill="url(#m)" stroke="url(#n)" stroke-miterlimit="10"/><path d="m23.941292 7.4484874c-7.625145 0-13.825221 2.7189626-13.825222 6.0636946v6.557844c0 3.344734 6.200076 5.647898 13.825222 5.647898s14.072102-2.303164 14.0721-5.647898c0-.197978 0-6.359866 0-6.557844 0-3.344733-6.446955-6.0636946-14.0721-6.0636946z" display="block" fill="url(#o)"/><path d="m23.946122 7.9712859c-7.327758 0-13.286026 2.6129201-13.286027 5.8272051v22.126271c0 3.214287 5.958268 5.827205 13.286027 5.827205 7.327758 0 13.523277-2.612919 13.523275-5.827205 0-.190256 0-21.936013 0-22.126271 0-3.214286-6.195518-5.8272051-13.523275-5.8272051z" display="block" fill="none" opacity=".544304" stroke="url(#p)" stroke-miterlimit="10"/><path d="m36.857142 14.071428c0 3.037566-5.756338 5.5-12.857142 5.5s-12.857142-2.462434-12.857142-5.5 5.756338-5.4999997 12.857142-5.4999997 12.857142 2.4624337 12.857142 5.4999997z" display="block" fill="#fed496" stroke="url(#q)" stroke-miterlimit="10" stroke-width="1.004927" transform="matrix(1.037291 0 0 .954619 -.894979 -.075721)"/><path d="m41 40c0 4.733869-7.675118 8.571428-17.142857 8.571428-9.467738 0-17.1428562-3.837559-17.1428562-8.571428s7.6751182-8.571428 17.1428562-8.571428c9.467739 0 17.142857 3.837559 17.142857 8.571428z" display="block" fill="url(#a)" opacity=".658228" transform="matrix(.36343 0 0 .36343 15.47247 -4.118577)"/><path d="m23.889443 6.465348c-2.002794 0-4.631284.714153-4.631284 1.592669v2.629659c0 .878516 2.62849 1.592669 4.631284 1.592669 2.002795 0 4.410416-.714153 4.410415-1.592669 0-.052 0-2.577659 0-2.629659 0-.878517-2.40762-1.592669-4.410415-1.592669z" display="block" fill="#fcaf3e" stroke="#b46c02" stroke-miterlimit="10"/><path d="m13.642858 17.999999.357142 16.785715 4.571429 1.285714-.142857-16.714286s2.071428 0 5.428571-.214286c-5.215743-.233073-11.183373-2.47468-13.214285-3.928571 1.416899 2.092176 3 2.785714 3 2.785714z" display="block" fill="url(#l)" opacity=".493671"/><path d="m36.857142 14.071428c0 3.037566-5.756338 5.5-12.857142 5.5s-12.857142-2.462434-12.857142-5.5 5.756338-5.4999997 12.857142-5.4999997 12.857142 2.4624337 12.857142 5.4999997z" display="block" fill="#fed496" stroke="url(#q)" stroke-miterlimit="10" stroke-width="4.119866" transform="matrix(.271979 0 0 .216619 17.27048 5.409742)"/></g><g transform="matrix(.49586607 0 0 .49586607 10.835831 -125.66458)"><path d="m41 40c0 4.733869-7.675118 8.571428-17.142857 8.571428-9.467738 0-17.1428562-3.837559-17.1428562-8.571428s7.6751182-8.571428 17.1428562-8.571428c9.467739 0 17.142857 3.837559 17.142857 8.571428z" display="block" fill="url(#a)" transform="matrix(1.058752 0 0 1.151259 -1.115944 -10.27691)"/><path d="m23.937499 7.191965c-7.859427 0-14.2499993 2.8025009-14.2500003 6.250001v23.125c0 3.447501 6.3905723 6.25 14.2500003 6.25s14.504466-2.8025 14.504464-6.25c0-.204061 0-22.920939 0-23.125 0-3.4475011-6.645037-6.250001-14.504464-6.250001z" display="block" fill="url(#m)" stroke="url(#n)" stroke-miterlimit="10"/><path d="m23.941292 7.4484874c-7.625145 0-13.825221 2.7189626-13.825222 6.0636946v6.557844c0 3.344734 6.200076 5.647898 13.825222 5.647898s14.072102-2.303164 14.0721-5.647898c0-.197978 0-6.359866 0-6.557844 0-3.344733-6.446955-6.0636946-14.0721-6.0636946z" display="block" fill="url(#o)"/><path d="m23.946122 7.9712859c-7.327758 0-13.286026 2.6129201-13.286027 5.8272051v22.126271c0 3.214287 5.958268 5.827205 13.286027 5.827205 7.327758 0 13.523277-2.612919 13.523275-5.827205 0-.190256 0-21.936013 0-22.126271 0-3.214286-6.195518-5.8272051-13.523275-5.8272051z" display="block" fill="none" opacity=".544304" stroke="url(#p)" stroke-miterlimit="10"/><path d="m36.857142 14.071428c0 3.037566-5.756338 5.5-12.857142 5.5s-12.857142-2.462434-12.857142-5.5 5.756338-5.4999997 12.857142-5.4999997 12.857142 2.4624337 12.857142 5.4999997z" display="block" fill="#fed496" stroke="url(#q)" stroke-miterlimit="10" stroke-width="1.004927" transform="matrix(1.037291 0 0 .954619 -.894979 -.075721)"/><path d="m41 40c0 4.733869-7.675118 8.571428-17.142857 8.571428-9.467738 0-17.1428562-3.837559-17.1428562-8.571428s7.6751182-8.571428 17.1428562-8.571428c9.467739 0 17.142857 3.837559 17.142857 8.571428z" display="block" fill="url(#a)" opacity=".658228" transform="matrix(.36343 0 0 .36343 15.47247 -4.118577)"/><path d="m23.889443 6.465348c-2.002794 0-4.631284.714153-4.631284 1.592669v2.629659c0 .878516 2.62849 1.592669 4.631284 1.592669 2.002795 0 4.410416-.714153 4.410415-1.592669 0-.052 0-2.577659 0-2.629659 0-.878517-2.40762-1.592669-4.410415-1.592669z" display="block" fill="#fcaf3e" stroke="#b46c02" stroke-miterlimit="10"/><path d="m13.642858 17.999999.357142 16.785715 4.571429 1.285714-.142857-16.714286s2.071428 0 5.428571-.214286c-5.215743-.233073-11.183373-2.47468-13.214285-3.928571 1.416899 2.092176 3 2.785714 3 2.785714z" display="block" fill="url(#l)" opacity=".493671"/><path d="m36.857142 14.071428c0 3.037566-5.756338 5.5-12.857142 5.5s-12.857142-2.462434-12.857142-5.5 5.756338-5.4999997 12.857142-5.4999997 12.857142 2.4624337 12.857142 5.4999997z" display="block" fill="#fed496" stroke="url(#q)" stroke-miterlimit="10" stroke-width="4.119866" transform="matrix(.271979 0 0 .216619 17.27048 5.409742)"/></g><g transform="matrix(.71625099 0 0 .71625099 -28.43106 -180.432)"><path d="m41 40c0 4.733869-7.675118 8.571428-17.142857 8.571428-9.467738 0-17.1428562-3.837559-17.1428562-8.571428s7.6751182-8.571428 17.1428562-8.571428c9.467739 0 17.142857 3.837559 17.142857 8.571428z" display="block" fill="url(#a)" transform="matrix(1.058752 0 0 1.151259 -1.115944 -10.27691)"/><path d="m23.937499 7.191965c-7.859427 0-14.2499993 2.8025009-14.2500003 6.250001v23.125c0 3.447501 6.3905723 6.25 14.2500003 6.25s14.504466-2.8025 14.504464-6.25c0-.204061 0-22.920939 0-23.125 0-3.4475011-6.645037-6.250001-14.504464-6.250001z" display="block" fill="url(#m)" stroke="url(#n)" stroke-miterlimit="10"/><path d="m23.941292 7.4484874c-7.625145 0-13.825221 2.7189626-13.825222 6.0636946v6.557844c0 3.344734 6.200076 5.647898 13.825222 5.647898s14.072102-2.303164 14.0721-5.647898c0-.197978 0-6.359866 0-6.557844 0-3.344733-6.446955-6.0636946-14.0721-6.0636946z" display="block" fill="url(#o)"/><path d="m23.946122 7.9712859c-7.327758 0-13.286026 2.6129201-13.286027 5.8272051v22.126271c0 3.214287 5.958268 5.827205 13.286027 5.827205 7.327758 0 13.523277-2.612919 13.523275-5.827205 0-.190256 0-21.936013 0-22.126271 0-3.214286-6.195518-5.8272051-13.523275-5.8272051z" display="block" fill="none" opacity=".544304" stroke="url(#p)" stroke-miterlimit="10"/><path d="m36.857142 14.071428c0 3.037566-5.756338 5.5-12.857142 5.5s-12.857142-2.462434-12.857142-5.5 5.756338-5.4999997 12.857142-5.4999997 12.857142 2.4624337 12.857142 5.4999997z" display="block" fill="#fed496" stroke="url(#q)" stroke-miterlimit="10" stroke-width="1.004927" transform="matrix(1.037291 0 0 .954619 -.894979 -.075721)"/><path d="m41 40c0 4.733869-7.675118 8.571428-17.142857 8.571428-9.467738 0-17.1428562-3.837559-17.1428562-8.571428s7.6751182-8.571428 17.1428562-8.571428c9.467739 0 17.142857 3.837559 17.142857 8.571428z" display="block" fill="url(#a)" opacity=".658228" transform="matrix(.36343 0 0 .36343 15.47247 -4.118577)"/><path d="m23.889443 6.465348c-2.002794 0-4.631284.714153-4.631284 1.592669v2.629659c0 .878516 2.62849 1.592669 4.631284 1.592669 2.002795 0 4.410416-.714153 4.410415-1.592669 0-.052 0-2.577659 0-2.629659 0-.878517-2.40762-1.592669-4.410415-1.592669z" display="block" fill="#fcaf3e" stroke="#b46c02" stroke-miterlimit="10"/><path d="m13.642858 17.999999.357142 16.785715 4.571429 1.285714-.142857-16.714286s2.071428 0 5.428571-.214286c-5.215743-.233073-11.183373-2.47468-13.214285-3.928571 1.416899 2.092176 3 2.785714 3 2.785714z" display="block" fill="url(#l)" opacity=".493671"/><path d="m36.857142 14.071428c0 3.037566-5.756338 5.5-12.857142 5.5s-12.857142-2.462434-12.857142-5.5 5.756338-5.4999997 12.857142-5.4999997 12.857142 2.4624337 12.857142 5.4999997z" display="block" fill="#fed496" stroke="url(#q)" stroke-miterlimit="10" stroke-width="4.119866" transform="matrix(.271979 0 0 .216619 17.27048 5.409742)"/></g><text font-family="Bitstream Vera Sans" font-size="16" x="-78.28157" y="-157.37888"><tspan x="-78.28157" y="-157.37888">Gfx40</tspan></text><text font-family="Bitstream Vera Sans" font-size="14" x="35.432716" y="-135.95032"><tspan x="35.432716" y="-135.95032">22</tspan></text><text font-family="DejaVu Sans" font-size="14" x="9.718428" y="-136.52174"><tspan x="9.718428" y="-136.52174">24</tspan></text><text font-family="DejaVu Sans" font-size="14" x="-19.995859" y="-137.6646"><tspan x="-19.995859" y="-137.6646">26</tspan></text><text font-family="DejaVu Sans" font-size="14" x="64.004143" y="-137.9503"><tspan x="64.004143" y="-137.9503">20</tspan></text><g transform="matrix(.5509623 0 0 .5509623 -20.415673 -126.55209)"><path d="m41 40c0 4.733869-7.675118 8.571428-17.142857 8.571428-9.467738 0-17.1428562-3.837559-17.1428562-8.571428s7.6751182-8.571428 17.1428562-8.571428c9.467739 0 17.142857 3.837559 17.142857 8.571428z" display="block" fill="url(#a)" transform="matrix(1.058752 0 0 1.151259 -1.115944 -10.27691)"/><path d="m23.937499 7.191965c-7.859427 0-14.2499993 2.8025009-14.2500003 6.250001v23.125c0 3.447501 6.3905723 6.25 14.2500003 6.25s14.504466-2.8025 14.504464-6.25c0-.204061 0-22.920939 0-23.125 0-3.4475011-6.645037-6.250001-14.504464-6.250001z" display="block" fill="url(#m)" stroke="url(#n)" stroke-miterlimit="10"/><path d="m23.941292 7.4484874c-7.625145 0-13.825221 2.7189626-13.825222 6.0636946v6.557844c0 3.344734 6.200076 5.647898 13.825222 5.647898s14.072102-2.303164 14.0721-5.647898c0-.197978 0-6.359866 0-6.557844 0-3.344733-6.446955-6.0636946-14.0721-6.0636946z" display="block" fill="url(#o)"/><path d="m23.946122 7.9712859c-7.327758 0-13.286026 2.6129201-13.286027 5.8272051v22.126271c0 3.214287 5.958268 5.827205 13.286027 5.827205 7.327758 0 13.523277-2.612919 13.523275-5.827205 0-.190256 0-21.936013 0-22.126271 0-3.214286-6.195518-5.8272051-13.523275-5.8272051z" display="block" fill="none" opacity=".544304" stroke="url(#p)" stroke-miterlimit="10"/><path d="m36.857142 14.071428c0 3.037566-5.756338 5.5-12.857142 5.5s-12.857142-2.462434-12.857142-5.5 5.756338-5.4999997 12.857142-5.4999997 12.857142 2.4624337 12.857142 5.4999997z" display="block" fill="#fed496" stroke="url(#q)" stroke-miterlimit="10" stroke-width="1.004927" transform="matrix(1.037291 0 0 .954619 -.894979 -.075721)"/><path d="m41 40c0 4.733869-7.675118 8.571428-17.142857 8.571428-9.467738 0-17.1428562-3.837559-17.1428562-8.571428s7.6751182-8.571428 17.1428562-8.571428c9.467739 0 17.142857 3.837559 17.142857 8.571428z" display="block" fill="url(#a)" opacity=".658228" transform="matrix(.36343 0 0 .36343 15.47247 -4.118577)"/><path d="m23.889443 6.465348c-2.002794 0-4.631284.714153-4.631284 1.592669v2.629659c0 .878516 2.62849 1.592669 4.631284 1.592669 2.002795 0 4.410416-.714153 4.410415-1.592669 0-.052 0-2.577659 0-2.629659 0-.878517-2.40762-1.592669-4.410415-1.592669z" display="block" fill="#fcaf3e" stroke="#b46c02" stroke-miterlimit="10"/><path d="m13.642858 17.999999.357142 16.785715 4.571429 1.285714-.142857-16.714286s2.071428 0 5.428571-.214286c-5.215743-.233073-11.183373-2.47468-13.214285-3.928571 1.416899 2.092176 3 2.785714 3 2.785714z" display="block" fill="url(#l)" opacity=".493671"/><path d="m36.857142 14.071428c0 3.037566-5.756338 5.5-12.857142 5.5s-12.857142-2.462434-12.857142-5.5 5.756338-5.4999997 12.857142-5.4999997 12.857142 2.4624337 12.857142 5.4999997z" display="block" fill="#fed496" stroke="url(#q)" stroke-miterlimit="10" stroke-width="4.119866" transform="matrix(.271979 0 0 .216619 17.27048 5.409742)"/></g><text font-family="DejaVu Sans" font-size="14" x="12.98965" y="-86.728783"><tspan x="12.98965" y="-86.728783">18</tspan></text><text font-family="DejaVu Sans" font-size="14" x="-15.544516" y="-85.73085"><tspan x="-15.544516" y="-85.73085">20</tspan></text><g transform="matrix(.44076984 0 0 .44076984 39.449655 -124.81434)"><path d="m41 40c0 4.733869-7.675118 8.571428-17.142857 8.571428-9.467738 0-17.1428562-3.837559-17.1428562-8.571428s7.6751182-8.571428 17.1428562-8.571428c9.467739 0 17.142857 3.837559 17.142857 8.571428z" display="block" fill="url(#a)" transform="matrix(1.058752 0 0 1.151259 -1.115944 -10.27691)"/><path d="m23.937499 7.191965c-7.859427 0-14.2499993 2.8025009-14.2500003 6.250001v23.125c0 3.447501 6.3905723 6.25 14.2500003 6.25s14.504466-2.8025 14.504464-6.25c0-.204061 0-22.920939 0-23.125 0-3.4475011-6.645037-6.250001-14.504464-6.250001z" display="block" fill="url(#m)" stroke="url(#n)" stroke-miterlimit="10"/><path d="m23.941292 7.4484874c-7.625145 0-13.825221 2.7189626-13.825222 6.0636946v6.557844c0 3.344734 6.200076 5.647898 13.825222 5.647898s14.072102-2.303164 14.0721-5.647898c0-.197978 0-6.359866 0-6.557844 0-3.344733-6.446955-6.0636946-14.0721-6.0636946z" display="block" fill="url(#o)"/><path d="m23.946122 7.9712859c-7.327758 0-13.286026 2.6129201-13.286027 5.8272051v22.126271c0 3.214287 5.958268 5.827205 13.286027 5.827205 7.327758 0 13.523277-2.612919 13.523275-5.827205 0-.190256 0-21.936013 0-22.126271 0-3.214286-6.195518-5.8272051-13.523275-5.8272051z" display="block" fill="none" opacity=".544304" stroke="url(#p)" stroke-miterlimit="10"/><path d="m36.857142 14.071428c0 3.037566-5.756338 5.5-12.857142 5.5s-12.857142-2.462434-12.857142-5.5 5.756338-5.4999997 12.857142-5.4999997 12.857142 2.4624337 12.857142 5.4999997z" display="block" fill="#fed496" stroke="url(#q)" stroke-miterlimit="10" stroke-width="1.004927" transform="matrix(1.037291 0 0 .954619 -.894979 -.075721)"/><path d="m41 40c0 4.733869-7.675118 8.571428-17.142857 8.571428-9.467738 0-17.1428562-3.837559-17.1428562-8.571428s7.6751182-8.571428 17.1428562-8.571428c9.467739 0 17.142857 3.837559 17.142857 8.571428z" display="block" fill="url(#a)" opacity=".658228" transform="matrix(.36343 0 0 .36343 15.47247 -4.118577)"/><path d="m23.889443 6.465348c-2.002794 0-4.631284.714153-4.631284 1.592669v2.629659c0 .878516 2.62849 1.592669 4.631284 1.592669 2.002795 0 4.410416-.714153 4.410415-1.592669 0-.052 0-2.577659 0-2.629659 0-.878517-2.40762-1.592669-4.410415-1.592669z" display="block" fill="#fcaf3e" stroke="#b46c02" stroke-miterlimit="10"/><path d="m13.642858 17.999999.357142 16.785715 4.571429 1.285714-.142857-16.714286s2.071428 0 5.428571-.214286c-5.215743-.233073-11.183373-2.47468-13.214285-3.928571 1.416899 2.092176 3 2.785714 3 2.785714z" display="block" fill="url(#l)" opacity=".493671"/><path d="m36.857142 14.071428c0 3.037566-5.756338 5.5-12.857142 5.5s-12.857142-2.462434-12.857142-5.5 5.756338-5.4999997 12.857142-5.4999997 12.857142 2.4624337 12.857142 5.4999997z" display="block" fill="#fed496" stroke="url(#q)" stroke-miterlimit="10" stroke-width="4.119866" transform="matrix(.271979 0 0 .216619 17.27048 5.409742)"/></g><text font-family="DejaVu Sans" font-size="14" x="43.734989" y="-87.519669"><tspan x="43.734989" y="-87.519669">16</tspan></text><text font-family="DejaVu Sans" font-size="14" x="-69.565216" y="-112.46377"><tspan x="-69.565216" y="-112.46377">Gfx32</tspan></text><g transform="matrix(.22038492 0 0 .22038492 43.929579 -68.450995)"><path d="m41 40c0 4.733869-7.675118 8.571428-17.142857 8.571428-9.467738 0-17.1428562-3.837559-17.1428562-8.571428s7.6751182-8.571428 17.1428562-8.571428c9.467739 0 17.142857 3.837559 17.142857 8.571428z" display="block" fill="url(#a)" transform="matrix(1.058752 0 0 1.151259 -1.115944 -10.27691)"/><path d="m23.937499 7.191965c-7.859427 0-14.2499993 2.8025009-14.2500003 6.250001v23.125c0 3.447501 6.3905723 6.25 14.2500003 6.25s14.504466-2.8025 14.504464-6.25c0-.204061 0-22.920939 0-23.125 0-3.4475011-6.645037-6.250001-14.504464-6.250001z" display="block" fill="url(#m)" stroke="url(#n)" stroke-miterlimit="10"/><path d="m23.941292 7.4484874c-7.625145 0-13.825221 2.7189626-13.825222 6.0636946v6.557844c0 3.344734 6.200076 5.647898 13.825222 5.647898s14.072102-2.303164 14.0721-5.647898c0-.197978 0-6.359866 0-6.557844 0-3.344733-6.446955-6.0636946-14.0721-6.0636946z" display="block" fill="url(#o)"/><path d="m23.946122 7.9712859c-7.327758 0-13.286026 2.6129201-13.286027 5.8272051v22.126271c0 3.214287 5.958268 5.827205 13.286027 5.827205 7.327758 0 13.523277-2.612919 13.523275-5.827205 0-.190256 0-21.936013 0-22.126271 0-3.214286-6.195518-5.8272051-13.523275-5.8272051z" display="block" fill="none" opacity=".544304" stroke="url(#p)" stroke-miterlimit="10"/><path d="m36.857142 14.071428c0 3.037566-5.756338 5.5-12.857142 5.5s-12.857142-2.462434-12.857142-5.5 5.756338-5.4999997 12.857142-5.4999997 12.857142 2.4624337 12.857142 5.4999997z" display="block" fill="#fed496" stroke="url(#q)" stroke-miterlimit="10" stroke-width="1.004927" transform="matrix(1.037291 0 0 .954619 -.894979 -.075721)"/><path d="m41 40c0 4.733869-7.675118 8.571428-17.142857 8.571428-9.467738 0-17.1428562-3.837559-17.1428562-8.571428s7.6751182-8.571428 17.1428562-8.571428c9.467739 0 17.142857 3.837559 17.142857 8.571428z" display="block" fill="url(#a)" opacity=".658228" transform="matrix(.36343 0 0 .36343 15.47247 -4.118577)"/><path d="m23.889443 6.465348c-2.002794 0-4.631284.714153-4.631284 1.592669v2.629659c0 .878516 2.62849 1.592669 4.631284 1.592669 2.002795 0 4.410416-.714153 4.410415-1.592669 0-.052 0-2.577659 0-2.629659 0-.878517-2.40762-1.592669-4.410415-1.592669z" display="block" fill="#fcaf3e" stroke="#b46c02" stroke-miterlimit="10"/><path d="m13.642858 17.999999.357142 16.785715 4.571429 1.285714-.142857-16.714286s2.071428 0 5.428571-.214286c-5.215743-.233073-11.183373-2.47468-13.214285-3.928571 1.416899 2.092176 3 2.785714 3 2.785714z" display="block" fill="url(#l)" opacity=".493671"/><path d="m36.857142 14.071428c0 3.037566-5.756338 5.5-12.857142 5.5s-12.857142-2.462434-12.857142-5.5 5.756338-5.4999997 12.857142-5.4999997 12.857142 2.4624337 12.857142 5.4999997z" display="block" fill="#fed496" stroke="url(#q)" stroke-miterlimit="10" stroke-width="4.119866" transform="matrix(.271979 0 0 .216619 17.27048 5.409742)"/></g><g transform="matrix(.27548115 0 0 .27548115 15.112071 -71.224182)"><path d="m41 40c0 4.733869-7.675118 8.571428-17.142857 8.571428-9.467738 0-17.1428562-3.837559-17.1428562-8.571428s7.6751182-8.571428 17.1428562-8.571428c9.467739 0 17.142857 3.837559 17.142857 8.571428z" display="block" fill="url(#a)" transform="matrix(1.058752 0 0 1.151259 -1.115944 -10.27691)"/><path d="m23.937499 7.191965c-7.859427 0-14.2499993 2.8025009-14.2500003 6.250001v23.125c0 3.447501 6.3905723 6.25 14.2500003 6.25s14.504466-2.8025 14.504464-6.25c0-.204061 0-22.920939 0-23.125 0-3.4475011-6.645037-6.250001-14.504464-6.250001z" display="block" fill="url(#m)" stroke="url(#n)" stroke-miterlimit="10"/><path d="m23.941292 7.4484874c-7.625145 0-13.825221 2.7189626-13.825222 6.0636946v6.557844c0 3.344734 6.200076 5.647898 13.825222 5.647898s14.072102-2.303164 14.0721-5.647898c0-.197978 0-6.359866 0-6.557844 0-3.344733-6.446955-6.0636946-14.0721-6.0636946z" display="block" fill="url(#o)"/><path d="m23.946122 7.9712859c-7.327758 0-13.286026 2.6129201-13.286027 5.8272051v22.126271c0 3.214287 5.958268 5.827205 13.286027 5.827205 7.327758 0 13.523277-2.612919 13.523275-5.827205 0-.190256 0-21.936013 0-22.126271 0-3.214286-6.195518-5.8272051-13.523275-5.8272051z" display="block" fill="none" opacity=".544304" stroke="url(#p)" stroke-miterlimit="10"/><path d="m36.857142 14.071428c0 3.037566-5.756338 5.5-12.857142 5.5s-12.857142-2.462434-12.857142-5.5 5.756338-5.4999997 12.857142-5.4999997 12.857142 2.4624337 12.857142 5.4999997z" display="block" fill="#fed496" stroke="url(#q)" stroke-miterlimit="10" stroke-width="1.004927" transform="matrix(1.037291 0 0 .954619 -.894979 -.075721)"/><path d="m41 40c0 4.733869-7.675118 8.571428-17.142857 8.571428-9.467738 0-17.1428562-3.837559-17.1428562-8.571428s7.6751182-8.571428 17.1428562-8.571428c9.467739 0 17.142857 3.837559 17.142857 8.571428z" display="block" fill="url(#a)" opacity=".658228" transform="matrix(.36343 0 0 .36343 15.47247 -4.118577)"/><path d="m23.889443 6.465348c-2.002794 0-4.631284.714153-4.631284 1.592669v2.629659c0 .878516 2.62849 1.592669 4.631284 1.592669 2.002795 0 4.410416-.714153 4.410415-1.592669 0-.052 0-2.577659 0-2.629659 0-.878517-2.40762-1.592669-4.410415-1.592669z" display="block" fill="#fcaf3e" stroke="#b46c02" stroke-miterlimit="10"/><path d="m13.642858 17.999999.357142 16.785715 4.571429 1.285714-.142857-16.714286s2.071428 0 5.428571-.214286c-5.215743-.233073-11.183373-2.47468-13.214285-3.928571 1.416899 2.092176 3 2.785714 3 2.785714z" display="block" fill="url(#l)" opacity=".493671"/><path d="m36.857142 14.071428c0 3.037566-5.756338 5.5-12.857142 5.5s-12.857142-2.462434-12.857142-5.5 5.756338-5.4999997 12.857142-5.4999997 12.857142 2.4624337 12.857142 5.4999997z" display="block" fill="#fed496" stroke="url(#q)" stroke-miterlimit="10" stroke-width="4.119866" transform="matrix(.271979 0 0 .216619 17.27048 5.409742)"/></g><g transform="matrix(.33057738 0 0 .33057738 -15.265537 -73.573386)"><path d="m41 40c0 4.733869-7.675118 8.571428-17.142857 8.571428-9.467738 0-17.1428562-3.837559-17.1428562-8.571428s7.6751182-8.571428 17.1428562-8.571428c9.467739 0 17.142857 3.837559 17.142857 8.571428z" display="block" fill="url(#a)" transform="matrix(1.058752 0 0 1.151259 -1.115944 -10.27691)"/><path d="m23.937499 7.191965c-7.859427 0-14.2499993 2.8025009-14.2500003 6.250001v23.125c0 3.447501 6.3905723 6.25 14.2500003 6.25s14.504466-2.8025 14.504464-6.25c0-.204061 0-22.920939 0-23.125 0-3.4475011-6.645037-6.250001-14.504464-6.250001z" display="block" fill="url(#m)" stroke="url(#n)" stroke-miterlimit="10"/><path d="m23.941292 7.4484874c-7.625145 0-13.825221 2.7189626-13.825222 6.0636946v6.557844c0 3.344734 6.200076 5.647898 13.825222 5.647898s14.072102-2.303164 14.0721-5.647898c0-.197978 0-6.359866 0-6.557844 0-3.344733-6.446955-6.0636946-14.0721-6.0636946z" display="block" fill="url(#o)"/><path d="m23.946122 7.9712859c-7.327758 0-13.286026 2.6129201-13.286027 5.8272051v22.126271c0 3.214287 5.958268 5.827205 13.286027 5.827205 7.327758 0 13.523277-2.612919 13.523275-5.827205 0-.190256 0-21.936013 0-22.126271 0-3.214286-6.195518-5.8272051-13.523275-5.8272051z" display="block" fill="none" opacity=".544304" stroke="url(#p)" stroke-miterlimit="10"/><path d="m36.857142 14.071428c0 3.037566-5.756338 5.5-12.857142 5.5s-12.857142-2.462434-12.857142-5.5 5.756338-5.4999997 12.857142-5.4999997 12.857142 2.4624337 12.857142 5.4999997z" display="block" fill="#fed496" stroke="url(#q)" stroke-miterlimit="10" stroke-width="1.004927" transform="matrix(1.037291 0 0 .954619 -.894979 -.075721)"/><path d="m41 40c0 4.733869-7.675118 8.571428-17.142857 8.571428-9.467738 0-17.1428562-3.837559-17.1428562-8.571428s7.6751182-8.571428 17.1428562-8.571428c9.467739 0 17.142857 3.837559 17.142857 8.571428z" display="block" fill="url(#a)" opacity=".658228" transform="matrix(.36343 0 0 .36343 15.47247 -4.118577)"/><path d="m23.889443 6.465348c-2.002794 0-4.631284.714153-4.631284 1.592669v2.629659c0 .878516 2.62849 1.592669 4.631284 1.592669 2.002795 0 4.410416-.714153 4.410415-1.592669 0-.052 0-2.577659 0-2.629659 0-.878517-2.40762-1.592669-4.410415-1.592669z" display="block" fill="#fcaf3e" stroke="#b46c02" stroke-miterlimit="10"/><path d="m13.642858 17.999999.357142 16.785715 4.571429 1.285714-.142857-16.714286s2.071428 0 5.428571-.214286c-5.215743-.233073-11.183373-2.47468-13.214285-3.928571 1.416899 2.092176 3 2.785714 3 2.785714z" display="block" fill="url(#l)" opacity=".493671"/><path d="m36.857142 14.071428c0 3.037566-5.756338 5.5-12.857142 5.5s-12.857142-2.462434-12.857142-5.5 5.756338-5.4999997 12.857142-5.4999997 12.857142 2.4624337 12.857142 5.4999997z" display="block" fill="#fed496" stroke="url(#q)" stroke-miterlimit="10" stroke-width="4.119866" transform="matrix(.271979 0 0 .216619 17.27048 5.409742)"/></g><text font-family="DejaVu Sans" font-size="14" x="-65.623184" y="-61.217392"><tspan x="-65.623184" y="-61.217392">Gfx16</tspan></text><text font-family="DejaVu Sans" font-size="14" x="44.753624" y="-42.898552"><tspan x="44.753624" y="-42.898552">8</tspan></text><text font-family="DejaVu Sans" font-size="14" x="14.376812" y="-42.666668"><tspan x="14.376812" y="-42.666668">10</tspan></text><text font-family="DejaVu Sans" font-size="14" x="-15.072464" y="-41.739132"><tspan x="-15.072464" y="-41.739132">12</tspan></text><g transform="matrix(.88153968 0 0 .88153968 -37.679564 -241.68462)"><path d="m41 40c0 4.733869-7.675118 8.571428-17.142857 8.571428-9.467738 0-17.1428562-3.837559-17.1428562-8.571428s7.6751182-8.571428 17.1428562-8.571428c9.467739 0 17.142857 3.837559 17.142857 8.571428z" display="block" fill="url(#a)" transform="matrix(1.058752 0 0 1.151259 -1.115944 -10.27691)"/><path d="m23.937499 7.191965c-7.859427 0-14.2499993 2.8025009-14.2500003 6.250001v23.125c0 3.447501 6.3905723 6.25 14.2500003 6.25s14.504466-2.8025 14.504464-6.25c0-.204061 0-22.920939 0-23.125 0-3.4475011-6.645037-6.250001-14.504464-6.250001z" display="block" fill="url(#m)" stroke="url(#n)" stroke-miterlimit="10"/><path d="m23.941292 7.4484874c-7.625145 0-13.825221 2.7189626-13.825222 6.0636946v6.557844c0 3.344734 6.200076 5.647898 13.825222 5.647898s14.072102-2.303164 14.0721-5.647898c0-.197978 0-6.359866 0-6.557844 0-3.344733-6.446955-6.0636946-14.0721-6.0636946z" display="block" fill="url(#o)"/><path d="m23.946122 7.9712859c-7.327758 0-13.286026 2.6129201-13.286027 5.8272051v22.126271c0 3.214287 5.958268 5.827205 13.286027 5.827205 7.327758 0 13.523277-2.612919 13.523275-5.827205 0-.190256 0-21.936013 0-22.126271 0-3.214286-6.195518-5.8272051-13.523275-5.8272051z" display="block" fill="none" opacity=".544304" stroke="url(#p)" stroke-miterlimit="10"/><path d="m36.857142 14.071428c0 3.037566-5.756338 5.5-12.857142 5.5s-12.857142-2.462434-12.857142-5.5 5.756338-5.4999997 12.857142-5.4999997 12.857142 2.4624337 12.857142 5.4999997z" display="block" fill="#fed496" stroke="url(#q)" stroke-miterlimit="10" stroke-width="1.004927" transform="matrix(1.037291 0 0 .954619 -.894979 -.075721)"/><path d="m41 40c0 4.733869-7.675118 8.571428-17.142857 8.571428-9.467738 0-17.1428562-3.837559-17.1428562-8.571428s7.6751182-8.571428 17.1428562-8.571428c9.467739 0 17.142857 3.837559 17.142857 8.571428z" display="block" fill="url(#a)" opacity=".658228" transform="matrix(.36343 0 0 .36343 15.47247 -4.118577)"/><path d="m23.889443 6.465348c-2.002794 0-4.631284.714153-4.631284 1.592669v2.629659c0 .878516 2.62849 1.592669 4.631284 1.592669 2.002795 0 4.410416-.714153 4.410415-1.592669 0-.052 0-2.577659 0-2.629659 0-.878517-2.40762-1.592669-4.410415-1.592669z" display="block" fill="#fcaf3e" stroke="#b46c02" stroke-miterlimit="10"/><path d="m13.642858 17.999999.357142 16.785715 4.571429 1.285714-.142857-16.714286s2.071428 0 5.428571-.214286c-5.215743-.233073-11.183373-2.47468-13.214285-3.928571 1.416899 2.092176 3 2.785714 3 2.785714z" display="block" fill="url(#l)" opacity=".493671"/><path d="m36.857142 14.071428c0 3.037566-5.756338 5.5-12.857142 5.5s-12.857142-2.462434-12.857142-5.5 5.756338-5.4999997 12.857142-5.4999997 12.857142 2.4624337 12.857142 5.4999997z" display="block" fill="#fed496" stroke="url(#q)" stroke-miterlimit="10" stroke-width="4.119866" transform="matrix(.271979 0 0 .216619 17.27048 5.409742)"/></g><g transform="matrix(.82644345 0 0 .82644345 .379178 -238.29536)"><path d="m41 40c0 4.733869-7.675118 8.571428-17.142857 8.571428-9.467738 0-17.1428562-3.837559-17.1428562-8.571428s7.6751182-8.571428 17.1428562-8.571428c9.467739 0 17.142857 3.837559 17.142857 8.571428z" display="block" fill="url(#a)" transform="matrix(1.058752 0 0 1.151259 -1.115944 -10.27691)"/><path d="m23.937499 7.191965c-7.859427 0-14.2499993 2.8025009-14.2500003 6.250001v23.125c0 3.447501 6.3905723 6.25 14.2500003 6.25s14.504466-2.8025 14.504464-6.25c0-.204061 0-22.920939 0-23.125 0-3.4475011-6.645037-6.250001-14.504464-6.250001z" display="block" fill="url(#m)" stroke="url(#n)" stroke-miterlimit="10"/><path d="m23.941292 7.4484874c-7.625145 0-13.825221 2.7189626-13.825222 6.0636946v6.557844c0 3.344734 6.200076 5.647898 13.825222 5.647898s14.072102-2.303164 14.0721-5.647898c0-.197978 0-6.359866 0-6.557844 0-3.344733-6.446955-6.0636946-14.0721-6.0636946z" display="block" fill="url(#o)"/><path d="m23.946122 7.9712859c-7.327758 0-13.286026 2.6129201-13.286027 5.8272051v22.126271c0 3.214287 5.958268 5.827205 13.286027 5.827205 7.327758 0 13.523277-2.612919 13.523275-5.827205 0-.190256 0-21.936013 0-22.126271 0-3.214286-6.195518-5.8272051-13.523275-5.8272051z" display="block" fill="none" opacity=".544304" stroke="url(#p)" stroke-miterlimit="10"/><path d="m36.857142 14.071428c0 3.037566-5.756338 5.5-12.857142 5.5s-12.857142-2.462434-12.857142-5.5 5.756338-5.4999997 12.857142-5.4999997 12.857142 2.4624337 12.857142 5.4999997z" display="block" fill="#fed496" stroke="url(#q)" stroke-miterlimit="10" stroke-width="1.004927" transform="matrix(1.037291 0 0 .954619 -.894979 -.075721)"/><path d="m41 40c0 4.733869-7.675118 8.571428-17.142857 8.571428-9.467738 0-17.1428562-3.837559-17.1428562-8.571428s7.6751182-8.571428 17.1428562-8.571428c9.467739 0 17.142857 3.837559 17.142857 8.571428z" display="block" fill="url(#a)" opacity=".658228" transform="matrix(.36343 0 0 .36343 15.47247 -4.118577)"/><path d="m23.889443 6.465348c-2.002794 0-4.631284.714153-4.631284 1.592669v2.629659c0 .878516 2.62849 1.592669 4.631284 1.592669 2.002795 0 4.410416-.714153 4.410415-1.592669 0-.052 0-2.577659 0-2.629659 0-.878517-2.40762-1.592669-4.410415-1.592669z" display="block" fill="#fcaf3e" stroke="#b46c02" stroke-miterlimit="10"/><path d="m13.642858 17.999999.357142 16.785715 4.571429 1.285714-.142857-16.714286s2.071428 0 5.428571-.214286c-5.215743-.233073-11.183373-2.47468-13.214285-3.928571 1.416899 2.092176 3 2.785714 3 2.785714z" display="block" fill="url(#l)" opacity=".493671"/><path d="m36.857142 14.071428c0 3.037566-5.756338 5.5-12.857142 5.5s-12.857142-2.462434-12.857142-5.5 5.756338-5.4999997 12.857142-5.4999997 12.857142 2.4624337 12.857142 5.4999997z" display="block" fill="#fed496" stroke="url(#q)" stroke-miterlimit="10" stroke-width="4.119866" transform="matrix(.271979 0 0 .216619 17.27048 5.409742)"/></g><g transform="matrix(.77134722 0 0 .77134722 32.535115 -241.46476)"><path d="m41 40c0 4.733869-7.675118 8.571428-17.142857 8.571428-9.467738 0-17.1428562-3.837559-17.1428562-8.571428s7.6751182-8.571428 17.1428562-8.571428c9.467739 0 17.142857 3.837559 17.142857 8.571428z" display="block" fill="url(#a)" transform="matrix(1.058752 0 0 1.151259 -1.115944 -10.27691)"/><path d="m23.937499 7.191965c-7.859427 0-14.2499993 2.8025009-14.2500003 6.250001v23.125c0 3.447501 6.3905723 6.25 14.2500003 6.25s14.504466-2.8025 14.504464-6.25c0-.204061 0-22.920939 0-23.125 0-3.4475011-6.645037-6.250001-14.504464-6.250001z" display="block" fill="url(#m)" stroke="url(#n)" stroke-miterlimit="10"/><path d="m23.941292 7.4484874c-7.625145 0-13.825221 2.7189626-13.825222 6.0636946v6.557844c0 3.344734 6.200076 5.647898 13.825222 5.647898s14.072102-2.303164 14.0721-5.647898c0-.197978 0-6.359866 0-6.557844 0-3.344733-6.446955-6.0636946-14.0721-6.0636946z" display="block" fill="url(#o)"/><path d="m23.946122 7.9712859c-7.327758 0-13.286026 2.6129201-13.286027 5.8272051v22.126271c0 3.214287 5.958268 5.827205 13.286027 5.827205 7.327758 0 13.523277-2.612919 13.523275-5.827205 0-.190256 0-21.936013 0-22.126271 0-3.214286-6.195518-5.8272051-13.523275-5.8272051z" display="block" fill="none" opacity=".544304" stroke="url(#p)" stroke-miterlimit="10"/><path d="m36.857142 14.071428c0 3.037566-5.756338 5.5-12.857142 5.5s-12.857142-2.462434-12.857142-5.5 5.756338-5.4999997 12.857142-5.4999997 12.857142 2.4624337 12.857142 5.4999997z" display="block" fill="#fed496" stroke="url(#q)" stroke-miterlimit="10" stroke-width="1.004927" transform="matrix(1.037291 0 0 .954619 -.894979 -.075721)"/><path d="m41 40c0 4.733869-7.675118 8.571428-17.142857 8.571428-9.467738 0-17.1428562-3.837559-17.1428562-8.571428s7.6751182-8.571428 17.1428562-8.571428c9.467739 0 17.142857 3.837559 17.142857 8.571428z" display="block" fill="url(#a)" opacity=".658228" transform="matrix(.36343 0 0 .36343 15.47247 -4.118577)"/><path d="m23.889443 6.465348c-2.002794 0-4.631284.714153-4.631284 1.592669v2.629659c0 .878516 2.62849 1.592669 4.631284 1.592669 2.002795 0 4.410416-.714153 4.410415-1.592669 0-.052 0-2.577659 0-2.629659 0-.878517-2.40762-1.592669-4.410415-1.592669z" display="block" fill="#fcaf3e" stroke="#b46c02" stroke-miterlimit="10"/><path d="m13.642858 17.999999.357142 16.785715 4.571429 1.285714-.142857-16.714286s2.071428 0 5.428571-.214286c-5.215743-.233073-11.183373-2.47468-13.214285-3.928571 1.416899 2.092176 3 2.785714 3 2.785714z" display="block" fill="url(#l)" opacity=".493671"/><path d="m36.857142 14.071428c0 3.037566-5.756338 5.5-12.857142 5.5s-12.857142-2.462434-12.857142-5.5 5.756338-5.4999997 12.857142-5.4999997 12.857142 2.4624337 12.857142 5.4999997z" display="block" fill="#fed496" stroke="url(#q)" stroke-miterlimit="10" stroke-width="4.119866" transform="matrix(.271979 0 0 .216619 17.27048 5.409742)"/></g><g transform="matrix(.71625099 0 0 .71625099 64.691048 -237.41962)"><path d="m41 40c0 4.733869-7.675118 8.571428-17.142857 8.571428-9.467738 0-17.1428562-3.837559-17.1428562-8.571428s7.6751182-8.571428 17.1428562-8.571428c9.467739 0 17.142857 3.837559 17.142857 8.571428z" display="block" fill="url(#a)" transform="matrix(1.058752 0 0 1.151259 -1.115944 -10.27691)"/><path d="m23.937499 7.191965c-7.859427 0-14.2499993 2.8025009-14.2500003 6.250001v23.125c0 3.447501 6.3905723 6.25 14.2500003 6.25s14.504466-2.8025 14.504464-6.25c0-.204061 0-22.920939 0-23.125 0-3.4475011-6.645037-6.250001-14.504464-6.250001z" display="block" fill="url(#m)" stroke="url(#n)" stroke-miterlimit="10"/><path d="m23.941292 7.4484874c-7.625145 0-13.825221 2.7189626-13.825222 6.0636946v6.557844c0 3.344734 6.200076 5.647898 13.825222 5.647898s14.072102-2.303164 14.0721-5.647898c0-.197978 0-6.359866 0-6.557844 0-3.344733-6.446955-6.0636946-14.0721-6.0636946z" display="block" fill="url(#o)"/><path d="m23.946122 7.9712859c-7.327758 0-13.286026 2.6129201-13.286027 5.8272051v22.126271c0 3.214287 5.958268 5.827205 13.286027 5.827205 7.327758 0 13.523277-2.612919 13.523275-5.827205 0-.190256 0-21.936013 0-22.126271 0-3.214286-6.195518-5.8272051-13.523275-5.8272051z" display="block" fill="none" opacity=".544304" stroke="url(#p)" stroke-miterlimit="10"/><path d="m36.857142 14.071428c0 3.037566-5.756338 5.5-12.857142 5.5s-12.857142-2.462434-12.857142-5.5 5.756338-5.4999997 12.857142-5.4999997 12.857142 2.4624337 12.857142 5.4999997z" display="block" fill="#fed496" stroke="url(#q)" stroke-miterlimit="10" stroke-width="1.004927" transform="matrix(1.037291 0 0 .954619 -.894979 -.075721)"/><path d="m41 40c0 4.733869-7.675118 8.571428-17.142857 8.571428-9.467738 0-17.1428562-3.837559-17.1428562-8.571428s7.6751182-8.571428 17.1428562-8.571428c9.467739 0 17.142857 3.837559 17.142857 8.571428z" display="block" fill="url(#a)" opacity=".658228" transform="matrix(.36343 0 0 .36343 15.47247 -4.118577)"/><path d="m23.889443 6.465348c-2.002794 0-4.631284.714153-4.631284 1.592669v2.629659c0 .878516 2.62849 1.592669 4.631284 1.592669 2.002795 0 4.410416-.714153 4.410415-1.592669 0-.052 0-2.577659 0-2.629659 0-.878517-2.40762-1.592669-4.410415-1.592669z" display="block" fill="#fcaf3e" stroke="#b46c02" stroke-miterlimit="10"/><path d="m13.642858 17.999999.357142 16.785715 4.571429 1.285714-.142857-16.714286s2.071428 0 5.428571-.214286c-5.215743-.233073-11.183373-2.47468-13.214285-3.928571 1.416899 2.092176 3 2.785714 3 2.785714z" display="block" fill="url(#l)" opacity=".493671"/><path d="m36.857142 14.071428c0 3.037566-5.756338 5.5-12.857142 5.5s-12.857142-2.462434-12.857142-5.5 5.756338-5.4999997 12.857142-5.4999997 12.857142 2.4624337 12.857142 5.4999997z" display="block" fill="#fed496" stroke="url(#q)" stroke-miterlimit="10" stroke-width="4.119866" transform="matrix(.271979 0 0 .216619 17.27048 5.409742)"/></g><g font-size="14"><text font-family="DejaVu Sans" x="-78.048195" y="-206.47646"><tspan x="-78.048195" y="-206.47646">Gfx48</tspan></text><text font-family="DejaVu Sans" x="74.112991" y="-188.76804"><tspan x="74.112991" y="-188.76804">26</tspan></text><text font-family="DejaVu Sans" x="41.319633" y="-193.35912"><tspan x="41.319633" y="-193.35912">28</tspan></text><text font-family="DejaVu Sans" x="10.493875" y="-183.5211"><tspan x="10.493875" y="-183.5211">30</tspan></text><text font-family="DejaVu Sans" x="-22.955351" y="-184.83284"><tspan x="-22.955351" y="-184.83284">32</tspan></text></g><g transform="matrix(1.1570208 0 0 1.1570208 -42.362869 -322.90595)"><path d="m41 40c0 4.733869-7.675118 8.571428-17.142857 8.571428-9.467738 0-17.1428562-3.837559-17.1428562-8.571428s7.6751182-8.571428 17.1428562-8.571428c9.467739 0 17.142857 3.837559 17.142857 8.571428z" display="block" fill="url(#a)" transform="matrix(1.058752 0 0 1.151259 -1.115944 -10.27691)"/><path d="m23.937499 7.191965c-7.859427 0-14.2499993 2.8025009-14.2500003 6.250001v23.125c0 3.447501 6.3905723 6.25 14.2500003 6.25s14.504466-2.8025 14.504464-6.25c0-.204061 0-22.920939 0-23.125 0-3.4475011-6.645037-6.250001-14.504464-6.250001z" display="block" fill="url(#m)" stroke="url(#n)" stroke-miterlimit="10"/><path d="m23.941292 7.4484874c-7.625145 0-13.825221 2.7189626-13.825222 6.0636946v6.557844c0 3.344734 6.200076 5.647898 13.825222 5.647898s14.072102-2.303164 14.0721-5.647898c0-.197978 0-6.359866 0-6.557844 0-3.344733-6.446955-6.0636946-14.0721-6.0636946z" display="block" fill="url(#o)"/><path d="m23.946122 7.9712859c-7.327758 0-13.286026 2.6129201-13.286027 5.8272051v22.126271c0 3.214287 5.958268 5.827205 13.286027 5.827205 7.327758 0 13.523277-2.612919 13.523275-5.827205 0-.190256 0-21.936013 0-22.126271 0-3.214286-6.195518-5.8272051-13.523275-5.8272051z" display="block" fill="none" opacity=".544304" stroke="url(#p)" stroke-miterlimit="10"/><path d="m36.857142 14.071428c0 3.037566-5.756338 5.5-12.857142 5.5s-12.857142-2.462434-12.857142-5.5 5.756338-5.4999997 12.857142-5.4999997 12.857142 2.4624337 12.857142 5.4999997z" display="block" fill="#fed496" stroke="url(#q)" stroke-miterlimit="10" stroke-width="1.004927" transform="matrix(1.037291 0 0 .954619 -.894979 -.075721)"/><path d="m41 40c0 4.733869-7.675118 8.571428-17.142857 8.571428-9.467738 0-17.1428562-3.837559-17.1428562-8.571428s7.6751182-8.571428 17.1428562-8.571428c9.467739 0 17.142857 3.837559 17.142857 8.571428z" display="block" fill="url(#a)" opacity=".658228" transform="matrix(.36343 0 0 .36343 15.47247 -4.118577)"/><path d="m23.889443 6.465348c-2.002794 0-4.631284.714153-4.631284 1.592669v2.629659c0 .878516 2.62849 1.592669 4.631284 1.592669 2.002795 0 4.410416-.714153 4.410415-1.592669 0-.052 0-2.577659 0-2.629659 0-.878517-2.40762-1.592669-4.410415-1.592669z" display="block" fill="#fcaf3e" stroke="#b46c02" stroke-miterlimit="10"/><path d="m13.642858 17.999999.357142 16.785715 4.571429 1.285714-.142857-16.714286s2.071428 0 5.428571-.214286c-5.215743-.233073-11.183373-2.47468-13.214285-3.928571 1.416899 2.092176 3 2.785714 3 2.785714z" display="block" fill="url(#l)" opacity=".493671"/><path d="m36.857142 14.071428c0 3.037566-5.756338 5.5-12.857142 5.5s-12.857142-2.462434-12.857142-5.5 5.756338-5.4999997 12.857142-5.4999997 12.857142 2.4624337 12.857142 5.4999997z" display="block" fill="#fed496" stroke="url(#q)" stroke-miterlimit="10" stroke-width="4.119866" transform="matrix(.271979 0 0 .216619 17.27048 5.409742)"/></g><g transform="matrix(1.1019246 0 0 1.1019246 10.780827 -319.51669)"><path d="m41 40c0 4.733869-7.675118 8.571428-17.142857 8.571428-9.467738 0-17.1428562-3.837559-17.1428562-8.571428s7.6751182-8.571428 17.1428562-8.571428c9.467739 0 17.142857 3.837559 17.142857 8.571428z" display="block" fill="url(#a)" transform="matrix(1.058752 0 0 1.151259 -1.115944 -10.27691)"/><path d="m23.937499 7.191965c-7.859427 0-14.2499993 2.8025009-14.2500003 6.250001v23.125c0 3.447501 6.3905723 6.25 14.2500003 6.25s14.504466-2.8025 14.504464-6.25c0-.204061 0-22.920939 0-23.125 0-3.4475011-6.645037-6.250001-14.504464-6.250001z" display="block" fill="url(#m)" stroke="url(#n)" stroke-miterlimit="10"/><path d="m23.941292 7.4484874c-7.625145 0-13.825221 2.7189626-13.825222 6.0636946v6.557844c0 3.344734 6.200076 5.647898 13.825222 5.647898s14.072102-2.303164 14.0721-5.647898c0-.197978 0-6.359866 0-6.557844 0-3.344733-6.446955-6.0636946-14.0721-6.0636946z" display="block" fill="url(#o)"/><path d="m23.946122 7.9712859c-7.327758 0-13.286026 2.6129201-13.286027 5.8272051v22.126271c0 3.214287 5.958268 5.827205 13.286027 5.827205 7.327758 0 13.523277-2.612919 13.523275-5.827205 0-.190256 0-21.936013 0-22.126271 0-3.214286-6.195518-5.8272051-13.523275-5.8272051z" display="block" fill="none" opacity=".544304" stroke="url(#p)" stroke-miterlimit="10"/><path d="m36.857142 14.071428c0 3.037566-5.756338 5.5-12.857142 5.5s-12.857142-2.462434-12.857142-5.5 5.756338-5.4999997 12.857142-5.4999997 12.857142 2.4624337 12.857142 5.4999997z" display="block" fill="#fed496" stroke="url(#q)" stroke-miterlimit="10" stroke-width="1.004927" transform="matrix(1.037291 0 0 .954619 -.894979 -.075721)"/><path d="m41 40c0 4.733869-7.675118 8.571428-17.142857 8.571428-9.467738 0-17.1428562-3.837559-17.1428562-8.571428s7.6751182-8.571428 17.1428562-8.571428c9.467739 0 17.142857 3.837559 17.142857 8.571428z" display="block" fill="url(#a)" opacity=".658228" transform="matrix(.36343 0 0 .36343 15.47247 -4.118577)"/><path d="m23.889443 6.465348c-2.002794 0-4.631284.714153-4.631284 1.592669v2.629659c0 .878516 2.62849 1.592669 4.631284 1.592669 2.002795 0 4.410416-.714153 4.410415-1.592669 0-.052 0-2.577659 0-2.629659 0-.878517-2.40762-1.592669-4.410415-1.592669z" display="block" fill="#fcaf3e" stroke="#b46c02" stroke-miterlimit="10"/><path d="m13.642858 17.999999.357142 16.785715 4.571429 1.285714-.142857-16.714286s2.071428 0 5.428571-.214286c-5.215743-.233073-11.183373-2.47468-13.214285-3.928571 1.416899 2.092176 3 2.785714 3 2.785714z" display="block" fill="url(#l)" opacity=".493671"/><path d="m36.857142 14.071428c0 3.037566-5.756338 5.5-12.857142 5.5s-12.857142-2.462434-12.857142-5.5 5.756338-5.4999997 12.857142-5.4999997 12.857142 2.4624337 12.857142 5.4999997z" display="block" fill="#fed496" stroke="url(#q)" stroke-miterlimit="10" stroke-width="4.119866" transform="matrix(.271979 0 0 .216619 17.27048 5.409742)"/></g><g transform="matrix(1.0468284 0 0 1.0468284 61.30104 -320.06262)"><path d="m41 40c0 4.733869-7.675118 8.571428-17.142857 8.571428-9.467738 0-17.1428562-3.837559-17.1428562-8.571428s7.6751182-8.571428 17.1428562-8.571428c9.467739 0 17.142857 3.837559 17.142857 8.571428z" display="block" fill="url(#a)" transform="matrix(1.058752 0 0 1.151259 -1.115944 -10.27691)"/><path d="m23.937499 7.191965c-7.859427 0-14.2499993 2.8025009-14.2500003 6.250001v23.125c0 3.447501 6.3905723 6.25 14.2500003 6.25s14.504466-2.8025 14.504464-6.25c0-.204061 0-22.920939 0-23.125 0-3.4475011-6.645037-6.250001-14.504464-6.250001z" display="block" fill="url(#m)" stroke="url(#n)" stroke-miterlimit="10"/><path d="m23.941292 7.4484874c-7.625145 0-13.825221 2.7189626-13.825222 6.0636946v6.557844c0 3.344734 6.200076 5.647898 13.825222 5.647898s14.072102-2.303164 14.0721-5.647898c0-.197978 0-6.359866 0-6.557844 0-3.344733-6.446955-6.0636946-14.0721-6.0636946z" display="block" fill="url(#o)"/><path d="m23.946122 7.9712859c-7.327758 0-13.286026 2.6129201-13.286027 5.8272051v22.126271c0 3.214287 5.958268 5.827205 13.286027 5.827205 7.327758 0 13.523277-2.612919 13.523275-5.827205 0-.190256 0-21.936013 0-22.126271 0-3.214286-6.195518-5.8272051-13.523275-5.8272051z" display="block" fill="none" opacity=".544304" stroke="url(#p)" stroke-miterlimit="10"/><path d="m36.857142 14.071428c0 3.037566-5.756338 5.5-12.857142 5.5s-12.857142-2.462434-12.857142-5.5 5.756338-5.4999997 12.857142-5.4999997 12.857142 2.4624337 12.857142 5.4999997z" display="block" fill="#fed496" stroke="url(#q)" stroke-miterlimit="10" stroke-width="1.004927" transform="matrix(1.037291 0 0 .954619 -.894979 -.075721)"/><path d="m41 40c0 4.733869-7.675118 8.571428-17.142857 8.571428-9.467738 0-17.1428562-3.837559-17.1428562-8.571428s7.6751182-8.571428 17.1428562-8.571428c9.467739 0 17.142857 3.837559 17.142857 8.571428z" display="block" fill="url(#a)" opacity=".658228" transform="matrix(.36343 0 0 .36343 15.47247 -4.118577)"/><path d="m23.889443 6.465348c-2.002794 0-4.631284.714153-4.631284 1.592669v2.629659c0 .878516 2.62849 1.592669 4.631284 1.592669 2.002795 0 4.410416-.714153 4.410415-1.592669 0-.052 0-2.577659 0-2.629659 0-.878517-2.40762-1.592669-4.410415-1.592669z" display="block" fill="#fcaf3e" stroke="#b46c02" stroke-miterlimit="10"/><path d="m13.642858 17.999999.357142 16.785715 4.571429 1.285714-.142857-16.714286s2.071428 0 5.428571-.214286c-5.215743-.233073-11.183373-2.47468-13.214285-3.928571 1.416899 2.092176 3 2.785714 3 2.785714z" display="block" fill="url(#l)" opacity=".493671"/><path d="m36.857142 14.071428c0 3.037566-5.756338 5.5-12.857142 5.5s-12.857142-2.462434-12.857142-5.5 5.756338-5.4999997 12.857142-5.4999997 12.857142 2.4624337 12.857142 5.4999997z" display="block" fill="#fed496" stroke="url(#q)" stroke-miterlimit="10" stroke-width="4.119866" transform="matrix(.271979 0 0 .216619 17.27048 5.409742)"/></g><g transform="matrix(.99173214 0 0 .99173214 105.91845 -315.36161)"><path d="m41 40c0 4.733869-7.675118 8.571428-17.142857 8.571428-9.467738 0-17.1428562-3.837559-17.1428562-8.571428s7.6751182-8.571428 17.1428562-8.571428c9.467739 0 17.142857 3.837559 17.142857 8.571428z" display="block" fill="url(#a)" transform="matrix(1.058752 0 0 1.151259 -1.115944 -10.27691)"/><path d="m23.937499 7.191965c-7.859427 0-14.2499993 2.8025009-14.2500003 6.250001v23.125c0 3.447501 6.3905723 6.25 14.2500003 6.25s14.504466-2.8025 14.504464-6.25c0-.204061 0-22.920939 0-23.125 0-3.4475011-6.645037-6.250001-14.504464-6.250001z" display="block" fill="url(#m)" stroke="url(#n)" stroke-miterlimit="10"/><path d="m23.941292 7.4484874c-7.625145 0-13.825221 2.7189626-13.825222 6.0636946v6.557844c0 3.344734 6.200076 5.647898 13.825222 5.647898s14.072102-2.303164 14.0721-5.647898c0-.197978 0-6.359866 0-6.557844 0-3.344733-6.446955-6.0636946-14.0721-6.0636946z" display="block" fill="url(#o)"/><path d="m23.946122 7.9712859c-7.327758 0-13.286026 2.6129201-13.286027 5.8272051v22.126271c0 3.214287 5.958268 5.827205 13.286027 5.827205 7.327758 0 13.523277-2.612919 13.523275-5.827205 0-.190256 0-21.936013 0-22.126271 0-3.214286-6.195518-5.8272051-13.523275-5.8272051z" display="block" fill="none" opacity=".544304" stroke="url(#p)" stroke-miterlimit="10"/><path d="m36.857142 14.071428c0 3.037566-5.756338 5.5-12.857142 5.5s-12.857142-2.462434-12.857142-5.5 5.756338-5.4999997 12.857142-5.4999997 12.857142 2.4624337 12.857142 5.4999997z" display="block" fill="#fed496" stroke="url(#q)" stroke-miterlimit="10" stroke-width="1.004927" transform="matrix(1.037291 0 0 .954619 -.894979 -.075721)"/><path d="m41 40c0 4.733869-7.675118 8.571428-17.142857 8.571428-9.467738 0-17.1428562-3.837559-17.1428562-8.571428s7.6751182-8.571428 17.1428562-8.571428c9.467739 0 17.142857 3.837559 17.142857 8.571428z" display="block" fill="url(#a)" opacity=".658228" transform="matrix(.36343 0 0 .36343 15.47247 -4.118577)"/><path d="m23.889443 6.465348c-2.002794 0-4.631284.714153-4.631284 1.592669v2.629659c0 .878516 2.62849 1.592669 4.631284 1.592669 2.002795 0 4.410416-.714153 4.410415-1.592669 0-.052 0-2.577659 0-2.629659 0-.878517-2.40762-1.592669-4.410415-1.592669z" display="block" fill="#fcaf3e" stroke="#b46c02" stroke-miterlimit="10"/><path d="m13.642858 17.999999.357142 16.785715 4.571429 1.285714-.142857-16.714286s2.071428 0 5.428571-.214286c-5.215743-.233073-11.183373-2.47468-13.214285-3.928571 1.416899 2.092176 3 2.785714 3 2.785714z" display="block" fill="url(#l)" opacity=".493671"/><path d="m36.857142 14.071428c0 3.037566-5.756338 5.5-12.857142 5.5s-12.857142-2.462434-12.857142-5.5 5.756338-5.4999997 12.857142-5.4999997 12.857142 2.4624337 12.857142 5.4999997z" display="block" fill="#fed496" stroke="url(#q)" stroke-miterlimit="10" stroke-width="4.119866" transform="matrix(.271979 0 0 .216619 17.27048 5.409742)"/></g><text font-family="DejaVu Sans" font-size="14" x="-84.606865" y="-264.84863"><tspan x="-84.606865" y="-264.84863">Gfx64</tspan></text><text font-family="DejaVu Sans" font-size="14" x="-25.578819" y="-251.07542"><tspan x="-25.578819" y="-251.07542">42</tspan></text><text font-family="DejaVu Sans" font-size="14" x="26.234686" y="-253.04301"><tspan x="26.234686" y="-253.04301">40</tspan></text><text font-family="DejaVu Sans" font-size="14" x="77.392326" y="-251.73129"><tspan x="77.392326" y="-251.73129">38</tspan></text><text font-family="DejaVu Sans" font-size="14" x="120.02369" y="-252.38715"><tspan x="120.02369" y="-252.38715">36</tspan></text><g transform="matrix(1.0000016 0 0 1.0000016 115.0756 -210.58969)"><path d="m41 40c0 4.733869-7.675118 8.571428-17.142857 8.571428-9.467738 0-17.1428562-3.837559-17.1428562-8.571428s7.6751182-8.571428 17.1428562-8.571428c9.467739 0 17.142857 3.837559 17.142857 8.571428z" display="block" fill="url(#a)" transform="matrix(.58333244 0 0 .63430031 69.378483 28.019722)"/><path d="m83.225028 36.779784c-4.330248 0-7.851213 1.544073-7.851213 3.443515v12.741004c0 1.899443 3.520964 3.443515 7.851213 3.443515 4.330248 0 7.991415-1.544072 7.991415-3.443515 0-.11243 0-12.628574 0-12.741004 0-1.899443-3.661168-3.443515-7.991415-3.443515z" display="block" fill="url(#s)" stroke="url(#t)" stroke-miterlimit="10" stroke-width=".550962"/><path d="m83.227118 37.004758c-4.201167 0-7.617175 1.498046-7.617176 3.340867v3.613125c0 1.842823 3.416008 3.111779 7.617176 3.111779s7.753198-1.268956 7.753197-3.111779c0-.109078 0-3.504046 0-3.613125 0-1.842821-3.552029-3.340867-7.753197-3.340867z" display="block" fill="url(#w)"/><path d="m83.229779 37.292801c-4.037318 0-7.320099 1.43962-7.3201 3.21057v12.190741c0 1.770951 3.282782 3.21057 7.3201 3.21057 4.037319 0 7.450816-1.439619 7.450815-3.21057 0-.104824 0-12.085916 0-12.190741 0-1.77095-3.413497-3.21057-7.450815-3.21057z" style="opacity:.544304;fill:none;stroke-width:.550962;stroke-miterlimit:10;display:block;stroke:url(#v)"/><path d="m36.857142 14.071428c0 3.037566-5.756338 5.5-12.857142 5.5s-12.857142-2.462434-12.857142-5.5 5.756338-5.4999997 12.857142-5.4999997 12.857142 2.4624337 12.857142 5.4999997z" display="block" fill="#fed496" stroke="url(#q)" stroke-miterlimit="10" stroke-width="1.004927" transform="matrix(.57150824 0 0 .52595908 69.543269 32.859203)"/><path d="m41 40c0 4.733869-7.675118 8.571428-17.142857 8.571428-9.467738 0-17.1428562-3.837559-17.1428562-8.571428s7.6751182-8.571428 17.1428562-8.571428c9.467739 0 17.142857 3.837559 17.142857 8.571428z" display="block" fill="url(#a)" opacity=".658228" transform="matrix(.20023623 0 0 .20023623 78.561117 30.631742)"/><path d="m83.198551 36.463086c-1.103464 0-2.551662.393471-2.551662.8775v1.448843c0 .484029 1.448198.877501 2.551662.877501 1.103465 0 2.429973-.393472 2.429973-.877501 0-.02865 0-1.420193 0-1.448843 0-.48403-1.326508-.8775-2.429973-.8775z" display="block" fill="#fcaf3e" stroke="#b46c02" stroke-miterlimit="10" stroke-width=".550962"/><path d="m77.553069 42.818243.196772 9.248297 2.518685.70838-.07871-9.208942s1.141279 0 2.990938-.118063c-2.873677-.128415-6.161617-1.363456-7.280572-2.164495.780657 1.15271 1.652886 1.534823 1.652886 1.534823z" display="block" fill="url(#u)" opacity=".493671"/><path d="m36.857142 14.071428c0 3.037566-5.756338 5.5-12.857142 5.5s-12.857142-2.462434-12.857142-5.5 5.756338-5.4999997 12.857142-5.4999997 12.857142 2.4624337 12.857142 5.4999997z" display="block" fill="#fed496" stroke="url(#q)" stroke-miterlimit="10" stroke-width="4.119866" transform="matrix(.14985018 0 0 .1193489 79.551752 35.881486)"/></g><g transform="matrix(.39998252 0 0 .39998252 165.05425 -82.884025)"><path d="m41 40c0 4.733869-7.675118 8.571428-17.142857 8.571428-9.467738 0-17.1428562-3.837559-17.1428562-8.571428s7.6751182-8.571428 17.1428562-8.571428c9.467739 0 17.142857 3.837559 17.142857 8.571428z" display="block" fill="url(#a)" transform="matrix(.58333244 0 0 .63430031 69.378483 28.019722)"/><path d="m83.225028 36.779784c-4.330248 0-7.851213 1.544073-7.851213 3.443515v12.741004c0 1.899443 3.520964 3.443515 7.851213 3.443515 4.330248 0 7.991415-1.544072 7.991415-3.443515 0-.11243 0-12.628574 0-12.741004 0-1.899443-3.661168-3.443515-7.991415-3.443515z" display="block" fill="url(#s)" stroke="url(#t)" stroke-miterlimit="10" stroke-width=".550962"/><path d="m83.227118 37.004758c-4.201167 0-7.617175 1.498046-7.617176 3.340867v3.613125c0 1.842823 3.416008 3.111779 7.617176 3.111779s7.753198-1.268956 7.753197-3.111779c0-.109078 0-3.504046 0-3.613125 0-1.842821-3.552029-3.340867-7.753197-3.340867z" display="block" fill="url(#w)"/><path d="m83.229779 37.292801c-4.037318 0-7.320099 1.43962-7.3201 3.21057v12.190741c0 1.770951 3.282782 3.21057 7.3201 3.21057 4.037319 0 7.450816-1.439619 7.450815-3.21057 0-.104824 0-12.085916 0-12.190741 0-1.77095-3.413497-3.21057-7.450815-3.21057z" style="opacity:.544304;fill:none;stroke-width:.550962;stroke-miterlimit:10;display:block;stroke:url(#v)"/><path d="m36.857142 14.071428c0 3.037566-5.756338 5.5-12.857142 5.5s-12.857142-2.462434-12.857142-5.5 5.756338-5.4999997 12.857142-5.4999997 12.857142 2.4624337 12.857142 5.4999997z" display="block" fill="#fed496" stroke="url(#q)" stroke-miterlimit="10" stroke-width="1.004927" transform="matrix(.57150824 0 0 .52595908 69.543269 32.859203)"/><path d="m41 40c0 4.733869-7.675118 8.571428-17.142857 8.571428-9.467738 0-17.1428562-3.837559-17.1428562-8.571428s7.6751182-8.571428 17.1428562-8.571428c9.467739 0 17.142857 3.837559 17.142857 8.571428z" display="block" fill="url(#a)" opacity=".658228" transform="matrix(.20023623 0 0 .20023623 78.561117 30.631742)"/><path d="m83.198551 36.463086c-1.103464 0-2.551662.393471-2.551662.8775v1.448843c0 .484029 1.448198.877501 2.551662.877501 1.103465 0 2.429973-.393472 2.429973-.877501 0-.02865 0-1.420193 0-1.448843 0-.48403-1.326508-.8775-2.429973-.8775z" display="block" fill="#fcaf3e" stroke="#b46c02" stroke-miterlimit="10" stroke-width=".550962"/><path d="m77.553069 42.818243.196772 9.248297 2.518685.70838-.07871-9.208942s1.141279 0 2.990938-.118063c-2.873677-.128415-6.161617-1.363456-7.280572-2.164495.780657 1.15271 1.652886 1.534823 1.652886 1.534823z" display="block" fill="url(#u)" opacity=".493671"/><path d="m36.857142 14.071428c0 3.037566-5.756338 5.5-12.857142 5.5s-12.857142-2.462434-12.857142-5.5 5.756338-5.4999997 12.857142-5.4999997 12.857142 2.4624337 12.857142 5.4999997z" display="block" fill="#fed496" stroke="url(#q)" stroke-miterlimit="10" stroke-width="4.119866" transform="matrix(.14985018 0 0 .1193489 79.551752 35.881486)"/></g><g transform="matrix(.80000922 0 0 .80000922 133.37365 -145.17576)"><path d="m41 40c0 4.733869-7.675118 8.571428-17.142857 8.571428-9.467738 0-17.1428562-3.837559-17.1428562-8.571428s7.6751182-8.571428 17.1428562-8.571428c9.467739 0 17.142857 3.837559 17.142857 8.571428z" display="block" fill="url(#a)" transform="matrix(.58333244 0 0 .63430031 69.378483 28.019722)"/><path d="m83.225028 36.779784c-4.330248 0-7.851213 1.544073-7.851213 3.443515v12.741004c0 1.899443 3.520964 3.443515 7.851213 3.443515 4.330248 0 7.991415-1.544072 7.991415-3.443515 0-.11243 0-12.628574 0-12.741004 0-1.899443-3.661168-3.443515-7.991415-3.443515z" display="block" fill="url(#s)" stroke="url(#t)" stroke-miterlimit="10" stroke-width=".550962"/><path d="m83.227118 37.004758c-4.201167 0-7.617175 1.498046-7.617176 3.340867v3.613125c0 1.842823 3.416008 3.111779 7.617176 3.111779s7.753198-1.268956 7.753197-3.111779c0-.109078 0-3.504046 0-3.613125 0-1.842821-3.552029-3.340867-7.753197-3.340867z" display="block" fill="url(#w)"/><path d="m83.229779 37.292801c-4.037318 0-7.320099 1.43962-7.3201 3.21057v12.190741c0 1.770951 3.282782 3.21057 7.3201 3.21057 4.037319 0 7.450816-1.439619 7.450815-3.21057 0-.104824 0-12.085916 0-12.190741 0-1.77095-3.413497-3.21057-7.450815-3.21057z" style="opacity:.544304;fill:none;stroke-width:.550962;stroke-miterlimit:10;display:block;stroke:url(#v)"/><path d="m36.857142 14.071428c0 3.037566-5.756338 5.5-12.857142 5.5s-12.857142-2.462434-12.857142-5.5 5.756338-5.4999997 12.857142-5.4999997 12.857142 2.4624337 12.857142 5.4999997z" display="block" fill="#fed496" stroke="url(#q)" stroke-miterlimit="10" stroke-width="1.004927" transform="matrix(.57150824 0 0 .52595908 69.543269 32.859203)"/><path d="m41 40c0 4.733869-7.675118 8.571428-17.142857 8.571428-9.467738 0-17.1428562-3.837559-17.1428562-8.571428s7.6751182-8.571428 17.1428562-8.571428c9.467739 0 17.142857 3.837559 17.142857 8.571428z" display="block" fill="url(#a)" opacity=".658228" transform="matrix(.20023623 0 0 .20023623 78.561117 30.631742)"/><path d="m83.198551 36.463086c-1.103464 0-2.551662.393471-2.551662.8775v1.448843c0 .484029 1.448198.877501 2.551662.877501 1.103465 0 2.429973-.393472 2.429973-.877501 0-.02865 0-1.420193 0-1.448843 0-.48403-1.326508-.8775-2.429973-.8775z" display="block" fill="#fcaf3e" stroke="#b46c02" stroke-miterlimit="10" stroke-width=".550962"/><path d="m77.553069 42.818243.196772 9.248297 2.518685.70838-.07871-9.208942s1.141279 0 2.990938-.118063c-2.873677-.128415-6.161617-1.363456-7.280572-2.164495.780657 1.15271 1.652886 1.534823 1.652886 1.534823z" display="block" fill="url(#u)" opacity=".493671"/><path d="m36.857142 14.071428c0 3.037566-5.756338 5.5-12.857142 5.5s-12.857142-2.462434-12.857142-5.5 5.756338-5.4999997 12.857142-5.4999997 12.857142 2.4624337 12.857142 5.4999997z" display="block" fill="#fed496" stroke="url(#q)" stroke-miterlimit="10" stroke-width="4.119866" transform="matrix(.14985018 0 0 .1193489 79.551752 35.881486)"/></g><g transform="matrix(1.2999874 0 0 1.2999874 88.120638 -277.56402)"><path d="m41 40c0 4.733869-7.675118 8.571428-17.142857 8.571428-9.467738 0-17.1428562-3.837559-17.1428562-8.571428s7.6751182-8.571428 17.1428562-8.571428c9.467739 0 17.142857 3.837559 17.142857 8.571428z" display="block" fill="url(#a)" transform="matrix(.58333244 0 0 .63430031 69.378483 28.019722)"/><path d="m83.225028 36.779784c-4.330248 0-7.851213 1.544073-7.851213 3.443515v12.741004c0 1.899443 3.520964 3.443515 7.851213 3.443515 4.330248 0 7.991415-1.544072 7.991415-3.443515 0-.11243 0-12.628574 0-12.741004 0-1.899443-3.661168-3.443515-7.991415-3.443515z" display="block" fill="url(#s)" stroke="url(#t)" stroke-miterlimit="10" stroke-width=".550962"/><path d="m83.227118 37.004758c-4.201167 0-7.617175 1.498046-7.617176 3.340867v3.613125c0 1.842823 3.416008 3.111779 7.617176 3.111779s7.753198-1.268956 7.753197-3.111779c0-.109078 0-3.504046 0-3.613125 0-1.842821-3.552029-3.340867-7.753197-3.340867z" display="block" fill="url(#w)"/><path d="m83.229779 37.292801c-4.037318 0-7.320099 1.43962-7.3201 3.21057v12.190741c0 1.770951 3.282782 3.21057 7.3201 3.21057 4.037319 0 7.450816-1.439619 7.450815-3.21057 0-.104824 0-12.085916 0-12.190741 0-1.77095-3.413497-3.21057-7.450815-3.21057z" style="opacity:.544304;fill:none;stroke-width:.550962;stroke-miterlimit:10;display:block;stroke:url(#v)"/><path d="m36.857142 14.071428c0 3.037566-5.756338 5.5-12.857142 5.5s-12.857142-2.462434-12.857142-5.5 5.756338-5.4999997 12.857142-5.4999997 12.857142 2.4624337 12.857142 5.4999997z" display="block" fill="#fed496" stroke="url(#q)" stroke-miterlimit="10" stroke-width="1.004927" transform="matrix(.57150824 0 0 .52595908 69.543269 32.859203)"/><path d="m41 40c0 4.733869-7.675118 8.571428-17.142857 8.571428-9.467738 0-17.1428562-3.837559-17.1428562-8.571428s7.6751182-8.571428 17.1428562-8.571428c9.467739 0 17.142857 3.837559 17.142857 8.571428z" display="block" fill="url(#a)" opacity=".658228" transform="matrix(.20023623 0 0 .20023623 78.561117 30.631742)"/><path d="m83.198551 36.463086c-1.103464 0-2.551662.393471-2.551662.8775v1.448843c0 .484029 1.448198.877501 2.551662.877501 1.103465 0 2.429973-.393472 2.429973-.877501 0-.02865 0-1.420193 0-1.448843 0-.48403-1.326508-.8775-2.429973-.8775z" display="block" fill="#fcaf3e" stroke="#b46c02" stroke-miterlimit="10" stroke-width=".550962"/><path d="m77.553069 42.818243.196772 9.248297 2.518685.70838-.07871-9.208942s1.141279 0 2.990938-.118063c-2.873677-.128415-6.161617-1.363456-7.280572-2.164495.780657 1.15271 1.652886 1.534823 1.652886 1.534823z" display="block" fill="url(#u)" opacity=".493671"/><path d="m36.857142 14.071428c0 3.037566-5.756338 5.5-12.857142 5.5s-12.857142-2.462434-12.857142-5.5 5.756338-5.4999997 12.857142-5.4999997 12.857142 2.4624337 12.857142 5.4999997z" display="block" fill="#fed496" stroke="url(#q)" stroke-miterlimit="10" stroke-width="4.119866" transform="matrix(.14985018 0 0 .1193489 79.551752 35.881486)"/></g><g transform="matrix(1.8000097 0 0 1.8000097 48.110882 -371.07975)"><path d="m41 40c0 4.733869-7.675118 8.571428-17.142857 8.571428-9.467738 0-17.1428562-3.837559-17.1428562-8.571428s7.6751182-8.571428 17.1428562-8.571428c9.467739 0 17.142857 3.837559 17.142857 8.571428z" display="block" fill="url(#a)" transform="matrix(.58333244 0 0 .63430031 69.378483 28.019722)"/><path d="m83.225028 36.779784c-4.330248 0-7.851213 1.544073-7.851213 3.443515v12.741004c0 1.899443 3.520964 3.443515 7.851213 3.443515 4.330248 0 7.991415-1.544072 7.991415-3.443515 0-.11243 0-12.628574 0-12.741004 0-1.899443-3.661168-3.443515-7.991415-3.443515z" display="block" fill="url(#s)" stroke="url(#t)" stroke-miterlimit="10" stroke-width=".550962"/><path d="m83.227118 37.004758c-4.201167 0-7.617175 1.498046-7.617176 3.340867v3.613125c0 1.842823 3.416008 3.111779 7.617176 3.111779s7.753198-1.268956 7.753197-3.111779c0-.109078 0-3.504046 0-3.613125 0-1.842821-3.552029-3.340867-7.753197-3.340867z" display="block" fill="url(#w)"/><path d="m83.229779 37.292801c-4.037318 0-7.320099 1.43962-7.3201 3.21057v12.190741c0 1.770951 3.282782 3.21057 7.3201 3.21057 4.037319 0 7.450816-1.439619 7.450815-3.21057 0-.104824 0-12.085916 0-12.190741 0-1.77095-3.413497-3.21057-7.450815-3.21057z" style="opacity:.544304;fill:none;stroke-width:.550962;stroke-miterlimit:10;display:block;stroke:url(#v)"/><path d="m36.857142 14.071428c0 3.037566-5.756338 5.5-12.857142 5.5s-12.857142-2.462434-12.857142-5.5 5.756338-5.4999997 12.857142-5.4999997 12.857142 2.4624337 12.857142 5.4999997z" display="block" fill="#fed496" stroke="url(#q)" stroke-miterlimit="10" stroke-width="1.004927" transform="matrix(.57150824 0 0 .52595908 69.543269 32.859203)"/><path d="m41 40c0 4.733869-7.675118 8.571428-17.142857 8.571428-9.467738 0-17.1428562-3.837559-17.1428562-8.571428s7.6751182-8.571428 17.1428562-8.571428c9.467739 0 17.142857 3.837559 17.142857 8.571428z" display="block" fill="url(#a)" opacity=".658228" transform="matrix(.20023623 0 0 .20023623 78.561117 30.631742)"/><path d="m83.198551 36.463086c-1.103464 0-2.551662.393471-2.551662.8775v1.448843c0 .484029 1.448198.877501 2.551662.877501 1.103465 0 2.429973-.393472 2.429973-.877501 0-.02865 0-1.420193 0-1.448843 0-.48403-1.326508-.8775-2.429973-.8775z" display="block" fill="#fcaf3e" stroke="#b46c02" stroke-miterlimit="10" stroke-width=".550962"/><path d="m77.553069 42.818243.196772 9.248297 2.518685.70838-.07871-9.208942s1.141279 0 2.990938-.118063c-2.873677-.128415-6.161617-1.363456-7.280572-2.164495.780657 1.15271 1.652886 1.534823 1.652886 1.534823z" display="block" fill="url(#u)" opacity=".493671"/><path d="m36.857142 14.071428c0 3.037566-5.756338 5.5-12.857142 5.5s-12.857142-2.462434-12.857142-5.5 5.756338-5.4999997 12.857142-5.4999997 12.857142 2.4624337 12.857142 5.4999997z" display="block" fill="#fed496" stroke="url(#q)" stroke-miterlimit="10" stroke-width="4.119866" transform="matrix(.14985018 0 0 .1193489 79.551752 35.881486)"/></g><g transform="matrix(.97598984 0 0 .97598984 9.586829 -4.902526)"><path d="m302.63464-175.21021c-4.33025 0-7.85122 1.54408-7.85122 3.44352v12.74103c0 1.89944 3.52097 3.44352 7.85122 3.44352 4.33026 0 7.99143-1.54408 7.99143-3.44352 0-.11243 0-12.6286 0-12.74103 0-1.89944-3.66117-3.44352-7.99143-3.44352z" display="block" fill="url(#K)" stroke="url(#L)" stroke-miterlimit="10" stroke-width=".550963"/><path d="m302.63673-174.98523c-4.20117 0-7.61719 1.49805-7.61719 3.34087v3.61313c0 1.84283 3.41602 3.11178 7.61719 3.11178 4.20118 0 7.75321-1.26895 7.75321-3.11178 0-.10908 0-3.50405 0-3.61313 0-1.84282-3.55203-3.34087-7.75321-3.34087z" display="block" fill="url(#J)"/><path d="m302.63939-174.69719c-4.03732 0-7.32011 1.43962-7.32011 3.21058v12.19076c0 1.77095 3.28279 3.21057 7.32011 3.21057 4.03733 0 7.45083-1.43962 7.45083-3.21057 0-.10483 0-12.08594 0-12.19076 0-1.77096-3.4135-3.21058-7.45083-3.21058z" style="opacity:.544304;fill:none;stroke-width:.550963;stroke-miterlimit:10;display:block;stroke:url(#I)"/><path d="m36.857142 14.071428c0 3.037566-5.756338 5.5-12.857142 5.5s-12.857142-2.462434-12.857142-5.5 5.756338-5.4999997 12.857142-5.4999997 12.857142 2.4624337 12.857142 5.4999997z" display="block" fill="#fed496" stroke="url(#q)" stroke-miterlimit="10" stroke-width="1.004927" transform="matrix(.57150915 0 0 .52595992 288.95286 -179.13079)"/><path d="m41 40c0 4.733869-7.675118 8.571428-17.142857 8.571428-9.467738 0-17.1428562-3.837559-17.1428562-8.571428s7.6751182-8.571428 17.1428562-8.571428c9.467739 0 17.142857 3.837559 17.142857 8.571428z" display="block" fill="url(#a)" opacity=".658228" transform="matrix(.20023655 0 0 .20023655 297.97072 -181.35826)"/><path d="m302.60816-175.52691c-1.10346 0-2.55166.39348-2.55166.87751v1.44884c0 .48403 1.4482.8775 2.55166.8775 1.10347 0 2.42998-.39347 2.42998-.8775 0-.0286 0-1.42019 0-1.44884 0-.48404-1.32651-.87751-2.42998-.87751z" display="block" fill="#fcaf3e" stroke="#b46c02" stroke-miterlimit="10" stroke-width=".550963"/><path d="m296.96267-169.17174.19678 9.24831 2.51868.70838-.0787-9.20895s1.14129 0 2.99095-.11807c-2.87368-.12841-6.16163-1.36345-7.28059-2.16449.78066 1.15271 1.65289 1.53482 1.65289 1.53482z" display="block" fill="url(#H)" opacity=".493671"/><path d="m36.857142 14.071428c0 3.037566-5.756338 5.5-12.857142 5.5s-12.857142-2.462434-12.857142-5.5 5.756338-5.4999997 12.857142-5.4999997 12.857142 2.4624337 12.857142 5.4999997z" display="block" fill="#fed496" stroke="url(#q)" stroke-miterlimit="10" stroke-width="4.119866" transform="matrix(.14985042 0 0 .11934909 298.96136 -176.10851)"/></g><g transform="matrix(.99128503 0 0 .99128503 5.873008 -1.030722)"><path d="m301.36496-68.917247c-1.73203 0-3.14035.617602-3.14035 1.377345v5.096179c0 .759744 1.40832 1.377346 3.14035 1.377346 1.73202 0 3.19642-.617602 3.19642-1.377346 0-.04497 0-5.051208 0-5.096179 0-.759744-1.4644-1.377345-3.19642-1.377345z" display="block" fill="url(#U)" stroke="url(#V)" stroke-miterlimit="10" stroke-width=".220375"/><path d="m301.36579-68.827262c-1.68039 0-3.04673.599193-3.04673 1.336289v1.445187c0 .737097 1.36634 1.244657 3.04673 1.244657 1.6804 0 3.10115-.50756 3.10115-1.244657 0-.04363 0-1.401558 0-1.445187 0-.737096-1.42075-1.336289-3.10115-1.336289z" display="block" fill="url(#T)"/><path d="m301.36686-68.712049c-1.61486 0-2.92791.575822-2.92792 1.284171v4.876084c0 .708349 1.31306 1.284172 2.92792 1.284172 1.61485 0 2.98019-.575823 2.98019-1.284172 0-.04193 0-4.834155 0-4.876084 0-.708349-1.36534-1.284171-2.98019-1.284171z" style="opacity:.544304;fill:none;stroke-width:.220375;stroke-miterlimit:10;display:block;stroke:url(#S)"/><path d="m36.857142 14.071428c0 3.037566-5.756338 5.5-12.857142 5.5s-12.857142-2.462434-12.857142-5.5 5.756338-5.4999997 12.857142-5.4999997 12.857142 2.4624337 12.857142 5.4999997z" display="block" fill="#fed496" stroke="url(#q)" stroke-miterlimit="10" stroke-width="1.004927" transform="matrix(.22859331 0 0 .21037444 295.89249 -70.485411)"/><path d="m41 40c0 4.733869-7.675118 8.571428-17.142857 8.571428-9.467738 0-17.1428562-3.837559-17.1428562-8.571428s7.6751182-8.571428 17.1428562-8.571428c9.467739 0 17.142857 3.837559 17.142857 8.571428z" display="block" fill="url(#a)" opacity=".658228" transform="matrix(.08009099 0 0 .08009099 299.49947 -71.376357)"/><path d="m301.35437-69.043921c-.44137 0-1.02062.157382-1.02062.350985v.579512c0 .193603.57925.350985 1.02062.350985.44136 0 .97194-.157382.97194-.350985 0-.01146 0-.568053 0-.579512 0-.193604-.53058-.350985-.97194-.350985z" display="block" fill="#fcaf3e" stroke="#b46c02" stroke-miterlimit="10" stroke-width=".220375"/><path d="m299.09627-66.501969.0787 3.699157 1.00743.283339-.0315-3.683415s.4565 0 1.19633-.04722c-1.14942-.05136-2.46454-.545359-2.9121-.865761.31225.461064.66112.613903.66112.613903z" display="block" fill="url(#R)" opacity=".493671"/><path d="m36.857142 14.071428c0 3.037566-5.756338 5.5-12.857142 5.5s-12.857142-2.462434-12.857142-5.5 5.756338-5.4999997 12.857142-5.4999997 12.857142 2.4624337 12.857142 5.4999997z" display="block" fill="#fed496" stroke="url(#q)" stroke-miterlimit="10" stroke-width="4.119866" transform="matrix(.05993745 0 0 .04773747 299.89571 -69.276551)"/></g><g transform="matrix(.91499868 0 0 .91499868 25.869676 -9.301467)"><path d="m304.28832-117.15195c-3.46424 0-6.28104 1.23527-6.28104 2.75484v10.19292c0 1.51957 2.8168 2.75484 6.28104 2.75484s6.39321-1.23527 6.39321-2.75484c0-.0899 0-10.10297 0-10.19292 0-1.51957-2.92897-2.75484-6.39321-2.75484z" display="block" fill="url(#P)" stroke="url(#Q)" stroke-miterlimit="10" stroke-width=".440775"/><path d="m304.28999-116.97197c-3.36097 0-6.09381 1.19845-6.09381 2.67272v2.89054c0 1.47427 2.73284 2.48945 6.09381 2.48945s6.20263-1.01518 6.20263-2.48945c0-.0873 0-2.80327 0-2.89054 0-1.47427-2.84166-2.67272-6.20263-2.67272z" display="block" fill="url(#O)"/><path d="m304.29212-116.74154c-3.22989 0-5.85615 1.15171-5.85615 2.56849v9.75271c0 1.41677 2.62626 2.56848 5.85615 2.56848s5.96072-1.15171 5.96072-2.56848c0-.0839 0-9.66885 0-9.75271 0-1.41678-2.73083-2.56849-5.96072-2.56849z" style="opacity:.544304;fill:none;stroke-width:.440775;stroke-miterlimit:10;display:block;stroke:url(#N)"/><path d="m36.857142 14.071428c0 3.037566-5.756338 5.5-12.857142 5.5s-12.857142-2.462434-12.857142-5.5 5.756338-5.4999997 12.857142-5.4999997 12.857142 2.4624337 12.857142 5.4999997z" display="block" fill="#fed496" stroke="url(#q)" stroke-miterlimit="10" stroke-width="1.004927" transform="matrix(.45721186 0 0 .42077211 293.34279 -120.28845)"/><path d="m41 40c0 4.733869-7.675118 8.571428-17.142857 8.571428-9.467738 0-17.1428562-3.837559-17.1428562-8.571428s7.6751182-8.571428 17.1428562-8.571428c9.467739 0 17.142857 3.837559 17.142857 8.571428z" display="block" fill="url(#a)" opacity=".658228" transform="matrix(.16019083 0 0 .16019083 300.55715 -122.07044)"/><path d="m304.26714-117.40532c-.88278 0-2.04136.31479-2.04136.70201v1.15909c0 .38723 1.15858.70201 2.04136.70201s1.944-.31478 1.944-.70201c0-.0229 0-1.13617 0-1.15909 0-.38723-1.06122-.70201-1.944-.70201z" display="block" fill="#fcaf3e" stroke="#b46c02" stroke-miterlimit="10" stroke-width=".440775"/><path d="m299.7507-112.32113.15742 7.39872 2.01497.56671-.063-7.36724s.91304 0 2.39278-.0945c-2.29897-.10273-4.92935-1.09077-5.82452-1.73161.62453.92218 1.32232 1.22787 1.32232 1.22787z" display="block" fill="url(#M)" opacity=".493671"/><path d="m36.857142 14.071428c0 3.037566-5.756338 5.5-12.857142 5.5s-12.857142-2.462434-12.857142-5.5 5.756338-5.4999997 12.857142-5.4999997 12.857142 2.4624337 12.857142 5.4999997z" display="block" fill="#fed496" stroke="url(#q)" stroke-miterlimit="10" stroke-width="4.119866" transform="matrix(.11988153 0 0 .09548022 301.34967 -117.8706)"/></g><g transform="translate(5.101449 1.391304)"><path d="m300.64601-235.32503c-5.62927 0-10.20648 2.00727-10.20648 4.47652v16.56315c0 2.46925 4.57721 4.47652 10.20648 4.47652s10.38874-2.00727 10.38874-4.47652c0-.14616 0-16.41699 0-16.56315 0-2.46925-4.75948-4.47652-10.38874-4.47652z" display="block" fill="url(#F)" stroke="url(#G)" stroke-miterlimit="10" stroke-width=".716244"/><path d="m300.64872-235.03257c-5.46146 0-9.90223 1.94744-9.90223 4.34308v4.69702c0 2.39565 4.44077 4.04527 9.90223 4.04527 5.46147 0 10.07906-1.64962 10.07906-4.04527 0-.1418 0-4.55521 0-4.69702 0-2.39564-4.61759-4.34308-10.07906-4.34308z" display="block" fill="url(#E)"/><path d="m300.65218-234.65812c-5.24846 0-9.51603 1.87149-9.51603 4.1737v15.84781c0 2.30222 4.26757 4.1737 9.51603 4.1737 5.24847 0 9.68597-1.87148 9.68597-4.1737 0-.13627 0-15.71154 0-15.84781 0-2.30221-4.4375-4.1737-9.68597-4.1737z" style="opacity:.544304;fill:none;stroke-width:.716244;stroke-miterlimit:10;display:block;stroke:url(#D)"/><path d="m36.857142 14.071428c0 3.037566-5.756338 5.5-12.857142 5.5s-12.857142-2.462434-12.857142-5.5 5.756338-5.4999997 12.857142-5.4999997 12.857142 2.4624337 12.857142 5.4999997z" display="block" fill="#fed496" stroke="url(#q)" stroke-miterlimit="10" stroke-width="1.004927" transform="matrix(.74295351 0 0 .68374018 282.85989 -240.42174)"/><path d="m41 40c0 4.733869-7.675118 8.571428-17.142857 8.571428-9.467738 0-17.1428562-3.837559-17.1428562-8.571428s7.6751182-8.571428 17.1428562-8.571428c9.467739 0 17.142857 3.837559 17.142857 8.571428z" display="block" fill="url(#a)" opacity=".658228" transform="matrix(.26030458 0 0 .26030458 294.58298 -243.31741)"/><path d="m300.61159-235.73674c-1.43449 0-3.31713.51151-3.31713 1.14074v1.88348c0 .62923 1.88264 1.14074 3.31713 1.14074s3.15893-.51151 3.15893-1.14074c0-.0373 0-1.84623 0-1.88348 0-.62923-1.72444-1.14074-3.15893-1.14074z" display="block" fill="#fcaf3e" stroke="#b46c02" stroke-miterlimit="10" stroke-width=".716244"/><path d="m293.27253-227.47511.2558 12.02267 3.27426.92088-.10232-11.97151s1.48365 0 3.88818-.15348c-3.73574-.16694-8.01002-1.77247-9.46465-2.81381 1.01484 1.4985 2.14873 1.99525 2.14873 1.99525z" display="block" fill="url(#C)" opacity=".493671"/><path d="m36.857142 14.071428c0 3.037566-5.756338 5.5-12.857142 5.5s-12.857142-2.462434-12.857142-5.5 5.756338-5.4999997 12.857142-5.4999997 12.857142 2.4624337 12.857142 5.4999997z" display="block" fill="#fed496" stroke="url(#q)" stroke-miterlimit="10" stroke-width="4.119866" transform="matrix(.19480335 0 0 .15515207 295.8708 -236.49281)"/></g><path d="m302.25063-306.27614c-7.79449 0-14.13226 2.77934-14.13226 6.19836v22.93393c0 3.41901 6.33777 6.19836 14.13226 6.19836s14.38462-2.77935 14.38462-6.19836c0-.20238 0-22.73156 0-22.93393 0-3.41902-6.59014-6.19836-14.38462-6.19836z" display="block" fill="url(#x)" stroke="url(#y)" stroke-miterlimit="10" stroke-width=".991738"/><path d="m302.25439-305.87119c-7.56214 0-13.71099 2.6965-13.71099 6.0136v6.50366c0 3.3171 6.14885 5.60123 13.71099 5.60123s13.95583-2.28413 13.95583-5.60123c0-.19635 0-6.30732 0-6.50366 0-3.3171-6.39369-6.0136-13.95583-6.0136z" display="block" fill="url(#z)"/><path d="m302.25918-305.35271c-7.26721 0-13.17625 2.59133-13.17625 5.77906v21.94345c0 3.18773 5.90904 5.77906 13.17625 5.77906s13.41154-2.59133 13.41154-5.77906c0-.18868 0-21.75476 0-21.94345 0-3.18773-6.14433-5.77906-13.41154-5.77906z" style="opacity:.544304;fill:none;stroke-width:.991738;stroke-miterlimit:10;display:block;stroke:url(#A)"/><path d="m36.857142 14.071428a12.857142 5.5 0 1 1 -25.714284 0 12.857142 5.5 0 1 1 25.714284 0z" display="block" fill="#fed496" stroke="url(#q)" stroke-miterlimit="10" stroke-width="1.004927" transform="matrix(1.0287204 0 0 .94673145 277.62333 -313.33323)"/><path d="m41 40a17.142857 8.5714283 0 1 1 -34.2857132 0 17.142857 8.5714283 0 1 1 34.2857132 0z" display="block" fill="url(#a)" opacity=".658228" transform="matrix(.36042716 0 0 .36042716 293.85554 -317.34268)"/><path d="m302.20297-306.8462c-1.98625 0-4.59302.70825-4.59302 1.57951v2.60793c0 .87126 2.60677 1.57951 4.59302 1.57951s4.37397-.70825 4.37397-1.57951c0-.0516 0-2.55636 0-2.60793 0-.87126-2.38772-1.57951-4.37397-1.57951z" display="block" fill="#fcaf3e" stroke="#b46c02" stroke-miterlimit="10" stroke-width=".991738"/><path d="m292.04105-295.40686.35419 16.64703 4.53366 1.27509-.14168-16.57619s2.05431 0 5.38371-.21251c-5.17264-.23115-11.09097-2.45424-13.1051-3.89611 1.40519 2.07489 2.97521 2.76269 2.97521 2.76269z" display="block" fill="url(#B)" opacity=".493671"/><path d="m36.857142 14.071428a12.857142 5.5 0 1 1 -25.714284 0 12.857142 5.5 0 1 1 25.714284 0z" display="block" fill="#fed496" stroke="url(#q)" stroke-miterlimit="10" stroke-width="4.119866" transform="matrix(.26973178 0 0 .21482918 295.6387 -307.89309)"/><text font-family="DejaVu Sans" font-size="14" x="164.1739" y="-41.971016"><tspan x="164.1739" y="-41.971016">Dark border</tspan></text><text font-family="DejaVu Sans" font-size="14" x="-5.231347" y="62.897141"><tspan x="-5.231347" y="62.897141">Original</tspan></text><text font-family="DejaVu Sans" font-size="14" x="273.62317" y="-42.434784"><tspan x="273.62317" y="-42.434784">Shadowless</tspan></text></svg>