<svg height="100" width="200" xmlns="http://www.w3.org/2000/svg" xmlns:xlink="http://www.w3.org/1999/xlink"><linearGradient id="a"><stop offset="0" stop-color="#505050" stop-opacity=".784314"/><stop offset=".1057750061" stop-color="#646464" stop-opacity=".588235"/><stop offset=".2097605616" stop-color="#8c8c8c" stop-opacity=".392157"/><stop offset=".2953462899" stop-color="#c8c8c8" stop-opacity=".196078"/><stop offset="1" stop-opacity="0"/></linearGradient><linearGradient id="b" gradientUnits="userSpaceOnUse" x1="-1045.6256" x2="-1026.831" xlink:href="#c" y1="1057.341718" y2="1057.341718"/><linearGradient id="c"><stop offset="0" stop-color="#8f5902"/><stop offset="1" stop-color="#c17d11"/></linearGradient><linearGradient id="d" gradientUnits="userSpaceOnUse" x1="-1044.9471" x2="-1023.7773" xlink:href="#e" y1="1105.183294" y2="1101.111694"/><linearGradient id="e"><stop offset="0" stop-color="#834d02"/><stop offset=".2330156416" stop-color="#945c03" stop-opacity=".878431"/><stop offset=".4285591841" stop-color="#996005" stop-opacity=".772549"/><stop offset=".590223968" stop-color="#a76a09" stop-opacity=".505882"/><stop offset="1" stop-color="#c17d11" stop-opacity=".004386"/></linearGradient><linearGradient id="f" gradientTransform="matrix(.48792508 0 0 .43935051 1021.9441 712.23367)" gradientUnits="userSpaceOnUse" spreadMethod="reflect" x1="1216.4001" x2="1268.9919" xlink:href="#a" y1="1135.1746" y2="1138.5677"/><linearGradient id="g" gradientUnits="userSpaceOnUse" x1="-1045.6256" x2="-1026.831" xlink:href="#c" y1="1057.341718" y2="1057.341718"/><linearGradient id="h" gradientUnits="userSpaceOnUse" x1="-1044.9471" x2="-1023.7773" xlink:href="#e" y1="1105.183294" y2="1101.111694"/><linearGradient id="i" gradientTransform="matrix(.48833079 0 0 .43914279 1150.3266 888.9717)" gradientUnits="userSpaceOnUse" spreadMethod="reflect" x1="1216.4001" x2="1268.9919" xlink:href="#a" y1="1135.1746" y2="1138.5677"/><linearGradient id="j" gradientTransform="matrix(.48833079 0 0 .43914279 -2189.652 957.19516)" gradientUnits="userSpaceOnUse" x1="1006.6776" x2="1025.4722" xlink:href="#c" y1="1053.0231" y2="1053.0231"/><linearGradient id="k" gradientTransform="matrix(.48833079 0 0 .43914279 -2189.652 957.19515)" gradientUnits="userSpaceOnUse" x1="1007.3561" x2="1028.5259" xlink:href="#e" y1="1100.8647" y2="1096.7931"/><linearGradient id="l" gradientTransform="matrix(.48581448 0 0 .43914964 -2187.0717 957.18713)" gradientUnits="userSpaceOnUse" x1="1007.3561" x2="1028.5259" xlink:href="#e" y1="1100.8647" y2="1096.7931"/><linearGradient id="m" gradientTransform="matrix(.48581448 0 0 .43914964 -2187.0717 957.18714)" gradientUnits="userSpaceOnUse" x1="1006.6776" x2="1025.4722" xlink:href="#c" y1="1053.0231" y2="1053.0231"/><linearGradient id="n" gradientTransform="matrix(.48581448 0 0 .43914964 1629.5608 894.22773)" gradientUnits="userSpaceOnUse" spreadMethod="reflect" x1="1218.8694" x2="1273.9305" y1="1133.5355" y2="1135.2897"><stop offset="0" stop-color="#322f2f"/><stop offset=".18510975" stop-color="#3b3b3b" stop-opacity=".633929"/><stop offset=".32439771" stop-color="#8c8c8c" stop-opacity=".392157"/><stop offset=".48530081" stop-color="#9d9d9d" stop-opacity=".879464"/><stop offset="1" stop-opacity="0"/></linearGradient><linearGradient id="o" gradientTransform="matrix(.48833079 0 0 .39432378 -2572.4935 849.16907)" gradientUnits="userSpaceOnUse" x1="1006.6776" x2="1025.4722" y1="1053.0231" y2="1053.0231"><stop offset="0" stop-color="#754a04"/><stop offset="1" stop-color="#db8d11"/></linearGradient><linearGradient id="p" gradientTransform="matrix(.48833079 0 0 .39432378 -2572.4933 849.16913)" gradientUnits="userSpaceOnUse" x1="1007.3561" x2="1037.3695" y1="1100.8647" y2="1096.1847"><stop offset="0" stop-color="#653d06"/><stop offset=".36395895" stop-color="#945c03" stop-opacity=".878431"/><stop offset=".52524489" stop-color="#996005" stop-opacity=".772549"/><stop offset=".70705146" stop-color="#a76a09" stop-opacity=".505882"/><stop offset="1" stop-color="#c17d11" stop-opacity=".004386"/></linearGradient><linearGradient id="q" gradientTransform="matrix(.48833079 0 0 .43914279 1636.9508 747.75134)" gradientUnits="userSpaceOnUse" spreadMethod="reflect" x1="1216.4001" x2="1268.9919" y1="1135.1746" y2="1138.5677"><stop offset="0" stop-color="#505050" stop-opacity=".863636"/><stop offset=".13287351" stop-color="#646464" stop-opacity=".727273"/><stop offset=".28332648" stop-color="#8c8c8c" stop-opacity=".511364"/><stop offset=".39448276" stop-color="#c8c8c8" stop-opacity=".301136"/><stop offset="1" stop-opacity="0"/></linearGradient><g transform="translate(-1906.9768 -1348.691)"><g transform="translate(-17.643739 21.715371)"><g stroke-linejoin="round"><path d="m1600.6673 1189.0326c-2.292.1834-3.3216.4409-5.0085 1.1225-1.6868.6815-3.2358 1.6437-4.878 2.7729-.5105.4159-.7675 1.0415-.7761 1.6534-.1741 1.5997-.066 3.2085-.1121 4.8123-.1093 10.7954-.3519 21.5908-.2495 32.387.015.3801.038.7601.076 1.139-.067.186.2081.3776.3876.2609.3673-.1526.729-.3178 1.1116-.4381 1.393-.4977 2.7931-.979 4.1908-1.466 1.7589-.6015 3.5305-1.1866 5.3577-1.5987 1.6256-.3151 3.324-.2243 4.9336.1225.8586.1848 1.704.4181 2.536.6833.9646.3175 1.8749.759 2.7201 1.2828.6067.3713 1.1812.7835 1.7968 1.1433 1.0019.6014 2.052 1.1386 3.1466 1.591 2.599 1.1157 5.3487 1.9471 8.1685 2.471 1.3402.1831 2.7015.05 4.0313-.1381 1.2627-.1602 2.533-.4169 3.6633-.9667 1.5653-.7188 2.9615-1.6906 4.3447-2.6566.7852-.5553 1.552-1.1342 2.3723-1.6473.3054-.134.6766-.1889.8991-.4409.2597-.2922.2863-.6835.2984-1.0423.09-2.3885-.022-4.7777-.043-7.1663.1562-4.7354.6896-9.3612.5448-14.093-.4083-3.0526-.7277-6.1183-.805-9.1937-.061-1.9596-.075-3.9232-.2817-5.8763-.022-.1556-.027-.3147-.066-.4675-.05-.1436-.2058-.2863-.3857-.2418-.2734.049-.4903.2251-.7581.2886-1.2291.4461-2.483.8339-3.7167 1.2694-2.6017.8786-5.2032 1.7683-7.8745 2.4634-1.648.3478-3.3685.2988-5.0301.057-1.2971-.1797-2.6084-.401-3.8025-.9112-1.1917-.5064-2.3224-1.1186-3.4902-1.6666-3.0608-1.5072-6.053-3.1279-9.1625-4.5544-1.2971-.5353-2.1496-.9944-4.1385-.9544z" fill="#fff" fill-rule="evenodd" stroke="#ff4c00" stroke-width=".926002"/><path d="m1600.9629 1189.5593c-2.2314.1785-3.2338.4293-4.876 1.0928-1.6423.6635-3.1503 1.6003-4.7491 2.6996-.497.4049-.7472 1.014-.7556 1.6097-.1695 1.5574-.064 3.1237-.1091 4.6851-.1064 10.5099-.3426 21.0199-.2429 31.5307.014.37.037.74.074 1.1088-.066.1811.2026.3676.3773.254.3576-.1485.7098-.3093 1.0822-.4265 1.3562-.4845 2.7193-.9531 4.08-1.4272 1.7125-.5856 3.4372-1.1552 5.2161-1.5564 1.5826-.3068 3.2361-.2184 4.8032.1193.8359.1798 1.6589.4069 2.4689.6651.9391.3091 1.8253.739 2.6482 1.2489.5906.3615 1.15.7628 1.7492 1.1131.9755.5855 1.9978 1.1085 3.0635 1.549 2.5303 1.0861 5.2073 1.8955 7.9525 2.4056 1.3048.1783 2.6301.048 3.9248-.1344 1.2292-.156 2.4659-.4059 3.5664-.9412 1.5238-.6998 2.8832-1.6458 4.2298-2.5864.7644-.5406 1.511-1.1041 2.3096-1.6037.2973-.1305.6587-.1838.8753-.4292.2529-.2845.2787-.6654.2905-1.0148.088-2.3254-.022-4.6513-.042-6.9768.1521-4.6102.6714-9.1137.5305-13.7204-.3975-2.9719-.7085-5.9566-.7838-8.9506-.06-1.9078-.073-3.8195-.2742-5.721-.022-.1515-.026-.3063-.065-.4551-.048-.1398-.2003-.2787-.3755-.2354-.2661.047-.4773.2191-.738.281-1.1966.4343-2.4174.8119-3.6184 1.2358-2.5329.8554-5.0657 1.7216-7.6663 2.3983-1.6045.3386-3.2795.2909-4.8971.055-1.2628-.1749-2.5395-.3904-3.702-.8871-1.1602-.493-2.261-1.0891-3.3979-1.6226-2.98-1.4673-5.893-3.0452-8.9203-4.434-1.2628-.5211-2.0928-.968-4.0291-.9291z" fill="none" opacity=".6" stroke="#b90000" stroke-width=".90152"/><path d="m1600.7157 1188.7799c-2.292.1834-3.3216.4409-5.0084 1.1225-1.6869.6815-3.2358 1.6437-4.8781 2.7729-.5105.4158-.7675 1.0415-.7761 1.6534-.1741 1.5997-.066 3.2085-.1121 4.8123-.1093 10.7954-.3519 21.5908-.2495 32.387.015.3801.038.7601.076 1.1389-.067.1861.2082.3777.3876.2609.3673-.1525.7291-.3177 1.1116-.438 1.393-.4977 2.7932-.979 4.1908-1.466 1.7589-.6015 3.5305-1.1866 5.3578-1.5987 1.6256-.3151 3.3239-.2243 4.9336.1225.8585.1848 1.704.4181 2.5359.6832.9646.3176 1.8749.7591 2.7201 1.2829.6067.3713 1.1813.7835 1.7968 1.1433 1.0019.6013 2.052 1.1386 3.1466 1.591 2.599 1.1157 5.3488 1.9471 8.1685 2.471 1.3402.1831 2.7015.05 4.0313-.1381 1.2627-.1602 2.533-.417 3.6633-.9667 1.5653-.7188 2.9616-1.6906 4.3447-2.6567.7852-.5552 1.552-1.1341 2.3723-1.6472.3054-.134.6766-.1889.8991-.4409.2597-.2922.2863-.6835.2984-1.0423.09-2.3886-.022-4.7777-.043-7.1663.1562-4.7354.6896-9.3612.5448-14.093-.4082-3.0526-.7276-6.1183-.805-9.1937-.061-1.9596-.075-3.9232-.2817-5.8763-.022-.1556-.027-.3147-.066-.4675-.049-.1436-.2058-.2863-.3857-.2418-.2733.049-.4903.2251-.7581.2886-1.2291.4461-2.483.8339-3.7167 1.2694-2.6016.8786-5.2032 1.7683-7.8745 2.4634-1.648.3478-3.3685.2988-5.03.057-1.2971-.1797-2.6085-.401-3.8025-.9112-1.1918-.5064-2.3224-1.1186-3.4903-1.6666-3.0608-1.5072-6.053-3.1279-9.1625-4.5544-1.2971-.5353-2.1496-.9944-4.1385-.9544z" fill="url(#f)" fill-rule="evenodd" opacity=".6" stroke="#f00" stroke-width=".926002"/></g><g transform="matrix(.48792508 0 0 .43935051 1079.7235 775.60422)"><rect height="217.37044" rx="1.993403" ry="1.748257" style="opacity:.99;stroke:#8f5902;stroke-width:2;stroke-linecap:round;stroke-linejoin:round;fill:url(#b)" transform="scale(-1 1)" width="16.794626" x="-1044.6257" y="948.65643"/><rect fill="url(#d)" height="217.37044" opacity=".99" rx="1.993403" ry="1.748257" transform="scale(-1 1)" width="16.794626" x="-1044.6257" y="948.65643"/></g></g><g transform="matrix(1.0008315 0 0 .99952721 111.26381 29.773708)"><g stroke-linejoin="round"><path d="m1600.6673 1189.0326c-2.292.1834-3.3216.4409-5.0085 1.1225-1.6868.6815-3.2358 1.6437-4.878 2.7729-.5105.4159-.7675 1.0415-.7761 1.6534-.1741 1.5997-.066 3.2085-.1121 4.8123-.1093 10.7954-.3519 21.5908-.2495 32.387.015.3801.038.7601.076 1.139-.067.186.2081.3776.3876.2609.3673-.1526.729-.3178 1.1116-.4381 1.393-.4977 2.7931-.979 4.1908-1.466 1.7589-.6015 3.5305-1.1866 5.3577-1.5987 1.6256-.3151 3.324-.2243 4.9336.1225.8586.1848 1.704.4181 2.536.6833.9646.3175 1.8749.759 2.7201 1.2828.6067.3713 1.1812.7835 1.7968 1.1433 1.0019.6014 2.052 1.1386 3.1466 1.591 2.599 1.1157 5.3487 1.9471 8.1685 2.471 1.3402.1831 2.7015.05 4.0313-.1381 1.2627-.1602 2.533-.4169 3.6633-.9667 1.5653-.7188 2.9615-1.6906 4.3447-2.6566.7852-.5553 1.552-1.1342 2.3723-1.6473.3054-.134.6766-.1889.8991-.4409.2597-.2922.2863-.6835.2984-1.0423.09-2.3885-.022-4.7777-.043-7.1663.1562-4.7354.6896-9.3612.5448-14.093-.4083-3.0526-.7277-6.1183-.805-9.1937-.061-1.9596-.075-3.9232-.2817-5.8763-.022-.1556-.027-.3147-.066-.4675-.05-.1436-.2058-.2863-.3857-.2418-.2734.049-.4903.2251-.7581.2886-1.2291.4461-2.483.8339-3.7167 1.2694-2.6017.8786-5.2032 1.7683-7.8745 2.4634-1.648.3478-3.3685.2988-5.0301.057-1.2971-.1797-2.6084-.401-3.8025-.9112-1.1917-.5064-2.3224-1.1186-3.4902-1.6666-3.0608-1.5072-6.053-3.1279-9.1625-4.5544-1.2971-.5353-2.1496-.9944-4.1385-.9544z" fill="#fff" fill-rule="evenodd" stroke="#ff4c00" stroke-width=".926002"/><path d="m1600.9629 1189.5593c-2.2314.1785-3.2338.4293-4.876 1.0928-1.6423.6635-3.1503 1.6003-4.7491 2.6996-.497.4049-.7472 1.014-.7556 1.6097-.1695 1.5574-.064 3.1237-.1091 4.6851-.1064 10.5099-.3426 21.0199-.2429 31.5307.014.37.037.74.074 1.1088-.066.1811.2026.3676.3773.254.3576-.1485.7098-.3093 1.0822-.4265 1.3562-.4845 2.7193-.9531 4.08-1.4272 1.7125-.5856 3.4372-1.1552 5.2161-1.5564 1.5826-.3068 3.2361-.2184 4.8032.1193.8359.1798 1.6589.4069 2.4689.6651.9391.3091 1.8253.739 2.6482 1.2489.5906.3615 1.15.7628 1.7492 1.1131.9755.5855 1.9978 1.1085 3.0635 1.549 2.5303 1.0861 5.2073 1.8955 7.9525 2.4056 1.3048.1783 2.6301.048 3.9248-.1344 1.2292-.156 2.4659-.4059 3.5664-.9412 1.5238-.6998 2.8832-1.6458 4.2298-2.5864.7644-.5406 1.511-1.1041 2.3096-1.6037.2973-.1305.6587-.1838.8753-.4292.2529-.2845.2787-.6654.2905-1.0148.088-2.3254-.022-4.6513-.042-6.9768.1521-4.6102.6714-9.1137.5305-13.7204-.3975-2.9719-.7085-5.9566-.7838-8.9506-.06-1.9078-.073-3.8195-.2742-5.721-.022-.1515-.026-.3063-.065-.4551-.048-.1398-.2003-.2787-.3755-.2354-.2661.047-.4773.2191-.738.281-1.1966.4343-2.4174.8119-3.6184 1.2358-2.5329.8554-5.0657 1.7216-7.6663 2.3983-1.6045.3386-3.2795.2909-4.8971.055-1.2628-.1749-2.5395-.3904-3.702-.8871-1.1602-.493-2.261-1.0891-3.3979-1.6226-2.98-1.4673-5.893-3.0452-8.9203-4.434-1.2628-.5211-2.0928-.968-4.0291-.9291z" fill="none" opacity=".6" stroke="#b90000" stroke-width=".90152"/><path d="m1600.7157 1188.7799c-2.292.1834-3.3216.4409-5.0084 1.1225-1.6869.6815-3.2358 1.6437-4.8781 2.7729-.5105.4158-.7675 1.0415-.7761 1.6534-.1741 1.5997-.066 3.2085-.1121 4.8123-.1093 10.7954-.3519 21.5908-.2495 32.387.015.3801.038.7601.076 1.1389-.067.1861.2082.3777.3876.2609.3673-.1525.7291-.3177 1.1116-.438 1.393-.4977 2.7932-.979 4.1908-1.466 1.7589-.6015 3.5305-1.1866 5.3578-1.5987 1.6256-.3151 3.3239-.2243 4.9336.1225.8585.1848 1.704.4181 2.5359.6832.9646.3176 1.8749.7591 2.7201 1.2829.6067.3713 1.1813.7835 1.7968 1.1433 1.0019.6013 2.052 1.1386 3.1466 1.591 2.599 1.1157 5.3488 1.9471 8.1685 2.471 1.3402.1831 2.7015.05 4.0313-.1381 1.2627-.1602 2.533-.417 3.6633-.9667 1.5653-.7188 2.9616-1.6906 4.3447-2.6567.7852-.5552 1.552-1.1341 2.3723-1.6472.3054-.134.6766-.1889.8991-.4409.2597-.2922.2863-.6835.2984-1.0423.09-2.3886-.022-4.7777-.043-7.1663.1562-4.7354.6896-9.3612.5448-14.093-.4082-3.0526-.7276-6.1183-.805-9.1937-.061-1.9596-.075-3.9232-.2817-5.8763-.022-.1556-.027-.3147-.066-.4675-.049-.1436-.2058-.2863-.3857-.2418-.2733.049-.4903.2251-.7581.2886-1.2291.4461-2.483.8339-3.7167 1.2694-2.6016.8786-5.2032 1.7683-7.8745 2.4634-1.648.3478-3.3685.2988-5.03.057-1.2971-.1797-2.6085-.401-3.8025-.9112-1.1918-.5064-2.3224-1.1186-3.4903-1.6666-3.0608-1.5072-6.053-3.1279-9.1625-4.5544-1.2971-.5353-2.1496-.9944-4.1385-.9544z" fill="url(#f)" fill-rule="evenodd" opacity=".6" stroke="#f00" stroke-width=".926002"/></g><g transform="matrix(.48792508 0 0 .43935051 1079.7235 775.60422)"><rect height="217.37044" rx="1.993403" ry="1.748257" style="opacity:.99;stroke:#8f5902;stroke-width:2;stroke-linecap:round;stroke-linejoin:round;fill:url(#g)" transform="scale(-1 1)" width="16.794626" x="-1044.6257" y="948.65643"/><rect fill="url(#h)" height="217.37044" opacity=".99" rx="1.993403" ry="1.748257" transform="scale(-1 1)" width="16.794626" x="-1044.6257" y="948.65643"/></g></g><g transform="matrix(.96672898 .25903425 -.25869668 .96546915 495.68427 -211.96545)"><g stroke-linejoin="round"><path d="m1600.6673 1189.0326c-2.292.1834-3.3216.4409-5.0085 1.1225-1.6868.6815-3.2358 1.6437-4.878 2.7729-.5105.4159-.7675 1.0415-.7761 1.6534-.1741 1.5997-.066 3.2085-.1121 4.8123-.1093 10.7954-.3519 21.5908-.2495 32.387.015.3801.038.7601.076 1.139-.067.186.2081.3776.3876.2609.3673-.1526.729-.3178 1.1116-.4381 1.393-.4977 2.7931-.979 4.1908-1.466 1.7589-.6015 3.5305-1.1866 5.3577-1.5987 1.6256-.3151 3.324-.2243 4.9336.1225.8586.1848 1.704.4181 2.536.6833.9646.3175 1.8749.759 2.7201 1.2828.6067.3713 1.1812.7835 1.7968 1.1433 1.0019.6014 2.052 1.1386 3.1466 1.591 2.599 1.1157 5.3487 1.9471 8.1685 2.471 1.3402.1831 2.7015.05 4.0313-.1381 1.2627-.1602 2.533-.4169 3.6633-.9667 1.5653-.7188 2.9615-1.6906 4.3447-2.6566.7852-.5553 1.552-1.1342 2.3723-1.6473.3054-.134.6766-.1889.8991-.4409.2597-.2922.2863-.6835.2984-1.0423.09-2.3885-.022-4.7777-.043-7.1663.1562-4.7354.6896-9.3612.5448-14.093-.4083-3.0526-.7277-6.1183-.805-9.1937-.061-1.9596-.075-3.9232-.2817-5.8763-.022-.1556-.027-.3147-.066-.4675-.05-.1436-.2058-.2863-.3857-.2418-.2734.049-.4903.2251-.7581.2886-1.2291.4461-2.483.8339-3.7167 1.2694-2.6017.8786-5.2032 1.7683-7.8745 2.4634-1.648.3478-3.3685.2988-5.0301.057-1.2971-.1797-2.6084-.401-3.8025-.9112-1.1917-.5064-2.3224-1.1186-3.4902-1.6666-3.0608-1.5072-6.053-3.1279-9.1625-4.5544-1.2971-.5353-2.1496-.9944-4.1385-.9544z" fill="#fff" fill-rule="evenodd" stroke="#ff4c00" stroke-width=".926002"/><path d="m1600.9629 1189.5593c-2.2314.1785-3.2338.4293-4.876 1.0928-1.6423.6635-3.1503 1.6003-4.7491 2.6996-.497.4049-.7472 1.014-.7556 1.6097-.1695 1.5574-.064 3.1237-.1091 4.6851-.1064 10.5099-.3426 21.0199-.2429 31.5307.014.37.037.74.074 1.1088-.066.1811.2026.3676.3773.254.3576-.1485.7098-.3093 1.0822-.4265 1.3562-.4845 2.7193-.9531 4.08-1.4272 1.7125-.5856 3.4372-1.1552 5.2161-1.5564 1.5826-.3068 3.2361-.2184 4.8032.1193.8359.1798 1.6589.4069 2.4689.6651.9391.3091 1.8253.739 2.6482 1.2489.5906.3615 1.15.7628 1.7492 1.1131.9755.5855 1.9978 1.1085 3.0635 1.549 2.5303 1.0861 5.2073 1.8955 7.9525 2.4056 1.3048.1783 2.6301.048 3.9248-.1344 1.2292-.156 2.4659-.4059 3.5664-.9412 1.5238-.6998 2.8832-1.6458 4.2298-2.5864.7644-.5406 1.511-1.1041 2.3096-1.6037.2973-.1305.6587-.1838.8753-.4292.2529-.2845.2787-.6654.2905-1.0148.088-2.3254-.022-4.6513-.042-6.9768.1521-4.6102.6714-9.1137.5305-13.7204-.3975-2.9719-.7085-5.9566-.7838-8.9506-.06-1.9078-.073-3.8195-.2742-5.721-.022-.1515-.026-.3063-.065-.4551-.048-.1398-.2003-.2787-.3755-.2354-.2661.047-.4773.2191-.738.281-1.1966.4343-2.4174.8119-3.6184 1.2358-2.5329.8554-5.0657 1.7216-7.6663 2.3983-1.6045.3386-3.2795.2909-4.8971.055-1.2628-.1749-2.5395-.3904-3.702-.8871-1.1602-.493-2.261-1.0891-3.3979-1.6226-2.98-1.4673-5.893-3.0452-8.9203-4.434-1.2628-.5211-2.0928-.968-4.0291-.9291z" fill="none" opacity=".6" stroke="#b90000" stroke-width=".90152"/><path d="m1600.7157 1188.7799c-2.292.1834-3.3216.4409-5.0084 1.1225-1.6869.6815-3.2358 1.6437-4.8781 2.7729-.5105.4158-.7675 1.0415-.7761 1.6534-.1741 1.5997-.066 3.2085-.1121 4.8123-.1093 10.7954-.3519 21.5908-.2495 32.387.015.3801.038.7601.076 1.1389-.067.1861.2082.3777.3876.2609.3673-.1525.7291-.3177 1.1116-.438 1.393-.4977 2.7932-.979 4.1908-1.466 1.7589-.6015 3.5305-1.1866 5.3578-1.5987 1.6256-.3151 3.3239-.2243 4.9336.1225.8585.1848 1.704.4181 2.5359.6832.9646.3176 1.8749.7591 2.7201 1.2829.6067.3713 1.1813.7835 1.7968 1.1433 1.0019.6013 2.052 1.1386 3.1466 1.591 2.599 1.1157 5.3488 1.9471 8.1685 2.471 1.3402.1831 2.7015.05 4.0313-.1381 1.2627-.1602 2.533-.417 3.6633-.9667 1.5653-.7188 2.9616-1.6906 4.3447-2.6567.7852-.5552 1.552-1.1341 2.3723-1.6472.3054-.134.6766-.1889.8991-.4409.2597-.2922.2863-.6835.2984-1.0423.09-2.3886-.022-4.7777-.043-7.1663.1562-4.7354.6896-9.3612.5448-14.093-.4082-3.0526-.7276-6.1183-.805-9.1937-.061-1.9596-.075-3.9232-.2817-5.8763-.022-.1556-.027-.3147-.066-.4675-.049-.1436-.2058-.2863-.3857-.2418-.2733.049-.4903.2251-.7581.2886-1.2291.4461-2.483.8339-3.7167 1.2694-2.6016.8786-5.2032 1.7683-7.8745 2.4634-1.648.3478-3.3685.2988-5.03.057-1.2971-.1797-2.6085-.401-3.8025-.9112-1.1918-.5064-2.3224-1.1186-3.4903-1.6666-3.0608-1.5072-6.053-3.1279-9.1625-4.5544-1.2971-.5353-2.1496-.9944-4.1385-.9544z" fill="url(#f)" fill-rule="evenodd" opacity=".6" stroke="#f00" stroke-width=".926002"/></g><g transform="matrix(.48792508 0 0 .43935051 1079.7235 775.60422)"><rect height="217.37044" rx="1.993403" ry="1.748257" style="opacity:.99;stroke:#8f5902;stroke-width:2;stroke-linecap:round;stroke-linejoin:round;fill:url(#g)" transform="scale(-1 1)" width="16.794626" x="-1044.6257" y="948.65643"/><rect fill="url(#h)" height="217.37044" opacity=".99" rx="1.993403" ry="1.748257" transform="scale(-1 1)" width="16.794626" x="-1044.6257" y="948.65643"/></g></g><g stroke-linejoin="round" transform="matrix(.99484712 0 0 1.0000156 98.348421 -153.113614)"><path d="m1729.5795 1365.2926c-2.2939.1833-3.3243.4407-5.0126 1.122-1.6882.6812-3.2385 1.643-4.8821 2.7716-.5109.4156-.7681 1.041-.7767 1.6526-.1743 1.599-.066 3.207-.1122 4.81-.1094 10.7903-.3523 21.5806-.2497 32.3717.015.38.038.7597.076 1.1384-.067.186.2084.3775.388.2608.3676-.1524.7296-.3176 1.1125-.4378 1.3941-.4975 2.7954-.9786 4.1942-1.4654 1.7605-.6011 3.5335-1.186 5.3623-1.5979 1.6269-.315 3.3267-.2242 4.9377.1225.8593.1846 1.7054.4178 2.538.6829.9654.3173 1.8765.7586 2.7224 1.2822.6072.3711 1.1822.7831 1.7982 1.1428 1.0028.601 2.0538 1.138 3.1493 1.5902 2.6012 1.1152 5.3532 1.9462 8.1752 2.4698 1.3414.1831 2.7039.05 4.0348-.1379 1.2637-.1602 2.535-.4168 3.6663-.9663 1.5665-.7185 2.964-1.6898 4.3483-2.6554.7858-.555 1.5533-1.1336 2.3743-1.6465.3056-.134.6771-.1888.8998-.4407.26-.292.2865-.6831.2987-1.0418.09-2.3874-.022-4.7754-.043-7.1629.1564-4.7332.6902-9.3568.5453-14.0863-.4086-3.0512-.7283-6.1155-.8057-9.1894-.061-1.9587-.075-3.9214-.2819-5.8735-.022-.1556-.027-.3146-.066-.4673-.05-.1435-.2059-.2861-.386-.2416-.2736.048-.4907.2249-.7587.2884-1.2302.4459-2.4851.8335-3.7198 1.2688-2.6038.8782-5.2076 1.7675-7.881 2.4622-1.6494.3476-3.3714.2987-5.0343.057-1.2982-.1796-2.6107-.4008-3.8057-.9108-1.1927-.5061-2.3243-1.1181-3.4931-1.6658-3.0634-1.5064-6.0581-3.1264-9.1701-4.5523-1.2982-.535-2.1514-.9938-4.142-.9539z" fill="#505050" fill-rule="evenodd" stroke="#ff4c00" stroke-width=".926168"/><path d="m1729.9564 1365.9271c-2.2333.1785-3.2364.4291-4.88 1.0924-1.6437.6632-3.1529 1.5995-4.7531 2.6983-.4974.4047-.7478 1.0135-.7562 1.6089-.1697 1.5567-.064 3.1222-.1092 4.6829-.1065 10.505-.3429 21.01-.2431 31.5158.014.3699.037.7396.074 1.1083-.066.181.2029.3674.3777.2539.3579-.1484.7104-.3092 1.0831-.4263 1.3573-.4843 2.7216-.9527 4.0834-1.4266 1.7139-.5852 3.44-1.1546 5.2204-1.5557 1.584-.3066 3.2388-.2182 4.8072.1193.8366.1798 1.6603.4068 2.4709.6648.9399.309 1.8269.7386 2.6505 1.2483.5911.3614 1.1509.7625 1.7507 1.1126.9762.5852 1.9994 1.108 3.0659 1.5482 2.5324 1.0857 5.2117 1.8947 7.9591 2.4045 1.3059.1782 2.6324.048 3.9281-.1343 1.2303-.156 2.468-.4058 3.5694-.9408 1.5251-.6994 2.8856-1.645 4.2333-2.5851.7651-.5404 1.5122-1.1036 2.3115-1.6029.2976-.1305.6592-.1838.876-.4291.2532-.2843.279-.6651.2908-1.0143.088-2.3243-.021-4.6492-.042-6.9735.1522-4.6081.6719-9.1094.5309-13.7139-.3978-2.9705-.709-5.9538-.7844-8.9464-.06-1.9069-.073-3.8177-.2745-5.7182-.022-.1515-.026-.3063-.065-.455-.048-.1397-.2005-.2785-.3758-.2352-.2663.047-.4777.219-.7386.2808-1.1977.4341-2.4194.8115-3.6215 1.2353-2.535.8549-5.0699 1.7207-7.6727 2.3971-1.6057.3384-3.2822.2908-4.9011.055-1.2639-.1748-2.5417-.3902-3.7051-.8867-1.1612-.4927-2.2628-1.0885-3.4007-1.6217-2.9824-1.4666-5.898-3.0438-8.9277-4.4319-1.2639-.5209-2.0945-.9676-4.0325-.9288z" fill="none" opacity=".6" stroke="#b90000" stroke-width=".901681"/><path d="m1729.5795 1365.2926c-2.2939.1833-3.3243.4407-5.0126 1.122-1.6882.6812-3.2385 1.643-4.8821 2.7716-.5109.4156-.7681 1.041-.7767 1.6526-.1743 1.599-.066 3.207-.1122 4.81-.1094 10.7903-.3523 21.5806-.2497 32.3717.015.38.038.7597.076 1.1384-.067.186.2084.3775.388.2608.3676-.1524.7296-.3176 1.1125-.4378 1.3941-.4975 2.7954-.9786 4.1942-1.4654 1.7605-.6011 3.5335-1.186 5.3623-1.5979 1.6269-.315 3.3267-.2242 4.9377.1225.8593.1846 1.7054.4178 2.538.6829.9654.3173 1.8765.7586 2.7224 1.2822.6072.3711 1.1822.7831 1.7982 1.1428 1.0028.601 2.0538 1.138 3.1493 1.5902 2.6012 1.1152 5.3532 1.9462 8.1752 2.4698 1.3414.1831 2.7039.05 4.0348-.1379 1.2637-.1602 2.535-.4168 3.6663-.9663 1.5665-.7185 2.964-1.6898 4.3483-2.6554.7858-.555 1.5533-1.1336 2.3743-1.6465.3056-.134.6771-.1888.8998-.4407.26-.292.2865-.6831.2987-1.0418.09-2.3874-.022-4.7754-.043-7.1629.1564-4.7332.6902-9.3568.5453-14.0863-.4086-3.0512-.7283-6.1155-.8057-9.1894-.061-1.9587-.075-3.9214-.2819-5.8735-.022-.1556-.027-.3146-.066-.4673-.05-.1435-.2059-.2861-.386-.2416-.2736.048-.4907.2249-.7587.2884-1.2302.4459-2.4851.8335-3.7198 1.2688-2.6038.8782-5.2076 1.7675-7.881 2.4622-1.6494.3476-3.3714.2987-5.0343.057-1.2982-.1796-2.6107-.4008-3.8057-.9108-1.1927-.5061-2.3243-1.1181-3.4931-1.6658-3.0634-1.5064-6.0581-3.1264-9.1701-4.5523-1.2982-.535-2.1514-.9938-4.142-.9539z" fill="url(#i)" fill-rule="evenodd" opacity=".6" stroke="#f00" stroke-width=".926168"/></g><rect height="95.458145" rx=".968424" ry=".767746" style="opacity:.99;stroke:#8f5902;stroke-width:.923786;stroke-linecap:round;stroke-linejoin:round;fill:url(#m)" transform="matrix(-1 0 0 1 109.93407 -156.07923)" width="8.159073" x="-1697.5275" y="1371.8927"/><rect fill="url(#l)" height="95.458145" opacity=".99" rx=".968424" ry=".767746" transform="matrix(-1 0 0 1 109.93407 -156.07923)" width="8.159073" x="-1697.5275" y="1371.8927"/><g transform="matrix(.96094853011 .25748537671 -.25882308778 .96594089844 547.94511584198 -407.23871871166)"><g stroke-linejoin="round" transform="translate(-20.393474 2.98852)"><path d="m1729.5795 1365.2926c-2.2939.1833-3.3243.4407-5.0126 1.122-1.6882.6812-3.2385 1.643-4.8821 2.7716-.5109.4156-.7681 1.041-.7767 1.6526-.1743 1.599-.066 3.207-.1122 4.81-.1094 10.7903-.3523 21.5806-.2497 32.3717.015.38.038.7597.076 1.1384-.067.186.2084.3775.388.2608.3676-.1524.7296-.3176 1.1125-.4378 1.3941-.4975 2.7954-.9786 4.1942-1.4654 1.7605-.6011 3.5335-1.186 5.3623-1.5979 1.6269-.315 3.3267-.2242 4.9377.1225.8593.1846 1.7054.4178 2.538.6829.9654.3173 1.8765.7586 2.7224 1.2822.6072.3711 1.1822.7831 1.7982 1.1428 1.0028.601 2.0538 1.138 3.1493 1.5902 2.6012 1.1152 5.3532 1.9462 8.1752 2.4698 1.3414.1831 2.7039.05 4.0348-.1379 1.2637-.1602 2.535-.4168 3.6663-.9663 1.5665-.7185 2.964-1.6898 4.3483-2.6554.7858-.555 1.5533-1.1336 2.3743-1.6465.3056-.134.6771-.1888.8998-.4407.26-.292.2865-.6831.2987-1.0418.09-2.3874-.022-4.7754-.043-7.1629.1564-4.7332.6902-9.3568.5453-14.0863-.4086-3.0512-.7283-6.1155-.8057-9.1894-.061-1.9587-.075-3.9214-.2819-5.8735-.022-.1556-.027-.3146-.066-.4673-.05-.1435-.2059-.2861-.386-.2416-.2736.048-.4907.2249-.7587.2884-1.2302.4459-2.4851.8335-3.7198 1.2688-2.6038.8782-5.2076 1.7675-7.881 2.4622-1.6494.3476-3.3714.2987-5.0343.057-1.2982-.1796-2.6107-.4008-3.8057-.9108-1.1927-.5061-2.3243-1.1181-3.4931-1.6658-3.0634-1.5064-6.0581-3.1264-9.1701-4.5523-1.2982-.535-2.1514-.9938-4.142-.9539z" fill="#505050" fill-rule="evenodd" stroke="#ff4c00" stroke-width=".926168"/><path d="m1729.9564 1365.9271c-2.2333.1785-3.2364.4291-4.88 1.0924-1.6437.6632-3.1529 1.5995-4.7531 2.6983-.4974.4047-.7478 1.0135-.7562 1.6089-.1697 1.5567-.064 3.1222-.1092 4.6829-.1065 10.505-.3429 21.01-.2431 31.5158.014.3699.037.7396.074 1.1083-.066.181.2029.3674.3777.2539.3579-.1484.7104-.3092 1.0831-.4263 1.3573-.4843 2.7216-.9527 4.0834-1.4266 1.7139-.5852 3.44-1.1546 5.2204-1.5557 1.584-.3066 3.2388-.2182 4.8072.1193.8366.1798 1.6603.4068 2.4709.6648.9399.309 1.8269.7386 2.6505 1.2483.5911.3614 1.1509.7625 1.7507 1.1126.9762.5852 1.9994 1.108 3.0659 1.5482 2.5324 1.0857 5.2117 1.8947 7.9591 2.4045 1.3059.1782 2.6324.048 3.9281-.1343 1.2303-.156 2.468-.4058 3.5694-.9408 1.5251-.6994 2.8856-1.645 4.2333-2.5851.7651-.5404 1.5122-1.1036 2.3115-1.6029.2976-.1305.6592-.1838.876-.4291.2532-.2843.279-.6651.2908-1.0143.088-2.3243-.021-4.6492-.042-6.9735.1522-4.6081.6719-9.1094.5309-13.7139-.3978-2.9705-.709-5.9538-.7844-8.9464-.06-1.9069-.073-3.8177-.2745-5.7182-.022-.1515-.026-.3063-.065-.455-.048-.1397-.2005-.2785-.3758-.2352-.2663.047-.4777.219-.7386.2808-1.1977.4341-2.4194.8115-3.6215 1.2353-2.535.8549-5.0699 1.7207-7.6727 2.3971-1.6057.3384-3.2822.2908-4.9011.055-1.2639-.1748-2.5417-.3902-3.7051-.8867-1.1612-.4927-2.2628-1.0885-3.4007-1.6217-2.9824-1.4666-5.898-3.0438-8.9277-4.4319-1.2639-.5209-2.0945-.9676-4.0325-.9288z" fill="none" opacity=".6" stroke="#b90000" stroke-width=".901681"/><path d="m1729.5795 1365.2926c-2.2939.1833-3.3243.4407-5.0126 1.122-1.6882.6812-3.2385 1.643-4.8821 2.7716-.5109.4156-.7681 1.041-.7767 1.6526-.1743 1.599-.066 3.207-.1122 4.81-.1094 10.7903-.3523 21.5806-.2497 32.3717.015.38.038.7597.076 1.1384-.067.186.2084.3775.388.2608.3676-.1524.7296-.3176 1.1125-.4378 1.3941-.4975 2.7954-.9786 4.1942-1.4654 1.7605-.6011 3.5335-1.186 5.3623-1.5979 1.6269-.315 3.3267-.2242 4.9377.1225.8593.1846 1.7054.4178 2.538.6829.9654.3173 1.8765.7586 2.7224 1.2822.6072.3711 1.1822.7831 1.7982 1.1428 1.0028.601 2.0538 1.138 3.1493 1.5902 2.6012 1.1152 5.3532 1.9462 8.1752 2.4698 1.3414.1831 2.7039.05 4.0348-.1379 1.2637-.1602 2.535-.4168 3.6663-.9663 1.5665-.7185 2.964-1.6898 4.3483-2.6554.7858-.555 1.5533-1.1336 2.3743-1.6465.3056-.134.6771-.1888.8998-.4407.26-.292.2865-.6831.2987-1.0418.09-2.3874-.022-4.7754-.043-7.1629.1564-4.7332.6902-9.3568.5453-14.0863-.4086-3.0512-.7283-6.1155-.8057-9.1894-.061-1.9587-.075-3.9214-.2819-5.8735-.022-.1556-.027-.3146-.066-.4673-.05-.1435-.2059-.2861-.386-.2416-.2736.048-.4907.2249-.7587.2884-1.2302.4459-2.4851.8335-3.7198 1.2688-2.6038.8782-5.2076 1.7675-7.881 2.4622-1.6494.3476-3.3714.2987-5.0343.057-1.2982-.1796-2.6107-.4008-3.8057-.9108-1.1927-.5061-2.3243-1.1181-3.4931-1.6658-3.0634-1.5064-6.0581-3.1264-9.1701-4.5523-1.2982-.535-2.1514-.9938-4.142-.9539z" fill="url(#i)" fill-rule="evenodd" opacity=".6" stroke="#f00" stroke-width=".926168"/></g><rect height="95.456657" rx=".97344" ry=".767734" style="opacity:.99;stroke:#8f5902;stroke-width:.926168;stroke-linecap:round;stroke-linejoin:round;fill:url(#j)" transform="scale(-1 1)" width="8.201333" x="-1697.5721" y="1371.8943"/><rect fill="url(#k)" height="95.456657" opacity=".99" rx=".97344" ry=".767734" transform="scale(-1 1)" width="8.201333" x="-1697.5721" y="1371.8943"/></g><g transform="matrix(.96592583 .25881905 -.25881905 .96592583 283.50848 -535.42383)"><g stroke-linejoin="round"><path d="m2205.8289 1370.5561c-2.2821.1833-3.3072.4407-4.9868 1.122-1.6795.6812-3.2218 1.6431-4.8569 2.7717-.5083.4156-.7641 1.041-.7727 1.6526-.1734 1.599-.066 3.2071-.1116 4.8101-.1089 10.7904-.3505 21.5809-.2484 32.3722.015.38.038.7597.076 1.1384-.067.186.2073.3775.386.2608.3657-.1524.7258-.3176 1.1067-.4378 1.387-.4975 2.781-.9786 4.1726-1.4654 1.7515-.6011 3.5153-1.186 5.3347-1.5979 1.6185-.3151 3.3096-.2243 4.9123.1225.8548.1846 1.6966.4178 2.5249.6829.9604.3173 1.8668.7586 2.7084 1.2822.604.3711 1.1761.7831 1.7889 1.1428.9976.601 2.0432 1.138 3.1331 1.5902 2.5878 1.1152 5.3256 1.9463 8.133 2.4699 1.3345.1831 2.69.05 4.014-.1379 1.2572-.1602 2.522-.4168 3.6474-.9664 1.5585-.7185 2.9488-1.6898 4.3259-2.6554.7818-.555 1.5453-1.1336 2.3621-1.6465.304-.134.6736-.1888.8952-.4407.2586-.292.285-.6831.2971-1.0418.09-2.3875-.022-4.7755-.043-7.1631.1555-4.7332.6866-9.3569.5424-14.0865-.4065-3.0512-.7245-6.1156-.8015-9.1895-.061-1.9587-.075-3.9215-.2805-5.8736-.022-.1556-.027-.3146-.066-.4673-.05-.1435-.2049-.2861-.384-.2416-.2722.048-.4882.2249-.7548.2884-1.2239.4459-2.4723.8335-3.7006 1.2688-2.5904.8782-5.1808 1.7675-7.8404 2.4622-1.6409.3476-3.3541.2987-5.0084.057-1.2915-.1796-2.5972-.4008-3.7861-.9108-1.1865-.5061-2.3123-1.1181-3.4751-1.6658-3.0476-1.5064-6.0269-3.1264-9.1228-4.5524-1.2915-.535-2.1403-.9938-4.1207-.9539z" fill="#505050" fill-rule="evenodd" stroke="#ff4c00" stroke-width=".923786"/><path d="m2206.2039 1371.1909c-2.2218.1785-3.2198.4291-4.8549 1.0924-1.6352.6633-3.1366 1.5996-4.7286 2.6984-.4948.4047-.7439 1.0135-.7523 1.6089-.1688 1.5567-.064 3.1223-.1086 4.683-.106 10.5051-.3412 21.0103-.2419 31.5163.014.3699.037.7396.074 1.1083-.066.181.2019.3674.3758.2539.3561-.1484.7067-.3092 1.0775-.4263 1.3503-.4843 2.7076-.9527 4.0624-1.4266 1.705-.5852 3.4222-1.1547 5.1935-1.5558 1.5758-.3066 3.2221-.2182 4.7824.1193.8323.1798 1.6517.4069 2.4582.6649.935.309 1.8175.7386 2.6368 1.2483.5881.3614 1.145.7625 1.7417 1.1126.9712.5852 1.9891 1.108 3.0501 1.5482 2.5193 1.0857 5.1848 1.8947 7.9181 2.4046 1.2992.1782 2.6188.048 3.9078-.1343 1.224-.1561 2.4553-.4059 3.551-.9409 1.5173-.6994 2.8708-1.645 4.2115-2.5851.7612-.5404 1.5044-1.1036 2.2996-1.6029.2961-.1305.6558-.1838.8715-.4291.2519-.2843.2776-.6651.2893-1.0144.088-2.3243-.021-4.6492-.042-6.9736.1514-4.6081.6685-9.1095.5282-13.7141-.3958-2.9705-.7054-5.9539-.7804-8.9465-.06-1.9069-.073-3.8178-.2731-5.7183-.022-.1515-.026-.3063-.065-.455-.048-.1397-.1995-.2785-.3739-.2352-.2649.047-.4752.219-.7348.2808-1.1915.4341-2.4069.8115-3.6028 1.2353-2.522.8549-5.0438 1.7207-7.6332 2.3971-1.5974.3385-3.2653.2909-4.8758.055-1.2574-.1748-2.5286-.3902-3.686-.8867-1.1552-.4927-2.2512-1.0885-3.3832-1.6217-2.967-1.4666-5.8676-3.0438-8.8817-4.432-1.2574-.5209-2.0837-.9676-4.0117-.9288z" fill="none" opacity=".6" stroke="#b90000" stroke-width=".899362"/><path d="m2205.8289 1370.5561c-2.2821.1833-3.3072.4407-4.9868 1.122-1.6795.6812-3.2218 1.6431-4.8569 2.7717-.5083.4156-.7641 1.041-.7727 1.6526-.1734 1.599-.066 3.2071-.1116 4.8101-.1089 10.7904-.3505 21.5809-.2484 32.3722.015.38.038.7597.076 1.1384-.067.186.2073.3775.386.2608.3657-.1524.7258-.3176 1.1067-.4378 1.387-.4975 2.781-.9786 4.1726-1.4654 1.7515-.6011 3.5153-1.186 5.3347-1.5979 1.6185-.3151 3.3096-.2243 4.9123.1225.8548.1846 1.6966.4178 2.5249.6829.9604.3173 1.8668.7586 2.7084 1.2822.604.3711 1.1761.7831 1.7889 1.1428.9976.601 2.0432 1.138 3.1331 1.5902 2.5878 1.1152 5.3256 1.9463 8.133 2.4699 1.3345.1831 2.69.05 4.014-.1379 1.2572-.1602 2.522-.4168 3.6474-.9664 1.5585-.7185 2.9488-1.6898 4.3259-2.6554.7818-.555 1.5453-1.1336 2.3621-1.6465.304-.134.6736-.1888.8952-.4407.2586-.292.285-.6831.2971-1.0418.09-2.3875-.022-4.7755-.043-7.1631.1555-4.7332.6866-9.3569.5424-14.0865-.4065-3.0512-.7245-6.1156-.8015-9.1895-.061-1.9587-.075-3.9215-.2805-5.8736-.022-.1556-.027-.3146-.066-.4673-.05-.1435-.2049-.2861-.384-.2416-.2722.048-.4882.2249-.7548.2884-1.2239.4459-2.4723.8335-3.7006 1.2688-2.5904.8782-5.1808 1.7675-7.8404 2.4622-1.6409.3476-3.3541.2987-5.0084.057-1.2915-.1796-2.5972-.4008-3.7861-.9108-1.1865-.5061-2.3123-1.1181-3.4751-1.6658-3.0476-1.5064-6.0269-3.1264-9.1228-4.5524-1.2915-.535-2.1403-.9938-4.1207-.9539z" fill="url(#n)" fill-rule="evenodd" opacity=".6" stroke="#f00" stroke-width=".923786"/></g><g transform="translate(114.32784 151.50227)"><rect height="85.714333" rx=".97344" ry=".689379" style="opacity:.99;stroke:#8f5902;stroke-width:.877634;stroke-linecap:round;stroke-linejoin:round;fill:url(#o)" transform="scale(-1 1)" width="8.201333" x="-2080.4133" y="1221.5439"/><rect fill="url(#p)" height="85.714333" opacity=".99" rx=".97344" ry=".689379" transform="scale(-1 1)" width="8.201333" x="-2080.4133" y="1221.5439"/></g></g><g><g stroke-linejoin="round" transform="translate(-176.05969 -156.6477)"><path d="m2205.8289 1370.5561c-2.2821.1833-3.3072.4407-4.9868 1.122-1.6795.6812-3.2218 1.6431-4.8569 2.7717-.5083.4156-.7641 1.041-.7727 1.6526-.1734 1.599-.066 3.2071-.1116 4.8101-.1089 10.7904-.3505 21.5809-.2484 32.3722.015.38.038.7597.076 1.1384-.067.186.2073.3775.386.2608.3657-.1524.7258-.3176 1.1067-.4378 1.387-.4975 2.781-.9786 4.1726-1.4654 1.7515-.6011 3.5153-1.186 5.3347-1.5979 1.6185-.3151 3.3096-.2243 4.9123.1225.8548.1846 1.6966.4178 2.5249.6829.9604.3173 1.8668.7586 2.7084 1.2822.604.3711 1.1761.7831 1.7889 1.1428.9976.601 2.0432 1.138 3.1331 1.5902 2.5878 1.1152 5.3256 1.9463 8.133 2.4699 1.3345.1831 2.69.05 4.014-.1379 1.2572-.1602 2.522-.4168 3.6474-.9664 1.5585-.7185 2.9488-1.6898 4.3259-2.6554.7818-.555 1.5453-1.1336 2.3621-1.6465.304-.134.6736-.1888.8952-.4407.2586-.292.285-.6831.2971-1.0418.09-2.3875-.022-4.7755-.043-7.1631.1555-4.7332.6866-9.3569.5424-14.0865-.4065-3.0512-.7245-6.1156-.8015-9.1895-.061-1.9587-.075-3.9215-.2805-5.8736-.022-.1556-.027-.3146-.066-.4673-.05-.1435-.2049-.2861-.384-.2416-.2722.048-.4882.2249-.7548.2884-1.2239.4459-2.4723.8335-3.7006 1.2688-2.5904.8782-5.1808 1.7675-7.8404 2.4622-1.6409.3476-3.3541.2987-5.0084.057-1.2915-.1796-2.5972-.4008-3.7861-.9108-1.1865-.5061-2.3123-1.1181-3.4751-1.6658-3.0476-1.5064-6.0269-3.1264-9.1228-4.5524-1.2915-.535-2.1403-.9938-4.1207-.9539z" fill="#505050" fill-rule="evenodd" stroke="#ff4c00" stroke-width=".923786"/><path d="m2206.2039 1371.1909c-2.2218.1785-3.2198.4291-4.8549 1.0924-1.6352.6633-3.1366 1.5996-4.7286 2.6984-.4948.4047-.7439 1.0135-.7523 1.6089-.1688 1.5567-.064 3.1223-.1086 4.683-.106 10.5051-.3412 21.0103-.2419 31.5163.014.3699.037.7396.074 1.1083-.066.181.2019.3674.3758.2539.3561-.1484.7067-.3092 1.0775-.4263 1.3503-.4843 2.7076-.9527 4.0624-1.4266 1.705-.5852 3.4222-1.1547 5.1935-1.5558 1.5758-.3066 3.2221-.2182 4.7824.1193.8323.1798 1.6517.4069 2.4582.6649.935.309 1.8175.7386 2.6368 1.2483.5881.3614 1.145.7625 1.7417 1.1126.9712.5852 1.9891 1.108 3.0501 1.5482 2.5193 1.0857 5.1848 1.8947 7.9181 2.4046 1.2992.1782 2.6188.048 3.9078-.1343 1.224-.1561 2.4553-.4059 3.551-.9409 1.5173-.6994 2.8708-1.645 4.2115-2.5851.7612-.5404 1.5044-1.1036 2.2996-1.6029.2961-.1305.6558-.1838.8715-.4291.2519-.2843.2776-.6651.2893-1.0144.088-2.3243-.021-4.6492-.042-6.9736.1514-4.6081.6685-9.1095.5282-13.7141-.3958-2.9705-.7054-5.9539-.7804-8.9465-.06-1.9069-.073-3.8178-.2731-5.7183-.022-.1515-.026-.3063-.065-.455-.048-.1397-.1995-.2785-.3739-.2352-.2649.047-.4752.219-.7348.2808-1.1915.4341-2.4069.8115-3.6028 1.2353-2.522.8549-5.0438 1.7207-7.6332 2.3971-1.5974.3385-3.2653.2909-4.8758.055-1.2574-.1748-2.5286-.3902-3.686-.8867-1.1552-.4927-2.2512-1.0885-3.3832-1.6217-2.967-1.4666-5.8676-3.0438-8.8817-4.432-1.2574-.5209-2.0837-.9676-4.0117-.9288z" fill="none" opacity=".6" stroke="#b90000" stroke-width=".899362"/><path d="m2205.8289 1370.5561c-2.2821.1833-3.3072.4407-4.9868 1.122-1.6795.6812-3.2218 1.6431-4.8569 2.7717-.5083.4156-.7641 1.041-.7727 1.6526-.1734 1.599-.066 3.2071-.1116 4.8101-.1089 10.7904-.3505 21.5809-.2484 32.3722.015.38.038.7597.076 1.1384-.067.186.2073.3775.386.2608.3657-.1524.7258-.3176 1.1067-.4378 1.387-.4975 2.781-.9786 4.1726-1.4654 1.7515-.6011 3.5153-1.186 5.3347-1.5979 1.6185-.3151 3.3096-.2243 4.9123.1225.8548.1846 1.6966.4178 2.5249.6829.9604.3173 1.8668.7586 2.7084 1.2822.604.3711 1.1761.7831 1.7889 1.1428.9976.601 2.0432 1.138 3.1331 1.5902 2.5878 1.1152 5.3256 1.9463 8.133 2.4699 1.3345.1831 2.69.05 4.014-.1379 1.2572-.1602 2.522-.4168 3.6474-.9664 1.5585-.7185 2.9488-1.6898 4.3259-2.6554.7818-.555 1.5453-1.1336 2.3621-1.6465.304-.134.6736-.1888.8952-.4407.2586-.292.285-.6831.2971-1.0418.09-2.3875-.022-4.7755-.043-7.1631.1555-4.7332.6866-9.3569.5424-14.0865-.4065-3.0512-.7245-6.1156-.8015-9.1895-.061-1.9587-.075-3.9215-.2805-5.8736-.022-.1556-.027-.3146-.066-.4673-.05-.1435-.2049-.2861-.384-.2416-.2722.048-.4882.2249-.7548.2884-1.2239.4459-2.4723.8335-3.7006 1.2688-2.5904.8782-5.1808 1.7675-7.8404 2.4622-1.6409.3476-3.3541.2987-5.0084.057-1.2915-.1796-2.5972-.4008-3.7861-.9108-1.1865-.5061-2.3123-1.1181-3.4751-1.6658-3.0476-1.5064-6.0269-3.1264-9.1228-4.5524-1.2915-.535-2.1403-.9938-4.1207-.9539z" fill="url(#n)" fill-rule="evenodd" opacity=".6" stroke="#f00" stroke-width=".923786"/></g><g transform="translate(-61.73185 -5.14543)"><rect height="85.714333" rx=".97344" ry=".689379" style="opacity:.99;stroke:#8f5902;stroke-width:.877634;stroke-linecap:round;stroke-linejoin:round;fill:url(#o)" transform="scale(-1 1)" width="8.201333" x="-2080.4133" y="1221.5439"/><rect fill="url(#p)" height="85.714333" opacity=".99" rx=".97344" ry=".689379" transform="scale(-1 1)" width="8.201333" x="-2080.4133" y="1221.5439"/></g></g><g stroke-linejoin="round" transform="translate(-283.87619 -9.287591)"><path d="m2216.2035 1224.0723c-2.2939.1833-3.3243.4406-5.0126 1.1219-1.6882.6812-3.2385 1.6429-4.8821 2.7716-.5109.4157-.7681 1.041-.7767 1.6526-.1743 1.599-.066 3.207-.1122 4.8101-.1094 10.7903-.3522 21.5805-.2497 32.3716.015.38.038.7598.076 1.1385-.067.1859.2083.3774.388.2608.3676-.1525.7296-.3177 1.1125-.4379 1.3941-.4975 2.7954-.9785 4.1943-1.4653 1.7603-.6012 3.5334-1.1861 5.3621-1.598 1.627-.3149 3.3268-.2242 4.9377.1225.8593.1847 1.7054.4179 2.5381.683.9654.3173 1.8765.7586 2.7224 1.2821.6072.3712 1.1822.7832 1.7983 1.1428 1.0027.6011 2.0537 1.1381 3.1492 1.5903 2.6012 1.1151 5.3531 1.9461 8.1753 2.4698 1.3413.183 2.7037.05 4.0346-.138 1.2638-.1602 2.5352-.4167 3.6664-.9663 1.5666-.7184 2.964-1.6898 4.3483-2.6553.7859-.5551 1.5533-1.1337 2.3743-1.6466.3056-.1339.6771-.1888.8998-.4406.2599-.2921.2866-.6832.2987-1.0419.09-2.3873-.022-4.7754-.043-7.1629.1564-4.7331.6902-9.3567.5453-14.0863-.4087-3.0512-.7283-6.1154-.8057-9.1894-.061-1.9586-.075-3.9213-.2819-5.8735-.022-.1555-.027-.3145-.066-.4673-.05-.1435-.2059-.2861-.386-.2416-.2736.049-.4907.225-.7587.2884-1.2301.4459-2.4851.8335-3.7198 1.2688-2.6039.8782-5.2075 1.7675-7.8811 2.4623-1.6493.3476-3.3713.2986-5.0342.057-1.2982-.1796-2.6106-.4008-3.8057-.9107-1.1927-.5062-2.3243-1.1181-3.4931-1.6659-3.0633-1.5064-6.058-3.1264-9.1701-4.5522-1.2982-.535-2.1514-.9939-4.142-.9539z" fill="#fff" fill-rule="evenodd" stroke="#ff4c00" stroke-width=".926168"/><path d="m2216.5805 1224.7072c-2.2333.1784-3.2365.4291-4.8801 1.0923s-3.1529 1.5995-4.753 2.6983c-.4974.4047-.7478 1.0135-.7563 1.609-.1696 1.5566-.064 3.1222-.1091 4.6828-.1065 10.505-.3429 21.01-.2431 31.5158.014.3699.037.7397.074 1.1083-.066.181.2028.3674.3776.2539.3579-.1484.7104-.3092 1.0831-.4263 1.3574-.4843 2.7216-.9527 4.0834-1.4265 1.7139-.5854 3.4401-1.1547 5.2205-1.5557 1.5839-.3067 3.2388-.2183 4.8072.1192.8366.1798 1.6602.4067 2.4709.6648.9399.309 1.8268.7387 2.6504 1.2483.5911.3614 1.151.7625 1.7507 1.1126.9763.5852 1.9994 1.108 3.066 1.5483 2.5324 1.0856 5.2116 1.8946 7.9591 2.4044 1.3059.1783 2.6323.048 3.9281-.1343 1.2302-.1559 2.4679-.4057 3.5694-.9408 1.525-.6994 2.8856-1.645 4.2333-2.5851.765-.5404 1.5122-1.1036 2.3115-1.603.2975-.1304.6592-.1837.876-.429.2531-.2843.279-.6651.2908-1.0143.088-2.3243-.022-4.6491-.042-6.9735.1523-4.608.672-9.1094.531-13.7139-.3979-2.9705-.7091-5.9538-.7845-8.9464-.06-1.9069-.073-3.8177-.2744-5.7183-.022-.1514-.026-.3061-.065-.4549-.048-.1397-.2004-.2785-.3758-.2352-.2663.047-.4777.219-.7386.2808-1.1976.4341-2.4194.8115-3.6214 1.2352-2.535.855-5.0699 1.7208-7.6727 2.3972-1.6058.3384-3.2822.2908-4.9011.055-1.2639-.1748-2.5417-.3902-3.7051-.8867-1.1612-.4928-2.2629-1.0886-3.4008-1.6218-2.9824-1.4666-5.8979-3.0438-8.9277-4.4319-1.2638-.5209-2.0945-.9676-4.0324-.9287z" fill="none" opacity=".6" stroke="#b90000" stroke-width=".901681"/><path d="m2216.2037 1224.0723c-2.2939.1833-3.3244.4407-5.0126 1.1219-1.6883.6812-3.2385 1.643-4.8821 2.7716-.511.4156-.7682 1.041-.7768 1.6526-.1742 1.599-.066 3.207-.1122 4.8101-.1094 10.7903-.3522 21.5806-.2497 32.3717.015.3799.038.7597.076 1.1383-.067.186.2083.3775.3879.2608.3676-.1524.7297-.3175 1.1125-.4378 1.3942-.4975 2.7955-.9785 4.1943-1.4653 1.7604-.6012 3.5334-1.186 5.3623-1.5979 1.6269-.315 3.3266-.2242 4.9377.1224.8592.1847 1.7054.4179 2.538.6829.9654.3174 1.8764.7587 2.7223 1.2823.6072.3711 1.1823.7831 1.7983 1.1427 1.0028.601 2.0537 1.1381 3.1492 1.5903 2.6012 1.1151 5.3533 1.9462 8.1753 2.4698 1.3413.183 2.7038.05 4.0347-.138 1.2637-.1602 2.5351-.4168 3.6663-.9663 1.5666-.7184 2.9641-1.6898 4.3483-2.6554.7859-.555 1.5533-1.1336 2.3743-1.6464.3057-.134.6772-.1888.8999-.4407.2599-.2921.2865-.6832.2986-1.0418.09-2.3875-.022-4.7755-.043-7.1629.1563-4.7332.6901-9.3568.5452-14.0864-.4085-3.0511-.7282-6.1154-.8056-9.1893-.061-1.9587-.075-3.9214-.282-5.8736-.022-.1555-.027-.3145-.066-.4672-.049-.1436-.206-.2862-.386-.2417-.2736.049-.4908.225-.7588.2884-1.2301.4459-2.485.8335-3.7198 1.2688-2.6037.8782-5.2075 1.7675-7.881 2.4623-1.6494.3476-3.3713.2986-5.0342.057-1.2982-.1796-2.6107-.4008-3.8057-.9107-1.1928-.5062-2.3243-1.1181-3.4932-1.6658-3.0633-1.5065-6.058-3.1265-9.1701-4.5523-1.2982-.535-2.1514-.9939-4.1419-.9539z" fill="url(#q)" fill-rule="evenodd" opacity=".6" stroke="#f00" stroke-width=".926168"/></g><rect height="85.714333" rx=".97344" ry=".689379" style="opacity:.99;stroke:#8f5902;stroke-width:.877634;stroke-linecap:round;stroke-linejoin:round;fill:url(#o)" transform="matrix(-1 0 0 1 -159.10034 -4.269491)" width="8.201333" x="-2080.4133" y="1221.5439"/><rect fill="url(#p)" height="85.714333" opacity=".99" rx=".97344" ry=".689379" transform="matrix(-1 0 0 1 -159.10034 -4.269491)" width="8.201333" x="-2080.4133" y="1221.5439"/><g transform="matrix(.96592583 .25881905 -.25881905 .96592583 136.30536 -398.06151)"><g stroke-linejoin="round"><path d="m2216.2035 1224.0723c-2.2939.1833-3.3243.4406-5.0126 1.1219-1.6882.6812-3.2385 1.6429-4.8821 2.7716-.5109.4157-.7681 1.041-.7767 1.6526-.1743 1.599-.066 3.207-.1122 4.8101-.1094 10.7903-.3522 21.5805-.2497 32.3716.015.38.038.7598.076 1.1385-.067.1859.2083.3774.388.2608.3676-.1525.7296-.3177 1.1125-.4379 1.3941-.4975 2.7954-.9785 4.1943-1.4653 1.7603-.6012 3.5334-1.1861 5.3621-1.598 1.627-.3149 3.3268-.2242 4.9377.1225.8593.1847 1.7054.4179 2.5381.683.9654.3173 1.8765.7586 2.7224 1.2821.6072.3712 1.1822.7832 1.7983 1.1428 1.0027.6011 2.0537 1.1381 3.1492 1.5903 2.6012 1.1151 5.3531 1.9461 8.1753 2.4698 1.3413.183 2.7037.05 4.0346-.138 1.2638-.1602 2.5352-.4167 3.6664-.9663 1.5666-.7184 2.964-1.6898 4.3483-2.6553.7859-.5551 1.5533-1.1337 2.3743-1.6466.3056-.1339.6771-.1888.8998-.4406.2599-.2921.2866-.6832.2987-1.0419.09-2.3873-.022-4.7754-.043-7.1629.1564-4.7331.6902-9.3567.5453-14.0863-.4087-3.0512-.7283-6.1154-.8057-9.1894-.061-1.9586-.075-3.9213-.2819-5.8735-.022-.1555-.027-.3145-.066-.4673-.05-.1435-.2059-.2861-.386-.2416-.2736.049-.4907.225-.7587.2884-1.2301.4459-2.4851.8335-3.7198 1.2688-2.6039.8782-5.2075 1.7675-7.8811 2.4623-1.6493.3476-3.3713.2986-5.0342.057-1.2982-.1796-2.6106-.4008-3.8057-.9107-1.1927-.5062-2.3243-1.1181-3.4931-1.6659-3.0633-1.5064-6.058-3.1264-9.1701-4.5522-1.2982-.535-2.1514-.9939-4.142-.9539z" fill="#fff" fill-rule="evenodd" stroke="#ff4c00" stroke-width=".926168"/><path d="m2216.5805 1224.7072c-2.2333.1784-3.2365.4291-4.8801 1.0923s-3.1529 1.5995-4.753 2.6983c-.4974.4047-.7478 1.0135-.7563 1.609-.1696 1.5566-.064 3.1222-.1091 4.6828-.1065 10.505-.3429 21.01-.2431 31.5158.014.3699.037.7397.074 1.1083-.066.181.2028.3674.3776.2539.3579-.1484.7104-.3092 1.0831-.4263 1.3574-.4843 2.7216-.9527 4.0834-1.4265 1.7139-.5854 3.4401-1.1547 5.2205-1.5557 1.5839-.3067 3.2388-.2183 4.8072.1192.8366.1798 1.6602.4067 2.4709.6648.9399.309 1.8268.7387 2.6504 1.2483.5911.3614 1.151.7625 1.7507 1.1126.9763.5852 1.9994 1.108 3.066 1.5483 2.5324 1.0856 5.2116 1.8946 7.9591 2.4044 1.3059.1783 2.6323.048 3.9281-.1343 1.2302-.1559 2.4679-.4057 3.5694-.9408 1.525-.6994 2.8856-1.645 4.2333-2.5851.765-.5404 1.5122-1.1036 2.3115-1.603.2975-.1304.6592-.1837.876-.429.2531-.2843.279-.6651.2908-1.0143.088-2.3243-.022-4.6491-.042-6.9735.1523-4.608.672-9.1094.531-13.7139-.3979-2.9705-.7091-5.9538-.7845-8.9464-.06-1.9069-.073-3.8177-.2744-5.7183-.022-.1514-.026-.3061-.065-.4549-.048-.1397-.2004-.2785-.3758-.2352-.2663.047-.4777.219-.7386.2808-1.1976.4341-2.4194.8115-3.6214 1.2352-2.535.855-5.0699 1.7208-7.6727 2.3972-1.6058.3384-3.2822.2908-4.9011.055-1.2639-.1748-2.5417-.3902-3.7051-.8867-1.1612-.4928-2.2629-1.0886-3.4008-1.6218-2.9824-1.4666-5.8979-3.0438-8.9277-4.4319-1.2638-.5209-2.0945-.9676-4.0324-.9287z" fill="none" opacity=".6" stroke="#b90000" stroke-width=".901681"/><path d="m2216.2037 1224.0723c-2.2939.1833-3.3244.4407-5.0126 1.1219-1.6883.6812-3.2385 1.643-4.8821 2.7716-.511.4156-.7682 1.041-.7768 1.6526-.1742 1.599-.066 3.207-.1122 4.8101-.1094 10.7903-.3522 21.5806-.2497 32.3717.015.3799.038.7597.076 1.1383-.067.186.2083.3775.3879.2608.3676-.1524.7297-.3175 1.1125-.4378 1.3942-.4975 2.7955-.9785 4.1943-1.4653 1.7604-.6012 3.5334-1.186 5.3623-1.5979 1.6269-.315 3.3266-.2242 4.9377.1224.8592.1847 1.7054.4179 2.538.6829.9654.3174 1.8764.7587 2.7223 1.2823.6072.3711 1.1823.7831 1.7983 1.1427 1.0028.601 2.0537 1.1381 3.1492 1.5903 2.6012 1.1151 5.3533 1.9462 8.1753 2.4698 1.3413.183 2.7038.05 4.0347-.138 1.2637-.1602 2.5351-.4168 3.6663-.9663 1.5666-.7184 2.9641-1.6898 4.3483-2.6554.7859-.555 1.5533-1.1336 2.3743-1.6464.3057-.134.6772-.1888.8999-.4407.2599-.2921.2865-.6832.2986-1.0418.09-2.3875-.022-4.7755-.043-7.1629.1563-4.7332.6901-9.3568.5452-14.0864-.4085-3.0511-.7282-6.1154-.8056-9.1893-.061-1.9587-.075-3.9214-.282-5.8736-.022-.1555-.027-.3145-.066-.4672-.049-.1436-.206-.2862-.386-.2417-.2736.049-.4908.225-.7588.2884-1.2301.4459-2.485.8335-3.7198 1.2688-2.6037.8782-5.2075 1.7675-7.881 2.4623-1.6494.3476-3.3713.2986-5.0342.057-1.2982-.1796-2.6107-.4008-3.8057-.9107-1.1928-.5062-2.3243-1.1181-3.4932-1.6658-3.0633-1.5065-6.058-3.1265-9.1701-4.5523-1.2982-.535-2.1514-.9939-4.1419-.9539z" fill="url(#q)" fill-rule="evenodd" opacity=".6" stroke="#f00" stroke-width=".926168"/><rect fill="url(#o)" height="85.714333" opacity=".99" rx=".97344" ry=".689379" stroke="#8f5902" stroke-linecap="round" stroke-width=".877634" transform="matrix(-1 0 0 1 124.77585 5.0181)" width="8.201333" x="-2080.4133" y="1221.5439"/></g><rect fill="url(#p)" height="85.714333" opacity=".99" rx=".97344" ry=".689379" transform="matrix(-1 0 0 1 124.77585 5.0181)" width="8.201333" x="-2080.4133" y="1221.5439"/></g></g></svg>