<svg height="78.4pt" width="150.4pt" xmlns="http://www.w3.org/2000/svg" xmlns:xlink="http://www.w3.org/1999/xlink"><linearGradient id="a" gradientTransform="matrix(5.397521 0 0 5.184897 -106.517 -79.23792)" gradientUnits="userSpaceOnUse" x1="48.90625" x2="50.988335" xlink:href="#b" y1="17.376184" y2="22.250591"/><linearGradient id="b"><stop offset="0" stop-color="#ffd1d1"/><stop offset=".5" stop-color="#ff1d1d"/><stop offset="1" stop-color="#6f0000"/></linearGradient><linearGradient id="c" gradientTransform="matrix(5.397521 0 0 5.184897 -106.517 -79.23793)" gradientUnits="userSpaceOnUse" x1="46" x2="47.6875" xlink:href="#d" y1="19.8125" y2="22.625"/><linearGradient id="d"><stop offset="0" stop-color="#939393"/><stop offset="1" stop-color="#424242"/></linearGradient><radialGradient id="e" cx="29.053354" cy="27.640751" gradientTransform="matrix(15.78 0 0 10.52387 -408.163 -223.8145)" gradientUnits="userSpaceOnUse" r="3.240855" xlink:href="#f"/><linearGradient id="f"><stop offset="0" stop-color="#e7e2b8"/><stop offset="1" stop-color="#e7e2b8" stop-opacity="0"/></linearGradient><linearGradient id="g"><stop offset="0"/><stop offset="1" stop-color="#c9c9c9"/></linearGradient><linearGradient id="h" gradientTransform="matrix(5.397521 0 0 5.184897 -107.3604 -78.58972)" gradientUnits="userSpaceOnUse" x1="25.71875" x2="25.514589" xlink:href="#g" y1="31.046875" y2="30.703125"/><linearGradient id="i" gradientTransform="matrix(5.397521 0 0 5.184897 -106.517 -79.23792)" gradientUnits="userSpaceOnUse" x1="48.90625" x2="50.988335" xlink:href="#b" y1="17.376184" y2="22.250591"/><linearGradient id="j" gradientTransform="matrix(5.397521 0 0 5.184897 -106.517 -79.23793)" gradientUnits="userSpaceOnUse" x1="46" x2="47.6875" xlink:href="#d" y1="19.8125" y2="22.625"/><linearGradient id="k" gradientUnits="userSpaceOnUse" x1="43.236958" x2="45.319043" xlink:href="#b" y1="17.376184" y2="22.250591"/><linearGradient id="l" gradientUnits="userSpaceOnUse" x1="40.330708" x2="42.018208" y1="19.8125" y2="22.625"><stop offset="0" stop-color="#c1c1c1"/><stop offset="1" stop-color="#acacac"/></linearGradient><radialGradient id="m" cx="29.053354" cy="27.640751" gradientTransform="matrix(2.923565 0 0 2.029717 -61.55532 -27.88417)" gradientUnits="userSpaceOnUse" r="3.240855" xlink:href="#f"/><linearGradient id="n" gradientUnits="userSpaceOnUse" x1="19.893208" x2="19.689047" xlink:href="#g" y1="31.171875" y2="30.828125"/><filter id="o" color-interpolation-filters="sRGB" height="1.345446" width="1.09263" x="-.046315" y="-.172723"><feGaussianBlur stdDeviation="1.5973698"/></filter><radialGradient id="p" cx="34.044327" cy="106.55551" gradientTransform="matrix(-1.70161 -.00000001 0 -.15121 -51.634348 184.4702)" gradientUnits="userSpaceOnUse" r="41.387222"><stop offset="0" stop-color="#1a1a1a"/><stop offset="1" stop-color="#1a1a1a" stop-opacity="0"/></radialGradient><filter id="q"><feGaussianBlur stdDeviation=".88058505"/></filter><filter id="r"><feGaussianBlur stdDeviation="1.0433902"/></filter><filter id="s" color-interpolation-filters="sRGB"><feGaussianBlur stdDeviation="1.0433902"/></filter><filter id="t" color-interpolation-filters="sRGB"><feGaussianBlur stdDeviation=".88058505"/></filter><g fill-rule="evenodd" transform="matrix(.89815582 -.43967729 .43967729 .89815582 -450.79993 -104.04547)"><path d="m18.713737 89.271268 30.361061-29.16504 108.456412-50.5527658c17.54193-6.48111 27.99962 17.4990398 12.48176 25.9244998l-108.119072 48.608406z" fill="#cb9022" stroke="#5c410c" stroke-width="5.29014"/><path d="m130.97383 24.460052s7.75893.48608 10.79505 6.96721c3.12783 6.67691 0 13.77238 0 13.77238l27.15628-12.80022s7.83737-4.56979 3.54212-14.74455c-4.23658-10.0357599-14.50583-5.99504-14.50583-5.99504z" fill="url(#a)"/><path d="m130.97383 24.460049s7.75893.48609 10.79505 6.96721c3.12783 6.67691 0 13.77238 0 13.77238l10.79504-5.18489s4.46392-6.8382 1.18071-13.93442c-3.37346-7.29126-11.97575-6.80517-11.97575-6.80517z" fill="url(#c)"/><path d="m25.384843 85.544622 24.288847-23.33204c8.096275 4.212734 12.313088 11.179936 10.120344 19.281339z" fill="url(#e)"/><path d="m32.637761 78.253364-8.770969 8.263425 12.65044-1.620279c1.180711-3.726645-1.012034-5.508956-3.879471-6.643146z" fill="url(#h)"/></g><g fill-rule="evenodd" transform="matrix(.17600915 -.08616236 .08616236 .17600915 -92.467727 -169.09158)"><path d="m18.713737 89.271268 30.361061-29.16504 108.456412-50.5527658c17.54193-6.48111 27.99962 17.4990398 12.48176 25.9244998l-108.119072 48.608406z" fill="#cb9022" stroke="#5c410c" stroke-width="5.29014"/><path d="m130.97383 24.460052s7.75893.48608 10.79505 6.96721c3.12783 6.67691 0 13.77238 0 13.77238l27.15628-12.80022s7.83737-4.56979 3.54212-14.74455c-4.23658-10.0357599-14.50583-5.99504-14.50583-5.99504z" fill="url(#i)"/><path d="m130.97383 24.460049s7.75893.48609 10.79505 6.96721c3.12783 6.67691 0 13.77238 0 13.77238l10.79504-5.18489s4.46392-6.8382 1.18071-13.93442c-3.37346-7.29126-11.97575-6.80517-11.97575-6.80517z" fill="url(#j)"/><path d="m25.384843 85.544622 24.288847-23.33204c8.096275 4.212734 12.313088 11.179936 10.120344 19.281339z" fill="url(#e)"/><path d="m32.637761 78.253364-8.770969 8.263425 12.65044-1.620279c1.180711-3.726645-1.012034-5.508956-3.879471-6.643146z" fill="url(#h)"/></g><g fill-rule="evenodd" transform="matrix(.20115446 -.09847183 .09847183 .20115446 -179.64781 -171.17994)"><path d="m18.713737 89.271268 30.361061-29.16504 108.456412-50.5527658c17.54193-6.48111 27.99962 17.4990398 12.48176 25.9244998l-108.119072 48.608406z" fill="#cb9022" stroke="#5c410c" stroke-width="5.29014"/><path d="m130.97383 24.460052s7.75893.48608 10.79505 6.96721c3.12783 6.67691 0 13.77238 0 13.77238l27.15628-12.80022s7.83737-4.56979 3.54212-14.74455c-4.23658-10.0357599-14.50583-5.99504-14.50583-5.99504z" fill="url(#i)"/><path d="m130.97383 24.460049s7.75893.48609 10.79505 6.96721c3.12783 6.67691 0 13.77238 0 13.77238l10.79504-5.18489s4.46392-6.8382 1.18071-13.93442c-3.37346-7.29126-11.97575-6.80517-11.97575-6.80517z" fill="url(#j)"/><path d="m25.384843 85.544622 24.288847-23.33204c8.096275 4.212734 12.313088 11.179936 10.120344 19.281339z" fill="url(#e)"/><path d="m32.637761 78.253364-8.770969 8.263425 12.65044-1.620279c1.180711-3.726645-1.012034-5.508956-3.879471-6.643146z" fill="url(#h)"/></g><g fill-rule="evenodd" transform="matrix(.18858123 -.09231681 .09231681 .18858123 -133.0577 -171.13575)"><path d="m18.713737 89.271268 30.361061-29.16504 108.456412-50.5527658c17.54193-6.48111 27.99962 17.4990398 12.48176 25.9244998l-108.119072 48.608406z" fill="#cb9022" stroke="#5c410c" stroke-width="5.29014"/><path d="m130.97383 24.460052s7.75893.48608 10.79505 6.96721c3.12783 6.67691 0 13.77238 0 13.77238l27.15628-12.80022s7.83737-4.56979 3.54212-14.74455c-4.23658-10.0357599-14.50583-5.99504-14.50583-5.99504z" fill="url(#i)"/><path d="m130.97383 24.460049s7.75893.48609 10.79505 6.96721c3.12783 6.67691 0 13.77238 0 13.77238l10.79504-5.18489s4.46392-6.8382 1.18071-13.93442c-3.37346-7.29126-11.97575-6.80517-11.97575-6.80517z" fill="url(#j)"/><path d="m25.384843 85.544622 24.288847-23.33204c8.096275 4.212734 12.313088 11.179936 10.120344 19.281339z" fill="url(#e)"/><path d="m32.637761 78.253364-8.770969 8.263425 12.65044-1.620279c1.180711-3.726645-1.012034-5.508956-3.879471-6.643146z" fill="url(#h)"/></g><path d="m11.505723 5.4942766v37.9065924" fill="none" stroke="#000" stroke-opacity=".017544" transform="translate(106.48315 121.85425)"/><g transform="matrix(1.033699 -.276979 .276979 1.033699 -404.37979824654 36.69046355534)"><path d="m17.34116 32.5 5.625-5.625 20.093749-9.75c3.25-1.25 5.1875 3.375 2.3125 5l-20.031249 9.375z" fill="#cb9022" fill-rule="evenodd" stroke="#5c410c"/><path d="m38.330708 20s1.4375.09375 2 1.34375c.579493 1.287761 0 2.65625 0 2.65625l5.03125-2.46875s1.452032-.881367.65625-2.84375c-.784912-1.935577-2.6875-1.15625-2.6875-1.15625z" fill="url(#k)"/><path d="m38.330708 20s1.4375.09375 2 1.34375c.579493 1.287761 0 2.65625 0 2.65625l2-1s.827032-1.318867.21875-2.6875c-.625-1.40625-2.21875-1.3125-2.21875-1.3125z" fill="url(#l)"/><path d="m18.768208 31.78125 4.5-4.5c1.5.8125 2.28125 2.15625 1.875 3.71875z" fill="url(#m)"/><path d="m20.111958 30.375-1.625 1.59375 2.34375-.3125c.21875-.71875-.1875-1.0625-.71875-1.28125z" fill="url(#n)"/><path d="m23.268208 27.25 1.5625 1.25 15.38734-7.31867c-.444432-.856044-1.241767-1.084597-1.903379-1.162262z" fill="#fff" fill-opacity=".363636"/><path d="m25.143208 31.0625.1875-.75 15.23109-7.1296s-.11016.613627-.215879.74935z" fill-opacity=".363636"/></g><path d="m17.34116 32.5 5.625-5.625 20.093749-9.75c3.25-1.25 5.1875 3.375 2.3125 5l-20.031249 9.375z" fill="#cb9022" fill-rule="evenodd" stroke="#5c410c" transform="matrix(1.1769088999 -.33694265457 .31535200303 1.2574862538 -363.24852546301 33.63782519268)"/><path d="m38.330708 20s1.4375.09375 2 1.34375c.579493 1.287761 0 2.65625 0 2.65625l5.03125-2.46875s1.452032-.881367.65625-2.84375c-.784912-1.935577-2.6875-1.15625-2.6875-1.15625z" fill="url(#k)" transform="matrix(1.1769088999 -.33694265457 .31535200303 1.2574862538 -363.24852546301 33.63782519268)"/><path d="m38.330708 20s1.4375.09375 2 1.34375c.579493 1.287761 0 2.65625 0 2.65625l2-1s.827032-1.318867.21875-2.6875c-.625-1.40625-2.21875-1.3125-2.21875-1.3125z" fill="url(#l)" transform="matrix(1.1769088999 -.33694265457 .31535200303 1.2574862538 -363.24852546301 33.63782519268)"/><path d="m18.768208 31.78125 4.5-4.5c1.5.8125 2.28125 2.15625 1.875 3.71875z" fill="url(#m)" transform="matrix(1.1769088999 -.33694265457 .31535200303 1.2574862538 -363.24852546301 33.63782519268)"/><path d="m20.111958 30.375-1.625 1.59375 2.34375-.3125c.21875-.71875-.1875-1.0625-.71875-1.28125z" fill="url(#n)" transform="matrix(1.1769088999 -.33694265457 .31535200303 1.2574862538 -363.24852546301 33.63782519268)"/><path d="m23.268208 27.25 1.5625 1.25 15.38734-7.31867c-.444432-.856044-1.241767-1.084597-1.903379-1.162262z" fill="#fff" fill-opacity=".363636" transform="matrix(1.1769088999 -.33694265457 .31535200303 1.2574862538 -363.24852546301 33.63782519268)"/><path d="m25.143208 31.0625.1875-.75 15.23109-7.1296s-.11016.613627-.215879.74935z" fill-opacity=".363636" transform="matrix(1.1769088999 -.33694265457 .31535200303 1.2574862538 -363.24852546301 33.63782519268)"/><path d="m17.34116 32.5 5.625-5.625 20.093749-9.75c3.25-1.25 5.1875 3.375 2.3125 5l-20.031249 9.375z" fill="#cb9022" fill-rule="evenodd" stroke="#5c410c" transform="matrix(1.10345280178 -.31444913459 .29566948752 1.17353935127 -325.72747945618 35.89541566501)"/><path d="m38.330708 20s1.4375.09375 2 1.34375c.579493 1.287761 0 2.65625 0 2.65625l5.03125-2.46875s1.452032-.881367.65625-2.84375c-.784912-1.935577-2.6875-1.15625-2.6875-1.15625z" fill="url(#k)" transform="matrix(1.10345280178 -.31444913459 .29566948752 1.17353935127 -325.72747945618 35.89541566501)"/><path d="m38.330708 20s1.4375.09375 2 1.34375c.579493 1.287761 0 2.65625 0 2.65625l2-1s.827032-1.318867.21875-2.6875c-.625-1.40625-2.21875-1.3125-2.21875-1.3125z" fill="url(#l)" transform="matrix(1.10345280178 -.31444913459 .29566948752 1.17353935127 -325.72747945618 35.89541566501)"/><path d="m18.768208 31.78125 4.5-4.5c1.5.8125 2.28125 2.15625 1.875 3.71875z" fill="url(#m)" transform="matrix(1.10345280178 -.31444913459 .29566948752 1.17353935127 -325.72747945618 35.89541566501)"/><path d="m20.111958 30.375-1.625 1.59375 2.34375-.3125c.21875-.71875-.1875-1.0625-.71875-1.28125z" fill="url(#n)" transform="matrix(1.10345280178 -.31444913459 .29566948752 1.17353935127 -325.72747945618 35.89541566501)"/><path d="m23.268208 27.25 1.5625 1.25 15.38734-7.31867c-.444432-.856044-1.241767-1.084597-1.903379-1.162262z" fill="#fff" fill-opacity=".363636" transform="matrix(1.10345280178 -.31444913459 .29566948752 1.17353935127 -325.72747945618 35.89541566501)"/><path d="m25.143208 31.0625.1875-.75 15.23109-7.1296s-.11016.613627-.215879.74935z" fill-opacity=".363636" transform="matrix(1.10345280178 -.31444913459 .29566948752 1.17353935127 -325.72747945618 35.89541566501)"/><path d="m-99.718728 168.35761c-.007104 6.12779-18.534712 11.09433-41.387222 11.09433s-41.38012-4.96654-41.38722-11.09433c-.00711-6.13048 18.52466-11.10123 41.38722-11.10123s41.39433 4.97075 41.387222 11.10123z" fill="url(#p)" filter="url(#o)" transform="matrix(-.3776584 0 0 .3776584 -245.55716 1.705666)"/><path d="m17.34116 32.5 5.625-5.625 20.093749-9.75c3.25-1.25 5.1875 3.375 2.3125 5l-20.031249 9.375z" fill="#cb9022" fill-rule="evenodd" stroke="#5c410c" transform="matrix(1.0299969104 -.2919556977 .27598702741 1.08959275885 -233.7211540382 34.22403669373)"/><path d="m38.330708 20s1.4375.09375 2 1.34375c.579493 1.287761 0 2.65625 0 2.65625l5.03125-2.46875s1.452032-.881367.65625-2.84375c-.784912-1.935577-2.6875-1.15625-2.6875-1.15625z" fill="url(#k)" transform="matrix(1.0299969104 -.2919556977 .27598702741 1.08959275885 -233.7211540382 34.22403669373)"/><path d="m38.330708 20s1.4375.09375 2 1.34375c.579493 1.287761 0 2.65625 0 2.65625l2-1s.827032-1.318867.21875-2.6875c-.625-1.40625-2.21875-1.3125-2.21875-1.3125z" fill="url(#l)" transform="matrix(1.0299969104 -.2919556977 .27598702741 1.08959275885 -233.7211540382 34.22403669373)"/><path d="m18.768208 31.78125 4.5-4.5c1.5.8125 2.28125 2.15625 1.875 3.71875z" fill="url(#m)" transform="matrix(1.0299969104 -.2919556977 .27598702741 1.08959275885 -233.7211540382 34.22403669373)"/><path d="m20.111958 30.375-1.625 1.59375 2.34375-.3125c.21875-.71875-.1875-1.0625-.71875-1.28125z" fill="url(#n)" transform="matrix(1.0299969104 -.2919556977 .27598702741 1.08959275885 -233.7211540382 34.22403669373)"/><path d="m23.268208 27.25 1.5625 1.25 15.38734-7.31867c-.444432-.856044-1.241767-1.084597-1.903379-1.162262z" fill="#fff" fill-opacity=".363636" transform="matrix(1.0299969104 -.2919556977 .27598702741 1.08959275885 -233.7211540382 34.22403669373)"/><path d="m25.143208 31.0625.1875-.75 15.23109-7.1296s-.11016.613627-.215879.74935z" fill-opacity=".363636" transform="matrix(1.0299969104 -.2919556977 .27598702741 1.08959275885 -233.7211540382 34.22403669373)"/><path d="m-99.718728 168.35761c-.007104 6.12779-18.534712 11.09433-41.387222 11.09433s-41.38012-4.96654-41.38722-11.09433c-.00711-6.13048 18.52466-11.10123 41.38722-11.10123s41.39433 4.97075 41.387222 11.10123z" fill="url(#p)" filter="url(#o)" transform="matrix(-.3776584 0 0 .3776584 -245.03985 44.432487)"/><path d="m17.34116 32.5 5.625-5.625 20.093749-9.75c3.25-1.25 5.1875 3.375 2.3125 5l-20.031249 9.375z" fill="#cb9022" fill-rule="evenodd" stroke="#5c410c" transform="matrix(1.0299969104 -.2919556977 .27598702741 1.08959275885 -233.2038440382 76.95085569373)"/><path d="m38.330708 20s1.4375.09375 2 1.34375c.579493 1.287761 0 2.65625 0 2.65625l5.03125-2.46875s1.452032-.881367.65625-2.84375c-.784912-1.935577-2.6875-1.15625-2.6875-1.15625z" fill="url(#k)" transform="matrix(1.0299969104 -.2919556977 .27598702741 1.08959275885 -233.2038440382 76.95085569373)"/><path d="m38.330708 20s1.4375.09375 2 1.34375c.579493 1.287761 0 2.65625 0 2.65625l2-1s.827032-1.318867.21875-2.6875c-.625-1.40625-2.21875-1.3125-2.21875-1.3125z" fill="url(#l)" transform="matrix(1.0299969104 -.2919556977 .27598702741 1.08959275885 -233.2038440382 76.95085569373)"/><path d="m18.768208 31.78125 4.5-4.5c1.5.8125 2.28125 2.15625 1.875 3.71875z" fill="url(#m)" transform="matrix(1.0299969104 -.2919556977 .27598702741 1.08959275885 -233.2038440382 76.95085569373)"/><path d="m20.111958 30.375-1.625 1.59375 2.34375-.3125c.21875-.71875-.1875-1.0625-.71875-1.28125z" fill="url(#n)" transform="matrix(1.0299969104 -.2919556977 .27598702741 1.08959275885 -233.2038440382 76.95085569373)"/><path d="m23.268208 27.25 1.5625 1.25 15.38734-7.31867c-.444432-.856044-1.241767-1.084597-1.903379-1.162262z" fill="#fff" fill-opacity=".363636" transform="matrix(1.0299969104 -.2919556977 .27598702741 1.08959275885 -233.2038440382 76.95085569373)"/><path d="m25.143208 31.0625.1875-.75 15.23109-7.1296s-.11016.613627-.215879.74935z" fill-opacity=".363636" transform="matrix(1.0299969104 -.2919556977 .27598702741 1.08959275885 -233.2038440382 76.95085569373)"/><path d="m-99.718728 168.35761c-.007104 6.12779-18.534712 11.09433-41.387222 11.09433s-41.38012-4.96654-41.38722-11.09433c-.00711-6.13048 18.52466-11.10123 41.38722-11.10123s41.39433 4.97075 41.387222 11.10123z" fill="url(#p)" filter="url(#o)" transform="matrix(-.3776584 0 0 .3776584 -244.32538 135.264597)"/><path d="m17.34116 32.5 5.625-5.625 20.093749-9.75c3.25-1.25 5.1875 3.375 2.3125 5l-20.031249 9.375z" fill="#cb9022" fill-rule="evenodd" stroke="#5c410c" transform="matrix(.91933696507 -.54859035962 .54859036095 .98103510938 -238.49893845154 175.56869273274)"/><path d="m38.330708 20s1.4375.09375 2 1.34375c.579493 1.287761 0 2.65625 0 2.65625l5.03125-2.46875s1.452032-.881367.65625-2.84375c-.784912-1.935577-2.6875-1.15625-2.6875-1.15625z" fill="url(#k)" transform="matrix(.91933696507 -.54859035962 .54859036095 .98103510938 -238.49893845154 175.56869273274)"/><path d="m38.330708 20s1.4375.09375 2 1.34375c.579493 1.287761 0 2.65625 0 2.65625l2-1s.827032-1.318867.21875-2.6875c-.625-1.40625-2.21875-1.3125-2.21875-1.3125z" fill="url(#l)" transform="matrix(.91933696507 -.54859035962 .54859036095 .98103510938 -238.49893845154 175.56869273274)"/><path d="m18.768208 31.78125 4.5-4.5c1.5.8125 2.28125 2.15625 1.875 3.71875z" fill="url(#m)" transform="matrix(.91933696507 -.54859035962 .54859036095 .98103510938 -238.49893845154 175.56869273274)"/><path d="m20.111958 30.375-1.625 1.59375 2.34375-.3125c.21875-.71875-.1875-1.0625-.71875-1.28125z" fill="url(#n)" transform="matrix(.91933696507 -.54859035962 .54859036095 .98103510938 -238.49893845154 175.56869273274)"/><path d="m23.268208 27.25 1.5625 1.25 15.38734-7.31867c-.444432-.856044-1.241767-1.084597-1.903379-1.162262z" fill="#fff" fill-opacity=".363636" transform="matrix(.91933696507 -.54859035962 .54859036095 .98103510938 -238.49893845154 175.56869273274)"/><path d="m25.143208 31.0625.1875-.75 15.23109-7.1296s-.11016.613627-.215879.74935z" fill-opacity=".363636" transform="matrix(.91933696507 -.54859035962 .54859036095 .98103510938 -238.49893845154 175.56869273274)"/><path d="m-99.718728 168.35761c-.007104 6.12779-18.534712 11.09433-41.387222 11.09433s-41.38012-4.96654-41.38722-11.09433c-.00711-6.13048 18.52466-11.10123 41.38722-11.10123s41.39433 4.97075 41.387222 11.10123z" fill="url(#p)" filter="url(#o)" transform="matrix(-.3776584 0 0 .3776584 -241.789853 84.932491)"/><path d="m17.34116 32.5 5.625-5.625 20.093749-9.75c3.25-1.25 5.1875 3.375 2.3125 5l-20.031249 9.375z" fill="#cb9022" fill-rule="evenodd" stroke="#5c410c" transform="matrix(.98307736791 -.4238995323 .41584639084 1.04424764271 -233.32026951744 121.11190381436)"/><path d="m38.330708 20s1.4375.09375 2 1.34375c.579493 1.287761 0 2.65625 0 2.65625l5.03125-2.46875s1.452032-.881367.65625-2.84375c-.784912-1.935577-2.6875-1.15625-2.6875-1.15625z" fill="url(#k)" transform="matrix(.98307736791 -.4238995323 .41584639084 1.04424764271 -233.32026951744 121.11190381436)"/><path d="m38.330708 20s1.4375.09375 2 1.34375c.579493 1.287761 0 2.65625 0 2.65625l2-1s.827032-1.318867.21875-2.6875c-.625-1.40625-2.21875-1.3125-2.21875-1.3125z" fill="url(#l)" transform="matrix(.98307736791 -.4238995323 .41584639084 1.04424764271 -233.32026951744 121.11190381436)"/><path d="m18.768208 31.78125 4.5-4.5c1.5.8125 2.28125 2.15625 1.875 3.71875z" fill="url(#m)" transform="matrix(.98307736791 -.4238995323 .41584639084 1.04424764271 -233.32026951744 121.11190381436)"/><path d="m20.111958 30.375-1.625 1.59375 2.34375-.3125c.21875-.71875-.1875-1.0625-.71875-1.28125z" fill="url(#n)" transform="matrix(.98307736791 -.4238995323 .41584639084 1.04424764271 -233.32026951744 121.11190381436)"/><path d="m23.268208 27.25 1.5625 1.25 15.38734-7.31867c-.444432-.856044-1.241767-1.084597-1.903379-1.162262z" fill="#fff" fill-opacity=".363636" transform="matrix(.98307736791 -.4238995323 .41584639084 1.04424764271 -233.32026951744 121.11190381436)"/><path d="m25.143208 31.0625.1875-.75 15.23109-7.1296s-.11016.613627-.215879.74935z" fill-opacity=".363636" transform="matrix(.98307736791 -.4238995323 .41584639084 1.04424764271 -233.32026951744 121.11190381436)"/><path d="m-88.936383 284.54578 3.190674-8.25833 15.699208-18.69915c2.675193-2.68298 6.503195 1.32536 4.352598 4.24097l-15.793708 18.28106z" fill-rule="evenodd" filter="url(#q)" opacity=".426332" transform="matrix(.998544 .05394382 -.05394382 .998544 1.366004 -143.290228)"/><path d="m17.34116 32.5 5.625-5.625 20.093749-9.75c3.25-1.25 5.1875 3.375 2.3125 5l-20.031249 9.375z" fill="#cb9022" fill-rule="evenodd" stroke="#5c410c" transform="matrix(.98307736791 -.4238995323 .41584639084 1.04424764271 -133.56569851744 107.29348581436)"/><path d="m38.330708 20s1.4375.09375 2 1.34375c.579493 1.287761 0 2.65625 0 2.65625l5.03125-2.46875s1.452032-.881367.65625-2.84375c-.784912-1.935577-2.6875-1.15625-2.6875-1.15625z" fill="url(#k)" transform="matrix(.98307736791 -.4238995323 .41584639084 1.04424764271 -133.56569851744 107.29348581436)"/><path d="m38.330708 20s1.4375.09375 2 1.34375c.579493 1.287761 0 2.65625 0 2.65625l2-1s.827032-1.318867.21875-2.6875c-.625-1.40625-2.21875-1.3125-2.21875-1.3125z" fill="url(#l)" transform="matrix(.98307736791 -.4238995323 .41584639084 1.04424764271 -133.56569851744 107.29348581436)"/><path d="m18.768208 31.78125 4.5-4.5c1.5.8125 2.28125 2.15625 1.875 3.71875z" fill="url(#m)" transform="matrix(.98307736791 -.4238995323 .41584639084 1.04424764271 -133.56569851744 107.29348581436)"/><path d="m20.111958 30.375-1.625 1.59375 2.34375-.3125c.21875-.71875-.1875-1.0625-.71875-1.28125z" fill="url(#n)" transform="matrix(.98307736791 -.4238995323 .41584639084 1.04424764271 -133.56569851744 107.29348581436)"/><path d="m23.268208 27.25 1.5625 1.25 15.38734-7.31867c-.444432-.856044-1.241767-1.084597-1.903379-1.162262z" fill="#fff" fill-opacity=".363636" transform="matrix(.98307736791 -.4238995323 .41584639084 1.04424764271 -133.56569851744 107.29348581436)"/><path d="m25.143208 31.0625.1875-.75 15.23109-7.1296s-.11016.613627-.215879.74935z" fill-opacity=".363636" transform="matrix(.98307736791 -.4238995323 .41584639084 1.04424764271 -133.56569851744 107.29348581436)"/><path d="m-88.936383 284.54578 3.190674-8.25833 15.699208-18.69915c2.675193-2.68298 6.503195 1.32536 4.352598 4.24097l-15.793708 18.28106z" fill-rule="evenodd" filter="url(#r)" opacity=".520376" transform="matrix(.9980838 .06187597 -.06187597 .9980838 2.925355 -205.892845)"/><path d="m17.34116 32.5 5.625-5.625 20.093749-9.75c3.25-1.25 5.1875 3.375 2.3125 5l-20.031249 9.375z" fill="#cb9022" fill-rule="evenodd" stroke="#5c410c" transform="matrix(.98307736791 -.4238995323 .41584639084 1.04424764271 -134.86689251744 44.95489581436)"/><path d="m38.330708 20s1.4375.09375 2 1.34375c.579493 1.287761 0 2.65625 0 2.65625l5.03125-2.46875s1.452032-.881367.65625-2.84375c-.784912-1.935577-2.6875-1.15625-2.6875-1.15625z" fill="url(#k)" transform="matrix(.98307736791 -.4238995323 .41584639084 1.04424764271 -134.86689251744 44.95489581436)"/><path d="m38.330708 20s1.4375.09375 2 1.34375c.579493 1.287761 0 2.65625 0 2.65625l2-1s.827032-1.318867.21875-2.6875c-.625-1.40625-2.21875-1.3125-2.21875-1.3125z" fill="url(#l)" transform="matrix(.98307736791 -.4238995323 .41584639084 1.04424764271 -134.86689251744 44.95489581436)"/><path d="m18.768208 31.78125 4.5-4.5c1.5.8125 2.28125 2.15625 1.875 3.71875z" fill="url(#m)" transform="matrix(.98307736791 -.4238995323 .41584639084 1.04424764271 -134.86689251744 44.95489581436)"/><path d="m20.111958 30.375-1.625 1.59375 2.34375-.3125c.21875-.71875-.1875-1.0625-.71875-1.28125z" fill="url(#n)" transform="matrix(.98307736791 -.4238995323 .41584639084 1.04424764271 -134.86689251744 44.95489581436)"/><path d="m23.268208 27.25 1.5625 1.25 15.38734-7.31867c-.444432-.856044-1.241767-1.084597-1.903379-1.162262z" fill="#fff" fill-opacity=".363636" transform="matrix(.98307736791 -.4238995323 .41584639084 1.04424764271 -134.86689251744 44.95489581436)"/><path d="m25.143208 31.0625.1875-.75 15.23109-7.1296s-.11016.613627-.215879.74935z" fill-opacity=".363636" transform="matrix(.98307736791 -.4238995323 .41584639084 1.04424764271 -134.86689251744 44.95489581436)"/><path d="m17.34116 32.5 5.625-5.625 20.093749-9.75c3.25-1.25 5.1875 3.375 2.3125 5l-20.031249 9.375z" fill="#cb9022" fill-rule="evenodd" stroke="#5c410c" transform="matrix(1.10239016735 -.46874827774 .46631626206 1.15472932591 -325.2064647196 73.10439911733)"/><path d="m38.330708 20s1.4375.09375 2 1.34375c.579493 1.287761 0 2.65625 0 2.65625l5.03125-2.46875s1.452032-.881367.65625-2.84375c-.784912-1.935577-2.6875-1.15625-2.6875-1.15625z" fill="url(#k)" transform="matrix(1.10239016735 -.46874827774 .46631626206 1.15472932591 -325.2064647196 73.10439911733)"/><path d="m38.330708 20s1.4375.09375 2 1.34375c.579493 1.287761 0 2.65625 0 2.65625l2-1s.827032-1.318867.21875-2.6875c-.625-1.40625-2.21875-1.3125-2.21875-1.3125z" fill="url(#l)" transform="matrix(1.10239016735 -.46874827774 .46631626206 1.15472932591 -325.2064647196 73.10439911733)"/><path d="m18.768208 31.78125 4.5-4.5c1.5.8125 2.28125 2.15625 1.875 3.71875z" fill="url(#m)" transform="matrix(1.10239016735 -.46874827774 .46631626206 1.15472932591 -325.2064647196 73.10439911733)"/><path d="m20.111958 30.375-1.625 1.59375 2.34375-.3125c.21875-.71875-.1875-1.0625-.71875-1.28125z" fill="url(#n)" transform="matrix(1.10239016735 -.46874827774 .46631626206 1.15472932591 -325.2064647196 73.10439911733)"/><path d="m23.268208 27.25 1.5625 1.25 15.38734-7.31867c-.444432-.856044-1.241767-1.084597-1.903379-1.162262z" fill="#fff" fill-opacity=".363636" transform="matrix(1.10239016735 -.46874827774 .46631626206 1.15472932591 -325.2064647196 73.10439911733)"/><path d="m25.143208 31.0625.1875-.75 15.23109-7.1296s-.11016.613627-.215879.74935z" fill-opacity=".363636" transform="matrix(1.10239016735 -.46874827774 .46631626206 1.15472932591 -325.2064647196 73.10439911733)"/><path d="m-88.936383 284.54578 3.190674-8.25833 15.699208-18.69915c2.675193-2.68298 6.503195 1.32536 4.352598 4.24097l-15.793708 18.28106z" fill-rule="evenodd" filter="url(#s)" opacity=".520376" transform="matrix(1.1837272 .0727652 -.07338488 1.1737313 85.353412 -254.482857)"/><path d="m17.34116 32.5 5.625-5.625 20.093749-9.75c3.25-1.25 5.1875 3.375 2.3125 5l-20.031249 9.375z" fill="#cb9022" fill-rule="evenodd" stroke="#5c410c" transform="matrix(1.10239016735 -.46874827774 .46631626206 1.15472932591 -75.8991727196 42.70400411733)"/><path d="m38.330708 20s1.4375.09375 2 1.34375c.579493 1.287761 0 2.65625 0 2.65625l5.03125-2.46875s1.452032-.881367.65625-2.84375c-.784912-1.935577-2.6875-1.15625-2.6875-1.15625z" fill="url(#k)" transform="matrix(1.10239016735 -.46874827774 .46631626206 1.15472932591 -75.8991727196 42.70400411733)"/><path d="m38.330708 20s1.4375.09375 2 1.34375c.579493 1.287761 0 2.65625 0 2.65625l2-1s.827032-1.318867.21875-2.6875c-.625-1.40625-2.21875-1.3125-2.21875-1.3125z" fill="url(#l)" transform="matrix(1.10239016735 -.46874827774 .46631626206 1.15472932591 -75.8991727196 42.70400411733)"/><path d="m18.768208 31.78125 4.5-4.5c1.5.8125 2.28125 2.15625 1.875 3.71875z" fill="url(#m)" transform="matrix(1.10239016735 -.46874827774 .46631626206 1.15472932591 -75.8991727196 42.70400411733)"/><path d="m20.111958 30.375-1.625 1.59375 2.34375-.3125c.21875-.71875-.1875-1.0625-.71875-1.28125z" fill="url(#n)" transform="matrix(1.10239016735 -.46874827774 .46631626206 1.15472932591 -75.8991727196 42.70400411733)"/><path d="m23.268208 27.25 1.5625 1.25 15.38734-7.31867c-.444432-.856044-1.241767-1.084597-1.903379-1.162262z" fill="#fff" fill-opacity=".363636" transform="matrix(1.10239016735 -.46874827774 .46631626206 1.15472932591 -75.8991727196 42.70400411733)"/><path d="m25.143208 31.0625.1875-.75 15.23109-7.1296s-.11016.613627-.215879.74935z" fill-opacity=".363636" transform="matrix(1.10239016735 -.46874827774 .46631626206 1.15472932591 -75.8991727196 42.70400411733)"/><path d="m-88.936383 284.54578 3.190674-8.25833 15.699208-18.69915c2.675193-2.68298 6.503195 1.32536 4.352598 4.24097l-15.793708 18.28106z" fill-rule="evenodd" filter="url(#t)" opacity=".426332" transform="matrix(.9616105 .05040553 -.2878739 .9330474 124.773 -124.485324)"/><path d="m17.34116 32.5 5.625-5.625 20.093749-9.75c3.25-1.25 5.1875 3.375 2.3125 5l-20.031249 9.375z" fill="#cb9022" fill-rule="evenodd" stroke="#5c410c" transform="matrix(.98307736791 -.4238995323 .41584639084 1.04424764271 -70.71696451744 107.77630481436)"/><path d="m38.330708 20s1.4375.09375 2 1.34375c.579493 1.287761 0 2.65625 0 2.65625l5.03125-2.46875s1.452032-.881367.65625-2.84375c-.784912-1.935577-2.6875-1.15625-2.6875-1.15625z" fill="url(#k)" transform="matrix(.98307736791 -.4238995323 .41584639084 1.04424764271 -70.71696451744 107.77630481436)"/><path d="m38.330708 20s1.4375.09375 2 1.34375c.579493 1.287761 0 2.65625 0 2.65625l2-1s.827032-1.318867.21875-2.6875c-.625-1.40625-2.21875-1.3125-2.21875-1.3125z" fill="url(#l)" transform="matrix(.98307736791 -.4238995323 .41584639084 1.04424764271 -70.71696451744 107.77630481436)"/><path d="m18.768208 31.78125 4.5-4.5c1.5.8125 2.28125 2.15625 1.875 3.71875z" fill="url(#m)" transform="matrix(.98307736791 -.4238995323 .41584639084 1.04424764271 -70.71696451744 107.77630481436)"/><path d="m20.111958 30.375-1.625 1.59375 2.34375-.3125c.21875-.71875-.1875-1.0625-.71875-1.28125z" fill="url(#n)" transform="matrix(.98307736791 -.4238995323 .41584639084 1.04424764271 -70.71696451744 107.77630481436)"/><path d="m23.268208 27.25 1.5625 1.25 15.38734-7.31867c-.444432-.856044-1.241767-1.084597-1.903379-1.162262z" fill="#fff" fill-opacity=".363636" transform="matrix(.98307736791 -.4238995323 .41584639084 1.04424764271 -70.71696451744 107.77630481436)"/><path d="m25.143208 31.0625.1875-.75 15.23109-7.1296s-.11016.613627-.215879.74935z" fill-opacity=".363636" transform="matrix(.98307736791 -.4238995323 .41584639084 1.04424764271 -70.71696451744 107.77630481436)"/><path d="m-88.936383 284.54578 3.190674-8.25833 15.699208-18.69915c2.675193-2.68298 6.503195 1.32536 4.352598 4.24097l-15.793708 18.28106z" fill-rule="evenodd" filter="url(#t)" opacity=".426332" transform="matrix(.9616105 .05040553 -.2878739 .9330474 246.18855 -201.259773)"/><path d="m17.34116 32.5 5.625-5.625 20.093749-9.75c3.25-1.25 5.1875 3.375 2.3125 5l-20.031249 9.375z" fill="#cb9022" fill-rule="evenodd" stroke="#5c410c" transform="matrix(.98307736791 -.4238995323 .41584639084 1.04424764271 50.13790848256 31.17863181436)"/><path d="m38.330708 20s1.4375.09375 2 1.34375c.579493 1.287761 0 2.65625 0 2.65625l5.03125-2.46875s1.452032-.881367.65625-2.84375c-.784912-1.935577-2.6875-1.15625-2.6875-1.15625z" fill="url(#k)" transform="matrix(.98307736791 -.4238995323 .41584639084 1.04424764271 50.13790848256 31.17863181436)"/><path d="m38.330708 20s1.4375.09375 2 1.34375c.579493 1.287761 0 2.65625 0 2.65625l2-1s.827032-1.318867.21875-2.6875c-.625-1.40625-2.21875-1.3125-2.21875-1.3125z" fill="url(#l)" transform="matrix(.98307736791 -.4238995323 .41584639084 1.04424764271 50.13790848256 31.17863181436)"/><path d="m18.768208 31.78125 4.5-4.5c1.5.8125 2.28125 2.15625 1.875 3.71875z" fill="url(#m)" transform="matrix(.98307736791 -.4238995323 .41584639084 1.04424764271 50.13790848256 31.17863181436)"/><path d="m20.111958 30.375-1.625 1.59375 2.34375-.3125c.21875-.71875-.1875-1.0625-.71875-1.28125z" fill="url(#n)" transform="matrix(.98307736791 -.4238995323 .41584639084 1.04424764271 50.13790848256 31.17863181436)"/><path d="m23.268208 27.25 1.5625 1.25 15.38734-7.31867c-.444432-.856044-1.241767-1.084597-1.903379-1.162262z" fill="#fff" fill-opacity=".363636" transform="matrix(.98307736791 -.4238995323 .41584639084 1.04424764271 50.13790848256 31.17863181436)"/><path d="m25.143208 31.0625.1875-.75 15.23109-7.1296s-.11016.613627-.215879.74935z" fill-opacity=".363636" transform="matrix(.98307736791 -.4238995323 .41584639084 1.04424764271 50.13790848256 31.17863181436)"/><path d="m17.34116 32.5 5.625-5.625 20.093749-9.75c3.25-1.25 5.1875 3.375 2.3125 5l-20.031249 9.375z" fill="#cb9022" fill-rule="evenodd" stroke="#5c410c" transform="matrix(.94350614801 -.73809557829 .74929279172 .99469133477 -332.4020307971 127.63735993094)"/><path d="m38.330708 20s1.4375.09375 2 1.34375c.579493 1.287761 0 2.65625 0 2.65625l5.03125-2.46875s1.452032-.881367.65625-2.84375c-.784912-1.935577-2.6875-1.15625-2.6875-1.15625z" fill="url(#k)" transform="matrix(.94350614801 -.73809557829 .74929279172 .99469133477 -332.4020307971 127.63735993094)"/><path d="m38.330708 20s1.4375.09375 2 1.34375c.579493 1.287761 0 2.65625 0 2.65625l2-1s.827032-1.318867.21875-2.6875c-.625-1.40625-2.21875-1.3125-2.21875-1.3125z" fill="url(#l)" transform="matrix(.94350614801 -.73809557829 .74929279172 .99469133477 -332.4020307971 127.63735993094)"/><path d="m18.768208 31.78125 4.5-4.5c1.5.8125 2.28125 2.15625 1.875 3.71875z" fill="url(#m)" transform="matrix(.94350614801 -.73809557829 .74929279172 .99469133477 -332.4020307971 127.63735993094)"/><path d="m20.111958 30.375-1.625 1.59375 2.34375-.3125c.21875-.71875-.1875-1.0625-.71875-1.28125z" fill="url(#n)" transform="matrix(.94350614801 -.73809557829 .74929279172 .99469133477 -332.4020307971 127.63735993094)"/><path d="m23.268208 27.25 1.5625 1.25 15.38734-7.31867c-.444432-.856044-1.241767-1.084597-1.903379-1.162262z" fill="#fff" fill-opacity=".363636" transform="matrix(.94350614801 -.73809557829 .74929279172 .99469133477 -332.4020307971 127.63735993094)"/><path d="m25.143208 31.0625.1875-.75 15.23109-7.1296s-.11016.613627-.215879.74935z" fill-opacity=".363636" transform="matrix(.94350614801 -.73809557829 .74929279172 .99469133477 -332.4020307971 127.63735993094)"/><text font-family="DejaVu Sans" font-size="12" x="72" y="80"><tspan x="72" y="80">Current</tspan></text></svg>