<svg height="450" width="450" xmlns="http://www.w3.org/2000/svg"><g transform="translate(-25.996725 24.074155)"><g stroke-linejoin="round"><path d="m76.10876435 89.86664273h-17.5v-58.33334h-17.5l23.33333-23.33333 2.94062-2.93686 2.89272 2.93686 23.33333 23.33333h-17.5z" fill="none" stroke="#000" stroke-width="5.833"/><path d="m161.23325326 77.98304662h-13.24530713v-41.18734477h-13.24529662l17.6604025-16.47493392 2.22567051-2.07362174 2.18942486 2.07362174 17.6604025 16.47493392h-13.24529662z" fill="#fff" stroke="#dcdcdc" stroke-width="4.2641"/><path d="m128.7787083 167.33563929v-13.24530714h41.18734476v-13.24529663l16.47493391 17.66040251 2.07362173 2.22567052-2.07362173 2.18942486-16.47493391 17.66040251v-13.24529663z" fill="#fff" stroke="#dcdcdc" stroke-width="4.2641"/><path d="m167.7611752 233.01142392h-13.24530714v41.18734476h-13.24529663l17.66040251 16.47493391 2.22567052 2.07362173 2.18942486-2.07362173 17.66040251-16.47493391h-13.24529663z" fill="#fff" stroke="#dcdcdc" stroke-width="4.2641"/><path d="m184.776814 370.88242462v13.24530714h-41.18734476v13.24529663l-16.47493391-17.66040251-2.07362173-2.22567052 2.07362173-2.18942486 16.47493391-17.66040251v13.24529663z" fill="#fff" stroke="#dcdcdc" stroke-width="4.2641"/><path d="m270.28091399 49.11910354h31.69401635v13.24529663l16.47493391-17.66040251 2.07362173-2.18942486-2.07362173-2.22567052-16.47493391-17.66040251v13.24529663h-31.69401635-31.69401635v-13.24529663l-16.47493391 17.66040251-2.07362173 2.18942486 2.07362173 2.22567052 16.47493391 17.66040251v-13.24529663z" fill="#fff" stroke="#dcdcdc" stroke-width="4.2641"/><path d="m268.06329371 169.77597786v31.69401635h-13.24529663l17.66040251 16.47493391 2.18942486 2.07362173 2.22567052-2.07362173 17.66040251-16.47493391h-13.24529663v-31.69401635-31.69401635h13.24529663l-17.66040251-16.47493391-2.18942486-2.07362173-2.22567052 2.07362173-17.66040251 16.47493391h13.24529663z" fill="#fff" stroke="#dcdcdc" stroke-width="4.2641"/><path d="m411.45038603 11.05981749-2.21875 2.0625-17.65625 16.46875h13.25v25.09375h-25.09375v-13.25l-16.46875 17.65625-2.0625 2.1875 2.0625 2.21875 16.46875 17.65625v-13.25h25.09375v25.09375h-13.25l17.65625 16.46875 2.1875 2.0625 2.21875-2.0625 17.65625-16.46875h-13.25v-25.09375h25.09375v13.25l16.46875-17.65625 2.0625-2.1875-2.0625-2.21875-16.46875-17.65625v13.25h-25.09375v-25.09375h13.25l-17.65625-16.46875z" fill="#fff" stroke="#dcdcdc" stroke-width="4.2641"/></g><g transform="translate(-1778.97437 -152.003651)"><g fill="#fff" stroke="#dcdcdc" stroke-linejoin="round"><path d="m2883.92877752 289.61911048h-6.02059415v-20.59367238h-6.02058938l8.02745569-8.23746696 1.01166842-1.03681087.99519312 1.03681087 8.02745569 8.23746696h-6.02058938v20.59367238z" stroke-width="2.03283"/><path d="m2870.75041396 360.71476265v-6.02059416h20.59367238v-6.02058938l8.23746696 8.02745569 1.03681087 1.01166842-1.03681087.99519312-8.23746696 8.02745569v-6.02058938z" stroke-width="2.03283"/><path d="m2890.75901315 422.76055555h-6.02059416v20.59367238h-6.02058938l8.02745569 8.23746696 1.01166842 1.03681087.99519312-1.03681087 8.02745569-8.23746696h-6.02058938z" stroke-width="2.03283"/><path d="m2900.4045961 533.09763527v6.02059416h-20.59367238v6.02058938l-8.23746696-8.02745569-1.03681087-1.01166842 1.03681087-.99519312 8.23746696-8.02745569v6.02058938z" stroke-width="2.03283"/><path d="m2887.94579388 603.24521442-.84739411.78771847-6.7433475 6.28981263h5.06049441v9.58390805h-9.58390805v-5.06049441l-6.28981263 6.7433475-.78771847.83545898.78771847.84739411 6.28981263 6.7433475v-5.06049441h9.58390805v9.58390805h-5.06049441l6.7433475 6.28981263.83545898.78771847.84739411-.78771847 6.7433475-6.28981263h-5.06049441v-9.58390805h9.58390805v5.06049441l6.28981263-6.7433475.78771847-.83545898-.78771847-.84739411-6.28981263-6.7433475v5.06049441h-9.58390805v-9.58390805h5.06049441l-6.7433475-6.28981263z" stroke-width="1.628562"/></g><text font-family="DejaVu Sans Mono" font-size="40" x="2831.5554" y="206.59579"><tspan x="2831.5554" y="206.59579">Gfx32</tspan></text></g><g transform="translate(-1677.464007 -14.566593)"><g fill="#fff" stroke="#dcdcdc" stroke-linejoin="round"><path d="m2325.65314093 681.01396051-1.69478822 1.57543694-13.486695 12.57962525h10.12098882v19.16781608h-19.16781608v-10.12098882l-12.57962525 13.486695-1.57543694 1.67091796 1.57543694 1.69478822 12.57962525 13.486695v-10.12098882h19.16781608v19.16781608h-10.12098882l13.486695 12.57962525 1.67091796 1.57543694 1.69478822-1.57543694 13.486695-12.57962525h-10.12098882v-19.16781608h19.16781608v10.12098882l12.57962525-13.486695 1.57543694-1.67091796-1.57543694-1.69478822-12.57962525-13.486695v10.12098882h-19.16781608v-19.16781608h10.12098882l-13.486695-12.57962525z" stroke-width="3.257125"/><path d="m2332.26385937 217.142336h-13.24530713v-41.18734477h-13.24529662l17.6604025-16.47493392 2.22567051-2.07362174 2.18942486 2.07362174 17.6604025 16.47493392h-13.24529662z" stroke-width="4.2641"/><path d="m2295.77325561 326.92480128v-13.24530714h41.18734476v-13.24529663l16.47493391 17.66040251 2.07362173 2.22567052-2.07362173 2.18942486-16.47493391 17.66040251v-13.24529663z" stroke-width="4.2641"/><path d="m2332.26385938 423.46194062h-13.24530714v41.18734476h-13.24529663l17.66040251 16.47493391 2.22567052 2.07362173 2.18942486-2.07362173 17.66040251-16.47493391h-13.24529663z" stroke-width="4.2641"/><path d="m2355.50915601 579.7350011v13.24530714h-41.18734476v13.24529663l-16.47493391-17.66040251-2.07362173-2.22567052 2.07362173-2.18942486 16.47493391-17.66040251v13.24529663z" stroke-width="4.2641"/></g><text font-family="DejaVu Sans Mono" font-size="40" x="2265.436" y="69.158737"><tspan x="2265.436" y="69.158737">Gfx64</tspan></text></g><g transform="translate(-2215.171592 -48.370159)"><g fill="#fff" stroke="#dcdcdc" stroke-linejoin="round"><path d="m3022.77955281 258.98320823h-9.61720038v-30.92474905h-9.61719275l12.82292876-12.36989663 1.61602288-1.55694018 1.5897055 1.55694018 12.82292876 12.36989663h-9.61719275v30.92474905z" stroke-width="3.148414"/><path d="m2995.54515968 389.87325434v-9.61720038h30.92474906v-9.61719274l12.36989663 12.82292875 1.55694018 1.61602287-1.55694018 1.5897055-12.36989663 12.82292875v-9.61719274h-30.92474906z" stroke-width="3.148414"/><path d="m3022.77955281 511.14608126h-9.61720038v30.92474905h-9.61719275l12.82292876 12.36989663 1.61602288 1.55694018 1.5897055-1.55694018 12.82292876-12.36989663h-9.61719275v-30.92474905z" stroke-width="3.148414"/><path d="m3040.39674555 677.2705453v9.61720038h-30.92474906v9.61719274l-12.36989663-12.82292875-1.55694018-1.61602287 1.55694018-1.5897055 12.36989663-12.82292875v9.61719274h30.92474906z" stroke-width="3.148414"/><path d="m3017.97990396 801.80778585-1.27109117 1.1815777-10.11502125 9.43471894h7.59074161v14.37586206h-14.37586206v-7.59074161l-9.43471894 10.11502125-1.1815777 1.25318847 1.1815777 1.27109117 9.43471894 10.11502125v-7.59074161h14.37586206v14.37586206h-7.59074161l10.11502125 9.43471894 1.25318847 1.1815777 1.27109117-1.1815777 10.11502125-9.43471894h-7.59074161v-14.37586206h14.37586206v7.59074161l9.43471894-10.11502125 1.1815777-1.25318847-1.1815777-1.27109117-9.43471894-10.11502125v7.59074161h-14.37586206v-14.37586206h7.59074161l-10.11502125-9.43471894z" stroke-width="2.442844"/></g><text font-family="DejaVu Sans Mono" font-size="40" x="2958.0881" y="102.9623"><tspan x="2958.0881" y="102.9623">Gfx48</tspan></text></g><g transform="translate(-1464.994241 -58.337666)"><g fill="#fff" stroke="#dcdcdc" stroke-linejoin="round"><path d="m2426.63407135 256.70785738h-8.43681382v-25.72519276h-8.43680713l11.24908063-10.29007461 1.41767704-1.29516285 1.39458977 1.29516285 11.24908063 10.29007461h-8.43680713v25.72519276z" stroke-width="2.689571"/><path d="m2403.76044933 382.30587592v-8.43681382h25.72519276v-8.43680713l10.29007461 11.24908063 1.29516285 1.41767704-1.29516285 1.39458977-10.29007461 11.24908063v-8.43680713h-25.72519276z" stroke-width="2.689571"/><path d="m2426.63407135 499.4671839h-8.43681382v25.72519276h-8.43680713l11.24908063 10.29007461 1.41767704 1.29516285 1.39458977-1.29516285 11.24908063-10.29007461h-8.43680713v-25.72519276z" stroke-width="2.689571"/><path d="m2441.07087956 653.93885129v8.43681382h-25.72519276v8.43680713l-10.29007461-11.24908063-1.29516285-1.41767704 1.29516285-1.39458977 10.29007461-11.24908063v8.43680713h25.72519276z" stroke-width="2.689571"/><path d="m2422.42282552 775.16928076-1.01687293.94526216-8.09201701 7.54777516h6.0725933v11.50068966h-11.50068966v-6.0725933l-7.54777516 8.09201701-.94526216 1.00255078.94526216 1.01687293 7.54777516 8.09201701v-6.0725933h11.50068966v11.50068966h-6.0725933l8.09201701 7.54777516 1.00255078.94526216 1.01687293-.94526216 8.09201701-7.54777516h-6.0725933v-11.50068966h11.50068966v6.0725933l7.54777516-8.09201701.94526216-1.00255078-.94526216-1.01687293-7.54777516-8.09201701v6.0725933h-11.50068966v-11.50068966h6.0725933l-8.09201701-7.54777516z" stroke-width="1.954275"/></g><text font-family="DejaVu Sans Mono" font-size="40" x="2362.5525" y="112.92981"><tspan x="2362.5525" y="112.92981">Gfx40</tspan></text></g><g transform="translate(-1253.407153 -290.080921)"><g fill="#fff" stroke="#dcdcdc" stroke-linejoin="round"><path d="m2521.88784696 451.42425795h-3.62862384v-10.26366818h-3.62862096l4.8381632-4.10546628.60973453-.51673555.59980483.51673555 4.8381632 4.10546628h-3.62862096z" stroke-width="1.114132"/><path d="m2512.63058792 560.01592061v-3.62861595h10.26368489v-3.62861307l4.10547296 4.83815267.5167364.6097332-.5167364.59980353-4.10547296 4.83815267v-3.62861307h-10.26368489z" stroke-width="1.114132"/><path d="m2521.88784696 664.97900955h-3.62862384v10.26366818h-3.62862096l4.8381632 4.10546628.60973453.51673555.59980483-.51673555 4.8381632-4.10546628h-3.62862096z" stroke-width="1.114132"/><path d="m2527.51647004 784.82793952v3.62862384h-10.26366818v3.62862096l-4.10546628-4.8381632-.51673555-.60973453.51673555-.59980483 4.10546628-4.8381632v3.62862096z" stroke-width="1.114132"/><path d="m2520.07651882 891.26970217-.42369706.39385923-3.37167375 3.14490631h2.5302472v4.79195402h-4.79195402v-2.5302472l-3.14490631 3.37167375-.39385923.41772949.39385923.42369706 3.14490631 3.37167375v-2.5302472h4.79195402v4.79195402h-2.5302472l3.37167375 3.14490631.41772949.39385923.42369706-.39385923 3.37167375-3.14490631h-2.5302472v-4.79195402h4.79195402v2.5302472l3.14490631-3.37167375.39385923-.41772949-.39385923-.42369706-3.14490631-3.37167375v2.5302472h-4.79195402v-4.79195402h2.5302472l-3.37167375-3.14490631z" stroke-width=".814281"/></g><text font-family="DejaVu Sans Mono" font-size="40" x="2460.2102" y="344.67307"><tspan x="2460.2102" y="344.67307">Gfx16</tspan></text></g></g></svg>