<svg height="419.666199" width="603.195984" xmlns="http://www.w3.org/2000/svg" xmlns:xlink="http://www.w3.org/1999/xlink"><linearGradient id="a"><stop offset="0" stop-color="#605c5a"/><stop offset="1" stop-color="#e0dee0"/></linearGradient><linearGradient id="b"><stop offset="0" stop-color="#edf3e9" stop-opacity="0"/><stop offset=".2420098186" stop-color="#edf3e9" stop-opacity="0"/><stop offset=".5961632133" stop-color="#edf3e9" stop-opacity="0"/><stop offset="1" stop-color="#edf3e9"/></linearGradient><linearGradient id="c"><stop offset="0" stop-color="#282c2d" stop-opacity="0"/><stop offset=".5094158053" stop-color="#282c2d" stop-opacity="0"/><stop offset=".7617712021" stop-color="#282c2d" stop-opacity=".262745"/><stop offset="1" stop-color="#282c2d"/></linearGradient><radialGradient id="d" cx="357.301025" cy="164.669434" gradientTransform="matrix(.09621246 .98925602 1.63188431 -.15871418 -167.916966 903.914467)" gradientUnits="userSpaceOnUse" r="63.673725" xlink:href="#b"/><radialGradient id="e" cx="344.538025" cy="152.799377" gradientTransform="matrix(-1.62367936 .14700672 .10094338 1.11490478 680.731351 1019.378542)" gradientUnits="userSpaceOnUse" r="75.862312" xlink:href="#c"/><linearGradient id="f" gradientUnits="userSpaceOnUse" x1="508.906403" x2="508.865967" xlink:href="#a" y1="1270.746094" y2="1188.567383"/><linearGradient id="g" gradientUnits="userSpaceOnUse" x1="534.224765" x2="534.184329" xlink:href="#a" y1="335.09393" y2="252.915219"/><radialGradient id="h" cx="357.301025" cy="164.669434" gradientTransform="matrix(.09621246 .98925602 1.63188431 -.15871418 -142.598605 -31.737696)" gradientUnits="userSpaceOnUse" r="63.673725" xlink:href="#b"/><radialGradient id="i" cx="344.538025" cy="152.799377" gradientTransform="matrix(-1.62367936 .14700672 .10094338 1.11490478 706.049712 83.726379)" gradientUnits="userSpaceOnUse" r="75.862312" xlink:href="#c"/><g transform="translate(22.595368 -1133.520596)"><path d="m20 1230c0-45 55-80 120-80 64.76981165 0 100 60 100 60h130c20 0 50.50242989-20.16747663 65-25 15-5 69.70702688-5.14648656 80 0 10 5 20 25.32996003 20 45 0 20-10 40-20 45-9.98477945 4.99238973-65 5-80 0-15.99334758-5.33111586-45-25-65-25h-130s-35.80196459 60-100 60c-65 0-120-35-120-80z" fill="#b2b0b1" fill-rule="evenodd"/><path d="m240.78834155 1216.97712518s116.3034263.48733204 138.12678666-1.43984748c9.22791316-.81489949 38.23130674-17.34782686 55.56668425-24.03167859 24.01281375-9.25841312 77.84185018-4.60103301 77.1895489-1.66567726" fill="none" stroke="#e0dee0" stroke-width="2"/><path d="m240.94199753 1244.35236439s123.04741295-1.57923201 136.01147711-.06413401c13.29963648 1.55434394 55.10300245 21.6013912 61.44873349 24.09565895 13.84123116 5.44046641 72.48213198 4.4818275 72.27902771 1.49444653" fill="none" stroke="#605c5a" stroke-width="2"/><path d="m235.35262495 1227.30122398c-3.74051377-20.35119116-19.29172834-40.06832913-39.71375027-53.85317989-20.42202193-13.78485075-45.71485122-21.63741428-68.93859443-18.25945654-20.86217726 3.03446144-45.53090691 9.69683825-65.15001419 22.0856154-19.61910728 12.38877714-34.18859219 30.50395462-34.85227995 56.44401737 9.10120046-8.23558614 17.62146241-15.00706654 28.72484408-20.78539281 8.00280261-4.16474961 18.89382413-9.58907366 26.13145084-11.57056686 18.02626569-4.93517064 25.66293556-5.75842273 44.36895618-6.24010938s47.77772046 4.62607454 66.08659313 10.50442186 35.77146891 11.03674581 43.34279461 21.67465086z" fill="url(#e)" fill-rule="evenodd"/><path d="m234.86133883 1230.00000786c-6.12578985 4.15888178-11.58301772 6.4747157-18.12999989 8.72245294-6.54698216 2.24773723-14.18371862 4.42737778-24.66852565 8.3138728-10.2990851 3.81765185-20.77450911 6.10209594-31.83685127 7.70085448-11.06234216 1.59875853-22.71160247 2.51183151-35.35836016 3.58674113-10.72361141.91145204-19.18652181 1.52748954-27.94052678 1.32022354-8.75400497-.20726601-17.79910451-1.23783553-29.68709419-3.61959755-8.79871269-1.76282452-14.90378397-4.44477553-20.71680459-7.28540359-5.81302062-2.84062807-11.3339906-5.8399332-18.96450067-8.23746598 1.13937398 8.57525561 6.10890747 18.3692907 13.82351879 27.33645727s18.17430047 17.10746462 30.29398577 22.37524616c11.24614006 4.88809796 22.48652108 8.5647161 32.74984923 11.11932953 10.26332816 2.55461344 19.54960345 3.98722217 26.88753208 4.38730134 14.00324296.763486 27.96589008-1.70045287 40.79506785-6.16409481s24.52488619-10.92698695 33.99425175-18.16231325c9.4548293-7.22421947 17.19973739-15.32663743 22.30329132-23.99599204s7.56575371-17.90564587 6.45516641-27.39761196z" fill="url(#d)" fill-rule="evenodd"/><path d="m511.64472824 1189.62300171c2.1492309.65882401 4.71689865 1.364815 7.38540681 5.21966415 2.66850816 3.85484916 6.10103409 9.12893589 8.29329891 17.14988741 2.26344757 8.28139147 3.00698316 22.76846611 1.05536153 31.30066807-1.89547122 8.28672063-4.75794032 14.67427233-7.93641009 18.83328304-3.14664333 4.11736599-6.13205451 6.12544205-9.9404887 7.96094188" fill="none" stroke="url(#f)" stroke-width="2"/></g><path d="m45.31836183 294.34783631c0-45 55-80 120-80 64.76981165 0 100 60 100 60h130c20 0 50.50242989-20.16747663 65-25 15-5 69.70702688-5.14648656 80 0 10 5 20 25.32996003 20 45 0 20-10 40-20 45-9.98477945 4.99238973-65 5-80 0-15.99334758-5.33111586-45-25-65-25h-130s-35.80196459 60-100 60c-65 0-120-35-120-80z" fill="#b2b0b1" fill-rule="evenodd"/><path d="m266.10670338 281.32496149s116.3034263.48733204 138.12678666-1.43984748c9.22791316-.81489949 38.23130674-17.34782686 55.56668425-24.03167859 24.01281375-9.25841312 77.84185018-4.60103301 77.1895489-1.66567726" fill="none" stroke="#e0dee0" stroke-width="2"/><path d="m266.26035936 308.7002007s123.04741295-1.57923201 136.01147711-.06413401c13.29963648 1.55434394 55.10300245 21.6013912 61.44873349 24.09565895 13.84123116 5.44046641 72.48213198 4.4818275 72.27902771 1.49444653" fill="none" stroke="#605c5a" stroke-width="2"/><path d="m260.67098678 291.64906028c-3.74051377-20.35119116-19.29172834-40.06832913-39.71375027-53.85317989-20.42202193-13.78485075-45.71485122-21.63741428-68.93859443-18.25945654-20.86217726 3.03446144-45.53090691 9.69683825-65.15001419 22.0856154-19.61910728 12.38877714-34.18859219 30.50395462-34.85227995 56.44401737 9.10120046-8.23558614 17.62146241-15.00706654 28.72484408-20.78539281 8.00280261-4.16474961 18.89382413-9.58907366 26.13145084-11.57056686 18.02626569-4.93517064 25.66293556-5.75842273 44.36895618-6.24010938s47.77772046 4.62607454 66.08659313 10.50442186 35.77146891 11.03674581 43.34279461 21.67465086z" fill="url(#i)" fill-rule="evenodd"/><path d="m260.17970065 294.34784417c-6.12578985 4.15888178-11.58301772 6.4747157-18.12999989 8.72245294-6.54698216 2.24773723-14.18371862 4.42737778-24.66852565 8.3138728-10.2990851 3.81765185-20.77450911 6.10209594-31.83685127 7.70085448-11.06234216 1.59875853-22.71160247 2.51183151-35.35836016 3.58674113-10.72361141.91145204-19.18652181 1.52748954-27.94052678 1.32022354-8.75400497-.20726601-17.79910451-1.23783553-29.68709419-3.61959755-8.79871269-1.76282452-14.90378397-4.44477553-20.71680459-7.28540359-5.81302062-2.84062807-11.3339906-5.8399332-18.96450067-8.23746598 1.13937398 8.57525561 6.10890747 18.3692907 13.82351879 27.33645727s18.17430047 17.10746462 30.29398577 22.37524616c11.24614006 4.88809796 22.48652108 8.5647161 32.74984923 11.11932953 10.26332816 2.55461344 19.54960345 3.98722217 26.88753208 4.38730134 14.00324296.763486 27.96589008-1.70045287 40.79506785-6.16409481s24.52488619-10.92698695 33.99425175-18.16231325c9.4548293-7.22421947 17.19973739-15.32663743 22.30329132-23.99599204s7.56575371-17.90564587 6.45516641-27.39761196z" fill="url(#h)" fill-rule="evenodd"/><path d="m536.96309007 253.97083802c2.1492309.65882401 4.71689865 1.364815 7.38540681 5.21966415 2.66850816 3.85484916 6.10103409 9.12893589 8.29329891 17.14988741 2.26344757 8.28139147 3.00698316 22.76846611 1.05536153 31.30066807-1.89547122 8.28672063-4.75794032 14.67427233-7.93641009 18.83328304-3.14664333 4.11736599-6.13205451 6.12544205-9.9404887 7.96094188" fill="none" stroke="url(#g)" stroke-width="2"/><path d="m517.58577734 303.37189795-4.736 1.792c.8959991 4.47999552.2559927 5.184-7.04 5.184h-16.256c8.12799187-8.12799187 6.52800179-7.55200704 8.32-14.592 1.47199853-.12799987 8.64000109-.44800019 9.728-.64.38399962-.31999968 1.98400038-1.60000026 2.368-1.856h-11.456l3.456-14.656c8.63999136-.12799987 9.79200211-1.08799462 11.904 4.288l4.16-4.096c-.12799987-1.40799859-.96000147-2.55999994-2.432-2.496l-13.184.384.32-1.408-4.416 1.536c-3.96799603 0-7.74400294.76800147-10.688 2.24-4.47999552 2.17599782-7.488 5.88800397-7.488 9.856 0 1.98399802.51200058 3.77600186 1.088 5.632l4.736-3.136c-.44799955-1.66399834-.832-3.39200198-.832-5.376 0-6.59199341 6.91200525-7.10400013 12.16-7.232l-3.456 14.4c-.44799955.44799955-2.04800038 2.36800058-2.432 2.944l1.792-.128c-1.79199821 8.31999168-2.62400627 13.82400109-8.896 14.912l-2.368 1.984 19.136.448 6.08.064c3.1999968 0 6.20800179-1.79200224 8-4.032 1.72799827-2.17599782 2.87999955-3.84000218 2.432-6.016" fill="#3c3c3c"/><path d="m518.15596777 303.94208838-4.736 1.792c.8959991 4.47999552.2559927 5.184-7.04 5.184h-16.256c8.12799187-8.12799187 6.52800179-7.55200704 8.32-14.592 1.47199853-.12799987 8.64000109-.44800019 9.728-.64.38399962-.31999968 1.98400038-1.60000026 2.368-1.856h-11.456l3.456-14.656c8.63999136-.12799987 9.79200211-1.08799462 11.904 4.288l4.16-4.096c-.12799987-1.40799859-.96000147-2.55999994-2.432-2.496l-13.184.384.32-1.408-4.416 1.536c-3.96799603 0-7.74400294.76800147-10.688 2.24-4.47999552 2.17599782-7.488 5.88800397-7.488 9.856 0 1.98399802.51200058 3.77600186 1.088 5.632l4.736-3.136c-.44799955-1.66399834-.832-3.39200198-.832-5.376 0-6.59199341 6.91200525-7.10400013 12.16-7.232l-3.456 14.4c-.44799955.44799955-2.04800038 2.36800058-2.432 2.944l1.792-.128c-1.79199821 8.31999168-2.62400627 13.82400109-8.896 14.912l-2.368 1.984 19.136.448 6.08.064c3.1999968 0 6.20800179-1.79200224 8-4.032 1.72799827-2.17599782 2.87999955-3.84000218 2.432-6.016" fill="#a0a0a0"/><g transform="matrix(.24854369 0 0 .25 78.130954 131.002086)"><g transform="translate(719.760259 349.664062)"><path d="m20 1230c0-45 55-80 120-80 64.76981165 0 100 60 100 60h130c20 0 50.50242989-20.16747663 65-25 15-5 69.70702688-5.14648656 80 0 10 5 20 25.32996003 20 45 0 20-10 40-20 45-9.98477945 4.99238973-65 5-80 0-15.99334758-5.33111586-45-25-65-25h-130s-35.80196459 60-100 60c-65 0-120-35-120-80z" fill="#b2b0b1" fill-rule="evenodd"/><path d="m240.78834155 1216.97712518s116.3034263.48733204 138.12678666-1.43984748c9.22791316-.81489949 38.23130674-17.34782686 55.56668425-24.03167859 24.01281375-9.25841312 77.84185018-4.60103301 77.1895489-1.66567726" fill="none" stroke="#e0dee0" stroke-width="2"/><path d="m240.94199753 1244.35236439s123.04741295-1.57923201 136.01147711-.06413401c13.29963648 1.55434394 55.10300245 21.6013912 61.44873349 24.09565895 13.84123116 5.44046641 72.48213198 4.4818275 72.27902771 1.49444653" fill="none" stroke="#605c5a" stroke-width="2"/><path d="m235.35262495 1227.30122398c-3.74051377-20.35119116-19.29172834-40.06832913-39.71375027-53.85317989-20.42202193-13.78485075-45.71485122-21.63741428-68.93859443-18.25945654-20.86217726 3.03446144-45.53090691 9.69683825-65.15001419 22.0856154-19.61910728 12.38877714-34.18859219 30.50395462-34.85227995 56.44401737 9.10120046-8.23558614 17.62146241-15.00706654 28.72484408-20.78539281 8.00280261-4.16474961 18.89382413-9.58907366 26.13145084-11.57056686 18.02626569-4.93517064 25.66293556-5.75842273 44.36895618-6.24010938s47.77772046 4.62607454 66.08659313 10.50442186 35.77146891 11.03674581 43.34279461 21.67465086z" fill="url(#e)" fill-rule="evenodd"/><path d="m234.86133883 1230.00000786c-6.12578985 4.15888178-11.58301772 6.4747157-18.12999989 8.72245294-6.54698216 2.24773723-14.18371862 4.42737778-24.66852565 8.3138728-10.2990851 3.81765185-20.77450911 6.10209594-31.83685127 7.70085448-11.06234216 1.59875853-22.71160247 2.51183151-35.35836016 3.58674113-10.72361141.91145204-19.18652181 1.52748954-27.94052678 1.32022354-8.75400497-.20726601-17.79910451-1.23783553-29.68709419-3.61959755-8.79871269-1.76282452-14.90378397-4.44477553-20.71680459-7.28540359-5.81302062-2.84062807-11.3339906-5.8399332-18.96450067-8.23746598 1.13937398 8.57525561 6.10890747 18.3692907 13.82351879 27.33645727s18.17430047 17.10746462 30.29398577 22.37524616c11.24614006 4.88809796 22.48652108 8.5647161 32.74984923 11.11932953 10.26332816 2.55461344 19.54960345 3.98722217 26.88753208 4.38730134 14.00324296.763486 27.96589008-1.70045287 40.79506785-6.16409481s24.52488619-10.92698695 33.99425175-18.16231325c9.4548293-7.22421947 17.19973739-15.32663743 22.30329132-23.99599204s7.56575371-17.90564587 6.45516641-27.39761196z" fill="url(#d)" fill-rule="evenodd"/><path d="m511.64472824 1189.62300171c2.1492309.65882401 4.71689865 1.364815 7.38540681 5.21966415 2.66850816 3.85484916 6.10103409 9.12893589 8.29329891 17.14988741 2.26344757 8.28139147 3.00698316 22.76846611 1.05536153 31.30066807-1.89547122 8.28672063-4.75794032 14.67427233-7.93641009 18.83328304-3.14664333 4.11736599-6.13205451 6.12544205-9.9404887 7.96094188" fill="none" stroke="url(#f)" stroke-width="2"/></g><g font-family="TeXGyreChorus" font-size="64" font-style="italic" font-weight="bold"><text fill="#3c3c3c" x="1168.7637" y="1598.2241"><tspan x="1168.7637" y="1598.2241">E</tspan></text><text fill="#a0a0a0" x="1169.3339" y="1598.7943"><tspan x="1169.3339" y="1598.7943">E</tspan></text></g></g></svg>