<svg height="500" width="700" xmlns="http://www.w3.org/2000/svg" xmlns:xlink="http://www.w3.org/1999/xlink"><linearGradient id="a"><stop offset="0" stop-color="#646464"/><stop offset="1" stop-color="#b4b4b4"/></linearGradient><linearGradient id="b"><stop offset="0" stop-color="#828282"/><stop offset="1" stop-color="#b4b4b4"/></linearGradient><linearGradient id="c" gradientTransform="matrix(1.8881682 -.14910099 -.00078805 .87347765 1745.577554 138.065208)" gradientUnits="userSpaceOnUse" x1="147.872559" x2="118.722252" xlink:href="#b" y1="687.356995" y2="673.501465"/><linearGradient id="d" gradientTransform="matrix(1.9416482 -.15332409 -.00076635 .84941889 1745.577554 139.065208)" gradientUnits="userSpaceOnUse" x1="143.798203" x2="106.415466" xlink:href="#b" y1="521.995117" y2="514.613403"/><linearGradient id="e" gradientTransform="matrix(1.9481346 -.15383629 -.0007638 .84659073 1748.077554 142.065208)" gradientUnits="userSpaceOnUse" x1="145.818985" x2="193.427521" xlink:href="#b" y1="537.138062" y2="541.288208"/><linearGradient id="f" gradientTransform="matrix(.42857886 -.03384314 -.00347189 3.8482362 1745.724754 139.53786)" gradientUnits="userSpaceOnUse" x1="666.225952" x2="692.383789" xlink:href="#b" y1="107.832092" y2="17.732885"/><linearGradient id="g" gradientTransform="matrix(1.9292323 -.15234366 -.00077128 .85488543 1750.577554 141.065208)" gradientUnits="userSpaceOnUse" x1="151.10228" x2="177.237289" xlink:href="#b" y1="697.501221" y2="685.193176"/><linearGradient id="h" gradientTransform="matrix(2.1866705 -.17267251 -.00068048 .75423926 1743.577555 142.065208)" gradientUnits="userSpaceOnUse" x1="130.540558" x2="130.540558" xlink:href="#b" y1="786.663208" y2="822.545532"/><linearGradient id="i" gradientTransform="matrix(.42857886 -.03384314 -.00347189 3.8482362 1743.383574 139.722738)" gradientUnits="userSpaceOnUse" x1="676.048279" x2="571.416931" xlink:href="#b" y1="103.763092" y2="34.008873"/><linearGradient id="j" gradientTransform="matrix(1.8881682 -.12462301 -.00078805 .73007843 2057.35268 257.222201)" gradientUnits="userSpaceOnUse" x1="147.872559" x2="118.722252" xlink:href="#b" y1="687.356995" y2="673.501465"/><linearGradient id="k" gradientTransform="matrix(1.9416482 -.1281528 -.00076635 .7099694 2057.35268 258.05803)" gradientUnits="userSpaceOnUse" x1="143.798203" x2="106.415466" xlink:href="#b" y1="521.995117" y2="514.613403"/><linearGradient id="l" gradientTransform="matrix(1.9481346 -.12858092 -.0007638 .70760554 2059.85268 260.565519)" gradientUnits="userSpaceOnUse" x1="145.818985" x2="193.427521" xlink:href="#b" y1="537.138062" y2="541.288208"/><linearGradient id="m" gradientTransform="matrix(.42857886 -.0282871 -.00347189 3.21646951 2057.49988 258.453087)" gradientUnits="userSpaceOnUse" x1="666.225952" x2="692.383789" xlink:href="#b" y1="107.832092" y2="17.732885"/><linearGradient id="n" gradientTransform="matrix(1.9292323 -.12733333 -.00077128 .7145385 2062.35268 259.729689)" gradientUnits="userSpaceOnUse" x1="151.10228" x2="177.237289" xlink:href="#b" y1="697.501221" y2="685.193176"/><linearGradient id="o" gradientTransform="matrix(2.1866705 -.14432479 -.00068048 .63041546 2055.352681 260.565519)" gradientUnits="userSpaceOnUse" x1="130.540558" x2="130.540558" xlink:href="#b" y1="786.663208" y2="822.545532"/><linearGradient id="p" gradientTransform="matrix(.42857886 -.0282871 -.00347189 3.21646951 2055.1587 258.607613)" gradientUnits="userSpaceOnUse" x1="676.048279" x2="571.416931" xlink:href="#b" y1="103.763092" y2="34.008873"/><linearGradient id="q" gradientTransform="matrix(1.8881682 -.12462301 -.00078805 .73007843 2132.69633 1213.174081)" gradientUnits="userSpaceOnUse" x1="147.872559" x2="118.722252" xlink:href="#b" y1="687.356995" y2="673.501465"/><linearGradient id="r" gradientTransform="matrix(1.9416482 -.1281528 -.00076635 .7099694 2135.627319 1209.360959)" gradientUnits="userSpaceOnUse" x1="143.798203" x2="106.415466" xlink:href="#b" y1="521.995117" y2="514.613403"/><linearGradient id="s" gradientTransform="matrix(1.9481346 -.12858092 -.0007638 .70760554 2134.0064 1211.764833)" gradientUnits="userSpaceOnUse" x1="145.818985" x2="193.427521" xlink:href="#b" y1="537.138062" y2="541.288208"/><linearGradient id="t" gradientTransform="matrix(.42857886 -.0282871 -.00347189 3.21646951 2132.826415 1210.155816)" gradientUnits="userSpaceOnUse" x1="666.225952" x2="692.383789" xlink:href="#b" y1="107.832092" y2="17.732885"/><linearGradient id="u" gradientTransform="matrix(1.9292323 -.12733333 -.00077128 .7145385 2137.910639 1215.422226)" gradientUnits="userSpaceOnUse" x1="151.10228" x2="177.237289" xlink:href="#b" y1="697.501221" y2="685.193176"/><linearGradient id="v" gradientTransform="matrix(2.1866705 -.14432479 -.00068048 .63041546 2134.175551 1214.61865)" gradientUnits="userSpaceOnUse" x1="130.540558" x2="130.540558" xlink:href="#b" y1="786.663208" y2="822.545532"/><linearGradient id="w" gradientTransform="matrix(.42857886 -.0282871 -.00347189 3.21646951 2129.466957 1210.306833)" gradientUnits="userSpaceOnUse" x1="676.048279" x2="571.416931" xlink:href="#b" y1="103.763092" y2="34.008873"/><linearGradient id="x" gradientTransform="matrix(2.1866705 -.14432479 -.00068048 .63041546 -205.251476 20.191624)" gradientUnits="userSpaceOnUse" x1="130.540558" x2="130.540558" xlink:href="#b" y1="786.663208" y2="822.545532"/><linearGradient id="y" gradientTransform="matrix(1.9292323 -.12733333 -.00077128 .7145385 -201.516388 20.995199)" gradientUnits="userSpaceOnUse" x1="151.10228" x2="177.237289" xlink:href="#b" y1="697.501221" y2="685.193176"/><linearGradient id="z" gradientTransform="matrix(1.8881682 -.12462301 -.00078805 .73007843 -206.730697 18.747054)" gradientUnits="userSpaceOnUse" x1="147.872559" x2="118.722252" xlink:href="#b" y1="687.356995" y2="673.501465"/><linearGradient id="A" gradientTransform="matrix(1.9416482 -.1281528 -.00076635 .7099694 -203.799707 14.933932)" gradientUnits="userSpaceOnUse" x1="143.798203" x2="106.415466" xlink:href="#b" y1="521.995117" y2="514.613403"/><linearGradient id="B" gradientTransform="matrix(1.9481346 -.12858092 -.0007638 .70760554 -205.420626 17.337807)" gradientUnits="userSpaceOnUse" x1="145.818985" x2="193.427521" xlink:href="#b" y1="537.138062" y2="541.288208"/><linearGradient id="C" gradientTransform="matrix(.42857886 -.0282871 -.00347189 3.21646951 -206.600612 15.728789)" gradientUnits="userSpaceOnUse" x1="721.484497" x2="692.383789" xlink:href="#a" y1="107.658546" y2="17.732885"/><linearGradient id="D" gradientTransform="matrix(.42857886 -.0282871 -.00347189 3.21646951 -209.960069 15.879807)" gradientUnits="userSpaceOnUse" x1="676.048279" x2="571.416931" xlink:href="#b" y1="103.763092" y2="34.008873"/><linearGradient id="E" gradientTransform="matrix(.10638278 -.00694767 -.0008618 .79000537 551.551429 956.02096)" gradientUnits="userSpaceOnUse" x1="676.048279" x2="571.416931" xlink:href="#b" y1="103.763092" y2="34.008873"/><linearGradient id="F" gradientTransform="matrix(.10638278 -.00694767 -.0008618 .79000537 552.385321 955.983868)" gradientUnits="userSpaceOnUse" x1="666.225952" x2="692.383789" xlink:href="#b" y1="107.832092" y2="17.732885"/><linearGradient id="G" gradientTransform="matrix(.48357024 -.03158109 -.00018959 .17379682 552.67822 956.379063)" gradientUnits="userSpaceOnUse" x1="145.818985" x2="193.427521" xlink:href="#b" y1="537.138062" y2="541.288208"/><linearGradient id="H" gradientTransform="matrix(.48196017 -.03147594 -.00019022 .17437742 553.080568 955.788641)" gradientUnits="userSpaceOnUse" x1="143.798203" x2="106.415466" xlink:href="#b" y1="521.995117" y2="514.613403"/><linearGradient id="I" gradientTransform="matrix(.46868525 -.03060898 -.00019561 .17931645 552.353031 956.725192)" gradientUnits="userSpaceOnUse" x1="147.872559" x2="118.722252" xlink:href="#b" y1="687.356995" y2="673.501465"/><linearGradient id="J" gradientTransform="matrix(.47887827 -.03127467 -.00019145 .17549964 553.647339 957.277364)" gradientUnits="userSpaceOnUse" x1="151.10228" x2="177.237289" xlink:href="#b" y1="697.501221" y2="685.193176"/><linearGradient id="K" gradientTransform="matrix(.54278014 -.03544798 -.00016891 .15483797 552.720207 957.079996)" gradientUnits="userSpaceOnUse" x1="130.540558" x2="130.540558" xlink:href="#b" y1="786.663208" y2="822.545532"/><linearGradient id="L" gradientTransform="matrix(.400379 .15548844 -1.36248535 2.91364408 858.930394 733.159477)" gradientUnits="userSpaceOnUse" x1="676.048279" x2="571.416931" xlink:href="#b" y1="103.763092" y2="34.008873"/><linearGradient id="M" gradientTransform="matrix(.400379 .15548844 -1.36248535 2.91364408 862.03892 734.442376)" gradientUnits="userSpaceOnUse" x1="721.484497" x2="692.383789" xlink:href="#a" y1="107.658546" y2="17.732885"/><linearGradient id="N" gradientTransform="matrix(2.04279079 .79332421 -.26704181 .57106286 861.375577 739.057248)" gradientUnits="userSpaceOnUse" x1="130.540558" x2="130.540558" xlink:href="#b" y1="786.663208" y2="822.545532"/><linearGradient id="O" gradientTransform="matrix(1.80229165 .69992561 -.30267604 .64726585 864.42111 741.364051)" gradientUnits="userSpaceOnUse" x1="151.10228" x2="177.237289" xlink:href="#b" y1="697.501221" y2="685.193176"/><linearGradient id="P" gradientTransform="matrix(1.7639295 .68502756 -.30925869 .66134272 860.645448 737.122877)" gradientUnits="userSpaceOnUse" x1="147.872559" x2="118.722252" xlink:href="#b" y1="687.356995" y2="673.501465"/><linearGradient id="Q" gradientTransform="matrix(1.8138906 .7044301 -.30074058 .64312693 864.913322 734.905705)" gradientUnits="userSpaceOnUse" x1="143.798203" x2="106.415466" xlink:href="#b" y1="521.995117" y2="514.613403"/><linearGradient id="R" gradientTransform="matrix(1.8199502 .70678337 -.29973926 .64098562 862.428349 736.399325)" gradientUnits="userSpaceOnUse" x1="145.818985" x2="193.427521" xlink:href="#b" y1="537.138062" y2="541.288208"/><linearGradient id="S" gradientTransform="matrix(.10688822 .04101921 -.36373944 .76864482 897.833578 1489.250469)" gradientUnits="userSpaceOnUse" x1="676.048279" x2="571.416931" xlink:href="#b" y1="103.763092" y2="34.008873"/><linearGradient id="T" gradientTransform="matrix(.10688822 .04101921 -.36373944 .76864482 898.663454 1489.588909)" gradientUnits="userSpaceOnUse" x1="721.484497" x2="692.383789" xlink:href="#a" y1="107.658546" y2="17.732885"/><linearGradient id="U" gradientTransform="matrix(.54535894 .20928587 -.07129151 .15065138 898.486363 1490.806353)" gradientUnits="userSpaceOnUse" x1="130.540558" x2="130.540558" xlink:href="#b" y1="786.663208" y2="822.545532"/><linearGradient id="V" gradientTransform="matrix(.48115346 .1846465 -.08080469 .1707544 899.299422 1491.414908)" gradientUnits="userSpaceOnUse" x1="151.10228" x2="177.237289" xlink:href="#b" y1="697.501221" y2="685.193176"/><linearGradient id="W" gradientTransform="matrix(.47091201 .18071627 -.08256205 .174468 898.291442 1490.296049)" gradientUnits="userSpaceOnUse" x1="147.872559" x2="118.722252" xlink:href="#b" y1="687.356995" y2="673.501465"/><linearGradient id="X" gradientTransform="matrix(.48425001 .18583483 -.08028799 .16966251 899.430826 1489.711139)" gradientUnits="userSpaceOnUse" x1="143.798203" x2="106.415466" xlink:href="#b" y1="521.995117" y2="514.613403"/><linearGradient id="Y" gradientTransform="matrix(.48586773 .18645564 -.08002067 .16909762 898.767419 1490.105169)" gradientUnits="userSpaceOnUse" x1="145.818985" x2="193.427521" xlink:href="#b" y1="537.138062" y2="541.288208"/><g fill-rule="evenodd"><g transform="matrix(1 0 0 .83582954 -2443.266973 -835.001266)"><path d="m1982.93852447 202.97484566 13.79949 363.95752 69.92551-6.88012 17.05148-357.0774-50.99003-80.883119z" stroke="#000" stroke-width="1.002757pt"/><path d="m1984.91161447 203.63237566 14.45141 357.65164 32.86195-4.13446.30602-431.877259z" fill="url(#i)"/><path d="m1993.64133447 714.61125566 6.51998 27.53251h60.42489l6.89879-31.77535z" stroke="#000" stroke-width="1.002757pt"/><path d="m1995.02980447 716.33602566 7.22165 24.39353h57.15055l7.61878-29.40729z" fill="url(#h)"/><path d="m1998.38685447 565.54104566 1.8883 34.38531-2.07131 3.99624-.50169 5.64138 3.22177 2.22398.43861 9.13228-2.73423 4.32806.11924 5.46947 2.9267 2.40696.97197 9.6123-.0403.003-3.35747 3.60007.24308 5.7884 3.54757 2.27499-.24985 8.68319-2.98599 4.67665-.12843 4.71182 3.54757 2.27499.79948 8.04139-3.35443 3.72271-.25383 6.11333 3.92038 1.8769.12099-.0494.0391 1.3144 20.61313-1.26843-19.45038 9.04159-3.10982 4.31779-.005 5.07068 3.54757 2.27499 48.74688-22.49375 4.63896-.28647.0825-2.08255 3.43497-3.57249-.11916-5.55243-2.15693-2.66426-.37235-10.5504 3.60883-3.51569-.61608-5.18447-2.20675-2.5867-.0419-8.81363 3.95974-4.01317.50144-5.35566-3.72394-3.02583.62818-8.22465 3.13484-4.76826.004-4.8249-3.10315-3.07485.66667-9.66805 2.8956-4.34703.005-5.07068-2.36165-2.76787-.24889-9.80159 3.51317-4.30972.005-5.07068-3.0631-2.75241.3726-10.60922-65.88739 5.32231z" stroke="#000" stroke-width="1.23273pt"/><path d="m1999.84872447 564.63441566 4.56343 131.48426 55.01703-3.33029 4.80133-132.22376z" fill="#303030"/><g stroke="#000" stroke-width="1.002757pt"><path d="m2001.68176447 611.63309566 61.67765-28.2653 3.55226-4.34918.005-5.08619-3.10224-2.80652-62.56529 28.84395-3.10869 4.31416-.005 5.08619 3.54632 2.26289z" fill="#ce5c00"/><path d="m2006.02340447 715.54995566 53.24703-24.54806 3.55225-4.34916.005-5.08622-3.10225-2.80652-54.13465 25.12673-3.10868 4.31414-.005 5.08623z" fill="#ce5c00"/><path d="m1964.30523447 690.52496566 6.4804 32.88047h120.94494l5.4929-32.88047z"/><path d="m2004.26794447 694.83663566 55.4658-25.74043 3.55225-4.34918.005-5.08619-3.10225-2.80654-56.35343 26.31912-3.10869 4.31415-.005 5.0862z" fill="#ce5c00"/><path d="m2003.17688447 675.08802566 58.12818-26.96785 3.55225-4.34918.005-5.08618-3.10226-2.80653-59.01579 27.5465-3.10867 4.31415-.005 5.08621z" fill="#ce5c00"/><path d="m2002.97345447 654.76072566 59.01578-27.54651 3.55225-4.34918.005-5.0862-3.10225-2.80654-59.9034 28.12519-3.10867 4.31416-.005 5.08621z" fill="#ce5c00"/><path d="m2002.10604447 632.96011566 60.3465-27.6516 3.55225-4.34917.005-5.08619-3.10225-2.80655-61.23412 28.23027-3.10867 4.31417-.005 5.08619z" fill="#ce5c00"/></g><path d="m2096.34148447 691.48636566-5.20781 31.05712-56.60391-.71798-.29167-30.27512 62.10339-.064z" fill="url(#g)"/><path d="m2081.42450447 204.10077566-16.83758 355.41432-29.36195-2.36554-.8528-430.340589z" fill="url(#f)"/><path d="m1949.72497447 557.84908566v45l79.4951-16.66655 85.5049 16.66655v-45l-82 .80047z" stroke="#000" stroke-width="1.002757pt"/><path d="m2113.96963447 558.97709566-.20209 42.49111-79.21717-16.48967.11177-25.06302z" fill="url(#e)"/><path d="m1951.05458447 558.92077566-.11089 43.05624 81.64912-17.51136-.0166-24.59415-81.52166-.95073z" fill="url(#d)"/><path d="m1965.57666447 691.73329566 5.90695 30.81767 61.21975-.72608-.71981-30.35977z" fill="url(#c)"/></g><g transform="translate(-2465.50965 -965.839306)"><path d="m2294.71365021 311.475594 13.79949 304.20644829 69.92551-5.75060757 17.05148-298.45584072-50.99003-67.60450054z" stroke="#000" stroke-width=".916757pt"/><path d="m2296.68674021 312.025177 14.45141 298.93580748 32.86195-3.45570382.30602-360.97577282-47.61938 65.49566917z" fill="url(#p)"/><path d="m2305.41646021 739.1164217 6.51998 23.0124853h60.42489l6.89879-26.55877633z" stroke="#000" stroke-width=".916757pt"/><path d="m2306.80493021 740.55803542 7.22165 20.38883308h57.15055l7.61878-24.57948182z" fill="url(#o)"/><path d="m2310.16198021 614.51913592 1.8883 28.74025801-2.07131 3.34017546-.50169 4.71523208 3.22177 1.85886819.43861 7.63302944-2.73423 3.61752042.11924 4.57154462 2.9267 2.01180828.97197 8.03424433-.0403.00250749-3.35747 3.00904487.24308 4.83811574 3.54757 1.90150386-.24985 7.25766675-2.98599 3.90888224-.12843 3.93827837 3.54757 1.90150386.79948 6.72123134-3.35443 3.111551-.25383 5.10970183 3.92038 1.56876847.12099-.04128998.0391 1.09861435 20.61313-1.06019127-19.45038 7.55722805-3.10982 3.60893645-.005 4.23822416 3.54757 1.90150386 48.74688-18.80094082 4.63896-.23944009.0825-1.74065682 3.43497-2.98599269-.11916-4.64088504-2.15693-2.22686722-.37235-8.81833603 3.60883-2.93851757-.61608-4.3333332-2.20675-2.16204028-.0419-7.36669235 3.95974-3.35432605.50144-4.47641886-3.72394-2.52907811.62818-6.87440547 3.13484-3.98545259.004-4.03279397-3.10315-2.57005048.66667-8.08084183 2.8956-3.63337611.005-4.23822416-2.36165-2.31346752-.24889-8.19245851 3.51317-3.60219131.005-4.23822416-3.0631-2.3005456.3726-8.86749952-65.88739 4.44854394z" stroke="#000" stroke-width="1.127007pt"/><path d="m2311.62385021 613.76134778 4.56343 109.89842919 55.01703-2.78355477 4.80133-110.51652514z" fill="#f57900"/><g stroke="#000" stroke-width=".916757pt"><path d="m2313.45689021 653.04423309 61.67765-23.62497283 3.55226-3.63517314.005-4.25118787-3.10224-2.34577233-62.56529 24.1086256-3.10869 3.60590239-.005 4.25118787 3.54632 1.89139032z" fill="#ce5c00"/><path d="m2317.79853021 739.90101489 53.24703-20.51799382 3.55225-3.63515642.005-4.25121295-3.10225-2.34577233-54.13465 21.0016633-3.10868 3.60588567-.005 4.25122131z" fill="#ce5c00"/><path d="m2276.08036021 718.98438889 6.4804 27.48246827h120.94494l5.4929-27.48246827z"/><path d="m2316.04307021 722.58821006 55.4658-21.51461189 3.55225-3.63517314.005-4.25118787-3.10225-2.34578905-56.35343 21.99829809-3.10869 3.60589403-.005 4.25119623z" fill="#ce5c00"/><path d="m2314.95201021 706.08173835 58.12818-22.54052579 3.55225-3.63517314.005-4.25117951-3.10226-2.34578069-59.01579 23.02417856-3.10867 3.60589403-.005 4.25120459 3.54629 1.89138196z" fill="#ce5c00"/><path d="m2314.74858021 689.09158045 59.01578-23.02418692 3.55225-3.63517314.005-4.25119623-3.10225-2.34578905-59.9034 23.50786476-3.10867 3.60590239-.005 4.25120459z" fill="#ce5c00"/><path d="m2313.88117021 670.86998651 60.3465-23.11202424 3.55225-3.63516478.005-4.25118787-3.10225-2.34579741-61.23412 23.59569373-3.10867 3.60591075-.005 4.25118787 3.54629 1.89138196z" fill="#ce5c00"/></g><path d="m2408.11661021 719.78795541-5.20781 25.95845847-56.60391-.6001089-.29167-25.30483977 62.10339-.05349309z" fill="url(#n)"/><path d="m2393.19963021 312.41667956-16.83758 297.06578932-29.36195-1.97718822-.8528-359.69137863 47.05233 64.60277754z" fill="url(#m)"/><path d="m2261.50010021 608.08996849v37.61232952l79.4951-13.9303949 85.5049 13.9303949v-37.61232952l-82 .66905648z" stroke="#000" stroke-width=".916757pt"/><path d="m2425.74476021 609.03279258-.20209 35.51532513-79.21717-13.78255337.11177-20.9484126z" fill="url(#l)"/><path d="m2262.82971021 608.98571866-.11089 35.98767748 81.64912-14.63651206-.0166-20.5565172-81.52166-.79464822z" fill="url(#k)"/><path d="m2277.35179021 719.9943468 5.90695 25.75831909 61.21975-.60687912-.71981-25.37559274z" fill="url(#j)"/></g><g transform="matrix(.49644438 0 0 .49122516 -882.632661 -1053.226524)"><g transform="translate(337.749999 -175.249999)"><path d="m2048.16187231 1743.01913152 1.8883 28.74025801-2.07131 3.34017546-.50169 4.71523208 3.22177 1.85886819.43861 7.63302944-2.73423 3.61752042.11924 4.57154462 2.9267 2.01180828.97197 8.03424433-.0403.00250749-3.35747 3.00904487.24308 4.83811574 3.54757 1.90150386-.24985 7.25766675-2.98599 3.90888224-.12843 3.93827837 3.54757 1.90150386.79948 6.72123134-3.35443 3.111551-.25383 5.10970183 3.92038 1.56876847.12099-.04128998.0391 1.09861435 20.61313-1.06019127-19.45038 7.55722805-3.10982 3.60893645-.005 4.23822416 3.54757 1.90150386 48.74688-18.80094082 4.63896-.23944009.0825-1.74065682 3.43497-2.98599269-.11916-4.64088504-2.15693-2.22686722-.37235-8.81833603 3.60883-2.93851757-.61608-4.3333332-2.20675-2.16204028-.0419-7.36669235 3.95974-3.35432605.50144-4.47641886-3.72394-2.52907811.62818-6.87440547 3.13484-3.98545259.004-4.03279397-3.10315-2.57005048.66667-8.08084183 2.8956-3.63337611.005-4.23822416-2.36165-2.31346752-.24889-8.19245851 3.51317-3.60219131.005-4.23822416-3.0631-2.3005456.3726-8.86749952-65.88739 4.44854394z" stroke="#000" stroke-width="1.127007pt"/><path d="m2049.62374231 1742.26134338 4.56343 109.89842919 55.01703-2.78355477 4.80133-110.51652514z" fill="#f57900"/><g fill="#ce5c00" stroke="#000" stroke-width=".916757pt"><path d="m2051.45678231 1781.54422869 61.67765-23.62497283 3.55226-3.63517314.005-4.25118787-3.10224-2.34577233-62.56529 24.1086256-3.10869 3.60590239-.005 4.25118787 3.54632 1.89139032z"/><path d="m2055.79842231 1868.40101048 53.24703-20.51799382 3.55225-3.63515642.005-4.25121295-3.10225-2.34577233-54.13465 21.0016633-3.10868 3.60588567-.005 4.25122131z"/><path d="m2054.04296231 1851.08820566 55.4658-21.51461189 3.55225-3.63517314.005-4.25118787-3.10225-2.34578905-56.35343 21.99829809-3.10869 3.60589403-.005 4.25119623z"/><path d="m2052.95190231 1834.58173395 58.12818-22.54052579 3.55225-3.63517314.005-4.25117951-3.10226-2.34578069-59.01579 23.02417856-3.10867 3.60589403-.005 4.25120459 3.54629 1.89138196z"/><path d="m2052.74847231 1817.59157604 59.01578-23.02418692 3.55225-3.63517314.005-4.25119623-3.10225-2.34578905-59.9034 23.50786476-3.10867 3.60590239-.005 4.25120459z"/><path d="m2051.88106231 1799.36998211 60.3465-23.11202424 3.55225-3.63516478.005-4.25118787-3.10225-2.34579741-61.23412 23.59569373-3.10867 3.60591075-.005 4.25118787 3.54629 1.89138196z"/></g></g><path d="m2370 1265 15 295h70l15-295-50-70z" stroke="#000" stroke-width=".916757pt"/><path d="m2370 1265 15 295 34-.57452426v-363.42547574z" fill="url(#w)"/><path d="m2380 1700 10 15h60l10-15z" stroke="#000" stroke-width=".916757pt"/><path d="m2470 1265-15 295-34-.49718446v-363.50281554z" fill="url(#t)"/><path d="m2340 1560v35l80-10 80 10v-35h-80z" stroke="#000" stroke-width=".916757pt"/><path d="m2500 1560v35l-79-10v-25z" fill="url(#s)"/><path d="m2340 1560v35l79-10v-25z" fill="url(#r)"/><path d="m2355 1675 5 25h120l5-25z" stroke="#000" stroke-width=".916757pt"/><path d="m2355 1675 5 25h59.6015625v-25z" fill="url(#q)"/><path d="m2485 1675-5 25h-59.59765625v-25z" fill="url(#u)"/><path d="m2380 1700.55242717 10 14.44757283h60l10.00552427-14.44757283z" fill="url(#v)"/></g><g transform="translate(-192.623209 -1292.849089)"><g transform="matrix(.24822219 0 0 .24561258 106.80752 615.710773)"><path d="m2048.16187231 1743.01913152 1.8883 28.74025801-2.07131 3.34017546-.50169 4.71523208 3.22177 1.85886819.43861 7.63302944-2.73423 3.61752042.11924 4.57154462 2.9267 2.01180828.97197 8.03424433-.0403.00250749-3.35747 3.00904487.24308 4.83811574 3.54757 1.90150386-.24985 7.25766675-2.98599 3.90888224-.12843 3.93827837 3.54757 1.90150386.79948 6.72123134-3.35443 3.111551-.25383 5.10970183 3.92038 1.56876847.12099-.04128998.0391 1.09861435 20.61313-1.06019127-19.45038 7.55722805-3.10982 3.60893645-.005 4.23822416 3.54757 1.90150386 48.74688-18.80094082 4.63896-.23944009.0825-1.74065682 3.43497-2.98599269-.11916-4.64088504-2.15693-2.22686722-.37235-8.81833603 3.60883-2.93851757-.61608-4.3333332-2.20675-2.16204028-.0419-7.36669235 3.95974-3.35432605.50144-4.47641886-3.72394-2.52907811.62818-6.87440547 3.13484-3.98545259.004-4.03279397-3.10315-2.57005048.66667-8.08084183 2.8956-3.63337611.005-4.23822416-2.36165-2.31346752-.24889-8.19245851 3.51317-3.60219131.005-4.23822416-3.0631-2.3005456.3726-8.86749952-65.88739 4.44854394z" stroke="#000" stroke-width="1.127007pt"/><path d="m2049.62374231 1742.26134338 4.56343 109.89842919 55.01703-2.78355477 4.80133-110.51652514z" fill="#f57900"/><g fill="#ce5c00" stroke="#000" stroke-width=".916757pt"><path d="m2051.45678231 1781.54422869 61.67765-23.62497283 3.55226-3.63517314.005-4.25118787-3.10224-2.34577233-62.56529 24.1086256-3.10869 3.60590239-.005 4.25118787 3.54632 1.89139032z"/><path d="m2055.79842231 1868.40101048 53.24703-20.51799382 3.55225-3.63515642.005-4.25121295-3.10225-2.34577233-54.13465 21.0016633-3.10868 3.60588567-.005 4.25122131z"/><path d="m2054.04296231 1851.08820566 55.4658-21.51461189 3.55225-3.63517314.005-4.25118787-3.10225-2.34578905-56.35343 21.99829809-3.10869 3.60589403-.005 4.25119623z"/><path d="m2052.95190231 1834.58173395 58.12818-22.54052579 3.55225-3.63517314.005-4.25117951-3.10226-2.34578069-59.01579 23.02417856-3.10867 3.60589403-.005 4.25120459 3.54629 1.89138196z"/><path d="m2052.74847231 1817.59157604 59.01578-23.02418692 3.55225-3.63517314.005-4.25119623-3.10225-2.34578905-59.9034 23.50786476-3.10867 3.60590239-.005 4.25120459z"/><path d="m2051.88106231 1799.36998211 60.3465-23.11202424 3.55225-3.63516478.005-4.25118787-3.10225-2.34579741-61.23412 23.59569373-3.10867 3.60591075-.005 4.25118787 3.54629 1.89138196z"/></g></g><path d="m611.25706832 969.45428941 3.72333286 72.45571078h17.37555337l3.72333286-72.45571078-12.41110955-17.19288052-12.41110955 17.19288052z" stroke="#000" stroke-width=".22636pt"/><path d="m611.25706832 969.45428941 3.72333286 72.45571078 8.43955449-.14111038v-89.26186834l-12.16288736 16.94726795z" fill="url(#E)"/><path d="m613.73929023 1076.29576124 2.48222191 3.68418868h14.89333146l2.48222191-3.68418868z" stroke="#000" stroke-width=".22636pt"/><path d="m636.07928742 969.45428941-3.72333286 72.45571078-8.43955449-.12211476v-89.28086397l12.16288736 16.94726795z" fill="url(#F)"/><path d="m603.81040259 1041.91000019v8.59644026l19.85777528-2.45612579 19.85777528 2.45612579v-8.59644026h-19.85777528z" stroke="#000" stroke-width=".22636pt"/><path d="m643.52595315 1041.91000019v8.59644026l-19.60955309-2.45612579v-6.14031447z" fill="url(#G)"/><path d="m603.81040259 1041.91000019v8.59644026l19.60955309-2.45612579v-6.14031447z" fill="url(#H)"/><path d="m607.53373545 1070.15544677 1.24111095 6.14031447h29.78666292l1.24111095-6.14031447h-32.26888483z" stroke="#000" stroke-width=".22636pt"/><path d="m607.53373545 1070.15544677 1.24111095 6.14031447h14.79443043v-6.14031447h-16.03554139z" fill="url(#I)"/><path d="m639.80262028 1070.15544677-1.24111095 6.14031447h-14.79346081v-6.14031447h16.03457177z" fill="url(#J)"/><path d="m613.73929023 1076.43144431 2.48222191 3.54850562h14.89333146l2.48359316-3.54850562z" fill="url(#K)"/></g><g transform="translate(42.961726 -727.847417)"><g transform="translate(-2339.427027 -1194.427027)"><g transform="translate(337.749999 -175.249999)"><path d="m2048.16187231 1743.01913152 1.8883 28.74025801-2.07131 3.34017546-.50169 4.71523208 3.22177 1.85886819.43861 7.63302944-2.73423 3.61752042.11924 4.57154462 2.9267 2.01180828.97197 8.03424433-.0403.00250749-3.35747 3.00904487.24308 4.83811574 3.54757 1.90150386-.24985 7.25766675-2.98599 3.90888224-.12843 3.93827837 3.54757 1.90150386.79948 6.72123134-3.35443 3.111551-.25383 5.10970183 3.92038 1.56876847.12099-.04128998.0391 1.09861435 20.61313-1.06019127-19.45038 7.55722805-3.10982 3.60893645-.005 4.23822416 3.54757 1.90150386 48.74688-18.80094082 4.63896-.23944009.0825-1.74065682 3.43497-2.98599269-.11916-4.64088504-2.15693-2.22686722-.37235-8.81833603 3.60883-2.93851757-.61608-4.3333332-2.20675-2.16204028-.0419-7.36669235 3.95974-3.35432605.50144-4.47641886-3.72394-2.52907811.62818-6.87440547 3.13484-3.98545259.004-4.03279397-3.10315-2.57005048.66667-8.08084183 2.8956-3.63337611.005-4.23822416-2.36165-2.31346752-.24889-8.19245851 3.51317-3.60219131.005-4.23822416-3.0631-2.3005456.3726-8.86749952-65.88739 4.44854394z" stroke="#000" stroke-width="1.127007pt"/><path d="m2049.62374231 1742.26134338 4.56343 109.89842919 55.01703-2.78355477 4.80133-110.51652514z" fill="#f57900"/><g fill="#ce5c00" stroke="#000" stroke-width=".916757pt"><path d="m2051.45678231 1781.54422869 61.67765-23.62497283 3.55226-3.63517314.005-4.25118787-3.10224-2.34577233-62.56529 24.1086256-3.10869 3.60590239-.005 4.25118787 3.54632 1.89139032z"/><path d="m2055.79842231 1868.40101048 53.24703-20.51799382 3.55225-3.63515642.005-4.25121295-3.10225-2.34577233-54.13465 21.0016633-3.10868 3.60588567-.005 4.25122131z"/><path d="m2054.04296231 1851.08820566 55.4658-21.51461189 3.55225-3.63517314.005-4.25118787-3.10225-2.34578905-56.35343 21.99829809-3.10869 3.60589403-.005 4.25119623z"/><path d="m2052.95190231 1834.58173395 58.12818-22.54052579 3.55225-3.63517314.005-4.25117951-3.10226-2.34578069-59.01579 23.02417856-3.10867 3.60589403-.005 4.25120459 3.54629 1.89138196z"/><path d="m2052.74847231 1817.59157604 59.01578-23.02418692 3.55225-3.63517314.005-4.25119623-3.10225-2.34578905-59.9034 23.50786476-3.10867 3.60590239-.005 4.25120459z"/><path d="m2051.88106231 1799.36998211 60.3465-23.11202424 3.55225-3.63516478.005-4.25118787-3.10225-2.34579741-61.23412 23.59569373-3.10867 3.60591075-.005 4.25118787 3.54629 1.89138196z"/></g></g><path d="m2370 1265 15 295h70l15-295-50-70z" stroke="#000" stroke-width=".916757pt"/><path d="m2370 1265 15 295 34-.57452426v-363.42547574z" fill="url(#w)"/><path d="m2380 1700 10 15h60l10-15z" stroke="#000" stroke-width=".916757pt"/><path d="m2470 1265-15 295-34-.49718446v-363.50281554z" fill="url(#t)"/><path d="m2340 1560v35l80-10 80 10v-35h-80z" stroke="#000" stroke-width=".916757pt"/><path d="m2500 1560v35l-79-10v-25z" fill="url(#s)"/><path d="m2340 1560v35l79-10v-25z" fill="url(#r)"/><path d="m2355 1675 5 25h120l5-25z" stroke="#000" stroke-width=".916757pt"/><path d="m2355 1675 5 25h59.6015625v-25z" fill="url(#q)"/><path d="m2485 1675-5 25h-59.59765625v-25z" fill="url(#u)"/><path d="m2380 1700.55242717 10 14.44757283h60l10.00552427-14.44757283z" fill="url(#v)"/></g><g transform="translate(-2001.677028 -1369.677026)"><path d="m2048.16187231 1743.01913152 1.8883 28.74025801-2.07131 3.34017546-.50169 4.71523208 3.22177 1.85886819.43861 7.63302944-2.73423 3.61752042.11924 4.57154462 2.9267 2.01180828.97197 8.03424433-.0403.00250749-3.35747 3.00904487.24308 4.83811574 3.54757 1.90150386-.24985 7.25766675-2.98599 3.90888224-.12843 3.93827837 3.54757 1.90150386.79948 6.72123134-3.35443 3.111551-.25383 5.10970183 3.92038 1.56876847.12099-.04128998.0391 1.09861435 20.61313-1.06019127-19.45038 7.55722805-3.10982 3.60893645-.005 4.23822416 3.54757 1.90150386 48.74688-18.80094082 4.63896-.23944009.0825-1.74065682 3.43497-2.98599269-.11916-4.64088504-2.15693-2.22686722-.37235-8.81833603 3.60883-2.93851757-.61608-4.3333332-2.20675-2.16204028-.0419-7.36669235 3.95974-3.35432605.50144-4.47641886-3.72394-2.52907811.62818-6.87440547 3.13484-3.98545259.004-4.03279397-3.10315-2.57005048.66667-8.08084183 2.8956-3.63337611.005-4.23822416-2.36165-2.31346752-.24889-8.19245851 3.51317-3.60219131.005-4.23822416-3.0631-2.3005456.3726-8.86749952-65.88739 4.44854394z" stroke="#000" stroke-width="1.127007pt"/><path d="m2049.62374231 1742.26134338 4.56343 109.89842919 55.01703-2.78355477 4.80133-110.51652514z" fill="#f57900"/><g fill="#ce5c00" stroke="#000" stroke-width=".916757pt"><path d="m2051.45678231 1781.54422869 61.67765-23.62497283 3.55226-3.63517314.005-4.25118787-3.10224-2.34577233-62.56529 24.1086256-3.10869 3.60590239-.005 4.25118787 3.54632 1.89139032z"/><path d="m2055.79842231 1868.40101048 53.24703-20.51799382 3.55225-3.63515642.005-4.25121295-3.10225-2.34577233-54.13465 21.0016633-3.10868 3.60588567-.005 4.25122131z"/><path d="m2054.04296231 1851.08820566 55.4658-21.51461189 3.55225-3.63517314.005-4.25118787-3.10225-2.34578905-56.35343 21.99829809-3.10869 3.60589403-.005 4.25119623z"/><path d="m2052.95190231 1834.58173395 58.12818-22.54052579 3.55225-3.63517314.005-4.25117951-3.10226-2.34578069-59.01579 23.02417856-3.10867 3.60589403-.005 4.25120459 3.54629 1.89138196z"/><path d="m2052.74847231 1817.59157604 59.01578-23.02418692 3.55225-3.63517314.005-4.25119623-3.10225-2.34578905-59.9034 23.50786476-3.10867 3.60590239-.005 4.25120459z"/><path d="m2051.88106231 1799.36998211 60.3465-23.11202424 3.55225-3.63516478.005-4.25118787-3.10225-2.34579741-61.23412 23.59569373-3.10867 3.60591075-.005 4.25118787 3.54629 1.89138196z"/></g></g><g stroke="#000" stroke-width=".916757pt"><path d="m30.57297343 70.57297343 15 295h70l15-295-50-70z"/><path d="m40.57297343 505.57297343 10 15h60l10-15z"/><path d="m.57297343 365.57297343v35l80-10 80 10v-35h-80-80z"/></g><path d="m160.57297343 365.57297343v35l-79-10v-25z" fill="url(#B)"/><path d="m.57297343 365.57297343v35l79-10v-25h-79z" fill="url(#A)"/><path d="m15.57297343 480.57297343 5 25h120l5-25h-130z" stroke="#000" stroke-width=".916757pt"/><path d="m15.57297343 480.57297343 5 25h59.6015625v-25h-64.6015625z" fill="url(#z)"/><path d="m145.57297343 480.57297343-5 25h-59.59765625v-25z" fill="url(#y)"/><path d="m40.57297343 506.1254006 10 14.44757283h60l10.00552427-14.44757283z" fill="url(#x)"/><path d="m130.57297343 70.57297343-15 295-34.59765625-.50109071v-364.4989211l49.59765625 70.0000118z" fill="url(#C)" stroke="#555753"/><path d="m30.57297343 70.57297343 15 295 34.6015625-.54796571v-364.4520461z" fill="url(#D)" stroke="#888a85"/><g transform="matrix(.90630779 .42261826 -.42261826 .90630779 194.630173 701.344931)"><g transform="translate(-2339.427027 -1194.427027)"><g transform="translate(337.749999 -175.249999)"><path d="m2048.16187231 1743.01913152 1.8883 28.74025801-2.07131 3.34017546-.50169 4.71523208 3.22177 1.85886819.43861 7.63302944-2.73423 3.61752042.11924 4.57154462 2.9267 2.01180828.97197 8.03424433-.0403.00250749-3.35747 3.00904487.24308 4.83811574 3.54757 1.90150386-.24985 7.25766675-2.98599 3.90888224-.12843 3.93827837 3.54757 1.90150386.79948 6.72123134-3.35443 3.111551-.25383 5.10970183 3.92038 1.56876847.12099-.04128998.0391 1.09861435 20.61313-1.06019127-19.45038 7.55722805-3.10982 3.60893645-.005 4.23822416 3.54757 1.90150386 48.74688-18.80094082 4.63896-.23944009.0825-1.74065682 3.43497-2.98599269-.11916-4.64088504-2.15693-2.22686722-.37235-8.81833603 3.60883-2.93851757-.61608-4.3333332-2.20675-2.16204028-.0419-7.36669235 3.95974-3.35432605.50144-4.47641886-3.72394-2.52907811.62818-6.87440547 3.13484-3.98545259.004-4.03279397-3.10315-2.57005048.66667-8.08084183 2.8956-3.63337611.005-4.23822416-2.36165-2.31346752-.24889-8.19245851 3.51317-3.60219131.005-4.23822416-3.0631-2.3005456.3726-8.86749952-65.88739 4.44854394z" stroke="#000" stroke-width="1.127007pt"/><path d="m2049.62374231 1742.26134338 4.56343 109.89842919 55.01703-2.78355477 4.80133-110.51652514z" fill="#f57900"/><g fill="#ce5c00" stroke="#000" stroke-width=".916757pt"><path d="m2051.45678231 1781.54422869 61.67765-23.62497283 3.55226-3.63517314.005-4.25118787-3.10224-2.34577233-62.56529 24.1086256-3.10869 3.60590239-.005 4.25118787 3.54632 1.89139032z"/><path d="m2055.79842231 1868.40101048 53.24703-20.51799382 3.55225-3.63515642.005-4.25121295-3.10225-2.34577233-54.13465 21.0016633-3.10868 3.60588567-.005 4.25122131z"/><path d="m2054.04296231 1851.08820566 55.4658-21.51461189 3.55225-3.63517314.005-4.25118787-3.10225-2.34578905-56.35343 21.99829809-3.10869 3.60589403-.005 4.25119623z"/><path d="m2052.95190231 1834.58173395 58.12818-22.54052579 3.55225-3.63517314.005-4.25117951-3.10226-2.34578069-59.01579 23.02417856-3.10867 3.60589403-.005 4.25120459 3.54629 1.89138196z"/><path d="m2052.74847231 1817.59157604 59.01578-23.02418692 3.55225-3.63517314.005-4.25119623-3.10225-2.34578905-59.9034 23.50786476-3.10867 3.60590239-.005 4.25120459z"/><path d="m2051.88106231 1799.36998211 60.3465-23.11202424 3.55225-3.63516478.005-4.25118787-3.10225-2.34579741-61.23412 23.59569373-3.10867 3.60591075-.005 4.25118787 3.54629 1.89138196z"/></g></g><path d="m2370 1265 15 295h70l15-295-50-70z" stroke="#000" stroke-width=".916757pt"/><path d="m2370 1265 15 295 34-.57452426v-363.42547574z" fill="url(#w)"/><path d="m2380 1700 10 15h60l10-15z" stroke="#000" stroke-width=".916757pt"/><path d="m2470 1265-15 295-34-.49718446v-363.50281554z" fill="url(#t)"/><path d="m2340 1560v35l80-10 80 10v-35h-80z" stroke="#000" stroke-width=".916757pt"/><path d="m2500 1560v35l-79-10v-25z" fill="url(#s)"/><path d="m2340 1560v35l79-10v-25z" fill="url(#r)"/><path d="m2355 1675 5 25h120l5-25z" stroke="#000" stroke-width=".916757pt"/><path d="m2355 1675 5 25h59.6015625v-25z" fill="url(#q)"/><path d="m2485 1675-5 25h-59.59765625v-25z" fill="url(#u)"/><path d="m2380 1700.55242717 10 14.44757283h60l10.00552427-14.44757283z" fill="url(#v)"/></g><g transform="translate(-2001.677028 -1369.677026)"><path d="m2048.16187231 1743.01913152 1.8883 28.74025801-2.07131 3.34017546-.50169 4.71523208 3.22177 1.85886819.43861 7.63302944-2.73423 3.61752042.11924 4.57154462 2.9267 2.01180828.97197 8.03424433-.0403.00250749-3.35747 3.00904487.24308 4.83811574 3.54757 1.90150386-.24985 7.25766675-2.98599 3.90888224-.12843 3.93827837 3.54757 1.90150386.79948 6.72123134-3.35443 3.111551-.25383 5.10970183 3.92038 1.56876847.12099-.04128998.0391 1.09861435 20.61313-1.06019127-19.45038 7.55722805-3.10982 3.60893645-.005 4.23822416 3.54757 1.90150386 48.74688-18.80094082 4.63896-.23944009.0825-1.74065682 3.43497-2.98599269-.11916-4.64088504-2.15693-2.22686722-.37235-8.81833603 3.60883-2.93851757-.61608-4.3333332-2.20675-2.16204028-.0419-7.36669235 3.95974-3.35432605.50144-4.47641886-3.72394-2.52907811.62818-6.87440547 3.13484-3.98545259.004-4.03279397-3.10315-2.57005048.66667-8.08084183 2.8956-3.63337611.005-4.23822416-2.36165-2.31346752-.24889-8.19245851 3.51317-3.60219131.005-4.23822416-3.0631-2.3005456.3726-8.86749952-65.88739 4.44854394z" stroke="#000" stroke-width="1.127007pt"/><path d="m2049.62374231 1742.26134338 4.56343 109.89842919 55.01703-2.78355477 4.80133-110.51652514z" fill="#f57900"/><g fill="#ce5c00" stroke="#000" stroke-width=".916757pt"><path d="m2051.45678231 1781.54422869 61.67765-23.62497283 3.55226-3.63517314.005-4.25118787-3.10224-2.34577233-62.56529 24.1086256-3.10869 3.60590239-.005 4.25118787 3.54632 1.89139032z"/><path d="m2055.79842231 1868.40101048 53.24703-20.51799382 3.55225-3.63515642.005-4.25121295-3.10225-2.34577233-54.13465 21.0016633-3.10868 3.60588567-.005 4.25122131z"/><path d="m2054.04296231 1851.08820566 55.4658-21.51461189 3.55225-3.63517314.005-4.25118787-3.10225-2.34578905-56.35343 21.99829809-3.10869 3.60589403-.005 4.25119623z"/><path d="m2052.95190231 1834.58173395 58.12818-22.54052579 3.55225-3.63517314.005-4.25117951-3.10226-2.34578069-59.01579 23.02417856-3.10867 3.60589403-.005 4.25120459 3.54629 1.89138196z"/><path d="m2052.74847231 1817.59157604 59.01578-23.02418692 3.55225-3.63517314.005-4.25119623-3.10225-2.34578905-59.9034 23.50786476-3.10867 3.60590239-.005 4.25120459z"/><path d="m2051.88106231 1799.36998211 60.3465-23.11202424 3.55225-3.63516478.005-4.25118787-3.10225-2.34579741-61.23412 23.59569373-3.10867 3.60591075-.005 4.25118787 3.54629 1.89138196z"/></g></g><g stroke="#000" stroke-width=".916757pt"><path d="m30.57297343 70.57297343 15 295h70l15-295-50-70z"/><path d="m40.57297343 505.57297343 10 15h60l10-15z"/><path d="m.57297343 365.57297343v35l80-10 80 10v-35h-80-80z"/></g><path d="m160.57297343 365.57297343v35l-79-10v-25z" fill="url(#B)"/><path d="m.57297343 365.57297343v35l79-10v-25h-79z" fill="url(#A)"/><path d="m15.57297343 480.57297343 5 25h120l5-25h-130z" stroke="#000" stroke-width=".916757pt"/><path d="m15.57297343 480.57297343 5 25h59.6015625v-25h-64.6015625z" fill="url(#z)"/><path d="m145.57297343 480.57297343-5 25h-59.59765625v-25z" fill="url(#y)"/><path d="m40.57297343 506.1254006 10 14.44757283h60l10.00552427-14.44757283z" fill="url(#x)"/><path d="m130.57297343 70.57297343-15 295-34.59765625-.50109071v-364.4989211l49.59765625 70.0000118z" fill="url(#C)" stroke="#555753"/><path d="m30.57297343 70.57297343 15 295 34.6015625-.54796571v-364.4520461z" fill="url(#D)" stroke="#888a85"/></g><g transform="matrix(.24195481 .1114904 -.11282538 .23909193 73.111508 1334.335437)"><g transform="translate(-2339.427027 -1194.427027)"><g transform="translate(337.749999 -175.249999)"><path d="m2048.16187231 1743.01913152 1.8883 28.74025801-2.07131 3.34017546-.50169 4.71523208 3.22177 1.85886819.43861 7.63302944-2.73423 3.61752042.11924 4.57154462 2.9267 2.01180828.97197 8.03424433-.0403.00250749-3.35747 3.00904487.24308 4.83811574 3.54757 1.90150386-.24985 7.25766675-2.98599 3.90888224-.12843 3.93827837 3.54757 1.90150386.79948 6.72123134-3.35443 3.111551-.25383 5.10970183 3.92038 1.56876847.12099-.04128998.0391 1.09861435 20.61313-1.06019127-19.45038 7.55722805-3.10982 3.60893645-.005 4.23822416 3.54757 1.90150386 48.74688-18.80094082 4.63896-.23944009.0825-1.74065682 3.43497-2.98599269-.11916-4.64088504-2.15693-2.22686722-.37235-8.81833603 3.60883-2.93851757-.61608-4.3333332-2.20675-2.16204028-.0419-7.36669235 3.95974-3.35432605.50144-4.47641886-3.72394-2.52907811.62818-6.87440547 3.13484-3.98545259.004-4.03279397-3.10315-2.57005048.66667-8.08084183 2.8956-3.63337611.005-4.23822416-2.36165-2.31346752-.24889-8.19245851 3.51317-3.60219131.005-4.23822416-3.0631-2.3005456.3726-8.86749952-65.88739 4.44854394z" stroke="#000" stroke-width="1.127007pt"/><path d="m2049.62374231 1742.26134338 4.56343 109.89842919 55.01703-2.78355477 4.80133-110.51652514z" fill="#f57900"/><g fill="#ce5c00" stroke="#000" stroke-width=".916757pt"><path d="m2051.45678231 1781.54422869 61.67765-23.62497283 3.55226-3.63517314.005-4.25118787-3.10224-2.34577233-62.56529 24.1086256-3.10869 3.60590239-.005 4.25118787 3.54632 1.89139032z"/><path d="m2055.79842231 1868.40101048 53.24703-20.51799382 3.55225-3.63515642.005-4.25121295-3.10225-2.34577233-54.13465 21.0016633-3.10868 3.60588567-.005 4.25122131z"/><path d="m2054.04296231 1851.08820566 55.4658-21.51461189 3.55225-3.63517314.005-4.25118787-3.10225-2.34578905-56.35343 21.99829809-3.10869 3.60589403-.005 4.25119623z"/><path d="m2052.95190231 1834.58173395 58.12818-22.54052579 3.55225-3.63517314.005-4.25117951-3.10226-2.34578069-59.01579 23.02417856-3.10867 3.60589403-.005 4.25120459 3.54629 1.89138196z"/><path d="m2052.74847231 1817.59157604 59.01578-23.02418692 3.55225-3.63517314.005-4.25119623-3.10225-2.34578905-59.9034 23.50786476-3.10867 3.60590239-.005 4.25120459z"/><path d="m2051.88106231 1799.36998211 60.3465-23.11202424 3.55225-3.63516478.005-4.25118787-3.10225-2.34579741-61.23412 23.59569373-3.10867 3.60591075-.005 4.25118787 3.54629 1.89138196z"/></g></g><path d="m2370 1265 15 295h70l15-295-50-70z" stroke="#000" stroke-width=".916757pt"/><path d="m2370 1265 15 295 34-.57452426v-363.42547574z" fill="url(#w)"/><path d="m2380 1700 10 15h60l10-15z" stroke="#000" stroke-width=".916757pt"/><path d="m2470 1265-15 295-34-.49718446v-363.50281554z" fill="url(#t)"/><path d="m2340 1560v35l80-10 80 10v-35h-80z" stroke="#000" stroke-width=".916757pt"/><path d="m2500 1560v35l-79-10v-25z" fill="url(#s)"/><path d="m2340 1560v35l79-10v-25z" fill="url(#r)"/><path d="m2355 1675 5 25h120l5-25z" stroke="#000" stroke-width=".916757pt"/><path d="m2355 1675 5 25h59.6015625v-25z" fill="url(#q)"/><path d="m2485 1675-5 25h-59.59765625v-25z" fill="url(#u)"/><path d="m2380 1700.55242717 10 14.44757283h60l10.00552427-14.44757283z" fill="url(#v)"/></g><g transform="translate(-2001.677028 -1369.677026)"><path d="m2048.16187231 1743.01913152 1.8883 28.74025801-2.07131 3.34017546-.50169 4.71523208 3.22177 1.85886819.43861 7.63302944-2.73423 3.61752042.11924 4.57154462 2.9267 2.01180828.97197 8.03424433-.0403.00250749-3.35747 3.00904487.24308 4.83811574 3.54757 1.90150386-.24985 7.25766675-2.98599 3.90888224-.12843 3.93827837 3.54757 1.90150386.79948 6.72123134-3.35443 3.111551-.25383 5.10970183 3.92038 1.56876847.12099-.04128998.0391 1.09861435 20.61313-1.06019127-19.45038 7.55722805-3.10982 3.60893645-.005 4.23822416 3.54757 1.90150386 48.74688-18.80094082 4.63896-.23944009.0825-1.74065682 3.43497-2.98599269-.11916-4.64088504-2.15693-2.22686722-.37235-8.81833603 3.60883-2.93851757-.61608-4.3333332-2.20675-2.16204028-.0419-7.36669235 3.95974-3.35432605.50144-4.47641886-3.72394-2.52907811.62818-6.87440547 3.13484-3.98545259.004-4.03279397-3.10315-2.57005048.66667-8.08084183 2.8956-3.63337611.005-4.23822416-2.36165-2.31346752-.24889-8.19245851 3.51317-3.60219131.005-4.23822416-3.0631-2.3005456.3726-8.86749952-65.88739 4.44854394z" stroke="#000" stroke-width="1.127007pt"/><path d="m2049.62374231 1742.26134338 4.56343 109.89842919 55.01703-2.78355477 4.80133-110.51652514z" fill="#f57900"/><g fill="#ce5c00" stroke="#000" stroke-width=".916757pt"><path d="m2051.45678231 1781.54422869 61.67765-23.62497283 3.55226-3.63517314.005-4.25118787-3.10224-2.34577233-62.56529 24.1086256-3.10869 3.60590239-.005 4.25118787 3.54632 1.89139032z"/><path d="m2055.79842231 1868.40101048 53.24703-20.51799382 3.55225-3.63515642.005-4.25121295-3.10225-2.34577233-54.13465 21.0016633-3.10868 3.60588567-.005 4.25122131z"/><path d="m2054.04296231 1851.08820566 55.4658-21.51461189 3.55225-3.63517314.005-4.25118787-3.10225-2.34578905-56.35343 21.99829809-3.10869 3.60589403-.005 4.25119623z"/><path d="m2052.95190231 1834.58173395 58.12818-22.54052579 3.55225-3.63517314.005-4.25117951-3.10226-2.34578069-59.01579 23.02417856-3.10867 3.60589403-.005 4.25120459 3.54629 1.89138196z"/><path d="m2052.74847231 1817.59157604 59.01578-23.02418692 3.55225-3.63517314.005-4.25119623-3.10225-2.34578905-59.9034 23.50786476-3.10867 3.60590239-.005 4.25120459z"/><path d="m2051.88106231 1799.36998211 60.3465-23.11202424 3.55225-3.63516478.005-4.25118787-3.10225-2.34579741-61.23412 23.59569373-3.10867 3.60591075-.005 4.25118787 3.54629 1.89138196z"/></g></g><g stroke="#000" stroke-width=".916757pt"><path d="m30.57297343 70.57297343 15 295h70l15-295-50-70z"/><path d="m40.57297343 505.57297343 10 15h60l10-15z"/><path d="m.57297343 365.57297343v35l80-10 80 10v-35h-80-80z"/></g><path d="m160.57297343 365.57297343v35l-79-10v-25z" fill="url(#B)"/><path d="m.57297343 365.57297343v35l79-10v-25h-79z" fill="url(#A)"/><path d="m15.57297343 480.57297343 5 25h120l5-25h-130z" stroke="#000" stroke-width=".916757pt"/><path d="m15.57297343 480.57297343 5 25h59.6015625v-25h-64.6015625z" fill="url(#z)"/><path d="m145.57297343 480.57297343-5 25h-59.59765625v-25z" fill="url(#y)"/><path d="m40.57297343 506.1254006 10 14.44757283h60l10.00552427-14.44757283z" fill="url(#x)"/><path d="m130.57297343 70.57297343-15 295-34.59765625-.50109071v-364.4989211z" fill="url(#C)" stroke="#555753"/><path d="m30.57297343 70.57297343 15 295 34.6015625-.54796571v-364.4520461z" fill="url(#D)" stroke="#888a85"/></g><g transform="translate(-523.313469 -106.155513)"><g transform="matrix(.90630779 .42261826 -.42261826 .90630779 -559.524321 -1263.702655)"><g transform="translate(337.749999 -175.249999)"><path d="m2048.16187231 1743.01913152 1.8883 28.74025801-2.07131 3.34017546-.50169 4.71523208 3.22177 1.85886819.43861 7.63302944-2.73423 3.61752042.11924 4.57154462 2.9267 2.01180828.97197 8.03424433-.0403.00250749-3.35747 3.00904487.24308 4.83811574 3.54757 1.90150386-.24985 7.25766675-2.98599 3.90888224-.12843 3.93827837 3.54757 1.90150386.79948 6.72123134-3.35443 3.111551-.25383 5.10970183 3.92038 1.56876847.12099-.04128998.0391 1.09861435 20.61313-1.06019127-19.45038 7.55722805-3.10982 3.60893645-.005 4.23822416 3.54757 1.90150386 48.74688-18.80094082 4.63896-.23944009.0825-1.74065682 3.43497-2.98599269-.11916-4.64088504-2.15693-2.22686722-.37235-8.81833603 3.60883-2.93851757-.61608-4.3333332-2.20675-2.16204028-.0419-7.36669235 3.95974-3.35432605.50144-4.47641886-3.72394-2.52907811.62818-6.87440547 3.13484-3.98545259.004-4.03279397-3.10315-2.57005048.66667-8.08084183 2.8956-3.63337611.005-4.23822416-2.36165-2.31346752-.24889-8.19245851 3.51317-3.60219131.005-4.23822416-3.0631-2.3005456.3726-8.86749952-65.88739 4.44854394z" stroke="#000" stroke-width="1.127007pt"/><path d="m2049.62374231 1742.26134338 4.56343 109.89842919 55.01703-2.78355477 4.80133-110.51652514z" fill="#f57900"/><g fill="#ce5c00" stroke="#000" stroke-width=".916757pt"><path d="m2051.45678231 1781.54422869 61.67765-23.62497283 3.55226-3.63517314.005-4.25118787-3.10224-2.34577233-62.56529 24.1086256-3.10869 3.60590239-.005 4.25118787 3.54632 1.89139032z"/><path d="m2055.79842231 1868.40101048 53.24703-20.51799382 3.55225-3.63515642.005-4.25121295-3.10225-2.34577233-54.13465 21.0016633-3.10868 3.60588567-.005 4.25122131z"/><path d="m2054.04296231 1851.08820566 55.4658-21.51461189 3.55225-3.63517314.005-4.25118787-3.10225-2.34578905-56.35343 21.99829809-3.10869 3.60589403-.005 4.25119623z"/><path d="m2052.95190231 1834.58173395 58.12818-22.54052579 3.55225-3.63517314.005-4.25117951-3.10226-2.34578069-59.01579 23.02417856-3.10867 3.60589403-.005 4.25120459 3.54629 1.89138196z"/><path d="m2052.74847231 1817.59157604 59.01578-23.02418692 3.55225-3.63517314.005-4.25119623-3.10225-2.34578905-59.9034 23.50786476-3.10867 3.60590239-.005 4.25120459z"/><path d="m2051.88106231 1799.36998211 60.3465-23.11202424 3.55225-3.63516478.005-4.25118787-3.10225-2.34579741-61.23412 23.59569373-3.10867 3.60591075-.005 4.25118787 3.54629 1.89138196z"/></g></g><path d="m2370 1265 15 295h70l15-295-50-70z" stroke="#000" stroke-width=".916757pt"/><path d="m2370 1265 15 295 34-.57452426v-363.42547574z" fill="url(#w)"/><path d="m2380 1700 10 15h60l10-15z" stroke="#000" stroke-width=".916757pt"/><path d="m2470 1265-15 295-34-.49718446v-363.50281554z" fill="url(#t)"/><path d="m2340 1560v35l80-10 80 10v-35h-80z" stroke="#000" stroke-width=".916757pt"/><path d="m2500 1560v35l-79-10v-25z" fill="url(#s)"/><path d="m2340 1560v35l79-10v-25z" fill="url(#r)"/><path d="m2355 1675 5 25h120l5-25z" stroke="#000" stroke-width=".916757pt"/><path d="m2355 1675 5 25h59.6015625v-25z" fill="url(#q)"/><path d="m2485 1675-5 25h-59.59765625v-25z" fill="url(#u)"/><path d="m2380 1700.55242717 10 14.44757283h60l10.00552427-14.44757283z" fill="url(#v)"/></g><g transform="matrix(.90630779 .42261826 -.42261826 .90630779 -179.355018 -1279.793777)"><path d="m2048.16187231 1743.01913152 1.8883 28.74025801-2.07131 3.34017546-.50169 4.71523208 3.22177 1.85886819.43861 7.63302944-2.73423 3.61752042.11924 4.57154462 2.9267 2.01180828.97197 8.03424433-.0403.00250749-3.35747 3.00904487.24308 4.83811574 3.54757 1.90150386-.24985 7.25766675-2.98599 3.90888224-.12843 3.93827837 3.54757 1.90150386.79948 6.72123134-3.35443 3.111551-.25383 5.10970183 3.92038 1.56876847.12099-.04128998.0391 1.09861435 20.61313-1.06019127-19.45038 7.55722805-3.10982 3.60893645-.005 4.23822416 3.54757 1.90150386 48.74688-18.80094082 4.63896-.23944009.0825-1.74065682 3.43497-2.98599269-.11916-4.64088504-2.15693-2.22686722-.37235-8.81833603 3.60883-2.93851757-.61608-4.3333332-2.20675-2.16204028-.0419-7.36669235 3.95974-3.35432605.50144-4.47641886-3.72394-2.52907811.62818-6.87440547 3.13484-3.98545259.004-4.03279397-3.10315-2.57005048.66667-8.08084183 2.8956-3.63337611.005-4.23822416-2.36165-2.31346752-.24889-8.19245851 3.51317-3.60219131.005-4.23822416-3.0631-2.3005456.3726-8.86749952-65.88739 4.44854394z" stroke="#000" stroke-width="1.127007pt"/><path d="m2049.62374231 1742.26134338 4.56343 109.89842919 55.01703-2.78355477 4.80133-110.51652514z" fill="#f57900"/><g fill="#ce5c00" stroke="#000" stroke-width=".916757pt"><path d="m2051.45678231 1781.54422869 61.67765-23.62497283 3.55226-3.63517314.005-4.25118787-3.10224-2.34577233-62.56529 24.1086256-3.10869 3.60590239-.005 4.25118787 3.54632 1.89139032z"/><path d="m2055.79842231 1868.40101048 53.24703-20.51799382 3.55225-3.63515642.005-4.25121295-3.10225-2.34577233-54.13465 21.0016633-3.10868 3.60588567-.005 4.25122131z"/><path d="m2054.04296231 1851.08820566 55.4658-21.51461189 3.55225-3.63517314.005-4.25118787-3.10225-2.34578905-56.35343 21.99829809-3.10869 3.60589403-.005 4.25119623z"/><path d="m2052.95190231 1834.58173395 58.12818-22.54052579 3.55225-3.63517314.005-4.25117951-3.10226-2.34578069-59.01579 23.02417856-3.10867 3.60589403-.005 4.25120459 3.54629 1.89138196z"/><path d="m2052.74847231 1817.59157604 59.01578-23.02418692 3.55225-3.63517314.005-4.25119623-3.10225-2.34578905-59.9034 23.50786476-3.10867 3.60590239-.005 4.25120459z"/><path d="m2051.88106231 1799.36998211 60.3465-23.11202424 3.55225-3.63516478.005-4.25118787-3.10225-2.34579741-61.23412 23.59569373-3.10867 3.60591075-.005 4.25118787 3.54629 1.89138196z"/></g></g><g stroke="#000" stroke-width=".916757pt"><path d="m1053.81303274 884.38197592-111.07777041 273.7000711 63.44154509 29.58327832 138.26700402-261.02152325-15.73211103-84.57245818z"/><path d="m879.03716675 1282.8520459 2.72380394 17.82079942 54.37846722 25.3570957 15.4023518-9.36843419-72.50462296-33.80946094z"/><path d="m901.95141191 1139.06422525-14.79163916 31.72077255 76.73080558 24.74638307 68.27844035 42.87253881 14.79163916-31.72077255-72.50462296-33.80946094-72.50462296-33.80946094z"/></g><path d="m1046.96065784 1206.68314713-14.79163916 31.72077255-67.37213256-42.44992055 10.56545654-22.65769468z" fill="url(#R)"/><path d="m901.95141191 1139.06422525-14.79163916 31.72077255 75.82449779 24.32376481 10.56545654-22.65769468-71.59831518-33.38684268z" fill="url(#Q)"/><path d="m866.94492862 1249.62889468-6.03391761 24.77078598 108.75693444 50.71419141 15.09699548-20.54460337-117.82001231-54.94037403z" stroke="#000" stroke-width=".916757pt"/><path d="m866.94492862 1249.62889468-6.03391761 24.77078598 54.01736022 25.18870874 10.56545654-22.65769468-58.54889915-27.30180005z" fill="url(#P)"/><path d="m984.76494093 1304.56926871-15.09699548 20.54460337-54.01381995-25.18705789 10.56545654-22.65769468 58.54535888 27.3001492z" fill="url(#O)"/><path d="m878.80370094 1283.35271495 2.95726976 17.32013037 54.37846722 25.3570957 15.17389268-8.86543048-72.50962965-33.8117956z" fill="url(#N)"/><path d="m1144.44381144 926.6438021-138.26700402 261.02152325-31.14435519-15.07574375 154.04390044-330.34821056z" fill="url(#M)" stroke="#555753"/><path d="m1053.81303274 884.38197592-111.07777041 273.7000711 31.59124585 14.12662661 154.02409021-330.30572738-74.53756565 42.47902966z" fill="url(#L)" stroke="#888a85"/></g><g transform="translate(-503.294342 -171.434635)"><g transform="matrix(.24195481 .1114904 -.11282538 .23909193 519.152137 962.460754)"><g transform="translate(337.749999 -175.249999)"><path d="m2048.16187231 1743.01913152 1.8883 28.74025801-2.07131 3.34017546-.50169 4.71523208 3.22177 1.85886819.43861 7.63302944-2.73423 3.61752042.11924 4.57154462 2.9267 2.01180828.97197 8.03424433-.0403.00250749-3.35747 3.00904487.24308 4.83811574 3.54757 1.90150386-.24985 7.25766675-2.98599 3.90888224-.12843 3.93827837 3.54757 1.90150386.79948 6.72123134-3.35443 3.111551-.25383 5.10970183 3.92038 1.56876847.12099-.04128998.0391 1.09861435 20.61313-1.06019127-19.45038 7.55722805-3.10982 3.60893645-.005 4.23822416 3.54757 1.90150386 48.74688-18.80094082 4.63896-.23944009.0825-1.74065682 3.43497-2.98599269-.11916-4.64088504-2.15693-2.22686722-.37235-8.81833603 3.60883-2.93851757-.61608-4.3333332-2.20675-2.16204028-.0419-7.36669235 3.95974-3.35432605.50144-4.47641886-3.72394-2.52907811.62818-6.87440547 3.13484-3.98545259.004-4.03279397-3.10315-2.57005048.66667-8.08084183 2.8956-3.63337611.005-4.23822416-2.36165-2.31346752-.24889-8.19245851 3.51317-3.60219131.005-4.23822416-3.0631-2.3005456.3726-8.86749952-65.88739 4.44854394z" stroke="#000" stroke-width="1.127007pt"/><path d="m2049.62374231 1742.26134338 4.56343 109.89842919 55.01703-2.78355477 4.80133-110.51652514z" fill="#f57900"/><g fill="#ce5c00" stroke="#000" stroke-width=".916757pt"><path d="m2051.45678231 1781.54422869 61.67765-23.62497283 3.55226-3.63517314.005-4.25118787-3.10224-2.34577233-62.56529 24.1086256-3.10869 3.60590239-.005 4.25118787 3.54632 1.89139032z"/><path d="m2055.79842231 1868.40101048 53.24703-20.51799382 3.55225-3.63515642.005-4.25121295-3.10225-2.34577233-54.13465 21.0016633-3.10868 3.60588567-.005 4.25122131z"/><path d="m2054.04296231 1851.08820566 55.4658-21.51461189 3.55225-3.63517314.005-4.25118787-3.10225-2.34578905-56.35343 21.99829809-3.10869 3.60589403-.005 4.25119623z"/><path d="m2052.95190231 1834.58173395 58.12818-22.54052579 3.55225-3.63517314.005-4.25117951-3.10226-2.34578069-59.01579 23.02417856-3.10867 3.60589403-.005 4.25120459 3.54629 1.89138196z"/><path d="m2052.74847231 1817.59157604 59.01578-23.02418692 3.55225-3.63517314.005-4.25119623-3.10225-2.34578905-59.9034 23.50786476-3.10867 3.60590239-.005 4.25120459z"/><path d="m2051.88106231 1799.36998211 60.3465-23.11202424 3.55225-3.63516478.005-4.25118787-3.10225-2.34579741-61.23412 23.59569373-3.10867 3.60591075-.005 4.25118787 3.54629 1.89138196z"/></g></g><path d="m2370 1265 15 295h70l15-295-50-70z" stroke="#000" stroke-width=".916757pt"/><path d="m2370 1265 15 295 34-.57452426v-363.42547574z" fill="url(#w)"/><path d="m2380 1700 10 15h60l10-15z" stroke="#000" stroke-width=".916757pt"/><path d="m2470 1265-15 295-34-.49718446v-363.50281554z" fill="url(#t)"/><path d="m2340 1560v35l80-10 80 10v-35h-80z" stroke="#000" stroke-width=".916757pt"/><path d="m2500 1560v35l-79-10v-25z" fill="url(#s)"/><path d="m2340 1560v35l79-10v-25z" fill="url(#r)"/><path d="m2355 1675 5 25h120l5-25z" stroke="#000" stroke-width=".916757pt"/><path d="m2355 1675 5 25h59.6015625v-25z" fill="url(#q)"/><path d="m2485 1675-5 25h-59.59765625v-25z" fill="url(#u)"/><path d="m2380 1700.55242717 10 14.44757283h60l10.00552427-14.44757283z" fill="url(#v)"/></g><path d="m949.8609274 1529.14428841-29.65416502 72.20447526 16.9368366 7.80432785 36.91280928-68.85976333-4.19996382-22.31095498-19.99551704 11.16191519z" stroke="#000" stroke-width=".243292pt"/><path d="m949.8609274 1529.14428841-29.65416502 72.20447526 8.43383887 3.72672779 41.11944066-87.13754302z" fill="url(#S)" stroke="#888a85" stroke-width=".3"/><path d="m974.05640826 1540.2933282-36.91280928 68.85976333-8.31453355-3.9771132 41.12472935-87.14875046 4.10261348 22.26610034z" fill="url(#T)" stroke="#555753" stroke-width=".3"/><g transform="matrix(.24195481 .1114904 -.11282538 .23909193 620.645021 958.215775)"><path d="m2048.16187231 1743.01913152 1.8883 28.74025801-2.07131 3.34017546-.50169 4.71523208 3.22177 1.85886819.43861 7.63302944-2.73423 3.61752042.11924 4.57154462 2.9267 2.01180828.97197 8.03424433-.0403.00250749-3.35747 3.00904487.24308 4.83811574 3.54757 1.90150386-.24985 7.25766675-2.98599 3.90888224-.12843 3.93827837 3.54757 1.90150386.79948 6.72123134-3.35443 3.111551-.25383 5.10970183 3.92038 1.56876847.12099-.04128998.0391 1.09861435 20.61313-1.06019127-19.45038 7.55722805-3.10982 3.60893645-.005 4.23822416 3.54757 1.90150386 48.74688-18.80094082 4.63896-.23944009.0825-1.74065682 3.43497-2.98599269-.11916-4.64088504-2.15693-2.22686722-.37235-8.81833603 3.60883-2.93851757-.61608-4.3333332-2.20675-2.16204028-.0419-7.36669235 3.95974-3.35432605.50144-4.47641886-3.72394-2.52907811.62818-6.87440547 3.13484-3.98545259.004-4.03279397-3.10315-2.57005048.66667-8.08084183 2.8956-3.63337611.005-4.23822416-2.36165-2.31346752-.24889-8.19245851 3.51317-3.60219131.005-4.23822416-3.0631-2.3005456.3726-8.86749952-65.88739 4.44854394z" stroke="#000" stroke-width="1.127007pt"/><path d="m2049.62374231 1742.26134338 4.56343 109.89842919 55.01703-2.78355477 4.80133-110.51652514z" fill="#f57900"/><g fill="#ce5c00" stroke="#000" stroke-width=".916757pt"><path d="m2051.45678231 1781.54422869 61.67765-23.62497283 3.55226-3.63517314.005-4.25118787-3.10224-2.34577233-62.56529 24.1086256-3.10869 3.60590239-.005 4.25118787 3.54632 1.89139032z"/><path d="m2055.79842231 1868.40101048 53.24703-20.51799382 3.55225-3.63515642.005-4.25121295-3.10225-2.34577233-54.13465 21.0016633-3.10868 3.60588567-.005 4.25122131z"/><path d="m2054.04296231 1851.08820566 55.4658-21.51461189 3.55225-3.63517314.005-4.25118787-3.10225-2.34578905-56.35343 21.99829809-3.10869 3.60589403-.005 4.25119623z"/><path d="m2052.95190231 1834.58173395 58.12818-22.54052579 3.55225-3.63517314.005-4.25117951-3.10226-2.34578069-59.01579 23.02417856-3.10867 3.60589403-.005 4.25120459 3.54629 1.89138196z"/><path d="m2052.74847231 1817.59157604 59.01578-23.02418692 3.55225-3.63517314.005-4.25119623-3.10225-2.34578905-59.9034 23.50786476-3.10867 3.60590239-.005 4.25120459z"/><path d="m2051.88106231 1799.36998211 60.3465-23.11202424 3.55225-3.63516478.005-4.25118787-3.10225-2.34579741-61.23412 23.59569373-3.10867 3.60591075-.005 4.25118787 3.54629 1.89138196z"/></g></g><path d="m903.20143511 1634.26418186.72716738 4.70128293 14.51728852 6.68942387 4.11192879-2.47147497z" stroke="#000" stroke-width=".243292pt"/><path d="m909.31879599 1596.33169577-3.94888831 8.36821754 20.48463849 6.52831253 18.22813089 11.31015113 3.94888831-8.36821754-19.35638469-8.91923183z" stroke="#000" stroke-width=".243292pt"/><path d="m948.03156537 1614.17015943-3.94888831 8.36821754-17.98617608-11.19866073 2.8206345-5.97729825 19.11442988 8.80774143z" fill="url(#Y)"/><path d="m909.31879599 1596.33169577-3.94888831 8.36821754 20.24268368 6.41682213 2.8206345-5.97729825-19.11442988-8.80774143z" fill="url(#X)"/><path d="m899.9731994 1625.49962367-1.61086046 6.53475023 29.03457703 13.37884774 4.03040855-5.41984626-31.45412512-14.49375172z" stroke="#000" stroke-width=".243292pt"/><path d="m899.9731994 1625.49962367-1.61086046 6.53475023 14.42088465 6.64500192 2.8206345-5.97729825-15.63065869-7.20245391z" fill="url(#W)"/><path d="m931.42732452 1639.99337539-4.03040855 5.41984626-14.41993951-6.64456641 2.8206345-5.97729825 15.62971355 7.2020184z" fill="url(#V)"/><path d="m903.1391073 1634.39626274.78949519 4.56920205 14.51728852 6.68942387 4.05093761-2.33877819-19.35772131-8.91984773z" fill="url(#U)"/></g></g></g></svg>