<svg height="350pt" width="350pt" xmlns="http://www.w3.org/2000/svg" xmlns:xlink="http://www.w3.org/1999/xlink"><g fill="none"><g stroke="#ff5a0f" transform="translate(-1707.8538 -1230.2419)"><path id="a" d="m290.89889 610.08635s-164.87948-111.91864-164.14818-206.72173c.73274-94.98899 216.37451-166.1308 218.26631 11.24768" fill="none" stroke="#ff5a0f" stroke-linecap="round" stroke-linejoin="round" stroke-width="4"/><use id="b" fill="none" height="1052.3622" stroke="#ff5a0f" transform="matrix(-.5 -.866025 .866025 -.5 -40.51654 992.7163)" width="744.09448" xlink:href="#a"/><use fill="none" height="1052.3622" stroke="#ff5a0f" transform="matrix(-.5 -.866025 .866025 -.5 -42.44949 991.3512)" width="744.09448" xlink:href="#b"/></g><g stroke-width="30"><g stroke="#ff5a0f" transform="matrix(.99978189 0 0 .98894913 -1672.1278 -757.97591)"><path id="c" d="m290.89889 610.08635s-164.87948-111.91864-164.14818-206.72173c.73274-94.98899 216.37451-166.1308 218.26631 11.24768" fill="none" stroke="#ff5a0f" stroke-linecap="round" stroke-linejoin="round" stroke-width="30"/><use id="d" fill="none" height="1052.3622" stroke="#ff5a0f" stroke-width="30.000011" transform="matrix(-.5 -.866025 .866025 -.5 -40.51654 992.7163)" width="744.09448" xlink:href="#c"/><use fill="none" height="1052.3622" stroke="#ff5a0f" stroke-width="30.000011" transform="matrix(-.5 -.866025 .866025 -.5 -42.44949 991.3512)" width="744.09448" xlink:href="#d"/></g><g stroke="#f08b14" transform="matrix(.99978189 0 0 .98894913 -1072.3294 -757.97591)"><path id="e" d="m290.89889 610.08635s-164.87948-111.91864-164.14818-206.72173c.73274-94.98899 216.37451-166.1308 218.26631 11.24768" fill="none" stroke="#f08b14" stroke-linecap="round" stroke-linejoin="round" stroke-width="30"/><use id="f" fill="none" height="1052.3622" stroke="#f08b14" stroke-width="30.000011" transform="matrix(-.5 -.866025 .866025 -.5 -40.51654 992.7163)" width="744.09448" xlink:href="#e"/><use fill="none" height="1052.3622" stroke="#f08b14" stroke-width="30.000011" transform="matrix(-.5 -.866025 .866025 -.5 -42.44949 991.3512)" width="744.09448" xlink:href="#f"/></g><g stroke="#cf760d" transform="matrix(.99978189 0 0 .98894913 -45.703342 -757.97591)"><path id="g" d="m290.89889 610.08635s-164.87948-111.91864-164.14818-206.72173c.73274-94.98899 216.37451-166.1308 218.26631 11.24768" fill="none" stroke="#cf760d" stroke-linecap="round" stroke-linejoin="round" stroke-width="30"/><use id="h" fill="none" height="1052.3622" stroke="#cf760d" stroke-width="30.000011" transform="matrix(-.5 -.866025 .866025 -.5 -40.51654 992.7163)" width="744.09448" xlink:href="#g"/><use fill="none" height="1052.3622" stroke="#cf760d" stroke-width="30.000011" transform="matrix(-.5 -.866025 .866025 -.5 -42.44949 991.3512)" width="744.09448" xlink:href="#h"/></g><g stroke="#a9600b" transform="matrix(.99978189 0 0 .98894913 950.91256 -757.97591)"><path id="i" d="m290.89889 610.08635s-164.87948-111.91864-164.14818-206.72173c.73274-94.98899 216.37451-166.1308 218.26631 11.24768" fill="none" stroke="#a9600b" stroke-linecap="round" stroke-linejoin="round" stroke-width="30"/><use id="j" fill="none" height="1052.3622" stroke="#a9600b" stroke-width="30.000011" transform="matrix(-.5 -.866025 .866025 -.5 -40.51654 992.7163)" width="744.09448" xlink:href="#i"/><use fill="none" height="1052.3622" stroke="#a9600b" stroke-width="30.000011" transform="matrix(-.5 -.866025 .866025 -.5 -42.44949 991.3512)" width="744.09448" xlink:href="#j"/></g><g stroke="#f08c14" transform="matrix(.99978189 0 0 .98894913 -1063.5281 -273.60792)"><path id="k" d="m265.1479 591.11776c-15.44603-11.97367-36.03311-28.92609-56.59734-48.84112-20.56423-19.91502-41.1056-42.79264-56.46021-66.6167-15.35462-23.82405-25.52247-48.59455-25.33964-72.29532.0458-5.93681.93108-11.78047 2.5512-17.47612 1.62012-5.69566 3.97508-11.24331 6.96021-16.5881 2.98514-5.34479 6.60046-10.48673 10.74131-15.37096 4.14085-4.88422 8.80723-9.51074 13.89448-13.8247 5.08726-4.31396 10.59539-8.31535 16.41974-11.94934s11.96493-6.90056 18.31708-9.74487c6.35214-2.84431 12.91586-5.26635 19.58649-7.21128s13.44818-3.41275 20.228-4.34859c6.77981-.93585 13.56189-1.33973 20.24158-1.15678 6.67969.18294 13.25698.9527 19.62724 2.36413s12.53347 3.46454 18.38499 6.21416c5.85152 2.74963 11.39134 6.19578 16.51482 10.39331 5.12347 4.19752 9.8306 9.14642 14.01672 14.90155 4.18613 5.75513 7.85125 12.31648 10.89072 19.73891 3.03947 7.42244 5.45328 15.70595 7.13679 24.90539" fill="none" stroke="#f08c14" stroke-linecap="round" stroke-linejoin="round" stroke-width="30"/><use id="l" fill="none" height="1052.3622" stroke="#f08c14" stroke-width="30.000011" transform="matrix(-.5 -.866025 .866025 -.5 -40.51654 992.7163)" width="744.09448" xlink:href="#k"/><use fill="none" height="1052.3622" stroke="#f08c14" stroke-width="30.000011" transform="matrix(-.5 -.866025 .866025 -.5 -42.44949 991.3512)" width="744.09448" xlink:href="#l"/></g><g stroke="#cf760d" transform="matrix(.99978189 0 0 .98894913 -55.827309 -273.60792)"><path id="m" d="m265.1479 591.11776c-15.44603-11.97367-36.03311-28.92609-56.59734-48.84112-20.56423-19.91502-41.1056-42.79264-56.46021-66.6167-15.35462-23.82405-25.52247-48.59455-25.33964-72.29532.0458-5.93681.93108-11.78047 2.5512-17.47612 1.62012-5.69566 3.97508-11.24331 6.96021-16.5881 2.98514-5.34479 6.60046-10.48673 10.74131-15.37096 4.14085-4.88422 8.80723-9.51074 13.89448-13.8247 5.08726-4.31396 10.59539-8.31535 16.41974-11.94934s11.96493-6.90056 18.31708-9.74487c6.35214-2.84431 12.91586-5.26635 19.58649-7.21128s13.44818-3.41275 20.228-4.34859c6.77981-.93585 13.56189-1.33973 20.24158-1.15678 6.67969.18294 13.25698.9527 19.62724 2.36413s12.53347 3.46454 18.38499 6.21416c5.85152 2.74963 11.39134 6.19578 16.51482 10.39331 5.12347 4.19752 9.8306 9.14642 14.01672 14.90155 4.18613 5.75513 7.85125 12.31648 10.89072 19.73891 3.03947 7.42244 5.45328 15.70595 7.13679 24.90539" fill="none" stroke="#cf760d" stroke-linecap="round" stroke-linejoin="round" stroke-width="30"/><use id="n" fill="none" height="1052.3622" stroke="#cf760d" stroke-width="30.000011" transform="matrix(-.5 -.866025 .866025 -.5 -40.51654 992.7163)" width="744.09448" xlink:href="#m"/><use fill="none" height="1052.3622" stroke="#cf760d" stroke-width="30.000011" transform="matrix(-.5 -.866025 .866025 -.5 -42.44949 991.3512)" width="744.09448" xlink:href="#n"/></g><g stroke="#e2810e" transform="matrix(.99978189 0 0 .98894913 -547.07632 -273.60792)"><path id="o" d="m265.1479 591.11776c-15.44603-11.97367-36.03311-28.92609-56.59734-48.84112-20.56423-19.91502-41.1056-42.79264-56.46021-66.6167-15.35462-23.82405-25.52247-48.59455-25.33964-72.29532.0458-5.93681.93108-11.78047 2.5512-17.47612 1.62012-5.69566 3.97508-11.24331 6.96021-16.5881 2.98514-5.34479 6.60046-10.48673 10.74131-15.37096 4.14085-4.88422 8.80723-9.51074 13.89448-13.8247 5.08726-4.31396 10.59539-8.31535 16.41974-11.94934s11.96493-6.90056 18.31708-9.74487c6.35214-2.84431 12.91586-5.26635 19.58649-7.21128s13.44818-3.41275 20.228-4.34859c6.77981-.93585 13.56189-1.33973 20.24158-1.15678 6.67969.18294 13.25698.9527 19.62724 2.36413s12.53347 3.46454 18.38499 6.21416c5.85152 2.74963 11.39134 6.19578 16.51482 10.39331 5.12347 4.19752 9.8306 9.14642 14.01672 14.90155 4.18613 5.75513 7.85125 12.31648 10.89072 19.73891 3.03947 7.42244 5.45328 15.70595 7.13679 24.90539" fill="none" stroke="#e2810e" stroke-linecap="round" stroke-linejoin="round" stroke-width="30"/><use id="p" fill="none" height="1052.3622" stroke="#e2810e" stroke-width="30.000011" transform="matrix(-.5 -.866025 .866025 -.5 -40.51654 992.7163)" width="744.09448" xlink:href="#o"/><use fill="none" height="1052.3622" stroke="#e2810e" stroke-width="30.000011" transform="matrix(-.5 -.866025 .866025 -.5 -42.44949 991.3512)" width="744.09448" xlink:href="#p"/></g><g stroke="#bc6b0c" transform="matrix(.99978189 0 0 .98894913 485.82726 -273.60792)"><path id="q" d="m265.1479 591.11776c-15.44603-11.97367-36.03311-28.92609-56.59734-48.84112-20.56423-19.91502-41.1056-42.79264-56.46021-66.6167-15.35462-23.82405-25.52247-48.59455-25.33964-72.29532.0458-5.93681.93108-11.78047 2.5512-17.47612 1.62012-5.69566 3.97508-11.24331 6.96021-16.5881 2.98514-5.34479 6.60046-10.48673 10.74131-15.37096 4.14085-4.88422 8.80723-9.51074 13.89448-13.8247 5.08726-4.31396 10.59539-8.31535 16.41974-11.94934s11.96493-6.90056 18.31708-9.74487c6.35214-2.84431 12.91586-5.26635 19.58649-7.21128s13.44818-3.41275 20.228-4.34859c6.77981-.93585 13.56189-1.33973 20.24158-1.15678 6.67969.18294 13.25698.9527 19.62724 2.36413s12.53347 3.46454 18.38499 6.21416c5.85152 2.74963 11.39134 6.19578 16.51482 10.39331 5.12347 4.19752 9.8306 9.14642 14.01672 14.90155 4.18613 5.75513 7.85125 12.31648 10.89072 19.73891 3.03947 7.42244 5.45328 15.70595 7.13679 24.90539" fill="none" stroke="#bc6b0c" stroke-linecap="round" stroke-linejoin="round" stroke-width="30"/><use id="r" fill="none" height="1052.3622" stroke="#bc6b0c" stroke-width="30.000011" transform="matrix(-.5 -.866025 .866025 -.5 -40.51654 992.7163)" width="744.09448" xlink:href="#q"/><use fill="none" height="1052.3622" stroke="#bc6b0c" stroke-width="30.000011" transform="matrix(-.5 -.866025 .866025 -.5 -42.44949 991.3512)" width="744.09448" xlink:href="#r"/></g></g></g></svg>