<svg height="178.33052" width="187.78716" xmlns="http://www.w3.org/2000/svg" xmlns:xlink="http://www.w3.org/1999/xlink"><linearGradient id="a" gradientUnits="userSpaceOnUse" x1="-1061.878268" x2="-985.1436947" y1="3860.56549" y2="3955.367692"><stop offset="0" stop-color="#d2d2d2"/><stop offset="1" stop-color="#d2d2d2" stop-opacity="0"/></linearGradient><linearGradient id="b" gradientUnits="userSpaceOnUse" x1="1057.1428" x2="741.90479" y1="9.108214" y2="-215.19485"><stop offset="0" stop-color="#969696" stop-opacity=".916968"/><stop offset="1" stop-color="#dbdbdb"/></linearGradient><linearGradient id="c" gradientUnits="userSpaceOnUse" x1="-711.9214331" x2="-859.714286" y1="4048.981462" y2="3910.088323"><stop offset="0" stop-color="#575759"/><stop offset="1" stop-color="#919191" stop-opacity=".689531"/></linearGradient><linearGradient id="d" gradientUnits="userSpaceOnUse" x1="-562.2723251" x2="-685.4446106" y1="3979.271921" y2="3868.801088"><stop offset="0" stop-color="#393837"/><stop offset="1" stop-color="#828384" stop-opacity=".581227"/></linearGradient><filter id="e" color-interpolation-filters="sRGB"><feGaussianBlur stdDeviation="15.57748799811"/></filter><path d="m1120-22.637817-135 233.826857h-270l-135-233.826857 135-233.826863h270l135 233.826863z" fill="#141414" fill-opacity=".694075" filter="url(#e)" transform="matrix(.30545823 0 0 .09163747 -162.888781 148.40888)"/><g stroke="#000"><path d="m1120-22.637817-135 233.826857h-270l-135-233.826857 135-233.826863h270l135 233.826863z" fill="none" stroke-linecap="round" stroke-linejoin="round" stroke-width="5" transform="translate(-3043.121721 171.89908)"/><g fill="none" stroke-width="5" transform="translate(-2712.795321 -587.93681)"><path d="m1497.5 621.43786-101.25 87.68507h-202.5l-101.25-87.68507 101.25-87.68508h202.5z" stroke-linecap="round" stroke-linejoin="round"/><path d="m1565 915.44875-135 116.91345h-270l-135-116.91345 135-116.91343h270z" stroke-linecap="round" stroke-linejoin="round"/><path d="m1092.5 621.43786-67.5 294.01089 135 116.91345 33.75-323.23927z"/><path d="m1193.75 709.12293-33.75 323.23927h270l-33.75-323.23927z"/><path d="m1396.25 709.12293 33.75 323.23927 135-116.91345-67.5-294.01089z"/></g><g stroke-width="5" transform="translate(-2603.698921 -1024.32271)"><path d="m1402.5 1687.8854-101.25 87.6851h-202.5l-101.25-87.6851 101.25-87.6851h202.5z" fill="#a0a0a0" stroke-linecap="round" stroke-linejoin="round"/><path d="m1470 1981.8963-135 116.9134h-270l-135-116.9134 135-116.9134h270z" stroke-linecap="round" stroke-linejoin="round"/><path d="m997.5 1687.8854-67.5 294.0109 135 116.9134 33.75-323.2392z" fill="#9b9b9b"/><path d="m1098.75 1775.5705-33.75 323.2392h270l-33.75-323.2392z" fill="#808080"/><path d="m1301.25 1775.5705 33.75 323.2392 135-116.9134-67.5-294.0109z" fill="#646464"/></g><g stroke-width="5" transform="translate(-2640.064421 -1375.8558)"><path d="m1471.0714 2696.4568-101.25 87.6851h-202.5l-101.25-87.6851 101.25-87.685h202.5z" fill="#a0a0a0" stroke-linecap="round" stroke-linejoin="round"/><path d="m1538.5714 2990.4677-135 116.9135h-270l-134.99997-116.9135 134.99997-116.9134h270z" stroke-linecap="round" stroke-linejoin="round"/><path d="m1066.0714 2696.4568-67.49997 294.0109 134.99997 116.9135 33.75-323.2393z" fill="#9b9b9b"/><path d="m1167.3214 2784.1419-33.75 323.2393h270l-33.75-323.2393z" fill="#a0a0a0"/><path d="m1369.8214 2784.1419 33.75 323.2393 135-116.9135-67.5-294.0109z" fill="#646464"/></g><g fill="none" transform="translate(337.865319 -2022.35339)"><path d="m1120-22.637817-135 233.826857h-270l-135-233.826857 135-233.826863h270l135 233.826863z" opacity=".99" stroke-linecap="round" stroke-linejoin="round" stroke-width="7.302968" transform="matrix(1 0 0 .3 -1692.4672 2239.9513)"/><path d="m1120-22.637817-135 233.826857h-270l-135-233.826857 135-233.826863h270l135 233.826863z" stroke-linecap="round" stroke-linejoin="round" stroke-width="9.73729" transform="matrix(.75 0 0 .225 -1479.9672 2031.2427)"/><g stroke-width="4"><path d="m-1044.9672 2026.1492-67.5 207.0108 134.99998 70.148 33.75-224.5477z"/><path d="m-943.71722 2078.7603-33.75 224.5477h270l-33.75-224.5477z"/><path d="m-741.21722 2078.7603 33.75 224.5477 135-70.148-67.5-207.0108z"/></g></g><g transform="translate(224.728229 -2165.79509)"><path d="m1120-22.637817-135 233.826857h-270l-135-233.826857 135-233.826863h270l135 233.826863z" fill="none" opacity=".99" stroke-linecap="round" stroke-linejoin="round" stroke-width="7.302968" transform="matrix(1 0 0 .3 -1625.7143 2885.319)"/><path d="m1120-22.637817-135 233.826857h-270l-135-233.826857 135-233.826863h270l135 233.826863z" fill="#d2d2d2" stroke-linecap="round" stroke-linejoin="round" stroke-width="9.73729" transform="matrix(.75 0 0 .225 -1413.2143 2676.6104)"/><g stroke-width="4"><path d="m-978.21429 2671.5169-67.50001 207.0107 135.00001 70.1481 33.75-224.5478z" fill="#b4b4b4"/><path d="m-876.96429 2724.1279-33.75 224.5478h270l-33.75-224.5478z" fill="#a0a0a0"/><path d="m-674.46429 2724.1279 33.75 224.5478 135-70.1481-67.5-207.0107z" fill="#8c8c8c"/></g></g><g transform="translate(-2582.711921 -1811.22619)"><path d="m1120-22.637817-135 233.826857h-270l-135-233.826857 135-233.826863h270l135 233.826863z" fill="none" opacity=".99" stroke-linecap="round" stroke-linejoin="round" stroke-width="7.302968" transform="matrix(1 0 0 .3 1146.4598 3005.3403)"/><path d="m1120-22.637817-135 233.826857h-270l-135-233.826857 135-233.826863h270l135 233.826863z" fill="#a0a0a0" stroke-linecap="round" stroke-linejoin="round" stroke-width="9.73729" transform="matrix(.75 0 0 .225 1358.9598 2796.6317)"/><g stroke-width="4"><path d="m1793.9598 2791.5382-67.5 207.0108 135 70.148 33.75-224.5477z" fill="#9b9b9b"/><path d="m1895.2098 2844.1493-33.75 224.5477h270l-33.75-224.5477z" fill="#808080"/><path d="m2097.7098 2844.1493 33.75 224.5477 135-70.148-67.5-207.0108z" fill="#646464"/></g></g></g><g transform="translate(253.012509 -2256.70879)"><g stroke="#000"><path d="m1120-22.637817-135 233.826857h-270l-135-233.826857 135-233.826863h270l135 233.826863z" fill="none" opacity=".99" stroke-linecap="round" stroke-linejoin="round" stroke-width="7.302968" transform="matrix(1 0 0 .3 -1681.4286 3986.7475)"/><path d="m1120-22.637817-135 233.826857h-270l-135-233.826857 135-233.826863h270l135 233.826863z" fill="#a0a0a0" stroke-linecap="round" stroke-linejoin="round" stroke-width="9.73729" transform="matrix(.75 0 0 .225 -1468.9286 3778.039)"/><path d="m-1033.9286 3772.9455-67.5 207.0107 135.00003 70.148 33.75-224.5477z" fill="#9b9b9b" stroke-width="4"/><path d="m-932.67857 3825.5565-33.75 224.5477h270l-33.75-224.5477z" fill="#808080" stroke-width="4"/><path d="m-730.17857 3825.5565 33.75 224.5477 135-70.148-67.5-207.0107z" fill="#646464" stroke-width="4"/></g><path d="m-1033.7598 3774.3313-66.825 204.9406 133.64998 69.4465 33.4125-222.3022z" fill="url(#a)"/><path d="m1120-22.637817-135 233.826857h-270l-135-233.826857 135-233.826863h270l135 233.826863z" fill="url(#b)" transform="matrix(.7425 0 0 .22275 -1462.5536 3777.988)"/><path d="m-931.66607 3826.6792-33.4125 222.3023h267.3l-33.4125-222.3023z" fill="url(#c)"/><path d="m-729.33482 3826.4162 33.4125 222.3022 133.65-69.4465-66.825-204.9406z" fill="url(#d)"/></g><g fill="none" stroke="#3c3c3c" stroke-linejoin="round" stroke-opacity=".705882" transform="translate(829.736589 -2436.12653)"><path d="m1120-22.637817-135 233.826857h-270l-135-233.826857 135-233.826863h270l135 233.826863z" stroke-linecap="round" stroke-width="9.73729" transform="matrix(.75 0 0 .225 -2045.6526 3957.4567)"/><g stroke-width="4"><path d="m-1610.6526 3952.3632-67.5 207.0107 135 70.1481 33.75-224.5478z"/><path d="m-1509.4026 4004.9742-33.75 224.5478h270l-33.75-224.5478z"/><path d="m-1306.9026 4004.9742 33.75 224.5478 135-70.1481-67.5-207.0107z"/></g></g><path d="m1120-22.637817-135 233.826857h-270l-135-233.826857 135-233.826863h270l135 233.826863z" fill="#141414" fill-opacity=".694075" filter="url(#e)" transform="matrix(1.08 0 0 .324 -1466.330721 2255.93751)"/><g transform="translate(265.634749 -1745.94886)"><g stroke="#000"><path d="m1120-22.637817-135 233.826857h-270l-135-233.826857 135-233.826863h270l135 233.826863z" fill="none" opacity=".99" stroke-linecap="round" stroke-linejoin="round" stroke-width="7.302968" transform="matrix(1 0 0 .3 -1681.4286 3986.7475)"/><path d="m1120-22.637817-135 233.826857h-270l-135-233.826857 135-233.826863h270l135 233.826863z" fill="#a0a0a0" stroke-linecap="round" stroke-linejoin="round" stroke-width="9.73729" transform="matrix(.75 0 0 .225 -1468.9286 3778.039)"/><path d="m-1033.9286 3772.9455-67.5 207.0107 135.00003 70.148 33.75-224.5477z" fill="#9b9b9b" stroke-width="4"/><path d="m-932.67857 3825.5565-33.75 224.5477h270l-33.75-224.5477z" fill="#808080" stroke-width="4"/><path d="m-730.17857 3825.5565 33.75 224.5477 135-70.148-67.5-207.0107z" fill="#646464" stroke-width="4"/></g><path d="m-1033.7598 3774.3313-66.825 204.9406 133.64998 69.4465 33.4125-222.3022z" fill="url(#a)"/><path d="m1120-22.637817-135 233.826857h-270l-135-233.826857 135-233.826863h270l135 233.826863z" fill="url(#b)" transform="matrix(.7425 0 0 .22275 -1462.5536 3777.988)"/><path d="m-931.66607 3826.6792-33.4125 222.3023h267.3l-33.4125-222.3023z" fill="url(#c)"/><path d="m-729.33482 3826.4162 33.4125 222.3022 133.65-69.4465-66.825-204.9406z" fill="url(#d)"/></g><g fill="none" stroke="#3c3c3c" stroke-linejoin="round" stroke-opacity=".705882" transform="translate(842.358829 -1925.3666)"><path d="m1120-22.637817-135 233.826857h-270l-135-233.826857 135-233.826863h270l135 233.826863z" stroke-linecap="round" stroke-width="9.73729" transform="matrix(.75 0 0 .225 -2045.6526 3957.4567)"/><g stroke-width="4"><path d="m-1610.6526 3952.3632-67.5 207.0107 135 70.1481 33.75-224.5478z"/><path d="m-1509.4026 4004.9742-33.75 224.5478h270l-33.75-224.5478z"/><path d="m-1306.9026 4004.9742 33.75 224.5478 135-70.1481-67.5-207.0107z"/></g></g><g transform="matrix(.2388468 0 0 .26985986 292.410879 -989.17545)"><g stroke="#000"><path d="m1120-22.637817-135 233.826857h-270l-135-233.826857 135-233.826863h270l135 233.826863z" fill="none" opacity=".99" stroke-linecap="round" stroke-linejoin="round" stroke-width="7.302968" transform="matrix(1 0 0 .3 -1681.4286 3986.7475)"/><path d="m1120-22.637817-135 233.826857h-270l-135-233.826857 135-233.826863h270l135 233.826863z" fill="#a0a0a0" stroke-linecap="round" stroke-linejoin="round" stroke-width="9.73729" transform="matrix(.75 0 0 .225 -1468.9286 3778.039)"/><path d="m-1033.9286 3772.9455-67.5 207.0107 135.00003 70.148 33.75-224.5477z" fill="#9b9b9b" stroke-width="4"/><path d="m-932.67857 3825.5565-33.75 224.5477h270l-33.75-224.5477z" fill="#808080" stroke-width="4"/><path d="m-730.17857 3825.5565 33.75 224.5477 135-70.148-67.5-207.0107z" fill="#646464" stroke-width="4"/></g><path d="m-1033.7598 3774.3313-66.825 204.9406 133.64998 69.4465 33.4125-222.3022z" fill="url(#a)"/><path d="m1120-22.637817-135 233.826857h-270l-135-233.826857 135-233.826863h270l135 233.826863z" fill="url(#b)" transform="matrix(.7425 0 0 .22275 -1462.5536 3777.988)"/><path d="m-931.66607 3826.6792-33.4125 222.3023h267.3l-33.4125-222.3023z" fill="url(#c)"/><path d="m-729.33482 3826.4162 33.4125 222.3022 133.65-69.4465-66.825-204.9406z" fill="url(#d)"/><g fill="none" stroke="#3c3c3c" stroke-linejoin="round" stroke-opacity=".705882" transform="translate(576.72408 -179.41774)"><path d="m1120-22.637817-135 233.826857h-270l-135-233.826857 135-233.826863h270l135 233.826863z" stroke-linecap="round" stroke-width="9.73729" transform="matrix(.75 0 0 .225 -2045.6526 3957.4567)"/><g stroke-width="4"><path d="m-1610.6526 3952.3632-67.5 207.0107 135 70.1481 33.75-224.5478z"/><path d="m-1509.4026 4004.9742-33.75 224.5478h270l-33.75-224.5478z"/><path d="m-1306.9026 4004.9742 33.75 224.5478 135-70.1481-67.5-207.0107z"/></g></g></g></svg>