<svg height="64" width="64.000008" xmlns="http://www.w3.org/2000/svg" xmlns:xlink="http://www.w3.org/1999/xlink"><linearGradient id="a"><stop offset="0" stop-color="#e6e6e6"/><stop offset=".2216722816" stop-color="#dcdcdc" stop-opacity=".854902"/><stop offset=".4773920774" stop-color="#d2d2d2" stop-opacity=".858824"/><stop offset=".6509360075" stop-color="#bebebe"/><stop offset=".8492255807" stop-color="#aaa" stop-opacity=".854902"/><stop offset="1" stop-color="#969696"/></linearGradient><linearGradient id="b" gradientUnits="userSpaceOnUse" x1="19.79353732834" x2="20.65677310248" xlink:href="#c" y1="42.07775115027" y2="10.91866550081"/><linearGradient id="c"><stop offset="0" stop-color="#b6b6b6"/><stop offset=".5" stop-color="#f2f2f2"/><stop offset=".67612958" stop-color="#fafafa"/><stop offset=".84051722" stop-color="#d8d8d8"/><stop offset=".875" stop-color="#f2f2f2"/><stop offset="1" stop-color="#dbdbdb"/></linearGradient><linearGradient id="d" gradientUnits="userSpaceOnUse" x1="49.37611370937" x2="27.54070110122" xlink:href="#e" y1="-1.54002710496" y2="-2.12655074155"/><linearGradient id="e"><stop offset="0" stop-color="#fff"/><stop offset="1"/></linearGradient><linearGradient id="f" gradientUnits="userSpaceOnUse" x1="19.79353732834" x2="20.65677310248" xlink:href="#c" y1="42.07775115027" y2="10.91866550081"/><linearGradient id="g" gradientUnits="userSpaceOnUse" x1="49.37611370937" x2="27.54070110122" xlink:href="#e" y1="-1.54002710496" y2="-2.12655074155"/><linearGradient id="h" gradientUnits="userSpaceOnUse" x1="-226.15115067166" x2="-225.28791489752" xlink:href="#c" y1="76.47903715027" y2="45.31995150081"/><linearGradient id="i" gradientUnits="userSpaceOnUse" x1="-97.64130130898" x2="-119.47671093371" xlink:href="#e" y1="198.60522033093" y2="198.01869677448"/><linearGradient id="j" gradientUnits="userSpaceOnUse" x1="130.03811669102" x2="108.20270706629" xlink:href="#e" y1="-226.16699966907" y2="-226.75352322552"/><linearGradient id="k" gradientTransform="matrix(-.87827 0 0 -.87827 -219.07751 94.666293)" gradientUnits="userSpaceOnUse" x1="19.648342" x2="20.631224" xlink:href="#c" y1="42.253601" y2="6.775803"/><linearGradient id="l" gradientTransform="matrix(-.87827 0 0 -.87827 -259.55116 201.92745)" gradientUnits="userSpaceOnUse" x1="46.339775" x2="18.496346" y1="69.010742" y2="4.356274"><stop offset="0" stop-color="#b6b6b6"/><stop offset=".3845308125" stop-color="#f2f2f2"/><stop offset=".593028605" stop-color="#fafafa"/><stop offset=".8235345483" stop-color="#d8d8d8"/><stop offset=".9461327195" stop-color="#f2f2f2"/><stop offset="1" stop-color="#dbdbdb"/></linearGradient><linearGradient id="m" gradientUnits="userSpaceOnUse" x1="-72.91902130898" x2="-94.75443093371" xlink:href="#e" y1="324.68879033093" y2="324.10226677448"/><linearGradient id="n" gradientUnits="userSpaceOnUse" x1="87.55078269102" x2="65.71537306629" xlink:href="#e" y1="-324.61199966907" y2="-325.19852322552"/><linearGradient id="o" gradientTransform="matrix(.87416722 0 0 -.88843296 -30.067697 143.151749)" gradientUnits="userSpaceOnUse" x1="54.189629" x2="11.652884" xlink:href="#a" y1="66.595406" y2="-5.078101"/><linearGradient id="p" gradientTransform="matrix(1.1063313 0 0 -1.114719 -249.92594 228.55868)" gradientUnits="userSpaceOnUse" x1="54.189629" x2="11.652884" xlink:href="#a" y1="66.595406" y2="-5.078101"/><linearGradient id="q" gradientTransform="matrix(.78094585 -.81441281 -.80133282 -.79369308 -250.05609 228.61489)" gradientUnits="userSpaceOnUse" spreadMethod="reflect" x1="61.375214" x2="24.747341" y1="-3.626071" y2="-3.538403"><stop offset="0" stop-color="#8b8688"/><stop offset=".28970954" stop-color="#aaa" stop-opacity=".928994"/><stop offset=".50093275" stop-color="#bdc0bd" stop-opacity=".946746"/><stop offset=".56437683" stop-color="#a9a9a9"/><stop offset=".65132254" stop-color="#aaa" stop-opacity=".946746"/><stop offset="1" stop-color="#969696"/></linearGradient><linearGradient id="r" gradientTransform="matrix(1.1063313 0 0 -1.114719 -143.08199 230.11095)" gradientUnits="userSpaceOnUse" x1="54.189629" x2="11.652884" xlink:href="#a" y1="66.595406" y2="-5.078101"/><linearGradient id="s" gradientTransform="matrix(1.118933 0 0 -1.1371971 -558.35321 301.96243)" gradientUnits="userSpaceOnUse" x1="54.189629" x2="11.652884" xlink:href="#a" y1="66.595406" y2="-5.078101"/><linearGradient id="t" gradientTransform="matrix(.78094585 -.81441281 -.80133282 -.79369308 -558.43644 302.01686)" gradientUnits="userSpaceOnUse" spreadMethod="reflect" x1="61.375214" x2="24.747341" y1="-3.626071" y2="-3.538403"><stop offset="0" stop-color="#969696"/><stop offset=".4141668975" stop-color="#dcdcdc" stop-opacity=".854902"/><stop offset=".5009327531" stop-color="#d2d2d2" stop-opacity=".858824"/><stop offset=".5643768311" stop-color="#bebebe"/><stop offset=".6513225436" stop-color="#aaa" stop-opacity=".854902"/><stop offset="1" stop-color="#969696"/></linearGradient><linearGradient id="u" gradientTransform="matrix(1.118933 0 0 -1.1371971 -507.48409 315.74116)" gradientUnits="userSpaceOnUse" x1="54.189629" x2="11.652884" xlink:href="#a" y1="66.595406" y2="-5.078101"/><linearGradient id="v" gradientTransform="matrix(1.118933 0 0 -1.1371971 31.488431 309.395212)" gradientUnits="userSpaceOnUse" x1="54.189629" x2="11.652884" xlink:href="#a" y1="66.595406" y2="-5.078101"/><linearGradient id="w" gradientUnits="userSpaceOnUse" x1="-224.54129" x2="-205.591263" y1="322.493195" y2="355.903992"><stop offset="0" stop-color="#e6e6e6"/><stop offset=".2216722816" stop-color="#dcdcdc" stop-opacity=".854902"/><stop offset=".24730419" stop-color="#d2d2d2" stop-opacity=".858824"/><stop offset=".41464651" stop-color="#bebebe"/><stop offset=".55974382" stop-color="#aaa" stop-opacity=".854902"/><stop offset="1" stop-color="#787878"/></linearGradient><linearGradient id="x" gradientTransform="matrix(1.0274229 0 0 .96094908 29.372862 144.25571)" gradientUnits="userSpaceOnUse" x1="-224.54129" x2="-213.864395" y1="322.493195" y2="372.554199"><stop offset="0" stop-color="#e6e6e6"/><stop offset=".06531722" stop-color="#dcdcdc"/><stop offset=".28413698" stop-color="#969798"/><stop offset=".5011192" stop-color="#bebebe"/><stop offset=".76222956" stop-color="#aaa"/><stop offset="1" stop-color="#888a85"/></linearGradient><g transform="translate(-122.431895 -82.540256)"><g transform="translate(-5.370266 -61.498208)"><path d="m17.906713 21.215676 18.992589 19.431724c.768486.87827 3.20351 1.557061 4.830485 0 1.571126-1.503613 1.207621-3.622864-.329351-5.159837l-18.224103-19.541507c2.25-6.25-2.303889-11.499568-8.178889-10.374568l-1.262514 1.1527294 3.952215 3.7326476.219568 3.293516-2.950842 2.693603-3.526399-.388144-3.6228634-3.403296s-1.2701213 1.254904-1.2701213 1.254904c-.5907635 5.641317 5.3077257 10.683228 11.3702257 7.308228z" fill="url(#b)" stroke="#888a85"/><path d="m18.117385 19.9401 19.202882 20.027612c.594907.679893 2.479927 1.205365 3.739414 0 1.216253-1.163989.934853-2.80456-.25496-3.994374l-18.491532-19.621155c1.5-6.5-1.858788-10.0046375-6.858788-9.8796375l-.270131.2733768 3.602923 3.2362667.130166 4.181794-3.613917 3.298483-4.242306-.458209-3.1765824-2.991481-.3526371.430059c-.3125 5.96875 6.4917185 8.684765 10.5854685 5.497265z" fill="none" opacity=".426136" stroke="#fff" stroke-width=".999999"/><rect fill="none" height="2.055491" opacity=".170455" rx=".883881" stroke="url(#d)" stroke-width=".999997" transform="matrix(.697938 .716158 -.716158 .697938 0 0)" width="23.268276" x="28.185335" y="-2.618449"/><path d="m43.25 37.5c0 .75939153-.61560847 1.375-1.375 1.375s-1.375-.61560847-1.375-1.375.61560847-1.375 1.375-1.375 1.375.61560847 1.375 1.375z" fill="#fff" stroke="#a1a1a1" stroke-width="1.138602" transform="matrix(.87827 0 0 .87827 2.427204 5.077464)"/></g><g transform="translate(57.45912 -63.424615)"><path d="m17.906713 21.215676 18.992589 19.431724c.768486.87827 3.20351 1.557061 4.830485 0 1.571126-1.503613 1.207621-3.622864-.329351-5.159837l-18.224103-19.541507c2.25-6.25-2.303889-11.499568-8.178889-10.374568l-1.262514 1.1527294 3.952215 3.7326476.219568 3.293516-2.950842 2.693603-3.526399-.388144-3.6228634-3.403296s-1.2701213 1.254904-1.2701213 1.254904c-.5907635 5.641317 5.3077257 10.683228 11.3702257 7.308228z" fill="url(#f)" stroke="#888a85"/><path d="m18.117385 19.9401 19.202882 20.027612c.594907.679893 2.479927 1.205365 3.739414 0 1.216253-1.163989.934853-2.80456-.25496-3.994374l-18.491532-19.621155c1.5-6.5-1.858788-10.0046375-6.858788-9.8796375l-.270131.2733768 3.602923 3.2362667.130166 4.181794-3.613917 3.298483-4.242306-.458209-3.1765824-2.991481-.3526371.430059c-.3125 5.96875 6.4917185 8.684765 10.5854685 5.497265z" fill="none" opacity=".426136" stroke="#fff" stroke-width=".999999"/><rect fill="none" height="2.055491" opacity=".170455" rx=".883881" stroke="url(#g)" stroke-width=".999997" transform="matrix(.697938 .716158 -.716158 .697938 0 0)" width="23.268276" x="28.185335" y="-2.618449"/><path d="m43.25 37.5c0 .75939153-.61560847 1.375-1.375 1.375s-1.375-.61560847-1.375-1.375.61560847-1.375 1.375-1.375 1.375.61560847 1.375 1.375z" fill="#fff" stroke="#a1a1a1" stroke-width="1.138602" transform="matrix(.87827 0 0 .87827 2.427204 5.077464)"/></g><g transform="translate(360.981971 -110.567127)"><path d="m-229.875 39.84375c-.35553.02182-.69531.05469-1.0625.125l-1.28125 1.15625 3.96875 3.71875.21875 3.3125-2.96875 2.6875-3.5-.375-3.625-3.40625-1.28125 1.25c-.59077 5.641317 5.3125 10.6875 11.375 7.3125l11.59375 11.84375c.36368-.177206.73259-.349005 1.09375-.53125.31475-.158825.62392-.334534.9375-.5.25709-.178746.45011-.274163.59375-.3125.42398-.226988.85867-.430661 1.28125-.65625.0623-.05942.0913-.126834.15625-.1875.0823-.07689.3273-.3006.25-.21875-.10693.11317-.20483.232079-.3125.34375.0944-.05029.18688-.106376.28125-.15625.72304-.406384 1.43458-.808863 2.15625-1.21875l-12.78125-13.6875c2.10937-5.859375-1.76083-10.827348-7.09375-10.5z" fill="url(#h)" stroke="#888a85"/><g fill="none"><path d="m-230.5 40.875-.25.28125 3.59375 3.21875.125 4.1875-3.625 3.3125-4.21875-.46875-3.1875-3-.34375.4375c-.3125 5.96875 6.50001 8.6875 10.59375 5.5l12.1875 12.71875c.0915-.04579.18987-.07889.28125-.125.31475-.158825.62392-.334534.9375-.5.25709-.178746.45011-.274163.59375-.3125.42398-.226988.85867-.430661 1.28125-.65625.0623-.05942.0913-.126834.15625-.1875.0823-.07689.3273-.3006.25-.21875-.10693.11317-.20483.232079-.3125.34375.0944-.05029.18688-.106376.28125-.15625.48203-.270923.95597-.540171 1.4375-.8125l-12.90625-13.6875c1.5-6.5-1.875-10-6.875-9.875z" opacity=".426136" stroke="#fff" stroke-width=".999999"/><rect height="2.055491" opacity=".170455" rx=".883881" stroke="url(#i)" stroke-width=".999997" transform="matrix(.69793809 .7161581 -.7161581 .69793809 0 0)" width="23.268272" x="-118.832077" y="197.526794"/></g></g><g transform="translate(400 -103.5)"><path d="m-252.48521 70.00401 12.78125 13.6875c-2.10937 5.859375 1.76083 10.827348 7.09375 10.5.35553-.02182.69531-.05469 1.0625-.125l1.28125-1.15625-3.96875-3.71875-.21875-3.3125 2.96875-2.6875 3.5.375 3.625 3.40625 1.28125-1.25c.59077-5.641317-5.3125-10.6875-11.375-7.3125l-11.59375-11.84375" fill="url(#k)" stroke="#888a85"/><g fill="none"><path d="m-251.76646 69.59776 12.90625 13.6875c-1.5 6.5 1.875 10 6.875 9.875l.25-.28125-3.59375-3.21875-.125-4.1875 3.625-3.3125 4.21875.46875 3.1875 3 .34375-.4375c.3125-5.96875-6.50001-8.6875-10.59375-5.5l-12.1875-12.71875" opacity=".426136" stroke="#fff" stroke-width=".999999"/><rect height="2.055491" opacity=".170455" rx=".883881" stroke="url(#j)" stroke-width=".999997" transform="matrix(-.69793809 -.7161581 .7161581 -.69793809 0 0)" width="23.268272" x="108.847343" y="-227.245453"/></g></g><g transform="matrix(-1 0 0 -1 -27.27313 29.47241)"><path d="m-252.48521 70.00401 12.78125 13.6875c-2.10937 5.859375 1.76083 10.827348 7.09375 10.5.35553-.02182.69531-.05469 1.0625-.125l1.28125-1.15625-3.96875-3.71875-.21875-3.3125 2.96875-2.6875 3.5.375 3.625 3.40625 1.28125-1.25c.59077-5.641317-5.3125-10.6875-11.375-7.3125l-11.59375-11.84375" fill="url(#k)" stroke="#888a85"/><g fill="none"><path d="m-251.76646 69.59776 12.90625 13.6875c-1.5 6.5 1.875 10 6.875 9.875l.25-.28125-3.59375-3.21875-.125-4.1875 3.625-3.3125 4.21875.46875 3.1875 3 .34375-.4375c.3125-5.96875-6.50001-8.6875-10.59375-5.5l-12.1875-12.71875" opacity=".426136" stroke="#fff" stroke-width=".999999"/><rect height="2.055491" opacity=".170455" rx=".883881" stroke="url(#j)" stroke-width=".999997" transform="matrix(-.69793809 -.7161581 .7161581 -.69793809 0 0)" width="23.268272" x="108.847343" y="-227.245453"/></g></g><g transform="translate(468.029564 -110.505264)"><path d="m-252.48521 70.00401 12.78125 13.6875c-2.10937 5.859375 1.76083 10.827348 7.09375 10.5.35553-.02182.69531-.05469 1.0625-.125l1.28125-1.15625-3.96875-3.71875-.21875-3.3125 2.96875-2.6875 3.5.375 3.625 3.40625 1.28125-1.25c.59077-5.641317-5.3125-10.6875-11.375-7.3125l-11.59375-11.84375" fill="url(#k)" stroke="#888a85"/><g fill="none"><path d="m-251.76646 69.59776 12.90625 13.6875c-1.5 6.5 1.875 10 6.875 9.875l.25-.28125-3.59375-3.21875-.125-4.1875 3.625-3.3125 4.21875.46875 3.1875 3 .34375-.4375c.3125-5.96875-6.50001-8.6875-10.59375-5.5l-12.1875-12.71875" opacity=".426136" stroke="#fff" stroke-width=".999999"/><rect height="2.055491" opacity=".170455" rx=".883881" stroke="url(#j)" stroke-width=".999997" transform="matrix(-.69793809 -.7161581 .7161581 -.69793809 0 0)" width="23.268272" x="108.847343" y="-227.245453"/></g></g><g transform="translate(572.94955 -219.63967)"><path d="m-292.95886 177.26517 12.78125 13.6875c-2.10937 5.85938 1.76083 10.82735 7.09375 10.5.35553-.0218.69531-.0547 1.0625-.125l1.28125-1.15625-3.96875-3.71875-.21875-3.3125 2.96875-2.6875 3.5.375 3.625 3.40625 1.28125-1.25c.59077-5.64132-5.3125-10.6875-11.375-7.3125l-11.59375-11.84375m3.23022 3.40716-12.78125-13.6875c2.10937-5.85938-1.76083-10.82735-7.09375-10.5-.35553.0218-.69531.0547-1.0625.125l-1.28125 1.15625 3.96875 3.71875.21875 3.3125-2.96875 2.6875-3.5-.375-3.625-3.40625-1.28125 1.25c-.59077 5.64131 5.3125 10.6875 11.375 7.3125l11.59375 11.84375" fill="url(#l)" stroke="#888a85"/><g fill="none"><g stroke="#fff" stroke-width=".999999" transform="translate(.375002 8.124998)"><path d="m-284.38489 169.51608-12.90625-13.6875c1.5-6.5-1.875-10-6.875-9.875l-.25.28125 3.59375 3.21875.125 4.1875-3.625 3.3125-4.21875-.46875-3.1875-3-.34375.4375c-.3125 5.96875 6.50001 8.6875 10.59375 5.5l12.1875 12.71875" opacity=".426136"/><path d="m-292.61512 168.73392 12.90625 13.6875c-1.5 6.5 1.875 10 6.875 9.875l.25-.28125-3.59375-3.21875-.125-4.1875 3.625-3.3125 4.21875.46875 3.1875 3 .34375-.4375c.3125-5.96875-6.50001-8.6875-10.59375-5.5l-12.1875-12.71875" opacity=".426136"/></g><rect height="2.055491" opacity=".170455" rx=".883881" stroke="url(#m)" stroke-width=".999997" transform="matrix(.69793809 .7161581 -.7161581 .69793809 .375 8.125)" width="23.268272" x="-94.109795" y="323.610321"/><rect height="2.055491" opacity=".170455" rx=".883881" stroke="url(#n)" stroke-width=".999997" transform="matrix(-.69793809 -.7161581 .7161581 -.69793809 .375 8.125)" width="23.268272" x="66.360008" y="-325.69046"/></g></g><g transform="translate(546.411271 -239.994238)"><path d="m-515.79115 270.02934-16.28357 17.72279c2.68738 7.5868-2.24333 14.0194-9.03757 13.59555-.45296-.0283-.88584-.0708-1.35364-.16185l-1.63234-1.49713 5.05626-4.81509.27869-4.28908-3.78224-3.47981-4.45907.48555-4.61832 4.41046-1.63233-1.61851c-.75265-7.30447 6.76822-13.83834 14.49196-9.46834l14.77067-15.33547m-4.11538 4.41164 16.28357-17.72277c-2.68738-7.58681 2.24333-14.01942 9.03757-13.59556.45296.0283.88584.0708 1.35365.16184l1.63233 1.49714-5.05626 4.81509-.27869 4.28907 3.78224 3.47982 4.45907-.48556 4.61832-4.41046 1.63233 1.61852c.75265 7.30446-6.76822 13.83833-14.49196 9.46833l-14.77067 15.33547" fill="url(#s)" stroke="#888a85" stroke-width="1.284375"/><g fill="none"><path d="m-505.41456 257.44653c5.21551 4.12723 13.89478.60695 13.49665-7.12148l-.43795-.56648-4.06093 3.88444-5.37477.60695-4.61833-4.28907.15926-5.42204 4.57851-4.16769-.31851-.36416c-6.37009-.16186-10.66991 4.36999-8.75887 12.78629l-27.73512 29.77957c-5.21551-4.12721-13.89477-.60693-13.49664 7.12148l.43794.56649 4.06093-3.88445 5.37477-.60694 4.61833 4.28908-.15926 5.42203-4.57851 4.16769.31851.36416c6.37009.16185 10.66991-4.37 8.75889-12.7863z" opacity=".426136" stroke="#fff" stroke-width="1.284375"/><path d="m-522.8873 269.08096-12.41967 12.92121c-.43542.45407-.42627 1.17586.0205 1.61838l.26253.26002c.44678.44251 1.15697.43322 1.59239-.0209l12.41968-12.92123 12.41967-12.92121c.4354-.45407.42625-1.17586-.0205-1.61838l-.26253-.26002c-.44677-.44251-1.15698-.43322-1.59238.0209l-12.41968 12.92123z" opacity=".170455" stroke="url(#t)" stroke-width="1.284371"/></g></g><path d="m3.18394268 118.20408865-3.18039 3.46147-3.18038 3.46147-3.18039 3.46148-.7951.86537-.7951.86536-.79509.86537-.7951.86537c2.09952 5.92717-1.7526 10.95263-7.06061 10.6215-.35387-.0221-.69206-.0553-1.05753-.12645l-1.27527-1.16963 3.95021-3.76178.21773-3.35083-2.95488-2.7186-3.48365.37934-3.60807 3.44566-1.27526-1.26446c-.58801-5.7066 5.28768-10.81117 11.32186-7.39712l.72122-.7488.72123-.7488.72122-.7488.72123-.7488 2.8849-2.9952 2.88489-2.9952 2.8849-2.9952m-3.21514 3.44658 3.18039-3.46147 3.18039-3.46147 3.18038-3.46147 4.79221-5.10194s-.27585-.37129-.0856-2.80694c1.14535-6.18285 7.27195-8.95653 11.70325-6.01575.29541.19608.5717.39392.85264.63827l.51959 1.65056-5.30187 1.28269-1.86397 2.79304 1.1997 3.83182 3.2066 1.41331 4.84751-1.18.47217 1.73269c-.58601 1.30902-1.52044 2.40518-2.64742 3.21976-1.12699.81458-2.44653 1.34758-3.80278 1.53028-1.35626.1827-2.74922.0151-4.02303-.57156-.31845-.14667-.62946-.31951-.93059-.51963-.15056-.10006-.35473-.26504-.35473-.26504s-.42227.45354-.42227.45354l-1.19801 1.29345-.72122.7488-.72123.7488-2.88489 2.9952-2.8849 2.9952-2.8849 2.9952" fill="url(#o)" stroke="#888a85" stroke-width="1.003417"/><g transform="translate(291.268619 -80.807053)"><path d="m-219.19225 209.02654-6.06494 6.40142s.34912.46586.10834 3.52188c-1.44954 7.75762-9.20326 11.23778-14.81144 7.54797-.37386-.24603-.72353-.49425-1.07908-.80084l-.65759-2.07097 6.70995-1.60938 2.35902-3.50444-1.51833-4.80779-4.05821-1.77328-6.13493 1.48054-.59757-2.17401c.74165-1.64243 1.92425-3.01779 3.35053-4.03984 1.4263-1.02206 3.09629-1.69081 4.81273-1.92004 1.71647-.22924 3.47937-.019 5.09148.71713.40303.18403.79664.40089 1.17774.65198.19055.12553.44894.33255.44894.33255l3.87614-4.071 18.23322-18.7195 6.06494-6.40142s-.34912-.46586-.10834-3.52188c1.44955-7.75762 9.20326-11.23777 14.81144-7.54797.37387.24603.72353.49425 1.07908.80084l.65759 2.07097-6.70995 1.60938-2.35902 3.50444 1.51833 4.80779 4.05821 1.77328 6.13493-1.48054.59758 2.17401c-.74165 1.64243-1.92425 3.01779-3.35054 4.03984-1.42629 1.02206-3.09629 1.69081-4.81273 1.92004-1.71646.22924-3.47937.019-5.09148-.71713-.40303-.18403-.79664-.40089-1.17774-.65198-.19055-.12553-.44894-.33255-.44894-.33255l-3.87614 4.071z" fill="url(#p)" stroke="#888a85" stroke-width="1.264437"/><g fill="none"><path d="m-236.44792 227.16108c-1.01586-.16923-2.23804-.68761-3.30728-1.40276-.6414-.42899-.66305-.45535-.83717-1.01909-.0983-.31829-.16171-.59575-.14088-.61658.0208-.0208 1.35412-.3512 2.96287-.73417 1.60876-.38297 3.01244-.73356 3.11929-.77909.1111-.0474.75395-.92111 1.5017-2.04111l1.30744-1.95833-.85398-2.69892c-.46968-1.4844-.86904-2.71077-.88744-2.72525-.0184-.0145-1.04097-.46417-2.27236-.99931l-2.23888-.97298-2.8507.68766c-1.56788.37821-2.85785.68064-2.8666.67206-.009-.009-.0934-.29539-.1882-.63735l-.17229-.62175.27831-.5209c.98777-1.84875 3.0617-3.56069 5.27542-4.35464 1.66641-.59766 3.77253-.71952 5.31454-.30751.91686.24498 2.05588.77812 2.75253 1.28838.24465.1792.48851.35169.54192.38332.0558.0331 1.02602-.91883 2.28153-2.23843 1.20144-1.26278 6.13063-6.3457 10.95375-11.29539 4.82312-4.9497 10.32439-10.6382 12.22505-12.64113 3.07247-3.23778 3.44971-3.66601 3.40131-3.86106-.26925-1.08505-.24775-2.94954.0476-4.1292.77593-3.09905 2.713-5.55748 5.38889-6.83926 1.32634-.63534 2.19274-.8297 3.68885-.82753 1.49898.002 2.29559.18582 3.5978.82938 1.32947.65704 1.71255.98255 1.95514 1.66132.11007.30795.1693.58677.13163.6196-.0377.0328-1.37159.36744-2.96428.74358-1.59269.37615-2.97609.7135-3.07422.74967-.0981.0362-.77705.95187-1.5087 2.03488l-1.33028 1.9691.85564 2.71286.85563 2.71286 2.2719.99194 2.2719.99194 2.85649-.68867 2.85648-.68868.16929.6057c.19173.68598.16985.79718-.32033 1.62863-.3907.66271-1.99119 2.26791-2.74475 2.75281-1.70974 1.10021-3.25774 1.61037-5.17733 1.70623-1.95704.0977-3.83347-.48505-5.40078-1.67738l-.39896-.30351-2.18953 2.29865c-1.20424 1.26426-6.41811 6.64234-11.58636 11.9513-5.16826 5.30895-10.68395 11.01321-12.2571 12.67611l-2.86027 3.02346.13917.31109c.20331.45448.18937 2.7787-.0224 3.7305-.90417 4.06407-4.05453 7.24966-7.76382 7.85065-.66776.1082-2.12714.10626-2.7872-.004z" opacity=".5"/><path d="m-209.08852 187.22761 4.3444-4.55609 4.27823-4.53763c-.36635-.64241-.56156-2.11531-.37434-2.81486.0936-2.60919 1.12046-4.04679 2.72417-6.0167.5374-.50425 1.15342-1.0886 1.71558-1.44562 1.68333-.92476 3.38445-1.47568 5.33709-1.16959.62614.0882 1.21775.25113 1.86176.48897.644.23784 1.29649.66033 1.95663 1.04837l.13768.5185-5.82958 1.32007-2.98057 4.39662 1.81118 6.06748 5.06785 2.13981 5.23971-1.31162.16182.57793c-.87986 1.72302-2.17986 2.88798-3.60748 3.66835s-3.02671 1.22002-4.59248 1.14142-3.09821-.56577-4.39254-1.41967c-.32358-.21347-.92289-.70853-.92289-.70853v-.00005l-1.90589 1.74473-4.47603 4.59995-14.51575 15.0284-4.3444 4.55609-4.27823 4.53763c.36634.64241.56156 2.11531.37434 2.81486-.0936 2.60919-1.12046 4.04679-2.72418 6.0167-.53739.50425-1.15341 1.0886-1.71558 1.44562-1.68332.92476-3.38444 1.47568-5.33708 1.16959-.62615-.0882-1.21776-.25113-1.86176-.48897s-1.2965-.66033-1.95664-1.04837l-.13768-.5185 5.82959-1.32007 2.98057-4.39662-1.81119-6.06748-5.06784-2.13981-5.23971 1.31162-.16183-.57793c.87986-1.72302 2.17987-2.88798 3.60748-3.66835 1.42762-.78037 3.02672-1.22002 4.59249-1.14142 1.56576.0786 3.09821.56577 4.39254 1.41967.32358.21347.92289.70853.92289.70853v.00005l1.90589-1.74473 4.47602-4.59995z" opacity=".426136" stroke="#fff" stroke-width="1.284375"/><path d="m-214.50695 195.67899-12.41967 12.92121c-.43542.45407-.42627 1.17586.0205 1.61838l.26253.26002c.44678.44251 1.15697.43322 1.59239-.0209l12.41968-12.92123 12.41967-12.92121c.4354-.45407.42625-1.17586-.0205-1.61838l-.26253-.26002c-.44677-.44251-1.15698-.43322-1.59238.0209l-12.41968 12.92123z" opacity=".170455" stroke="url(#q)" stroke-width="1.284371"/></g></g><g transform="translate(261.157193 -83.619745)"><path d="m-112.3483 210.57881-6.06494 6.40142s.34912.46586.10834 3.52188c-1.44954 7.75762-9.20326 11.23778-14.81144 7.54797-.37386-.24603-.72353-.49425-1.07908-.80084l-.65759-2.07097 6.70995-1.60938 2.35902-3.50444-1.51833-4.80779-4.05821-1.77328-6.13493 1.48054-.59757-2.17401c.74165-1.64243 1.92425-3.01779 3.35053-4.03984 1.4263-1.02206 3.09629-1.69081 4.81273-1.92004 1.71647-.22924 3.47937-.019 5.09148.71713.40303.18403.79664.40089 1.17774.65198.19055.12553.44894.33255.44894.33255l3.87614-4.071 18.23322-18.7195 6.06494-6.40142s-.34912-.46586-.10834-3.52188c1.44955-7.75762 9.20326-11.23777 14.81144-7.54797.37387.24603.72353.49425 1.07908.80084l.65759 2.07097-6.70995 1.60938-2.35902 3.50444 1.51833 4.80779 4.05821 1.77328 6.13493-1.48054.59758 2.17401c-.74165 1.64243-1.92425 3.01779-3.35054 4.03984-1.42629 1.02206-3.09629 1.69081-4.81273 1.92004-1.71646.22924-3.47937.019-5.09148-.71713-.40303-.18403-.79664-.40089-1.17774-.65198-.19055-.12553-.44894-.33255-.44894-.33255l-3.87614 4.071z" fill="url(#r)" stroke="#888a85" stroke-width="1.264437"/><g fill="none"><path d="m-129.60397 228.71335c-1.01586-.16923-2.23804-.68761-3.30728-1.40276-.6414-.42899-.66305-.45535-.83717-1.01909-.0983-.31829-.16171-.59575-.14088-.61658.0208-.0208 1.35412-.3512 2.96287-.73417 1.60876-.38297 3.01244-.73356 3.11929-.77909.1111-.0474.75395-.92111 1.5017-2.04111l1.30744-1.95833-.85398-2.69892c-.46968-1.4844-.86904-2.71077-.88744-2.72525-.0184-.0145-1.04097-.46417-2.27236-.99931l-2.23888-.97298-2.8507.68766c-1.56788.37821-2.85785.68064-2.8666.67206-.009-.009-.0934-.29539-.1882-.63735l-.17229-.62175.27831-.5209c.98777-1.84875 3.0617-3.56069 5.27542-4.35464 1.66641-.59766 3.77253-.71952 5.31454-.30751.91686.24498 2.05588.77812 2.75253 1.28838.24465.1792.48851.35169.54192.38332.0558.0331 1.02602-.91883 2.28153-2.23843 1.20144-1.26278 6.13063-6.3457 10.95375-11.29539 4.82312-4.9497 10.32439-10.6382 12.22505-12.64113 3.07247-3.23778 3.44971-3.66601 3.40131-3.86106-.26925-1.08505-.24775-2.94954.0476-4.1292.77593-3.09905 2.713-5.55748 5.38889-6.83926 1.32634-.63534 2.19274-.8297 3.68885-.82753 1.49898.002 2.29559.18582 3.5978.82938 1.32947.65704 1.71255.98255 1.95514 1.66132.11007.30795.1693.58677.13163.6196-.0377.0328-1.37159.36744-2.96428.74358-1.59269.37615-2.97609.7135-3.07422.74967-.0981.0362-.77705.95187-1.5087 2.03488l-1.33028 1.9691.85564 2.71286.85563 2.71286 2.2719.99194 2.2719.99194 2.85649-.68867 2.85648-.68868.16929.6057c.19173.68598.16985.79718-.32033 1.62863-.3907.66271-1.99119 2.26791-2.74475 2.75281-1.70974 1.10021-3.25774 1.61037-5.17733 1.70623-1.95704.0977-3.83347-.48505-5.40078-1.67738l-.39896-.30351-2.18953 2.29865c-1.20424 1.26426-6.41811 6.64234-11.58636 11.9513-5.16826 5.30895-10.68395 11.01321-12.2571 12.67611l-2.86027 3.02346.13917.31109c.20331.45448.18937 2.7787-.0224 3.7305-.90417 4.06407-4.05453 7.24966-7.76382 7.85065-.66776.1082-2.12714.10626-2.7872-.004z" opacity=".5"/><path d="m-102.24457 188.77988 4.3444-4.55609 4.27823-4.53763c-.36635-.64241-.56156-2.11531-.37434-2.81486.0936-2.60919 1.12046-4.04679 2.72417-6.0167.5374-.50425 1.15342-1.0886 1.71558-1.44562 1.68333-.92476 3.38445-1.47568 5.33709-1.16959.62614.0882 1.21775.25113 1.86176.48897.644.23784 1.29649.66033 1.95663 1.04837l.13768.5185-5.82958 1.32007-2.98057 4.39662 1.81118 6.06748 5.06785 2.13981 5.23971-1.31162.16182.57793c-.87986 1.72302-2.17986 2.88798-3.60748 3.66835s-3.02671 1.22002-4.59248 1.14142-3.09821-.56577-4.39254-1.41967c-.32358-.21347-.92289-.70853-.92289-.70853v-.00005l-1.90589 1.74473-4.47603 4.59995-14.51575 15.0284-4.3444 4.55609-4.27823 4.53763c.36634.64241.56156 2.11531.37434 2.81486-.0936 2.60919-1.12046 4.04679-2.72418 6.0167-.53739.50425-1.15341 1.0886-1.71558 1.44562-1.68332.92476-3.38444 1.47568-5.33708 1.16959-.62615-.0882-1.21776-.25113-1.86176-.48897s-1.2965-.66033-1.95664-1.04837l-.13768-.5185 5.82959-1.32007 2.98057-4.39662-1.81119-6.06748-5.06784-2.13981-5.23971 1.31162-.16183-.57793c.87986-1.72302 2.17987-2.88798 3.60748-3.66835 1.42762-.78037 3.02672-1.22002 4.59249-1.14142 1.56576.0786 3.09821.56577 4.39254 1.41967.32358.21347.92289.70853.92289.70853v.00005l1.90589-1.74473 4.47602-4.59995z" opacity=".426136" stroke="#fff" stroke-width="1.284375"/><path d="m-107.663 197.23126-12.41967 12.92121c-.43542.45407-.42627 1.17586.0205 1.61838l.26253.26002c.44678.44251 1.15697.43322 1.59239-.0209l12.41968-12.92123 12.41967-12.92121c.4354-.45407.42625-1.17586-.0205-1.61838l-.26253-.26002c-.44677-.44251-1.15698-.43322-1.59238.0209l-12.41968 12.92123z" opacity=".170455" stroke="#000" stroke-width="1.284371"/></g></g><g transform="translate(581.612564 -246.827637)"><path d="m-464.92203 283.80807-16.28357 17.72279c2.68738 7.5868-2.24333 14.0194-9.03757 13.59555-.45296-.0283-.88584-.0708-1.35364-.16185l-1.63234-1.49713 5.05626-4.81509.27869-4.28908-3.78224-3.47981-4.45907.48555-4.61832 4.41046-1.63233-1.61851c-.75265-7.30447 6.76822-13.83834 14.49196-9.46834l14.77067-15.33547m-4.11538 4.41164 16.28357-17.72277c-2.68738-7.58681 2.24333-14.01942 9.03757-13.59556.45296.0283.88584.0708 1.35365.16184l1.63233 1.49714-5.05626 4.81509-.27869 4.28907 3.78224 3.47982 4.45907-.48556 4.61832-4.41046 1.63233 1.61852c.75265 7.30446-6.76822 13.83833-14.49196 9.46833l-14.77067 15.33547" fill="url(#u)" stroke="#888a85" stroke-width="1.284375"/><g fill="none"><path d="m-454.54545 271.22526c5.21551 4.12723 13.89478.60695 13.49665-7.12148l-.43795-.56648-4.06093 3.88444-5.37477.60695-4.61833-4.28907.15926-5.42204 4.57851-4.16769-.31851-.36416c-6.37009-.16186-10.66991 4.36999-8.75887 12.78629l-27.73512 29.77957c-5.21551-4.12721-13.89477-.60693-13.49664 7.12148l.43794.56649 4.06093-3.88445 5.37477-.60694 4.61833 4.28908-.15926 5.42203-4.57851 4.16769.31851.36416c6.37009.16185 10.66991-4.37 8.75889-12.7863z" opacity=".426136" stroke="#fff" stroke-width="1.284375"/><path d="m-472.01818 282.85969-12.41967 12.92121c-.43542.45407-.42627 1.17586.0205 1.61838l.26253.26002c.44678.44251 1.15697.43322 1.59239-.0209l12.41968-12.92123 12.41967-12.92121c.4354-.45407.42625-1.17586-.0205-1.61838l-.26253-.26002c-.44677-.44251-1.15698-.43322-1.59238.0209l-12.41968 12.92123z" opacity=".170455" stroke="#000" stroke-width="1.284371"/></g></g><path d="m61.32512352 210.0849012.27903-.25375.55802-.55802 4.46419-4.46419 8.92837-8.92837 8.92837-8.92837 4.46418-4.46418.55803-.55803.30063-.33371c-.041-.22577-.0996-.3988-.15398-.57366-.10877-.34974-.20082-.70684-.27521-1.07037-.14878-.72707-.22692-1.47988-.22692-2.25093 0-1.54211.31253-3.01122.8777-4.34745.56518-1.33624 1.383-2.53959 2.39359-3.55018 1.01059-1.01058 2.21394-1.82841 3.55017-2.39359.66812-.28259 1.36945-.50202 2.09652-.6508.36354-.0744.7335-.13114 1.0885-.18394l.47725.48303.99543.99543.60491.62529-2.3977 2.35707-3.38214 3.37603-.004 4.77874 3.37603 3.38214 4.77875.004 3.38214-3.37603 2.41206-2.41811 1.18424 1.22517.49771.49771.24886.24886.11229.1065s-.10699.72752-.18139 1.09106c-.14878.72707-.3682 1.42841-.65079 2.09652-.56518 1.33623-1.38301 2.53958-2.39359 3.55016-1.01059 1.01059-2.21394 1.82843-3.55017 2.3936-1.33624.56518-2.80535.87771-4.34746.87771-.77105 0-1.52385-.0781-2.25092-.22691-.36354-.0744-.72064-.16644-1.07037-.27521-.17487-.0544-.52495-.25237-.65101-.12085l-.25639.26746-.55802.55802-2.2321 2.23209-2.23209 2.23209-2.23209 2.2321-2.23209 2.23209-2.2321 2.23209-2.23209 2.23209-4.46418 4.46419-4.46419 4.46418-4.46418 4.46418-.55802.55802-.30062.33375c.041.22578.0996.39881.15399.57367.10878.34973.20083.70683.27522 1.07037.14878.72707.22691 1.47987.22691 2.25092 0 1.54212-.31253 3.01122-.87771 4.34746-.56517 1.33623-1.383 2.53958-2.39359 3.55017s-2.21394 1.82842-3.55018 2.3936c-.66811.28259-1.36945.50201-2.09652.65079-.36353.0744-.7335.13112-1.10897.16925l-.45679-.46834-.99543-.99543-.58547-.6011 2.37826-2.38132 3.38214-3.37603.004-4.77874-3.37603-3.38214-4.77875-.004-3.38214 3.37603-2.39859 2.39072c-.0779-.0779-.14007-.14007-.20228-.20228-.49771-.49771-.99543-.99543-1.36872-1.36872-.18664-.18664-.35336-.34759-.46223-.45646.0381-.37547.0837-.75085.15807-1.11439.14878-.72706.36821-1.4284.6508-2.09652.56517-1.33623 1.383-2.53958 2.39359-3.55017 1.01058-1.01059 2.21393-1.82841 3.55016-2.3936 1.33624-.56517 2.80535-.87771 4.34746-.87771.77105 0 1.52385.0781 2.25092.22692.36354.0744.72064.16644 1.07037.27522.17486.0544.493.22904.62835.10711z" style="opacity:.5;fill:none;stroke:#000;stroke-width:.409;stroke-linecap:round;stroke-linejoin:round"/><g transform="translate(472.42183 -85.577906)"><path d="m-464.92203 283.80807-16.28357 17.72279c2.68738 7.5868-2.24333 14.0194-9.03757 13.59555-.45296-.0283-.88584-.0708-1.35364-.16185l-1.63234-1.49713 5.05626-4.81509.27869-4.28908-3.78224-3.47981-4.45907.48555-4.61832 4.41046-1.63233-1.61851c-.75265-7.30447 6.76822-13.83834 14.49196-9.46834l14.77067-15.33547m-4.11538 4.41164 16.28357-17.72277c-2.68738-7.58681 2.24333-14.01942 9.03757-13.59556.45296.0283.88584.0708 1.35365.16184l1.63233 1.49714-5.05626 4.81509-.27869 4.28907 3.78224 3.47982 4.45907-.48556 4.61832-4.41046 1.63233 1.61852c.75265 7.30446-6.76822 13.83833-14.49196 9.46833l-14.77067 15.33547" fill="url(#u)" stroke="#888a85" stroke-width="1.284375"/><g fill="none"><path d="m-454.54545 271.22526c5.21551 4.12723 13.89478.60695 13.49665-7.12148l-.43795-.56648-4.06093 3.88444-5.37477.60695-4.61833-4.28907.15926-5.42204 4.57851-4.16769-.31851-.36416c-6.37009-.16186-10.66991 4.36999-8.75887 12.78629l-27.73512 29.77957c-5.21551-4.12721-13.89477-.60693-13.49664 7.12148l.43794.56649 4.06093-3.88445 5.37477-.60694 4.61833 4.28908-.15926 5.42203-4.57851 4.16769.31851.36416c6.37009.16185 10.66991-4.37 8.75889-12.7863z" opacity=".426136" stroke="#fff" stroke-width="1.284375"/><path d="m-472.01818 282.85969-12.41967 12.92121c-.43542.45407-.42627 1.17586.0205 1.61838l.26253.26002c.44678.44251 1.15697.43322 1.59239-.0209l12.41968-12.92123 12.41967-12.92121c.4354-.45407.42625-1.17586-.0205-1.61838l-.26253-.26002c-.44677-.44251-1.15698-.43322-1.59238.0209l-12.41968 12.92123z" opacity=".170455" stroke="#000" stroke-width="1.284371"/></g></g><path d="m139.17585629 210.98567208.265-.27936.55802-.55802 4.46419-4.46419 8.92837-8.92837 8.92837-8.92837 4.46418-4.46418.55803-.55803c-.66731-2.09154-.77211-4.05807-.31442-6.18086.0774-.21602.11314-.39517.15348-.57379.0807-.35727.1795-.71255.29685-1.06458.23468-.70405.54342-1.39507.92894-2.06282.77106-1.3355 1.77627-2.45153 2.93384-3.32615 1.15758-.87463 2.46751-1.50785 3.848-1.87775 1.38048-.36989 2.83153-.47648 4.27133-.29783.7199.0893 1.43699.24997 2.14104.48465.35203.11734.7008.25318 1.03464.38496l.17179.65694.36436 1.35978.21122.84397-3.25501.84244-4.61703 1.23265-2.39283 4.13651 1.23265 4.61704 4.13652 2.39284 4.61704-1.23266 3.29796-.88812.41299 1.65315.18218.67989.0911.33995.044.14837s-.45641.57656-.70261.85419c-.49239.55528-1.03308 1.05294-1.61187 1.49025-1.15757.87462-2.46751 1.50783-3.84799 1.87773-1.38049.3699-2.83154.4765-4.27133.29784-.71991-.0893-1.437-.24997-2.14105-.48466-.088-.0293-.1977-.15752-.26339-.0915h-.00004l-.92566.93033-2.2321 2.23209-2.23209 2.23209-2.23209 2.2321-2.23209 2.23209-2.2321 2.23209-2.23209 2.23209-4.46418 4.46419-4.46419 4.46418-4.46418 4.46418-.55802.55802-.30062.33375c.43875 1.5737 1.0636 3.44697.31616 6.25515-.0942.35394-.17949.71255-.29684 1.06458-.23468.70405-.54342 1.39506-.92895 2.06281-.77106 1.33551-1.77626 2.45152-2.93384 3.32615-1.15757.87463-2.46751 1.50784-3.848 1.87774-1.38049.36991-2.83154.47649-4.27135.29783-.71989-.0893-1.43698-.24997-2.14103-.48466-.35203-.11733-.70079-.25319-1.04502-.40791l-.16142-.63399-.36436-1.35978-.20648-.8133 3.2503-.87316 4.61703-1.23265 2.39283-4.13651-1.23265-4.61704-4.13652-2.39284-4.61704 1.23266-3.2726.87113c-.0285-.10641-.0513-.19134-.074-.27632-.18217-.67988-.36435-1.35978-.50098-1.86971-.0683-.25495-.13223-.4777-.17208-.62642.22074-.30611.44792-.6084.69409-.88605.49238-.55526 1.03308-1.05293 1.61187-1.49024 1.15757-.87463 2.4675-1.50784 3.848-1.87774 1.38048-.36991 2.83152-.4765 4.27133-.29784.7199.0893 1.43699.24997 2.14104.48466.17601.0587.5114.16434.5114.16434z" style="opacity:.5;fill:none;stroke:#000;stroke-width:.409;stroke-linecap:round;stroke-linejoin:round"/><path d="m74.05049076 277.46212213-16.28357 17.72279c2.68738 7.5868-2.24333 14.0194-9.03757 13.59555-.45296-.0283-.88584-.0708-1.35364-.16185l-1.63234-1.49713 5.05626-4.81509.27869-4.28908-3.78224-3.47981-4.45907.48555-4.61832 4.41046-1.63233-1.61851c-.75265-7.30447 6.76822-13.83834 14.49196-9.46834l14.77067-15.33547m-4.11538 4.41164 16.28357-17.72277c-2.68738-7.58681 2.24333-14.01942 9.03757-13.59556.45296.0283.88584.0708 1.35365.16184l1.63233 1.49714-5.05626 4.81509-.27869 4.28907 3.78224 3.47982 4.45907-.48556 4.61832-4.41046 1.63233 1.61852c.75265 7.30446-6.76822 13.83833-14.49196 9.46833l-14.77067 15.33547" fill="url(#v)" stroke="#888a85" stroke-width="1.284"/><g stroke-linecap="round" stroke-linejoin="round"><g transform="translate(381.990115 -81.274387)"><path d="m-245.01837 389.10225c-.37813-.0667-1.05746-.23753-1.50962-.37956l-.82213-.25825-.21181-.88256c-.1165-.48542-.19655-.89699-.17788-.91461.0187-.0176 1.55269-.43399 3.40894-.92526s3.52722-.95262 3.71328-1.02521c.25784-.10061.6368-.64809 1.59375-2.30251.77091-1.3328 1.25538-2.30477 1.25524-2.51836-.00025-.34949-1.02442-4.36684-1.23988-4.86339-.14391-.33166-4.35575-2.79767-4.77395-2.79513-.16414.001-1.87137.42214-3.79383.93586-1.92247.51373-3.53201.8926-3.57676.84194-.0447-.0507-.14424-.35206-.2211-.66977-.0769-.31771-.17227-.66241-.21202-.766-.0972-.25319 1.14248-1.58112 2.14143-2.29396.89663-.63982 2.2556-1.28403 3.42634-1.62423 1.24666-.36226 4.23789-.33791 5.45098.0444.48866.154 1.05149.27999 1.25074.27999.31426 0 2.24692-1.88492 14.58028-14.22004 12.21088-12.21264 14.218-14.27025 14.218-14.57571 0-.19562-.0961-.70128-.21361-1.12371-.33068-1.189-.29836-4.07936.0603-5.39304.51685-1.89308 1.16337-3.19641 2.22259-4.48056 1.34515-1.63078 3.38172-2.91788 5.49323-3.4717 1.78154-.46727 4.57003-.31803 6.10324.32663.34331.14435.41659.26734.60561 1.01631.11827.46865.19563.87151.17189.89524-.0237.0237-1.60967.45929-3.52432.9679-1.91464.50861-3.5956.98599-3.73545 1.06084-.2283.12218-2.26466 3.48836-2.65165 4.38328-.13792.31894-.0823.63479.48712 2.76853.44207 1.65641.7249 2.49161.90568 2.67458.50635.51245 4.19864 2.5466 4.61786 2.54405.21726-.001 1.94077-.41963 3.83002-.92959 1.88924-.50995 3.45199-.91019 3.47276-.88942.0208.0208.14632.41738.27901.88134l.24124.84358-.71401.7504c-2.71041 2.84859-6.78853 3.95403-10.50856 2.84853-.52749-.15676-.88463-.20015-1.0625-.12908-.3351.13388-29.08044 28.88739-29.08044 29.0887 0 .0809.14055.72716.31234 1.43623 1.33208 5.49833-2.02845 11.14146-7.50274 12.59887-1.15043.30628-3.27604.42687-4.3096.24449z" fill="url(#w)" opacity=".5" stroke="#fff" stroke-width="1.761"/><g fill="none" stroke="#555753"><path d="m-239.31172 368.33867.265-.27936.55802-.55802 4.46419-4.46419 8.92837-8.92837 8.92837-8.92837 4.46418-4.46418.55803-.55803c-.66731-2.09154-.77211-4.05807-.31442-6.18086.0774-.21602.11314-.39517.15348-.57379.0807-.35727.1795-.71255.29685-1.06458.23468-.70405.54342-1.39507.92894-2.06282.77106-1.3355 1.77627-2.45153 2.93384-3.32615 1.15758-.87463 2.46751-1.50785 3.848-1.87775 1.38048-.36989 2.83153-.47648 4.27133-.29783.7199.0893 1.43699.24997 2.14104.48465.35203.11734.7008.25318 1.03464.38496l.17179.65694.36436 1.35978.21122.84397-3.25501.84244-4.61703 1.23265-2.39283 4.13651 1.23265 4.61704 4.13652 2.39284 4.61704-1.23266 3.29796-.88812.41299 1.65315.18218.67989.0911.33995.044.14837s-.45641.57656-.70261.85419c-.49239.55528-1.03308 1.05294-1.61187 1.49025-1.15757.87462-2.46751 1.50783-3.84799 1.87773-1.38049.3699-2.83154.4765-4.27133.29784-.71991-.0893-1.437-.24997-2.14105-.48466-.088-.0293-.1977-.15752-.26339-.0915h-.00004l-.92566.93033-2.2321 2.23209-2.23209 2.23209-2.23209 2.2321-2.23209 2.23209-2.2321 2.23209-2.23209 2.23209-4.46418 4.46419-4.46419 4.46418-4.46418 4.46418-.55802.55802-.30062.33375c.43875 1.5737 1.0636 3.44697.31616 6.25515-.0942.35394-.17949.71255-.29684 1.06458-.23468.70405-.54342 1.39506-.92895 2.06281-.77106 1.33551-1.77626 2.45152-2.93384 3.32615-1.15757.87463-2.46751 1.50784-3.848 1.87774-1.38049.36991-2.83154.47649-4.27135.29783-.71989-.0893-1.43698-.24997-2.14103-.48466-.35203-.11733-.70079-.25319-1.04502-.40791l-.16142-.63399-.36436-1.35978-.20648-.8133 3.2503-.87316 4.61703-1.23265 2.39283-4.13651-1.23265-4.61704-4.13652-2.39284-4.61704 1.23266-3.2726.87113c-.0285-.10641-.0513-.19134-.074-.27632-.18217-.67988-.36435-1.35978-.50098-1.86971-.0683-.25495-.13223-.4777-.17208-.62642.22074-.30611.44792-.6084.69409-.88605.49238-.55526 1.03308-1.05293 1.61187-1.49024 1.15757-.87463 2.4675-1.50784 3.848-1.87774 1.38048-.36991 2.83152-.4765 4.27133-.29784.7199.0893 1.43699.24997 2.14104.48466.17601.0587.5114.16434.5114.16434z" opacity=".5" stroke-width="1.3"/><rect height="2.083408" opacity=".5" rx=".974253" ry=".947004" stroke-width=".805931" transform="matrix(.70710678 -.70710678 .70710678 .70710678 0 0)" width="40.032948" x="-429.565918" y="94.733109"/></g></g><g transform="translate(447.861436 -214.156115)"><path d="m-222.36462 518.16316c-.3885-.0641-1.08646-.22826-1.55102-.36474l-.84468-.24816-.21761-.8481c-.1197-.46646-.20194-.86196-.18276-.87889.0192-.0169 1.59527-.41704 3.50242-.88913s3.62395-.91542 3.81511-.98517c.26491-.0967.65426-.62279 1.63745-2.2126.79206-1.28075 1.28981-2.21477 1.28967-2.42002-.00026-.33584-1.05252-4.19631-1.27388-4.67347-.14786-.3187-4.4752-2.68841-4.90487-2.68597-.16864.00096-1.92269.40565-3.89787.89931-1.97519.49367-3.62887.85774-3.67484.80906-.0459-.0487-.1482-.33831-.22717-.64361-.079-.30531-.17699-.63655-.21783-.73609-.0999-.2433 1.17381-1.51938 2.20015-2.20438.92122-.61483 2.31746-1.23389 3.5203-1.5608 1.28085-.34811 4.35411-.32472 5.60047.0427.50206.14798 1.08032.26905 1.28504.26905.32287 0 2.30853-1.81131 14.98011-13.66473 12.54574-11.73573 14.6079-13.71299 14.6079-14.00652 0-.18798-.0987-.67389-.21947-1.07983-.33975-1.14256-.30654-3.92005.0619-5.18243.53103-1.81916 1.19528-3.07159 2.28354-4.30559 1.38204-1.5671 3.47446-2.80394 5.64387-3.33613 1.8304-.44902 4.69536-.30561 6.27061.31387.35273.13872.42802.2569.62222.97663.12151.45035.20099.83747.1766.86028-.0243.0228-1.65381.44135-3.62096.9301s-3.69421.94749-3.83789 1.01941c-.23456.11741-2.32676 3.35214-2.72437 4.21211-.1417.30649-.0846.61.50048 2.66042.45419 1.59172.74478 2.39431.93052 2.57013.52023.49244 4.31378 2.44716 4.74449 2.44471.22322-.00097 1.99399-.40325 3.93505-.89329 1.94105-.49004 3.54666-.87465 3.568-.85469.0214.02.15033.40108.28666.84692l.24785.81064-.73359.7211c-2.78473 2.73735-6.97469 3.79962-10.79673 2.73729-.54196-.15064-.90889-.19234-1.09164-.12404-.34429.12865-29.87791 27.75931-29.87791 27.95276 0 .0777.14441.69876.32091 1.38014 1.36861 5.28362-2.08408 10.70638-7.70849 12.10688-1.18198.29431-3.36588.4102-4.42778.23494z" fill="url(#x)" stroke="#dbdbdb" stroke-width="1.749783"/><g fill="none" stroke="#555753"><path d="m-216.50152 498.21044.27227-.26845.57332-.53623 4.58661-4.28986 9.17321-8.57971 9.17321-8.57971 4.58661-4.28985.57333-.53624c-.68561-2.00986-.79329-3.8996-.32304-5.93949.0795-.20758.11624-.37974.15768-.55138.0829-.34332.18443-.68473.305-1.02301.24111-.67656.55832-1.34059.95441-1.98227.7922-1.28334 1.82498-2.35579 3.01429-3.19626 1.18933-.84047 2.53518-1.44896 3.95353-1.80442 1.41833-.35544 2.90918-.45787 4.38846-.2862.73964.0858 1.4764.24021 2.19975.46573.36169.11275.72002.24329 1.06302.36992l.1765.63129.37435 1.30668.21701.81101-3.34427.80954-4.74364 1.18452-2.45845 3.97497 1.26645 4.43674 4.24996 2.2994 4.74365-1.18452 3.3884-.85344.42431 1.58859.18718.65334.0936.32668.0452.14257s-.46892.55405-.72187.82083c-.5059.5336-1.06141 1.01183-1.65607 1.43206-1.18932.84046-2.53518 1.44895-3.95352 1.8044-1.41834.35546-2.90919.45789-4.38846.28621-.73965-.0858-1.47641-.24021-2.19976-.46573-.0904-.0282-.20313-.15137-.27062-.0879h-.00004l-.95104.894-2.29331 2.14492-2.2933 2.14493-2.2933 2.14493-2.2933 2.14493-2.29331 2.14492-2.29331 2.14493-4.5866 4.28986-4.58661 4.28985-4.5866 4.28985-.57332.53623-.30886.32071c.45078 1.51225 1.09276 3.31237.32483 6.01088-.0968.34012-.18442.68473-.30498 1.02301-.24112.67656-.55833 1.34058-.95443 1.98226-.7922 1.28335-1.82497 2.35578-3.01429 3.19626-1.18932.84047-2.53518 1.44895-3.95353 1.80441-1.41834.35546-2.90919.45788-4.38848.2862-.73963-.0858-1.47639-.24021-2.19974-.46573-.36169-.11275-.72001-.24331-1.07368-.39199l-.16585-.60923-.37435-1.30668-.21214-.78154 3.33943-.83906 4.74364-1.18451 2.45845-3.97498-1.26645-4.43674-4.24996-2.2994-4.74365 1.18453-3.36234.83711c-.0293-.10226-.0527-.18387-.076-.26553-.18717-.65333-.37434-1.30668-.51472-1.7967-.0702-.24499-.13586-.45904-.1768-.60195.22679-.29416.4602-.58465.71313-.85145.50588-.53358 1.06141-1.01182 1.65607-1.43205 1.18931-.84047 2.53516-1.44896 3.95352-1.80441 1.41834-.35547 2.90917-.45789 4.38846-.28621.73964.0858 1.4764.24021 2.19976.46573.18083.0564.52542.15793.52542.15793z" stroke-width="1.3"/><rect height="2.072453" rx=".96913" ry=".942024" stroke-width=".801693" transform="matrix(.73033825 -.68308568 .73033825 .68308568 0 0)" width="39.82243" x="-512.789185" y="219.935257"/></g></g></g></g></svg>