<svg height="300" width="300" xmlns="http://www.w3.org/2000/svg" xmlns:xlink="http://www.w3.org/1999/xlink"><linearGradient id="a" gradientTransform="matrix(.747426 0 0 1.337925 .25 132)" gradientUnits="userSpaceOnUse" spreadMethod="pad" x1="277.49091" x2="286.71185" xlink:href="#b" y1="794.37476" y2="776.55743"><stop offset="0" stop-color="#d83c36"/><stop offset="1" stop-color="#620101"/></linearGradient><linearGradient id="b" gradientTransform="matrix(.747426 0 0 1.337925 .25 132)" gradientUnits="userSpaceOnUse" spreadMethod="pad" x1="277.49091" x2="286.71185" xlink:href="#e" y1="794.37476" y2="776.55743"><stop offset="0" stop-color="#ff0b00"/><stop offset="1" stop-color="#a40000"/></linearGradient><linearGradient id="c" gradientTransform="matrix(.448461 0 0 2.229848 0 280)" gradientUnits="userSpaceOnUse" x1="433.22763" x2="504.90137" y1="408.78055" y2="408.78055"><stop offset="0" stop-color="#e4e4d2" stop-opacity=".6"/><stop offset="1" stop-color="#fff" stop-opacity="0"/></linearGradient><linearGradient id="d" gradientTransform="matrix(1.958518 0 0 .51059 0 280)" gradientUnits="userSpaceOnUse" x1="121.73791" x2="116.15244" y1="1726.7207" y2="1719.0306"><stop offset="0" stop-color="#ebebe2"/><stop offset="1" stop-color="#bcbc8e"/></linearGradient><linearGradient id="e" gradientTransform="matrix(.991342 0 0 1.008734 0 140)" x1="241.40817" x2="243.66159" xlink:href="#c" y1="998.6955" y2="1051.3652"/><linearGradient id="f" gradientTransform="matrix(.880685 0 0 1.13548 0 280)" gradientUnits="userSpaceOnUse" x1="296.1369" x2="230.01286" y1="768.0376" y2="833.85461"><stop offset="0" stop-color="#282323"/><stop offset="1" stop-color="#655e5e"/></linearGradient><linearGradient id="g" gradientTransform="matrix(.448461 0 0 2.229848 0 280)" gradientUnits="userSpaceOnUse" x1="433.22763" x2="504.90137" xlink:href="#c" y1="408.78055" y2="408.78055"/><linearGradient id="h" gradientTransform="matrix(.747426 0 0 1.337925 .25 132)" gradientUnits="userSpaceOnUse" spreadMethod="pad" x1="277.49091" x2="286.71185" xlink:href="#a" y1="794.37476" y2="776.55743"/><linearGradient id="i" gradientTransform="matrix(.834058 0 0 1.198958 0 132)" x1="250.28658" x2="252.10155" xlink:href="#c" y1="868.11609" y2="885.64746"/><radialGradient id="j" cx="169.88104" cy="1794.8795" gradientTransform="scale(1.459845 .685004)" gradientUnits="userSpaceOnUse" r="44.525272"><stop offset="0" stop-opacity=".392157"/><stop offset="1" stop-opacity="0"/></radialGradient><linearGradient id="k" gradientTransform="matrix(1.175962 0 0 .850368 0 280)" gradientUnits="userSpaceOnUse" spreadMethod="reflect" x1="205.99301" x2="211.85287" y1="1137.6046" y2="1082.9424"><stop offset="0" stop-color="#c15507"/><stop offset="1" stop-color="#753504"/></linearGradient><linearGradient id="l" gradientTransform="matrix(1.615039 0 0 .61918 0 140)" x1="143.15617" x2="164.79172" xlink:href="#c" y1="1700.754" y2="1776.3087"/><linearGradient id="m" gradientTransform="matrix(1.362229 0 0 .734091 0 140)" x1="191.07132" x2="191.07132" xlink:href="#a" y1="1478.1887" y2="1444.9415"/><linearGradient id="n" gradientTransform="matrix(1.514725 0 0 .660186 0 140)" spreadMethod="pad" x1="175.50798" x2="167.51932" xlink:href="#c" y1="1674.547" y2="1666.985"/><linearGradient id="o" gradientTransform="matrix(1.514725 0 0 .660186 0 140)" x1="140.18318" x2="147.68718" xlink:href="#c" y1="1674.4733" y2="1669.3435"/><linearGradient id="p" gradientTransform="matrix(.907281 0 0 1.102195 0 140)" x1="223.66299" x2="227.17216" xlink:href="#a" y1="1000.8626" y2="985.21222"/><linearGradient id="q" gradientTransform="matrix(.965146 0 0 1.036113 0 140)" x1="211.96373" x2="212.00743" xlink:href="#c" y1="1048.0908" y2="1068.4087"/><linearGradient id="r" gradientTransform="matrix(1.362229 0 0 .734091 0 140)" x1="196.64761" x2="182.96735" xlink:href="#c" y1="1437.2679" y2="1493.8745"/><linearGradient id="s" gradientUnits="userSpaceOnUse" spreadMethod="pad" x1="122.26408" x2="116.04919" xlink:href="#c" y1="36.736969" y2="10.674049"/><linearGradient id="t" gradientTransform="matrix(1.937868 0 0 .516031 0 140)" x1="126.13629" x2="115.16805" xlink:href="#c" y1="1985.5347" y2="1976.4353"/><linearGradient id="u" gradientTransform="matrix(1.514725 0 0 .660186 0 140)" x1="140.25737" x2="157.33363" xlink:href="#d" y1="1696.1609" y2="1634.5474"/><linearGradient id="v" gradientTransform="matrix(1.958518 0 0 .51059 0 280)" gradientUnits="userSpaceOnUse" x1="121.73791" x2="116.15244" xlink:href="#d" y1="1726.7207" y2="1719.0306"/><linearGradient id="w" gradientTransform="matrix(1.514725 0 0 .660186 0 280)" x1="131.91928" x2="189.13556" xlink:href="#d" y1="1448.4674" y2="1448.4674"/><rect fill="none" height="300" rx="2.041994" ry="1.460517" width="300" x="-.000004"/><g transform="translate(12.27232 17.785897)"><g transform="matrix(2.396429 0 0 2.396429 -445.856245 -2758.016107)"><path d="m202.4685 1162.0158 46.06299-10.63 14.17323 3.5433-3.54331 56.6929-42.51968 17.7166-14.17323-10.6299z" fill="url(#f)" stroke="#000"/><path d="m203.92858 1163.2143-.00001 54.2857 12.85714 9.6429.00001-58.9286c-6.58381-.076-11.39985-3.1566-12.85714-5z" fill="url(#g)" opacity=".75"/><path id="x" d="m207.05602 1162.3463c1.91331 1.9404 5.06405 3.7039 9.45223 3.8765l42.76907-11.6889-9.21597-2.217z" fill="url(#v)" stroke="#000" stroke-opacity=".196078"/><path d="m218.75 1168.25 41.25-11.5-.75 24.5c-1.41667 26.8333-31.08333-18.8333-40.5 16.25z" fill="url(#e)" opacity=".746"/><path d="m202.65931 1172.2908c3.53554 3.4177 8.66207 5.9514 13.96537 5.8336l-.17678 20.1526c-4.65512-.4714-11.07801-2.8873-13.61181-6.7175z" fill="url(#h)" stroke="#000" stroke-opacity=".392157"/><path d="m203.85355 1175.1036c2.16667 2.5 7.56817 4.7045 11.23484 4.4545 0 3.6666.6594 8.9082-1.13128 10.1135-3.39432 2.2845-5.29029-10.3055-9.95711-3.9216-.16667-3.4167.0202-7.2297-.14645-10.6464z" fill="url(#i)"/><use fill="url(#t)" height="274.26697" stroke-opacity=".196078" width="308.90109" xlink:href="#x"/></g><path d="m313 1229.5c0 16.8447-29.10149 30.5-65 30.5s-65-13.6553-65-30.5 29.10149-30.5 65-30.5 65 13.6553 65 30.5z" fill="url(#j)" transform="matrix(1.38220752576 -.29816609261 -.06389775978 1.76948243431 -92.4023785749 -1932.4137250656)"/><g transform="matrix(2.396429 0 0 2.396429 -445.856245 -2758.016107)"><path d="m199.42519 1218.2087 53.14961-21.2599 35.43307 21.2599v14.1732l-53.14961 28.3465-35.43307-28.3465z" fill="url(#k)" stroke="#000"/><path id="y" d="m287.32142 1219.6429-52.5 26.7857-34.64285-25.5357-.35715 8.9285 35.17858 28.0357 52-27.5z" fill="url(#w)" stroke="#000" stroke-opacity=".196078" stroke-width="2"/><path d="m203.64675 1218.8282 48.79038-20.1526 32.17335 19.799c-6.24611 3.182-15.54114 7.6317-21.2132 8.4852-25.43527 3.8277-17.32413-13.0813-59.75053-8.1316z" fill="url(#l)" opacity=".5"/><path d="m252.25 1200.75-15.5 6.5 28.25 17.25 15-6.5z" fill="url(#m)" stroke="#000" stroke-opacity=".392157"/><use fill="url(#u)" height="274.26697" stroke="#000" stroke-opacity=".196078" width="308.90109" xlink:href="#y"/><path d="m287.32142 1219.6429-52.5 26.7857.17858 11.4285 52-27.5z" fill="url(#n)"/><path d="m234.82142 1246.4286-34.64285-25.5357-.35715 8.9285 35.17858 28.0357z" fill="url(#o)"/><path d="m203.4845 1227.1864c3.35687 2.7751 6.71374 5.5503 10.07061 8.3254-4.22441 1.4055-4.94882 16.8111-14.17323 17.7166 1.5689-5.2717 1.6378-8.2933 1.7067-12.315-2.43111 1.4783-6.36221 2.7067-8.79331 1.685 6.72974-4.8873 7.45949-14.5247 11.18923-15.412z" fill="url(#p)" stroke="#000"/><path d="m202.49142 1229.5508c-.94292.6387-2.08557 4.4212-3.44086 7.1318 3.18198-3.1231 4.34944 7.152 7.42462 6.8942 1.82177-.1527 2.91988-4.3316 3.84619-6.8084.85768-2.2933-6.36252-8.2116-7.82995-7.2176z" fill="url(#q)"/><path d="m252.125 1202.25-12.5 5.125c11.95833-3.6667 18.75443 5.9428 25.625 11.5 4.75781 3.8483 14.83333-.9583 7.875-4.125z" fill="url(#r)"/></g><path d="m50.338806 27.464273c33.968425-7.921875 68.462684-15.966384 103.016354-24.0247461 8.0992 1.928039 12.20048 2.9146461 22.12828 5.3028857-34.11013 9.3223904-68.15321 18.7966484-102.881315 27.9945554-3.478439-.519528-10.014277-.718608-14.720211-3.78724-4.705934-3.068633-5.007347-3.46046-7.543108-5.485455z" fill="url(#s)"/></g></svg>