<svg height="146.230408" width="222.508743" xmlns="http://www.w3.org/2000/svg" xmlns:xlink="http://www.w3.org/1999/xlink"><linearGradient id="a" gradientUnits="userSpaceOnUse" x1="4.1914" x2="47.319698" y1="11.1133" y2="56.052299"><stop offset="0" stop-color="#fff"/><stop offset="1" stop-color="#fff" stop-opacity=".340206"/></linearGradient><linearGradient id="b" gradientUnits="userSpaceOnUse" x1="4.1914" x2="47.319698" y1="11.1133" y2="56.052299"><stop offset="0" stop-color="#d4d4d4"/><stop offset=".3982" stop-color="#e2e2e2"/><stop offset="1" stop-color="#fff"/></linearGradient><linearGradient id="c" gradientTransform="matrix(.89900898 0 -.00391335 .93423498 5.307724 40.552384)" gradientUnits="userSpaceOnUse" x1="8.546934" x2="30.85088" xlink:href="#a" y1="30.281681" y2="48.301884"/><linearGradient id="d" gradientTransform="matrix(.899009 0 0 .934235 1.875108 1.193645)" gradientUnits="userSpaceOnUse" x1="8.546934" x2="30.85088" xlink:href="#a" y1="30.281681" y2="48.301884"/><linearGradient id="e" gradientTransform="matrix(.89900898 0 -.00391335 .93423498 1.425463 77.422253)" gradientUnits="userSpaceOnUse" x1="8.546934" x2="30.85088" xlink:href="#a" y1="30.281681" y2="48.301884"/><linearGradient id="f" gradientTransform="matrix(.899009 0 -.00391336 .934235 37.022821 77.437479)" gradientUnits="userSpaceOnUse" x1="8.546934" x2="30.85088" xlink:href="#a" y1="30.281681" y2="48.301884"/><linearGradient id="g" gradientTransform="matrix(.899009 0 -.00391336 .934235 36.417693 111.74484)" gradientUnits="userSpaceOnUse" x1="8.546934" x2="30.85088" xlink:href="#a" y1="30.281681" y2="48.301884"/><linearGradient id="h" gradientTransform="matrix(.89900898 0 -.00391335 -.93423498 84.804834 101.30606)" gradientUnits="userSpaceOnUse" x1="8.546934" x2="30.85088" xlink:href="#a" y1="30.281681" y2="48.301884"/><linearGradient id="i" gradientTransform="matrix(.89900898 0 -.00391335 .93423498 .820335 111.72961)" gradientUnits="userSpaceOnUse" x1="8.546934" x2="30.85088" xlink:href="#a" y1="30.281681" y2="48.301884"/><linearGradient id="j" gradientTransform="matrix(.899009 0 -.00391336 -.934235 123.821516 253.688778)" gradientUnits="userSpaceOnUse" x1="8.546934" x2="30.85088" xlink:href="#a" y1="30.281681" y2="48.301884"/><g transform="matrix(1.566667 0 0 1.566667 -16.11889205957 -86.60967954459)"><path d="m36.568318 78.003484-10.790167-20.249979c-.310142-.562499-.871333-.874998-1.496332-.874998-.625 0-1.18907.374998-1.503925.937498l-10.709815 20.249981c-.252094.499999-.254974 1.187498.05543 1.687497.310405.500001.809358.749999 1.434359.749999h21.499978c.624999 0 1.188807-.312499 1.440902-.812499.314594-.5.317212-1.124998.06957-1.687499z" fill="#ff0" stroke="#edd400" stroke-width=".638298"/><path d="m9.5 37.6c-.3.5 0 .9.5.9h28.2c.5 0 .8-.4.5-.9l-14.3-26.6c-.3-.5-.7-.5-.9 0z" fill="url(#b)" transform="matrix(.625 0 -.00265678 .634254 9.349118 53.842694)"/><path d="m35.600777 77.542645-10.093591-18.918239c-.429877-.814976-.584064-1.076453-1.237356-1.076453-.561881 0-.855874.380807-1.261918 1.150078l-9.981558 18.903005c-.579609 1.061293-.641709 1.337932-.362725 1.805049.278982.467117.637182.441675 1.960699.472147h19.618152c1.232168.01523 1.509724-.07865 1.736433-.545772.282898-.467118.162568-.83772-.378136-1.789815z" fill="none" opacity=".5" stroke="url(#c)" stroke-width=".638298"/><path d="m23.9 36.5c-1.3 0-2.3-1-2.3-2.3 0-1.4.9-2.3 2.3-2.3s2.2.9 2.3 2.3c0 1.3-.9 2.3-2.3 2.3zm-1.4-5.9-.6-11.5h4l-.6 11.5h-2.9z" transform="matrix(.555088 0 0 .555052 11.002164 55.884104)"/></g><path d="m33.282781 38.644744-10.87499-20.249979c-.312499-.562499-.874999-.874998-1.499998-.874998-.625 0-1.187499.374998-1.499998.937498l-10.6249902 20.24998c-.25.499999-.25 1.187499.0625 1.687498.312499.5.812499.749999 1.4374992.749999h21.499978c.624999 0 1.187498-.312499 1.437499-.812499.312499-.5.312499-1.124999.0625-1.687499z" fill="#c00" stroke="#9f0000" stroke-width=".638298" transform="matrix(1.566667 0 -.0065625174 1.566667 45.05126217051 -24.92378791993)"/><path d="m9.5 37.6c-.3.5 0 .9.5.9h28.2c.5 0 .8-.4.5-.9l-14.3-26.6c-.3-.5-.7-.5-.9 0z" fill="url(#b)" transform="matrix(.979166875 0 -.00416230025 .99366481142 54.29726842752 -2.23225515861)"/><path d="m32.323106 38.183905-10.172835-18.918239c-.433291-.814976-.588573-1.076453-1.241865-1.076453-.561881 0-.854279.380807-1.257101 1.150078l-9.9023765 18.903005c-.5751636 1.061292-.6361047 1.337932-.3551641 1.805049.280939.467117.6390326.441675 1.9626766.472146h19.618152c1.232232.01523 1.509395-.07865 1.734147-.545771.280941-.467118.159059-.83772-.385634-1.789815z" fill="none" opacity=".5" stroke="url(#d)" stroke-width=".638298" transform="matrix(1.566667 0 -.0065625174 1.566667 45.03591353391 -24.92378791993)"/><path d="m23.9 36.5c-1.3 0-2.3-1-2.3-2.3 0-1.4.9-2.3 2.3-2.3s2.2.9 2.3 2.3c0 1.3-.9 2.3-2.3 2.3zm-1.4-5.9-.6-11.5h4l-.6 11.5h-2.9z" transform="matrix(.8696380517 0 0 .86958165168 56.88704127361 .96595452186)"/><g transform="matrix(1.566667 0 0 1.566667 -8.45268282846 -90.60967962899)"><path d="m32.686057 114.87335-10.790167-20.249976c-.310142-.562499-.871333-.874998-1.496332-.874998-.625 0-1.18907.374998-1.503925.937498l-10.7098149 20.249986c-.252094.49999-.254974 1.18749.05543 1.68749.310405.5.809358.75 1.434359.75h21.4999779c.624999 0 1.188807-.3125 1.440902-.8125.314594-.5.317212-1.125.06957-1.6875z" fill="#ff0" stroke="#edd400" stroke-width=".638298"/><path d="m31.718516 114.41251-10.093591-18.918235c-.429877-.814976-.584064-1.076453-1.237356-1.076453-.561881 0-.855874.380807-1.261918 1.150078l-9.9815579 18.903c-.579609 1.0613-.641709 1.33794-.362725 1.80505.278982.46712.637182.44168 1.9606989.47215h19.618152c1.232168.0152 1.509724-.0786 1.736433-.54577.282898-.46712.162568-.83772-.378136-1.78982z" fill="none" opacity=".5" stroke="url(#e)" stroke-width=".638298"/><path d="m23.9 36.5c-1.3 0-2.3-1-2.3-2.3 0-1.4.9-2.3 2.3-2.3s2.2.9 2.3 2.3c0 1.3-.9 2.3-2.3 2.3zm-1.4-5.9-.6-11.5h4l-.6 11.5h-2.9z" transform="matrix(.555088 0 0 .555052 7.119903 92.753973)"/></g><g transform="matrix(1.566667 0 0 1.566667 -8.45268282846 -90.60967962899)"><path d="m68.283414 114.88858-10.790166-20.249981c-.310143-.562499-.871334-.874998-1.496333-.874998-.625 0-1.189069.374998-1.503925.937498l-10.709814 20.249981c-.252094.5-.254974 1.1875.05543 1.6875s.809357.75 1.434357.75h21.499978c.624999 0 1.188807-.3125 1.440903-.8125.314593-.5.317211-1.125.06957-1.6875z" fill="#c00" stroke="#9f0000" stroke-width=".638298"/><path d="m67.315873 114.42774-10.09359-18.91824c-.429877-.814976-.584064-1.076453-1.237356-1.076453-.561881 0-.855874.380807-1.261918 1.150078l-9.981558 18.903005c-.57961 1.06129-.641709 1.33793-.362726 1.80505s.637183.44167 1.960699.47215h19.618152c1.232169.0152 1.509725-.0786 1.736433-.54578.282898-.46711.162569-.83772-.378136-1.78981z" fill="none" opacity=".5" stroke="url(#f)" stroke-width=".638298"/><path d="m23.9 36.5c-1.3 0-2.3-1-2.3-2.3 0-1.4.9-2.3 2.3-2.3s2.2.9 2.3 2.3c0 1.3-.9 2.3-2.3 2.3zm-1.4-5.9-.6-11.5h4l-.6 11.5h-2.9z" transform="matrix(.555088 0 0 .555052 42.717261 92.769198)"/></g><g stroke-width=".638298" transform="matrix(1.566667 0 0 -1.566667 -7.68492983177 343.17731529943)"><path d="m32.080929 149.18071-10.790167-20.24997c-.310142-.5625-.871333-.875-1.496332-.875-.625 0-1.18907.375-1.503925.9375l-10.7098145 20.24998c-.252094.49999-.254974 1.18749.05543 1.68749.310405.5.809358.75 1.434359.75h21.4999775c.624999 0 1.188807-.3125 1.440902-.8125.314594-.5.317212-1.125.06957-1.6875z" fill="#ff0" stroke="#edd400"/><path d="m31.113388 148.71987-10.093591-18.91823c-.429877-.81498-.584064-1.07646-1.237356-1.07646-.561881 0-.855874.38081-1.261918 1.15008l-9.9815575 18.903c-.579609 1.0613-.641709 1.33794-.362725 1.80505.278982.46712.637182.44168 1.9606985.47215h19.618152c1.232168.0152 1.509724-.0786 1.736433-.54577.282898-.46712.162568-.83772-.378136-1.78982z" fill="none" opacity=".5" stroke="url(#i)"/></g><path d="m23.9 36.5c-1.3 0-2.3-1-2.3-2.3 0-1.4.9-2.3 2.3-2.3s2.2.9 2.3 2.3c0 1.3-.9 2.3-2.3 2.3zm-1.4-5.9-.6-11.5h4l-.6 11.5h-2.9z" transform="matrix(.8696380517 0 0 .86958165168 2.52155473982 97.98623746446)"/><g stroke-width=".638298" transform="matrix(1.566667 0 0 -1.566667 -13.62624182922 344.37495075425)"><path d="m67.678286 149.19594-10.790166-20.24998c-.310143-.5625-.871334-.875-1.496333-.875-.625 0-1.189069.375-1.503925.9375l-10.709814 20.24998c-.252094.5-.254974 1.1875.05543 1.6875s.809357.75 1.434357.75h21.499978c.624999 0 1.188807-.3125 1.440903-.8125.314593-.5.317211-1.125.06957-1.6875z" fill="#c00" stroke="#9f0000"/><path d="m66.710745 148.7351-10.09359-18.91824c-.429877-.81497-.584064-1.07645-1.237356-1.07645-.561881 0-.855874.38081-1.261918 1.15008l-9.981558 18.903c-.57961 1.06129-.641709 1.33793-.362726 1.80505s.637183.44167 1.960699.47215h19.618152c1.232169.0152 1.509725-.0786 1.736433-.54578.282898-.46711.162569-.83772-.378136-1.78981z" fill="none" opacity=".5" stroke="url(#g)"/></g><path d="m23.9 36.5c-1.3 0-2.3-1-2.3-2.3 0-1.4.9-2.3 2.3-2.3s2.2.9 2.3 2.3c0 1.3-.9 2.3-2.3 2.3zm-1.4-5.9-.6-11.5h4l-.6 11.5h-2.9z" transform="matrix(.8696380517 0 0 .86958165168 52.3494472415 99.16001258087)"/><g transform="matrix(1.566667 0 0 1.566667 -14.07893025887 -92.57259117996)"><path d="m116.06543 63.854951-10.79017 20.249979c-.31014.562499-.87133.874998-1.49633.874998s-1.18907-.374998-1.50393-.937498l-10.709811-20.249981c-.252094-.499999-.254974-1.187498.05543-1.687497.310405-.500001.809358-.749999 1.434359-.749999h21.499982c.625 0 1.1888.312499 1.4409.812499.31459.5.31721 1.124998.0696 1.687499z" fill="#ff0" stroke="#edd400" stroke-width=".638298"/><path d="m9.5 37.6c-.3.5 0 .9.5.9h28.2c.5 0 .8-.4.5-.9l-14.3-26.6c-.3-.5-.7-.5-.9 0z" fill="url(#b)" transform="matrix(.625 0 -.00265678 -.634254 88.846228 88.015741)"/><path d="m115.09789 64.31579-10.09359 18.918239c-.42988.814976-.58407 1.076453-1.23736 1.076453-.56188 0-.85587-.380807-1.26192-1.150078l-9.981556-18.903005c-.579609-1.061293-.641709-1.337932-.362725-1.805049.278982-.467117.637182-.441675 1.960699-.472147h19.618152c1.23217-.01523 1.50972.07865 1.73643.545772.2829.467118.16257.83772-.37813 1.789815z" fill="none" opacity=".5" stroke="url(#h)" stroke-width=".638298"/><path d="m23.9 36.5c-1.3 0-2.3-1-2.3-2.3 0-1.4.9-2.3 2.3-2.3s2.2.9 2.3 2.3c0 1.3-.9 2.3-2.3 2.3zm-1.4-5.9-.6-11.5h4l-.6 11.5h-2.9z" transform="matrix(.555088 0 0 .555052 90.499274 55.25417)"/></g><path d="m33.282781 38.644744-10.87499-20.249979c-.312499-.562499-.874999-.874998-1.499998-.874998-.625 0-1.187499.374998-1.499998.937498l-10.6249902 20.24998c-.25.499999-.25 1.187499.0625 1.687498.312499.5.812499.749999 1.4374992.749999h21.499978c.624999 0 1.187498-.312499 1.437499-.812499.312499-.5.312499-1.124999.0625-1.687499z" fill="#c00" stroke="#9f0000" stroke-width=".638298" transform="matrix(1.566667 0 -.0065625174 -1.566667 167.84213626289 66.57625611482)"/><path d="m9.5 37.6c-.3.5 0 .9.5.9h28.2c.5 0 .8-.4.5-.9l-14.3-26.6c-.3-.5-.7-.5-.9 0z" fill="url(#b)" transform="matrix(.979166875 0 -.00416230025 -.99366481142 177.0881425199 43.88472335351)"/><path d="m32.323106 38.183905-10.172835-18.918239c-.433291-.814976-.588573-1.076453-1.241865-1.076453-.561881 0-.854279.380807-1.257101 1.150078l-9.9023765 18.903005c-.5751636 1.061292-.6361047 1.337932-.3551641 1.805049.280939.467117.6390326.441675 1.9626766.472146h19.618152c1.232232.01523 1.509395-.07865 1.734147-.545771.280941-.467118.159059-.83772-.385634-1.789815z" fill="none" opacity=".5" stroke="url(#d)" stroke-width=".638298" transform="matrix(1.566667 0 -.0065625174 -1.566667 167.82678762629 66.57625611482)"/><path d="m23.9 36.5c-1.3 0-2.3-1-2.3-2.3 0-1.4.9-2.3 2.3-2.3s2.2.9 2.3 2.3c0 1.3-.9 2.3-2.3 2.3zm-1.4-5.9-.6-11.5h4l-.6 11.5h-2.9z" transform="matrix(.8696380517 0 0 .86958165168 179.67791849932 -7.44177073369)"/><g transform="matrix(1.566667 0 0 1.566667 -73.33429626639 -282.67534896068)"><path d="m155.0822916 216.21482481-10.79016608 20.249979c-.31014278.562499-.87133377.874998-1.49633277.874998-.625 0-1.18906981-.374998-1.50392503-.937498l-10.70981413-20.24998c-.25209442-.499999-.25497424-1.187499.05543134-1.687498.31040458-.5.80935737-.749999 1.43435757-.749999h21.499978c.624999 0 1.18880701.312499 1.44090243.812499.31459342.5.31721144 1.124999.06956866 1.687499z" stroke="#000" stroke-width=".638298"/><path d="m9.5 37.6c-.3.5 0 .9.5.9h28.2c.5 0 .8-.4.5-.9l-14.3-26.6c-.3-.5-.7-.5-.9 0z" fill="#ff0" transform="matrix(.625 0 -.00265679 -.634254 127.863092 240.375615)"/><path d="m154.11456807 216.6985185-10.09358952 18.918239c-.4298772.814976-.58406391 1.076453-1.23735591 1.076453-.561881 0-.85587414-.380807-1.26191849-1.150078l-9.98155816-18.903005c-.57960918-1.061292-.64170908-1.337932-.36272516-1.805049.27898232-.467117.63718249-.441675 1.96069886-.472146h19.618152c1.2321682-.01523 1.50972445.07865 1.73643315.545771.28289768.467118.16256808.83772-.37813675 1.789815z" fill="none" opacity=".5" stroke="url(#j)" stroke-width=".638298"/><path d="m23.9 36.5c-1.3 0-2.3-1-2.3-2.3 0-1.4.9-2.3 2.3-2.3s2.2.9 2.3 2.3c0 1.3-.9 2.3-2.3 2.3zm-1.4-5.9-.6-11.5h4l-.6 11.5h-2.9z" transform="matrix(.555088 0 0 .555052 129.51614 207.61403)"/></g></svg>