<svg height="297mm" width="210mm" xmlns="http://www.w3.org/2000/svg"><g fill="none"><path d="m339.41125488 174.0345459a116.1675415 116.1675415 0 1 1 -232.33508301 0 116.1675415 116.1675415 0 1 1 232.33508301 0z" opacity=".99" stroke="#000" stroke-width=".777032" transform="matrix(1.2869344 0 0 1.2869344 -124.601317 -51.374837)"/><path d="m250.01275635 181.86322021a76.51905823 76.51905823 0 1 1 -153.03811646 0 76.51905823 76.51905823 0 1 1 153.03811646 0z" opacity=".99" stroke="#000" stroke-linecap="round" stroke-linejoin="round" stroke-width="1.545785" transform="matrix(.64689789 0 0 .64689789 50.465989 54.949274)"/><path d="m165.15994263 228.07769775a62.12438202 62.12438202 0 0 1 -124.24876404 0" opacity=".99" transform="matrix(1.60162532 0 0 1.59357668 47.674335 -190.363076)"/><path d="m165.15994263 228.07769775a62.12438202 62.12438202 0 0 1 -124.24876404 0" opacity=".99" stroke="#000" stroke-linecap="round" stroke-linejoin="round" stroke-width=".625961" transform="matrix(1.60162532 0 0 -1.59357668 47.674335 535.555492)"/><path d="m165.15994263 228.07769775a62.12438202 62.12438202 0 0 1 -124.24876404 0" opacity=".99" stroke="#000" stroke-linecap="round" stroke-linejoin="round" stroke-width=".625961" transform="matrix(1.60162532 0 0 1.59357668 -52.325666 -190.363094)"/><path d="m165.15994263 228.07769775a62.12438202 62.12438202 0 0 1 -124.24876404 0" opacity=".99" transform="matrix(1.60162532 0 0 -1.59357668 -52.325666 535.555491)"/></g><g stroke-linecap="round" stroke-linejoin="round" transform="translate(292.944238 -56.568543)"><path d="m214.21394574 239.01627241c0 27.33810477 22.16189561 49.75002584 49.50000039 49.75002584 27.33810477 0 49.50001749-22.16191271 49.50000039-49.25001749-.0000171 54.92617177-44.54767701 99.24996658-99.50000039 99.24996658s-99.49998329-44.3237948-99.49999441-99.24996658c-.00001112-82.81657316 66.93342125-149.75000554 149.49999441-149.75000554s149.50000554 66.93343238 149.49999441 149.24999718c-.00001112-54.92618013-44.54767103-99.24997493-99.49999441-99.24997493s-99.50000039 44.57380316-99.50000039 99.24997493z" opacity=".99" stroke="#000"/><path d="m313.21395769 239.51627805c0-27.33810477-22.16189561-49.75002584-49.50000039-49.75002584-27.33810477 0-49.50001749 22.16191271-49.50000039 49.25001749.0000171-54.92617177 44.54767701-99.24996658 99.50000039-99.24996658s99.49998329 44.3237948 99.49999441 99.24996658c.00001112 82.81657316-66.93342125 149.75000554-149.49999441 149.75000554s-149.50000554-66.93343238-149.49999441-149.24999718c.00001112 54.92618013 44.54767103 99.24997493 99.49999441 99.24997493s99.50000039-44.57380316 99.50000039-99.24997493z" fill="#fff" opacity=".99" stroke="#fff"/></g><g stroke-linecap="round" stroke-linejoin="round" transform="translate(95.900349 488.836942)"><path d="m214.21394574 239.01627241c0 27.33810477 22.16189561 49.75002584 49.50000039 49.75002584 27.33810477 0 49.50001749-22.16191271 49.50000039-49.25001749-.0000171 54.92617177-44.54767701 99.24996658-99.50000039 99.24996658s-99.49998329-44.3237948-99.49999441-99.24996658c-.00001112-82.81657316 66.93342125-149.75000554 149.49999441-149.75000554s149.50000554 66.93343238 149.49999441 149.24999718c-.00001112-54.92618013-44.54767103-99.24997493-99.49999441-99.24997493s-99.50000039 44.57380316-99.50000039 99.24997493z" opacity=".99" stroke="#000"/><path d="m313.21395769 239.51627805c0-27.33810477-22.16189561-49.75002584-49.50000039-49.75002584-27.33810477 0-49.50001749 22.16191271-49.50000039 49.25001749.0000171-54.92617177 44.54767701-99.24996658 99.50000039-99.24996658s99.49998329 44.3237948 99.49999441 99.24996658c.00001112 82.81657316-66.93342125 149.75000554-149.49999441 149.75000554s-149.50000554-66.93343238-149.49999441-149.24999718c.00001112 54.92618013 44.54767103 99.24997493 99.49999441 99.24997493s99.50000039-44.57380316 99.50000039-99.24997493z" fill="#fff" opacity=".99" stroke="#fff"/></g><path d="m59.614301 428.103217h600v600h-600z" fill="none" opacity=".99"/></svg>