<svg height="300" width="450" xmlns="http://www.w3.org/2000/svg"><path d="m-84.422871-246.46318c.06787-.0509 0 .16968 0 0z" fill="none" stroke="#000"/><g stroke="#000" transform="translate(-184.66895 -174.34726)"><path d="m290.0048 194.42098c-11.70554 3.48002-6.06367 69.5758-11.71875 61.375-.9491-4.11276-14.23938-21.83183-22.78125-20.25 0 0 12.03286 19.92074-6 72.4375 0 0-7.27481-20.8518-18.03125-22.75 0 0-2.23483 50.28287-6.03125 62.9375 0 0-1.55995-2.85244-12-9.8125-4.32427 22.95371-11.72178 125.95772 65.46875 111.375-12.97101-5.69459-36.35987-26.89529-40.15625-63.59375 0 0 6.31281 2.85181 8.84375 4.75.80035.60026 6.65271-31.00838 9.5-35.4375 0 0 6.01771 47.14947 22.46875 55.375 0 0-9.51449-35.45553-.65625-54.4375 0 0 9.17268 25.96522 15.5 28.8125 0 0 18.04219-27.21196 12.03125-66.125 0 0 26.88112 31.94909 13.59375 61.6875-.53212 1.19094 15.18783-14.24356 17.71875-25 0 0 6.96424 10.13982 2.21875 34.5-.24197 1.24212 7.59795-3.18783 9.8125-5.71875 0 0 .94298 41.1472-48.09375 62.34375 15.8472 13.47012 99.99033.9388 85.4375-81-3.60426 9.01064-10.125 14.87499-10.125 14.875-1.8982-17.7165 21.80896-54.4259-6.03125-86.0625 0 0-6.00837 20.57829-10.4375 21.84375 0 0-11.70168-70.87499-31-70.875 0 0 .31992 23.09795-2.84375 25.3125 0 0-15.51288-47.44169-24.6875-49.65625-4.9064-3.85503-12-26.90625-12-26.90625zm8.53125 67.71875c-.31636 11.38918 1.26095 12.95812-4.75 21.5-.54642-4.84098-.65666-21.66152 4.75-21.5z" fill-rule="evenodd"/><path d="m235.58138 454.47574h118.3209v6.643687h-118.3209z" stroke-linecap="square" stroke-opacity=".4" stroke-width=".637795"/></g><g transform="translate(1163.7105 -349.29318)"><path d="m-830.7466 448.83842c-4.18929 1.29428-2.17012 25.87648-4.19402 22.82646-.33967-1.52961-5.09611-8.11965-8.15315-7.53134 0 0 4.30642 7.40888-2.14734 26.9408 0 0-2.60357-7.75516-6.45318-8.46113 0 0-.79982 18.70109-2.15852 23.40757 0 0-.55829-1.06087-4.29467-3.64944-1.54761 8.53689-4.19509 46.84592 23.43055 41.42235-4.64219-2.11792-13.0128-10.00284-14.37148-23.65165 0 0 2.25928 1.06064 3.16508 1.76661.28643.22325 2.38093-11.53257 3.39994-13.17984 0 0 2.15367 17.53573 8.04132 20.59495 0 0-3.40513-13.18654-.23486-20.24628 0 0 3.2828 9.65693 5.54727 10.71589 0 0 6.4571-10.12062 4.30586-24.59307 0 0 9.62045 11.88244 4.86505 22.94268-.19044.44293 5.43556-5.29743 6.34134-9.29795 0 0 2.49243 3.77118.79407 12.83117-.0866.46197 2.71922-1.18561 3.51178-2.12691 0 0 .33749 15.30338-17.21222 23.18676 5.67154 5.00977 35.78544.34915 30.57714-30.12535-1.28992 3.35122-3.62363 5.53228-3.62363 5.53228-.67934-6.58908 7.80519-20.24196-2.15851-32.00818 0 0-2.15033 7.65344-3.73547 8.12408 0 0-4.1879-26.35967-11.09456-26.35967 0 0 .1145 8.59054-1.01774 9.41417 0 0-5.55189-17.64441-8.83539-18.46805-1.75594-1.43375-4.29466-10.00691-4.29466-10.00691zm3.05324 25.18581c-.11323 4.23584.45128 4.81935-1.69998 7.99623-.19555-1.80044-.23501-8.0563 1.69998-7.99623z" fill-rule="evenodd" stroke="#000" stroke-width=".364836"/><path d="m-891.2052 400.65247h128v192h-128z" fill="none"/></g></svg>