<svg height="360.92749" width="137.539108" xmlns="http://www.w3.org/2000/svg"><g transform="translate(-156.424085 -49.468599)"><g stroke="#000"><path d="m24.51695796 85.49703115 4.9107143-9.82142859.53571429-1.96428572.0243811-4.89918519-6.36366682 4.18489947-.05869441-4.25052006 8.45155157-4.85662282.11197697-1.83191324-1.94305814-1.12802915-.31177597-4.00434334 2.62886892-2.26980438 3.62113109-.0516242 2.44028096 2.24619406-.29742381 3.91452024-2.16161361 1.31832464.01875646 1.80667536 10.83590714 4.65001726-.03233569 3.56426847-9.51154294-3.6694513-.13131422 5.27659416.50608618 1.94509758 4.9403424 9.84061673-4.05943652.10510801-4.37779483-6.96690901-1.56276867.0760867-3.07758251 6.89057101-5.13670322-.10485671z" fill="none"/><g fill="none" transform="translate(-65 61.5)"><path d="m90.35755401 65.60500422 4.65817616-9.82142859.53571429-1.96428572.0243811-4.89918519-6.42680136 3.6798232.00444012-3.55604018 8.45155157-5.04602642.11197697-1.83191324-1.69052001-.93862554-.81134319-2.05929234.24702908-2.13445461 1.07136973-1.40424304 1.5574992-.86556133 1.77722012-.02533671.04351258 24.1033438-1.59245875-.02248837-3.07758251 6.89057101-4.88416509-.10485671z"/><path d="m108.9761675 65.60500422-4.65817616-9.82142859-.53571429-1.96428572-.0243811-4.89918519 6.42680136 3.6798232-.00444012-3.55604018-8.45155157-5.04602642-.11197697-1.83191324 1.69052001-.93862554.81134319-2.05929234-.24702908-2.13445461-1.07136973-1.40424304-1.5574992-.86556133-1.77722012-.02533671-.04351258 24.1033438 1.59245875-.02248837 3.07758251 6.89057101 4.88416509-.10485671z"/></g><path d="m34.77762919 158.67321941-1.03188648-.02248837-3.07758251 6.89057101-4.93151599.00562873 4.70552706-9.93191403.53571429-1.96428572.0243811-4.89918519-6.42680136 3.6798232.00444012-3.55604018 8.45155157-5.04602642.11197697-1.83191324-1.69052001-.93862554-.81134319-2.05929234.24702908-2.13445461 1.07136973-1.40424304 1.5574992-.86556133 1.29172769-.02928262 1.22859315.02928262 1.5574992.86556133 1.07136973 1.40424304.24702908 2.13445461-.81134319 2.05929234-1.69052001.93862554.11197697 1.83191324 8.45155157 5.04602642.00444012 3.55604018-6.42680136-3.6798232.0243811 4.89918519.53571429 1.96428572 4.76866159 9.93191403-4.99465052-.00562873-3.07758251-6.89057101z" fill="none"/><path d="m34.89126225 195.7131688-1.03188648-.02248837-3.07758251 6.89057101-4.93151599.00562873 4.70552706-9.93191403.53571429-1.96428572.0243811-4.89918519-6.42680136 3.6798232.00444012-3.55604018 8.45155157-5.04602642.11197697-1.83191324-1.69052001-.93862554-.81134319-2.05929234.24702908-2.13445461 1.07136973-1.40424304 1.5574992-.86556133 1.29172769-.02928262 1.22859315.02928262 1.5574992.86556133 1.07136973 1.40424304.24702908 2.13445461-.81134319 2.05929234-1.69052001.93862554.11197697 1.83191324 8.45155157 5.04602642.00444012 3.55604018-6.42680136-3.6798232.0243811 4.89918519.53571429 1.96428572 4.76866159 9.93191403-4.99465052-.00562873-3.07758251-6.89057101z" stroke-linecap="round" stroke-linejoin="round"/><path d="m45.23124391 85.63095935s0-7.76543574 0-10.17857146c0-4.12639821.13392857-7.58867082.13392857-11.65178574 0-.54878241.35714286-1.74107143.35714286-1.74107143l1.80803572-.98214286-2.56696429-5.0669643-2.74553572 5.0669643 1.47321429.95982143s.20089286 1.22612616.20089286 1.80803572c0 2.26414835-.13084071 7.35036285.03199169 11.61444473.15500441 4.05909082.14657974 10.17126961.14657974 10.17126961h1.16071429z" fill="none"/><path d="m43.00000099 263.36218308v-11-11c0-.54878241 1-2 1-2l1-1-2.5-5.0078125-2.5 5.0078125 1 1s1 1.41809044 1 2v11 11z"/><path d="m36.27925587 310.22265247 5.5-9.52627944 5.5-9.52627944c.2743912-.47525951 1.8660254-1.23205081 1.8660254-1.23205081l1.3660254-.3660254.33884274-5.58689284-4.66896976 3.08689284.3660254 1.3660254s.15698018 1.72810235-.1339746 2.23205081l-5.5 9.52627944-5.5 9.52627944.8660254.5z"/></g><g transform="translate(-616.493884 -279.297515)"><path d="m804.91796875 369.38290245-1.03188648-.02248837-3.07758251 6.89057101-4.93151599.00562873 4.70552706-9.93191403.53571429-1.96428572.0243811-4.89918519-6.42680136 3.6798232.00444012-3.55604018 8.45155157-5.04602642.11197697-1.83191324-1.69052001-.93862554-.81134319-2.05929234.24702908-2.13445461 1.07136973-1.40424304 1.5574992-.86556133 1.29172769-.02928262 1.22859315.02928262 1.5574992.86556133 1.07136973 1.40424304.24702908 2.13445461-.81134319 2.05929234-1.69052001.93862554.11197697 1.83191324 8.45155157 5.04602642.00444012 3.55604018-6.42680136-3.6798232.0243811 4.89918519.53571429 1.96428572 4.76866159 9.93191403-4.99465052-.00562873-3.07758251-6.89057101z" stroke="#000" stroke-linecap="round" stroke-linejoin="round"/><path d="m772.917969 328.766113h64v64h-64z" fill="none" opacity=".99"/></g><g transform="translate(-623.075915 -308.161726)"><path d="m811.499997 472.47897396-1.03188648-.02248837-3.07758251 6.89057101-4.93151599.00562873 4.70552706-9.93191403.53571429-1.96428572.0243811-4.89918519-.80180137.30482321.00444012-3.55604018 2.82655158-1.67102643.11197697-1.83191324-1.69052001-.93862554-.81134319-2.05929234.24702908-2.13445461 1.07136973-1.40424304 1.5574992-.86556133 1.29172769-.02928262 1.22859315.02928262 1.5574992.86556133 1.07136973 1.40424304.24702908 2.13445461-.81134319 2.05929234-1.69052001.93862554.11197697 1.83191324 8.45155157 5.04602642.00444012 3.55604018-6.42680136-3.6798232.0243811 4.89918519.53571429 1.96428572 4.76866159 9.93191403-4.99465052-.00562873-3.07758251-6.89057101z" stroke="#000" stroke-linecap="round" stroke-linejoin="round"/><path d="m779.5 431.862183h64v64h-64z" fill="none" opacity=".99"/></g><g transform="translate(-622.627368 -333.111996)"><path d="m811.05147181 571.66108332-1.03188648-.02248837-.10883251.92182102-4.93151599.00562873 1.73677706-3.96316404.53571429-1.96428572.0243811-4.89918519-.80180137.30482321.00444012-3.55604018 2.82655158-1.67102643.11197697-1.83191324-1.69052001-.93862554-.81134319-2.05929234.24702908-2.13445461 1.07136973-1.40424304 1.5574992-.86556133 1.29172769-.02928262 1.22859315.02928262 1.5574992.86556133 1.07136973 1.40424304.24702908 2.13445461-.81134319 2.05929234-1.69052001.93862554.11197697 1.83191324 8.45155157 5.04602642.00444012 3.55604018-6.42680136-3.6798232.0243811 4.89918519.53571429 1.96428572 4.76866159 9.93191403-4.99465052-.00562873-3.07758251-6.89057101z" stroke="#000" stroke-linecap="round" stroke-linejoin="round"/><path d="m779.051453 531.044312h64v64h-64z" fill="none" opacity=".99"/></g><g transform="translate(-624.575915 -340.198012)"><path d="m813.00001617 652.97895592-1.03188648-.02248837-.10883251.92182102-4.93151599.00562873 1.73677706-3.96316404.53571429-1.96428572.0243811-4.89918519-.80180137.30482321.00444012-3.55604018 2.82655158-1.67102643.11197697-1.83191324-1.69052001-.93862554-.81134319-2.05929234.24702908-2.13445461 1.07136973-1.40424304 1.5574992-.86556133 1.29172769-.02928262 1.22859315.02928262 1.5574992.86556133 1.07136973 1.40424304.24702908 2.13445461-.81134319 2.05929234-1.69052001.93862554.11197697 1.83191324 2.92030158 1.79602642.00444012 3.55604018-.89555137-.4298232.0243811 4.89918519.53571429 1.96428572 4.76866159 9.93191403-4.99465052-.00562873-3.07758251-6.89057101z" stroke="#000" stroke-linecap="round" stroke-linejoin="round"/><path d="m781 612.362183h64v64h-64z" fill="none" opacity=".99"/></g><g transform="translate(-612.0208 -364.606915)"><path d="m800.44488973 751.61974021-1.03188648-.02248837-.10883251.92182102-4.93151599.00562873 1.73677706-3.96316404.53571429-1.96428572.0243811-4.89918519-.80180137.30482321.00444012-3.55604018 2.82655158-1.67102643.11197697-1.83191324-1.69052001-.93862554-.81134319-2.05929234.24702908-2.13445461 1.07136973-1.40424304 1.5574992-.86556133 1.29172769-.02928262 1.22859315.02928262 1.5574992.86556133 1.07136973 1.40424304.24702908 2.13445461-.81134319 2.05929234-1.69052001.93862554.11197697 1.83191324 2.92030158 1.79602642.00444012 3.55604018-.89555137-.4298232.0243811 4.89918519.53571429 1.96428572 1.67506943 3.96570057-4.99465052-.00562873.01600966-.92435755-1.03188648.02248837z" stroke="#000" stroke-linecap="round" stroke-linejoin="round"/><path d="m768.444885 711.002991h64v64h-64z" fill="none" opacity=".99"/></g><g transform="translate(-706.333049 -285.408801)"><path d="m804.91796875 369.38290245-1.03188648-.02248837-3.07758251 6.89057101-4.93151599.00562873 4.70552706-9.93191403.53571429-1.96428572.0243811-4.89918519-6.42680136 3.6798232.00444012-3.55604018 8.45155157-5.04602642.11197697-1.83191324-1.69052001-.93862554-.81134319-2.05929234.24702908-2.13445461 1.07136973-1.40424304 1.5574992-.86556133 1.29172769-.02928262 1.22859315.02928262 1.5574992.86556133 1.07136973 1.40424304.24702908 2.13445461-.81134319 2.05929234-1.69052001.93862554.11197697 1.83191324 8.45155157 5.04602642.00444012 3.55604018-6.42680136-3.6798232.0243811 4.89918519.53571429 1.96428572 4.76866159 9.93191403-4.99465052-.00562873-3.07758251-6.89057101z" stroke="#000" stroke-linecap="round" stroke-linejoin="round"/><path d="m772.917969 328.766113h64v64h-64z" fill="none" opacity=".99"/></g><g transform="translate(-712.915081 -292.945651)"><path d="m811.499997 472.47897396-1.03188648-.02248837-3.07758251 6.89057101-4.93151599.00562873 4.70552706-9.93191403.53571429-1.96428572.0243811-4.89918519-.80180137.30482321.00444012-3.55604018 2.82655158-1.67102643.11197697-1.83191324-1.69052001-.93862554-.81134319-2.05929234.24702908-2.13445461 1.07136973-1.40424304 1.5574992-.86556133 1.29172769-.02928262 1.22859315.02928262 1.5574992.86556133 1.07136973 1.40424304.24702908 2.13445461-.81134319 2.05929234-1.69052001.93862554.11197697 1.83191324 8.45155157 5.04602642.00444012 3.55604018-6.42680136-3.6798232.0243811 4.89918519.53571429 1.96428572 4.76866159 9.93191403-4.99465052-.00562873-3.07758251-6.89057101z" stroke="#000" stroke-linecap="round" stroke-linejoin="round"/><path d="m779.5 431.862183h64v64h-64z" fill="none" opacity=".99"/></g><g transform="translate(-712.466533 -296.568561)"><path d="m811.05147181 571.66108332-1.03188648-.02248837-.10883251.92182102-4.93151599.00562873 1.73677706-3.96316404.53571429-1.96428572.0243811-4.89918519-.80180137.30482321.00444012-3.55604018 2.82655158-1.67102643.11197697-1.83191324-1.69052001-.93862554-.81134319-2.05929234.24702908-2.13445461 1.07136973-1.40424304 1.5574992-.86556133 1.29172769-.02928262 1.22859315.02928262 1.5574992.86556133 1.07136973 1.40424304.24702908 2.13445461-.81134319 2.05929234-1.69052001.93862554.11197697 1.83191324 8.45155157 5.04602642.00444012 3.55604018-6.42680136-3.6798232.0243811 4.89918519.53571429 1.96428572 4.76866159 9.93191403-4.99465052-.00562873-3.07758251-6.89057101z" stroke="#000" stroke-linecap="round" stroke-linejoin="round"/><path d="m779.051453 531.044312h64v64h-64z" fill="none" opacity=".99"/></g><g transform="translate(-714.415081 -282.327213)"><path d="m813.00001617 652.97895592-1.03188648-.02248837-.10883251.92182102-4.93151599.00562873 1.73677706-3.96316404.53571429-1.96428572.0243811-4.89918519-.80180137.30482321.00444012-3.55604018 2.82655158-1.67102643.11197697-1.83191324-1.69052001-.93862554-.81134319-2.05929234.24702908-2.13445461 1.07136973-1.40424304 1.5574992-.86556133 1.29172769-.02928262 1.22859315.02928262 1.5574992.86556133 1.07136973 1.40424304.24702908 2.13445461-.81134319 2.05929234-1.69052001.93862554.11197697 1.83191324 2.92030158 1.79602642.00444012 3.55604018-.89555137-.4298232.0243811 4.89918519.53571429 1.96428572 4.76866159 9.93191403-4.99465052-.00562873-3.07758251-6.89057101z" stroke="#000" stroke-linecap="round" stroke-linejoin="round"/><path d="m781 612.362183h64v64h-64z" fill="none" opacity=".99"/></g><g transform="translate(-701.859966 -285.408801)"><path d="m800.44488973 751.61974021-1.03188648-.02248837-.10883251.92182102-4.93151599.00562873 1.73677706-3.96316404.53571429-1.96428572.0243811-4.89918519-.80180137.30482321.00444012-3.55604018 2.82655158-1.67102643.11197697-1.83191324-1.69052001-.93862554-.81134319-2.05929234.24702908-2.13445461 1.07136973-1.40424304 1.5574992-.86556133 1.29172769-.02928262 1.22859315.02928262 1.5574992.86556133 1.07136973 1.40424304.24702908 2.13445461-.81134319 2.05929234-1.69052001.93862554.11197697 1.83191324 2.92030158 1.79602642.00444012 3.55604018-.89555137-.4298232.0243811 4.89918519.53571429 1.96428572 1.67506943 3.96570057-4.99465052-.00562873.01600966-.92435755-1.03188648.02248837z" stroke="#000" stroke-linecap="round" stroke-linejoin="round"/><path d="m768.444885 711.002991h64v64h-64z" fill="none" opacity=".99"/></g><g transform="translate(-527.192386 -284.085785)"><path d="m757.131165 334.468597h64v64h-64z" fill="none" opacity=".99"/><path d="m801.12499704 381.8660914v-11-11c0-.54878241 1-2 1-2l1-1-2.5-5.0078125-2.5 5.0078125 1 1s1 1.41809044 1 2v11 11z" stroke="#000"/></g><g transform="translate(-549.795416 -497.896534)"><path d="m779.758606 620.139771h64v64h-64z" fill="none" opacity=".99"/><path d="m823.28331512 667.89375587 4.64880088-9.96938566 4.64880088-9.96938566c.23192547-.49736577 1.75154431-1.38999731 1.75154431-1.38999731l1.32892605-.48368953-.14937645-5.59516512-4.38216248 3.48207381.48368953 1.32892605s.30699687 1.70784467.06107126 2.23523384l-4.64880088 9.96938566-4.64880088 9.96938566.90630779.42261826z" stroke="#000"/></g></g></svg>