<svg height="2700" width="1400" xmlns="http://www.w3.org/2000/svg"><path d="m483.57144 257.71933c0 59.37061-48.12939 107.5-107.5 107.5s-107.5-48.12939-107.5-107.5 48.12939-107.5 107.5-107.5 107.5 48.12939 107.5 107.5z" style="fill:none;stroke:#000;stroke-width:.840254;stroke-linecap:round;stroke-linejoin:round;stroke-miterlimit:10" transform="matrix(1.1901163 0 0 1.1901163 -295.2587 -149.299886)"/><path d="m483.57144 257.71933c0 28.51077-11.32586 55.85382-31.48602 76.01398l-76.01398-76.01398z" style="fill:none;stroke:#000;stroke-width:.840254;stroke-linecap:round;stroke-linejoin:round;stroke-miterlimit:10" transform="matrix(1.1901163 0 0 1.1901163 -295.258701 -149.299886)"/><path d="m452.08542 333.73331c-20.16016 20.16016-47.5032 31.48602-76.01398 31.48602v-107.5z" style="fill:none;stroke:#000;stroke-width:.840254;stroke-linecap:round;stroke-linejoin:round;stroke-miterlimit:10" transform="matrix(1.1901163 0 0 1.1901163 -295.258701 -149.299886)"/><path d="m483.57144 257.71933c0 28.51077-11.32586 55.85382-31.48602 76.01398l-76.01398-76.01398z" style="fill:none;stroke:#000;stroke-width:.840254;stroke-linecap:round;stroke-linejoin:round;stroke-miterlimit:10" transform="matrix(-1.1901163 0 0 1.1901163 599.87881 -149.299886)"/><path d="m452.08542 333.73331c-20.16016 20.16016-47.5032 31.48602-76.01398 31.48602v-107.5z" style="fill:none;stroke:#000;stroke-width:.840254;stroke-linecap:round;stroke-linejoin:round;stroke-miterlimit:10" transform="matrix(-1.1901163 0 0 1.1901163 599.87881 -149.299886)"/><path d="m483.57144 257.71933c0 28.51077-11.32586 55.85382-31.48602 76.01398l-76.01398-76.01398z" style="fill:none;stroke:#000;stroke-width:.840254;stroke-linecap:round;stroke-linejoin:round;stroke-miterlimit:10" transform="matrix(1.1901163 0 0 -1.1901163 -295.258703 464.132065)"/><path d="m452.08542 333.73331c-20.16016 20.16016-47.5032 31.48602-76.01398 31.48602v-107.5z" style="fill:none;stroke:#000;stroke-width:.840254;stroke-linecap:round;stroke-linejoin:round;stroke-miterlimit:10" transform="matrix(1.1901163 0 0 -1.1901163 -295.258703 464.132065)"/><path d="m483.57144 257.71933c0 28.51077-11.32586 55.85382-31.48602 76.01398l-76.01398-76.01398z" style="fill:none;stroke:#000;stroke-width:.840254;stroke-linecap:round;stroke-linejoin:round;stroke-miterlimit:10" transform="matrix(-1.1901163 0 0 -1.1901163 599.87881 464.132065)"/><path d="m452.08542 333.73331c-20.16016 20.16016-47.5032 31.48602-76.01398 31.48602v-107.5z" style="fill:none;stroke:#000;stroke-width:.840254;stroke-linecap:round;stroke-linejoin:round;stroke-miterlimit:10" transform="matrix(-1.1901163 0 0 -1.1901163 599.87881 464.132065)"/><path d="m483.57144 257.71933c0 59.37061-48.12939 107.5-107.5 107.5s-107.5-48.12939-107.5-107.5 48.12939-107.5 107.5-107.5 107.5 48.12939 107.5 107.5z" style="fill:none;stroke:#000;stroke-width:.840254;stroke-linecap:round;stroke-linejoin:round;stroke-miterlimit:10" transform="matrix(1.1901163 0 0 1.1901163 42.99579 -130.32073)"/><path d="m483.57144 257.71933c0 28.51077-11.32586 55.85382-31.48602 76.01398l-76.01398-76.01398z" style="fill:#2cb52a;stroke:#000;stroke-width:.840254;stroke-linecap:round;stroke-linejoin:round;stroke-miterlimit:10" transform="matrix(1.1901163 0 0 1.1901163 42.99579 -130.32072)"/><path d="m452.08542 333.73331c-20.16016 20.16016-47.5032 31.48602-76.01398 31.48602v-107.5z" style="fill:#f9d503;stroke:#000;stroke-width:.840254;stroke-linecap:round;stroke-linejoin:round;stroke-miterlimit:10" transform="matrix(1.1901163 0 0 1.1901163 42.99579 -130.32072)"/><path d="m483.57144 257.71933c0 28.51077-11.32586 55.85382-31.48602 76.01398l-76.01398-76.01398z" style="fill:#d21dc2;stroke:#000;stroke-width:.840254;stroke-linecap:round;stroke-linejoin:round;stroke-miterlimit:10" transform="matrix(-1.1901163 0 0 1.1901163 938.1333 -130.32073)"/><path d="m452.08542 333.73331c-20.16016 20.16016-47.5032 31.48602-76.01398 31.48602v-107.5z" style="fill:#1dc5d1;stroke:#000;stroke-width:.840254;stroke-linecap:round;stroke-linejoin:round;stroke-miterlimit:10" transform="matrix(-1.1901163 0 0 1.1901163 938.1333 -130.32073)"/><path d="m483.57144 257.71933c0 28.51077-11.32586 55.85382-31.48602 76.01398l-76.01398-76.01398z" style="fill:#e61322;stroke:#000;stroke-width:.840254;stroke-linecap:round;stroke-linejoin:round;stroke-miterlimit:10" transform="matrix(1.1901163 0 0 -1.1901163 42.99579 483.11122)"/><path d="m452.08542 333.73331c-20.16016 20.16016-47.5032 31.48602-76.01398 31.48602v-107.5z" style="fill:#345afd;stroke:#000;stroke-width:.840254;stroke-linecap:round;stroke-linejoin:round;stroke-miterlimit:10" transform="matrix(1.1901163 0 0 -1.1901163 42.99579 483.11122)"/><path d="m483.57144 257.71933c0 28.51077-11.32586 55.85382-31.48602 76.01398l-76.01398-76.01398z" style="fill:#fff;stroke:#000;stroke-width:.840254;stroke-linecap:round;stroke-linejoin:round;stroke-miterlimit:10" transform="matrix(-1.1901163 0 0 -1.1901163 938.1333 483.11122)"/><path d="m452.08542 333.73331c-20.16016 20.16016-47.5032 31.48602-76.01398 31.48602v-107.5z" style="fill:#808080;stroke:#000;stroke-width:.840254;stroke-linecap:round;stroke-linejoin:round;stroke-miterlimit:10" transform="matrix(-1.1901163 0 0 -1.1901163 938.1333 483.11122)"/><path d="m483.57144 257.71933c0 59.37061-48.12939 107.5-107.5 107.5s-107.5-48.12939-107.5-107.5 48.12939-107.5 107.5-107.5 107.5 48.12939 107.5 107.5z" fill="none" transform="matrix(1.1901163 0 0 1.1901163 64.67606 200.41074)"/><path d="m483.57144 257.71933c0 28.51077-11.32586 55.85382-31.48602 76.01398l-76.01398-76.01398z" fill="#2cb52a" transform="matrix(1.1901163 0 0 1.1901163 64.67606 200.41074)"/><path d="m452.08542 333.73331c-20.16016 20.16016-47.5032 31.48602-76.01398 31.48602v-107.5z" fill="#f9d503" transform="matrix(1.1901163 0 0 1.1901163 64.67606 200.41074)"/><path d="m483.57144 257.71933c0 28.51077-11.32586 55.85382-31.48602 76.01398l-76.01398-76.01398z" fill="#d21dc2" transform="matrix(-1.1901163 0 0 1.1901163 959.813565 200.41074)"/><path d="m452.08542 333.73331c-20.16016 20.16016-47.5032 31.48602-76.01398 31.48602v-107.5z" fill="#1dc5d1" transform="matrix(-1.1901163 0 0 1.1901163 959.813565 200.41074)"/><path d="m483.57144 257.71933c0 28.51077-11.32586 55.85382-31.48602 76.01398l-76.01398-76.01398z" fill="#e61322" transform="matrix(1.1901163 0 0 -1.1901163 64.67606 813.842691)"/><path d="m452.08542 333.73331c-20.16016 20.16016-47.5032 31.48602-76.01398 31.48602v-107.5z" fill="#345afd" transform="matrix(1.1901163 0 0 -1.1901163 64.67606 813.842691)"/><path d="m483.57144 257.71933c0 28.51077-11.32586 55.85382-31.48602 76.01398l-76.01398-76.01398z" fill="#fff" transform="matrix(-1.1901163 0 0 -1.1901163 959.813565 813.842691)"/><path d="m452.08542 333.73331c-20.16016 20.16016-47.5032 31.48602-76.01398 31.48602v-107.5z" fill="#808080" transform="matrix(-1.1901163 0 0 -1.1901163 959.813565 813.842691)"/><g stroke="#000" stroke-linecap="round" stroke-linejoin="round" stroke-miterlimit="10" stroke-width=".840254"><path d="m483.57144 257.71933c0 59.37061-48.12939 107.5-107.5 107.5s-107.5-48.12939-107.5-107.5 48.12939-107.5 107.5-107.5 107.5 48.12939 107.5 107.5z" fill="none" transform="matrix(1.1901163 0 0 1.1901163 405.09747 -146.071591)"/><path d="m483.57144 257.71933c0 28.51077-11.32586 55.85382-31.48602 76.01398l-76.01398-76.01398z" fill="none" transform="matrix(1.1901163 0 0 1.1901163 405.09747 -146.071591)"/><path d="m452.08542 333.73331c-20.16016 20.16016-47.5032 31.48602-76.01398 31.48602v-107.5z" fill="none" transform="matrix(1.1901163 0 0 1.1901163 405.09747 -146.071591)"/><path d="m483.57144 257.71933c0 28.51077-11.32586 55.85382-31.48602 76.01398l-76.01398-76.01398z" fill="none" transform="matrix(-1.1901163 0 0 1.1901163 1300.23497 -146.071591)"/><path d="m452.08542 333.73331c-20.16016 20.16016-47.5032 31.48602-76.01398 31.48602v-107.5z" fill="none" transform="matrix(-1.1901163 0 0 1.1901163 1300.23497 -146.071591)"/><path d="m483.57144 257.71933c0 28.51077-11.32586 55.85382-31.48602 76.01398l-76.01398-76.01398z" fill="none" transform="matrix(1.1901163 0 0 -1.1901163 405.09747 467.36036)"/><path d="m452.08542 333.73331c-20.16016 20.16016-47.5032 31.48602-76.01398 31.48602v-107.5z" transform="matrix(1.1901163 0 0 -1.1901163 405.09747 467.36036)"/><path d="m483.57144 257.71933c0 28.51077-11.32586 55.85382-31.48602 76.01398l-76.01398-76.01398z" fill="none" transform="matrix(-1.1901163 0 0 -1.1901163 1300.23497 467.36036)"/><path d="m452.08542 333.73331c-20.16016 20.16016-47.5032 31.48602-76.01398 31.48602v-107.5z" fill="none" transform="matrix(-1.1901163 0 0 -1.1901163 1300.23497 467.36036)"/><path d="m483.57144 257.71933c0 59.37061-48.12939 107.5-107.5 107.5s-107.5-48.12939-107.5-107.5 48.12939-107.5 107.5-107.5 107.5 48.12939 107.5 107.5z" fill="none" transform="matrix(1.1901163 0 0 1.1901163 405.09747 194.205444)"/><path d="m483.57144 257.71933c0 28.51077-11.32586 55.85382-31.48602 76.01398l-76.01398-76.01398z" fill="none" transform="matrix(1.1901163 0 0 1.1901163 405.09747 194.205448)"/><path d="m452.08542 333.73331c-20.16016 20.16016-47.5032 31.48602-76.01398 31.48602v-107.5z" fill="none" transform="matrix(1.1901163 0 0 1.1901163 405.09747 194.205448)"/><path d="m483.57144 257.71933c0 28.51077-11.32586 55.85382-31.48602 76.01398l-76.01398-76.01398z" fill="none" transform="matrix(-1.1901163 0 0 1.1901163 1300.23503 194.205444)"/><path d="m452.08542 333.73331c-20.16016 20.16016-47.5032 31.48602-76.01398 31.48602v-107.5z" fill="none" transform="matrix(-1.1901163 0 0 1.1901163 1300.23503 194.205444)"/><path d="m483.57144 257.71933c0 28.51077-11.32586 55.85382-31.48602 76.01398l-76.01398-76.01398z" transform="matrix(1.1901163 0 0 -1.1901163 405.09747 807.63739)"/><path d="m452.08542 333.73331c-20.16016 20.16016-47.5032 31.48602-76.01398 31.48602v-107.5z" fill="none" transform="matrix(1.1901163 0 0 -1.1901163 405.09747 807.63739)"/><path d="m483.57144 257.71933c0 28.51077-11.32586 55.85382-31.48602 76.01398l-76.01398-76.01398z" fill="none" transform="matrix(-1.1901163 0 0 -1.1901163 1300.23503 807.6374)"/><path d="m452.08542 333.73331c-20.16016 20.16016-47.5032 31.48602-76.01398 31.48602v-107.5z" fill="none" transform="matrix(-1.1901163 0 0 -1.1901163 1300.23503 807.6374)"/><path d="m483.57144 257.71933c0 59.37061-48.12939 107.5-107.5 107.5s-107.5-48.12939-107.5-107.5 48.12939-107.5 107.5-107.5 107.5 48.12939 107.5 107.5z" fill="none" transform="matrix(1.1901163 0 0 1.1901163 405.09746 534.482534)"/><path d="m483.57144 257.71933c0 28.51077-11.32586 55.85382-31.48602 76.01398l-76.01398-76.01398z" transform="matrix(1.1901163 0 0 1.1901163 405.09746 534.482538)"/><path d="m452.08542 333.73331c-20.16016 20.16016-47.5032 31.48602-76.01398 31.48602v-107.5z" fill="none" transform="matrix(1.1901163 0 0 1.1901163 405.09746 534.482538)"/><path d="m483.57144 257.71933c0 28.51077-11.32586 55.85382-31.48602 76.01398l-76.01398-76.01398z" fill="none" transform="matrix(-1.1901163 0 0 1.1901163 1300.23496 534.482534)"/><path d="m452.08542 333.73331c-20.16016 20.16016-47.5032 31.48602-76.01398 31.48602v-107.5z" fill="none" transform="matrix(-1.1901163 0 0 1.1901163 1300.23496 534.482534)"/><path d="m483.57144 257.71933c0 28.51077-11.32586 55.85382-31.48602 76.01398l-76.01398-76.01398z" fill="none" transform="matrix(1.1901163 0 0 -1.1901163 405.09746 1147.91448)"/><path d="m452.08542 333.73331c-20.16016 20.16016-47.5032 31.48602-76.01398 31.48602v-107.5z" fill="none" transform="matrix(1.1901163 0 0 -1.1901163 405.09746 1147.91448)"/><path d="m483.57144 257.71933c0 28.51077-11.32586 55.85382-31.48602 76.01398l-76.01398-76.01398z" fill="none" transform="matrix(-1.1901163 0 0 -1.1901163 1300.23496 1147.91448)"/><path d="m452.08542 333.73331c-20.16016 20.16016-47.5032 31.48602-76.01398 31.48602v-107.5z" fill="none" transform="matrix(-1.1901163 0 0 -1.1901163 1300.23496 1147.91448)"/><path d="m483.57144 257.71933c0 59.37061-48.12939 107.5-107.5 107.5s-107.5-48.12939-107.5-107.5 48.12939-107.5 107.5-107.5 107.5 48.12939 107.5 107.5z" fill="none" transform="matrix(1.1901163 0 0 1.1901163 405.0975 874.75965)"/><path d="m483.57144 257.71933c0 28.51077-11.32586 55.85382-31.48602 76.01398l-76.01398-76.01398z" fill="none" transform="matrix(1.1901163 0 0 1.1901163 405.0975 874.75966)"/><path d="m452.08542 333.73331c-20.16016 20.16016-47.5032 31.48602-76.01398 31.48602v-107.5z" transform="matrix(1.1901163 0 0 1.1901163 405.0975 874.75966)"/><path d="m483.57144 257.71933c0 28.51077-11.32586 55.85382-31.48602 76.01398l-76.01398-76.01398z" fill="none" transform="matrix(-1.1901163 0 0 1.1901163 1300.235 874.75965)"/><path d="m452.08542 333.73331c-20.16016 20.16016-47.5032 31.48602-76.01398 31.48602v-107.5z" fill="none" transform="matrix(-1.1901163 0 0 1.1901163 1300.235 874.75965)"/><path d="m483.57144 257.71933c0 28.51077-11.32586 55.85382-31.48602 76.01398l-76.01398-76.01398z" fill="none" transform="matrix(1.1901163 0 0 -1.1901163 405.0975 1488.1916)"/><path d="m452.08542 333.73331c-20.16016 20.16016-47.5032 31.48602-76.01398 31.48602v-107.5z" fill="none" transform="matrix(1.1901163 0 0 -1.1901163 405.0975 1488.1916)"/><path d="m483.57144 257.71933c0 28.51077-11.32586 55.85382-31.48602 76.01398l-76.01398-76.01398z" fill="none" transform="matrix(-1.1901163 0 0 -1.1901163 1300.235 1488.1916)"/><path d="m452.08542 333.73331c-20.16016 20.16016-47.5032 31.48602-76.01398 31.48602v-107.5z" fill="none" transform="matrix(-1.1901163 0 0 -1.1901163 1300.235 1488.1916)"/><path d="m483.57144 257.71933c0 59.37061-48.12939 107.5-107.5 107.5s-107.5-48.12939-107.5-107.5 48.12939-107.5 107.5-107.5 107.5 48.12939 107.5 107.5z" fill="none" transform="matrix(1.1901163 0 0 1.1901163 405.09747 1215.03677)"/><path d="m483.57144 257.71933c0 28.51077-11.32586 55.85382-31.48602 76.01398l-76.01398-76.01398z" fill="none" transform="matrix(1.1901163 0 0 1.1901163 405.09747 1215.03678)"/><path d="m452.08542 333.73331c-20.16016 20.16016-47.5032 31.48602-76.01398 31.48602v-107.5z" fill="none" transform="matrix(1.1901163 0 0 1.1901163 405.09747 1215.03678)"/><path d="m483.57144 257.71933c0 28.51077-11.32586 55.85382-31.48602 76.01398l-76.01398-76.01398z" fill="none" transform="matrix(-1.1901163 0 0 1.1901163 1300.23503 1215.03677)"/><path d="m452.08542 333.73331c-20.16016 20.16016-47.5032 31.48602-76.01398 31.48602v-107.5z" transform="matrix(-1.1901163 0 0 1.1901163 1300.23503 1215.03677)"/><path d="m483.57144 257.71933c0 28.51077-11.32586 55.85382-31.48602 76.01398l-76.01398-76.01398z" fill="none" transform="matrix(1.1901163 0 0 -1.1901163 405.09747 1828.4687)"/><path d="m452.08542 333.73331c-20.16016 20.16016-47.5032 31.48602-76.01398 31.48602v-107.5z" fill="none" transform="matrix(1.1901163 0 0 -1.1901163 405.09747 1828.4687)"/><path d="m483.57144 257.71933c0 28.51077-11.32586 55.85382-31.48602 76.01398l-76.01398-76.01398z" fill="none" transform="matrix(-1.1901163 0 0 -1.1901163 1300.23503 1828.4687)"/><path d="m452.08542 333.73331c-20.16016 20.16016-47.5032 31.48602-76.01398 31.48602v-107.5z" fill="none" transform="matrix(-1.1901163 0 0 -1.1901163 1300.23503 1828.4687)"/><path d="m483.57144 257.71933c0 59.37061-48.12939 107.5-107.5 107.5s-107.5-48.12939-107.5-107.5 48.12939-107.5 107.5-107.5 107.5 48.12939 107.5 107.5z" fill="none" transform="matrix(1.1901163 0 0 1.1901163 405.09747 1555.31387)"/><path d="m483.57144 257.71933c0 28.51077-11.32586 55.85382-31.48602 76.01398l-76.01398-76.01398z" fill="none" transform="matrix(1.1901163 0 0 1.1901163 405.09747 1555.31388)"/><path d="m452.08542 333.73331c-20.16016 20.16016-47.5032 31.48602-76.01398 31.48602v-107.5z" fill="none" transform="matrix(1.1901163 0 0 1.1901163 405.09747 1555.31388)"/><path d="m483.57144 257.71933c0 28.51077-11.32586 55.85382-31.48602 76.01398l-76.01398-76.01398z" transform="matrix(-1.1901163 0 0 1.1901163 1300.23499 1555.31387)"/><path d="m452.08542 333.73331c-20.16016 20.16016-47.5032 31.48602-76.01398 31.48602v-107.5z" fill="none" transform="matrix(-1.1901163 0 0 1.1901163 1300.23499 1555.31387)"/><path d="m483.57144 257.71933c0 28.51077-11.32586 55.85382-31.48602 76.01398l-76.01398-76.01398z" fill="none" transform="matrix(1.1901163 0 0 -1.1901163 405.09747 2168.7458)"/><path d="m452.08542 333.73331c-20.16016 20.16016-47.5032 31.48602-76.01398 31.48602v-107.5z" fill="none" transform="matrix(1.1901163 0 0 -1.1901163 405.09747 2168.7458)"/><path d="m483.57144 257.71933c0 28.51077-11.32586 55.85382-31.48602 76.01398l-76.01398-76.01398z" fill="none" transform="matrix(-1.1901163 0 0 -1.1901163 1300.23499 2168.7458)"/><path d="m452.08542 333.73331c-20.16016 20.16016-47.5032 31.48602-76.01398 31.48602v-107.5z" fill="none" transform="matrix(-1.1901163 0 0 -1.1901163 1300.23499 2168.7458)"/><path d="m483.57144 257.71933c0 59.37061-48.12939 107.5-107.5 107.5s-107.5-48.12939-107.5-107.5 48.12939-107.5 107.5-107.5 107.5 48.12939 107.5 107.5z" fill="none" transform="matrix(1.1901163 0 0 1.1901163 405.09746 1895.59093)"/><path d="m483.57144 257.71933c0 28.51077-11.32586 55.85382-31.48602 76.01398l-76.01398-76.01398z" fill="none" transform="matrix(1.1901163 0 0 1.1901163 405.09746 1895.59094)"/><path d="m452.08542 333.73331c-20.16016 20.16016-47.5032 31.48602-76.01398 31.48602v-107.5z" fill="none" transform="matrix(1.1901163 0 0 1.1901163 405.09746 1895.59094)"/><path d="m483.57144 257.71933c0 28.51077-11.32586 55.85382-31.48602 76.01398l-76.01398-76.01398z" fill="none" transform="matrix(-1.1901163 0 0 1.1901163 1300.23496 1895.59093)"/><path d="m452.08542 333.73331c-20.16016 20.16016-47.5032 31.48602-76.01398 31.48602v-107.5z" fill="none" transform="matrix(-1.1901163 0 0 1.1901163 1300.23496 1895.59093)"/><path d="m483.57144 257.71933c0 28.51077-11.32586 55.85382-31.48602 76.01398l-76.01398-76.01398z" fill="none" transform="matrix(1.1901163 0 0 -1.1901163 405.09746 2509.0229)"/><path d="m452.08542 333.73331c-20.16016 20.16016-47.5032 31.48602-76.01398 31.48602v-107.5z" fill="none" transform="matrix(1.1901163 0 0 -1.1901163 405.09746 2509.0229)"/><path d="m483.57144 257.71933c0 28.51077-11.32586 55.85382-31.48602 76.01398l-76.01398-76.01398z" transform="matrix(-1.1901163 0 0 -1.1901163 1300.23496 2509.0229)"/><path d="m452.08542 333.73331c-20.16016 20.16016-47.5032 31.48602-76.01398 31.48602v-107.5z" fill="none" transform="matrix(-1.1901163 0 0 -1.1901163 1300.23496 2509.0229)"/><path d="m483.57144 257.71933c0 59.37061-48.12939 107.5-107.5 107.5s-107.5-48.12939-107.5-107.5 48.12939-107.5 107.5-107.5 107.5 48.12939 107.5 107.5z" fill="none" transform="matrix(1.1901163 0 0 1.1901163 405.0975 2235.86802)"/><path d="m483.57144 257.71933c0 28.51077-11.32586 55.85382-31.48602 76.01398l-76.01398-76.01398z" fill="none" transform="matrix(1.1901163 0 0 1.1901163 405.0975 2235.86803)"/><path d="m452.08542 333.73331c-20.16016 20.16016-47.5032 31.48602-76.01398 31.48602v-107.5z" fill="none" transform="matrix(1.1901163 0 0 1.1901163 405.0975 2235.86803)"/><path d="m483.57144 257.71933c0 28.51077-11.32586 55.85382-31.48602 76.01398l-76.01398-76.01398z" fill="none" transform="matrix(-1.1901163 0 0 1.1901163 1300.235 2235.86802)"/><path d="m452.08542 333.73331c-20.16016 20.16016-47.5032 31.48602-76.01398 31.48602v-107.5z" fill="none" transform="matrix(-1.1901163 0 0 1.1901163 1300.235 2235.86802)"/><path d="m483.57144 257.71933c0 28.51077-11.32586 55.85382-31.48602 76.01398l-76.01398-76.01398z" fill="none" transform="matrix(1.1901163 0 0 -1.1901163 405.0975 2849.3)"/><path d="m452.08542 333.73331c-20.16016 20.16016-47.5032 31.48602-76.01398 31.48602v-107.5z" fill="none" transform="matrix(1.1901163 0 0 -1.1901163 405.0975 2849.3)"/><path d="m483.57144 257.71933c0 28.51077-11.32586 55.85382-31.48602 76.01398l-76.01398-76.01398z" fill="none" transform="matrix(-1.1901163 0 0 -1.1901163 1300.235 2849.3)"/><path d="m452.08542 333.73331c-20.16016 20.16016-47.5032 31.48602-76.01398 31.48602v-107.5z" transform="matrix(-1.1901163 0 0 -1.1901163 1300.235 2849.3)"/></g><path d="m483.57144 257.71933c0 59.37061-48.12939 107.5-107.5 107.5s-107.5-48.12939-107.5-107.5 48.12939-107.5 107.5-107.5 107.5 48.12939 107.5 107.5z" fill="none" transform="matrix(1.1901163 0 0 1.1901163 800.3712 -146.96277)"/><path d="m483.57144 257.71933c0 28.51077-11.32586 55.85382-31.48602 76.01398l-76.01398-76.01398z" fill="none" transform="matrix(1.1901163 0 0 1.1901163 800.3712 -146.96277)"/><path d="m452.08542 333.73331c-20.16016 20.16016-47.5032 31.48602-76.01398 31.48602v-107.5z" fill="none" transform="matrix(1.1901163 0 0 1.1901163 800.3712 -146.96277)"/><path d="m483.57144 257.71933c0 28.51077-11.32586 55.85382-31.48602 76.01398l-76.01398-76.01398z" fill="none" transform="matrix(-1.1901163 0 0 1.1901163 1695.5087 -146.96277)"/><path d="m452.08542 333.73331c-20.16016 20.16016-47.5032 31.48602-76.01398 31.48602v-107.5z" fill="none" transform="matrix(-1.1901163 0 0 1.1901163 1695.5087 -146.96277)"/><path d="m483.57144 257.71933c0 28.51077-11.32586 55.85382-31.48602 76.01398l-76.01398-76.01398z" fill="none" transform="matrix(1.1901163 0 0 -1.1901163 800.3712 466.46918)"/><path d="m452.08542 333.73331c-20.16016 20.16016-47.5032 31.48602-76.01398 31.48602v-107.5z" stroke="#000" stroke-linecap="round" stroke-linejoin="round" stroke-miterlimit="10" stroke-width=".840254" transform="matrix(1.1901163 0 0 -1.1901163 800.3712 466.46918)"/><path d="m483.57144 257.71933c0 28.51077-11.32586 55.85382-31.48602 76.01398l-76.01398-76.01398z" fill="none" transform="matrix(-1.1901163 0 0 -1.1901163 1695.5087 466.46918)"/><path d="m452.08542 333.73331c-20.16016 20.16016-47.5032 31.48602-76.01398 31.48602v-107.5z" fill="none" transform="matrix(-1.1901163 0 0 -1.1901163 1695.5087 466.46918)"/><path d="m483.57144 257.71933c0 59.37061-48.12939 107.5-107.5 107.5s-107.5-48.12939-107.5-107.5 48.12939-107.5 107.5-107.5 107.5 48.12939 107.5 107.5z" fill="none" transform="matrix(1.1901163 0 0 1.1901163 800.12119 193.06429)"/><path d="m483.57144 257.71933c0 28.51077-11.32586 55.85382-31.48602 76.01398l-76.01398-76.01398z" fill="none" transform="matrix(1.1901163 0 0 1.1901163 800.12119 193.0643)"/><path d="m452.08542 333.73331c-20.16016 20.16016-47.5032 31.48602-76.01398 31.48602v-107.5z" fill="none" transform="matrix(1.1901163 0 0 1.1901163 800.12119 193.0643)"/><path d="m483.57144 257.71933c0 28.51077-11.32586 55.85382-31.48602 76.01398l-76.01398-76.01398z" fill="none" transform="matrix(-1.1901163 0 0 1.1901163 1695.25879 193.06429)"/><path d="m452.08542 333.73331c-20.16016 20.16016-47.5032 31.48602-76.01398 31.48602v-107.5z" fill="none" transform="matrix(-1.1901163 0 0 1.1901163 1695.25879 193.06429)"/><path d="m483.57144 257.71933c0 28.51077-11.32586 55.85382-31.48602 76.01398l-76.01398-76.01398z" stroke="#000" stroke-linecap="round" stroke-linejoin="round" stroke-miterlimit="10" stroke-width=".840254" transform="matrix(1.1901163 0 0 -1.1901163 800.12119 806.49624)"/><path d="m452.08542 333.73331c-20.16016 20.16016-47.5032 31.48602-76.01398 31.48602v-107.5z" fill="none" transform="matrix(1.1901163 0 0 -1.1901163 800.12119 806.49624)"/><path d="m483.57144 257.71933c0 28.51077-11.32586 55.85382-31.48602 76.01398l-76.01398-76.01398z" fill="none" transform="matrix(-1.1901163 0 0 -1.1901163 1695.25879 806.49625)"/><path d="m452.08542 333.73331c-20.16016 20.16016-47.5032 31.48602-76.01398 31.48602v-107.5z" fill="none" transform="matrix(-1.1901163 0 0 -1.1901163 1695.25879 806.49625)"/><path d="m483.57144 257.71933c0 59.37061-48.12939 107.5-107.5 107.5s-107.5-48.12939-107.5-107.5 48.12939-107.5 107.5-107.5 107.5 48.12939 107.5 107.5z" fill="none" transform="matrix(1.1901163 0 0 1.1901163 800.12116 533.34143)"/><path d="m483.57144 257.71933c0 28.51077-11.32586 55.85382-31.48602 76.01398l-76.01398-76.01398z" stroke="#000" stroke-linecap="round" stroke-linejoin="round" stroke-miterlimit="10" stroke-width=".840254" transform="matrix(1.1901163 0 0 1.1901163 800.12116 533.34143)"/><path d="m452.08542 333.73331c-20.16016 20.16016-47.5032 31.48602-76.01398 31.48602v-107.5z" fill="none" transform="matrix(1.1901163 0 0 1.1901163 800.12116 533.34143)"/><path d="m483.57144 257.71933c0 28.51077-11.32586 55.85382-31.48602 76.01398l-76.01398-76.01398z" fill="none" transform="matrix(-1.1901163 0 0 1.1901163 1695.25866 533.34143)"/><path d="m452.08542 333.73331c-20.16016 20.16016-47.5032 31.48602-76.01398 31.48602v-107.5z" fill="none" transform="matrix(-1.1901163 0 0 1.1901163 1695.25866 533.34143)"/><path d="m483.57144 257.71933c0 28.51077-11.32586 55.85382-31.48602 76.01398l-76.01398-76.01398z" fill="none" transform="matrix(1.1901163 0 0 -1.1901163 800.12116 1146.77337)"/><path d="m452.08542 333.73331c-20.16016 20.16016-47.5032 31.48602-76.01398 31.48602v-107.5z" fill="none" transform="matrix(1.1901163 0 0 -1.1901163 800.12116 1146.77337)"/><path d="m483.57144 257.71933c0 28.51077-11.32586 55.85382-31.48602 76.01398l-76.01398-76.01398z" fill="none" transform="matrix(-1.1901163 0 0 -1.1901163 1695.25866 1146.77337)"/><path d="m452.08542 333.73331c-20.16016 20.16016-47.5032 31.48602-76.01398 31.48602v-107.5z" fill="none" transform="matrix(-1.1901163 0 0 -1.1901163 1695.25866 1146.77337)"/><path d="m483.57144 257.71933c0 59.37061-48.12939 107.5-107.5 107.5s-107.5-48.12939-107.5-107.5 48.12939-107.5 107.5-107.5 107.5 48.12939 107.5 107.5z" fill="none" transform="matrix(1.1901163 0 0 1.1901163 800.37116 873.36846)"/><path d="m483.57144 257.71933c0 28.51077-11.32586 55.85382-31.48602 76.01398l-76.01398-76.01398z" fill="none" transform="matrix(1.1901163 0 0 1.1901163 800.37116 873.36847)"/><path d="m452.08542 333.73331c-20.16016 20.16016-47.5032 31.48602-76.01398 31.48602v-107.5z" stroke="#000" stroke-linecap="round" stroke-linejoin="round" stroke-miterlimit="10" stroke-width=".840254" transform="matrix(1.1901163 0 0 1.1901163 800.37116 873.36847)"/><path d="m483.57144 257.71933c0 28.51077-11.32586 55.85382-31.48602 76.01398l-76.01398-76.01398z" fill="none" transform="matrix(-1.1901163 0 0 1.1901163 1695.50866 873.36846)"/><path d="m452.08542 333.73331c-20.16016 20.16016-47.5032 31.48602-76.01398 31.48602v-107.5z" fill="none" transform="matrix(-1.1901163 0 0 1.1901163 1695.50866 873.36846)"/><path d="m483.57144 257.71933c0 28.51077-11.32586 55.85382-31.48602 76.01398l-76.01398-76.01398z" fill="none" transform="matrix(1.1901163 0 0 -1.1901163 800.37116 1486.8004)"/><path d="m452.08542 333.73331c-20.16016 20.16016-47.5032 31.48602-76.01398 31.48602v-107.5z" fill="none" transform="matrix(1.1901163 0 0 -1.1901163 800.37116 1486.8004)"/><path d="m483.57144 257.71933c0 28.51077-11.32586 55.85382-31.48602 76.01398l-76.01398-76.01398z" fill="none" transform="matrix(-1.1901163 0 0 -1.1901163 1695.50866 1486.8004)"/><path d="m452.08542 333.73331c-20.16016 20.16016-47.5032 31.48602-76.01398 31.48602v-107.5z" fill="none" transform="matrix(-1.1901163 0 0 -1.1901163 1695.50866 1486.8004)"/><path d="m483.57144 257.71933c0 59.37061-48.12939 107.5-107.5 107.5s-107.5-48.12939-107.5-107.5 48.12939-107.5 107.5-107.5 107.5 48.12939 107.5 107.5z" fill="none" transform="matrix(1.1901163 0 0 1.1901163 800.37116 1213.64556)"/><path d="m483.57144 257.71933c0 28.51077-11.32586 55.85382-31.48602 76.01398l-76.01398-76.01398z" fill="none" transform="matrix(1.1901163 0 0 1.1901163 800.37116 1213.64557)"/><path d="m452.08542 333.73331c-20.16016 20.16016-47.5032 31.48602-76.01398 31.48602v-107.5z" fill="none" transform="matrix(1.1901163 0 0 1.1901163 800.37116 1213.64557)"/><path d="m483.57144 257.71933c0 28.51077-11.32586 55.85382-31.48602 76.01398l-76.01398-76.01398z" fill="none" transform="matrix(-1.1901163 0 0 1.1901163 1695.50876 1213.64556)"/><path d="m452.08542 333.73331c-20.16016 20.16016-47.5032 31.48602-76.01398 31.48602v-107.5z" stroke="#000" stroke-linecap="round" stroke-linejoin="round" stroke-miterlimit="10" stroke-width=".840254" transform="matrix(-1.1901163 0 0 1.1901163 1695.50876 1213.64556)"/><path d="m483.57144 257.71933c0 28.51077-11.32586 55.85382-31.48602 76.01398l-76.01398-76.01398z" fill="none" transform="matrix(1.1901163 0 0 -1.1901163 800.37116 1827.0775)"/><path d="m452.08542 333.73331c-20.16016 20.16016-47.5032 31.48602-76.01398 31.48602v-107.5z" fill="none" transform="matrix(1.1901163 0 0 -1.1901163 800.37116 1827.0775)"/><path d="m483.57144 257.71933c0 28.51077-11.32586 55.85382-31.48602 76.01398l-76.01398-76.01398z" fill="none" transform="matrix(-1.1901163 0 0 -1.1901163 1695.50876 1827.0775)"/><path d="m452.08542 333.73331c-20.16016 20.16016-47.5032 31.48602-76.01398 31.48602v-107.5z" fill="none" transform="matrix(-1.1901163 0 0 -1.1901163 1695.50876 1827.0775)"/><path d="m483.57144 257.71933c0 59.37061-48.12939 107.5-107.5 107.5s-107.5-48.12939-107.5-107.5 48.12939-107.5 107.5-107.5 107.5 48.12939 107.5 107.5z" fill="none" transform="matrix(1.1901163 0 0 1.1901163 800.62116 1554.1727)"/><path d="m483.57144 257.71933c0 28.51077-11.32586 55.85382-31.48602 76.01398l-76.01398-76.01398z" fill="none" transform="matrix(1.1901163 0 0 1.1901163 800.62116 1554.1727)"/><path d="m452.08542 333.73331c-20.16016 20.16016-47.5032 31.48602-76.01398 31.48602v-107.5z" fill="none" transform="matrix(1.1901163 0 0 1.1901163 800.62116 1554.1727)"/><path d="m483.57144 257.71933c0 28.51077-11.32586 55.85382-31.48602 76.01398l-76.01398-76.01398z" stroke="#000" stroke-linecap="round" stroke-linejoin="round" stroke-miterlimit="10" stroke-width=".840254" transform="matrix(-1.1901163 0 0 1.1901163 1695.75866 1554.1727)"/><path d="m452.08542 333.73331c-20.16016 20.16016-47.5032 31.48602-76.01398 31.48602v-107.5z" fill="none" transform="matrix(-1.1901163 0 0 1.1901163 1695.75866 1554.1727)"/><path d="m483.57144 257.71933c0 28.51077-11.32586 55.85382-31.48602 76.01398l-76.01398-76.01398z" fill="none" transform="matrix(1.1901163 0 0 -1.1901163 800.62116 2167.6046)"/><path d="m452.08542 333.73331c-20.16016 20.16016-47.5032 31.48602-76.01398 31.48602v-107.5z" fill="none" transform="matrix(1.1901163 0 0 -1.1901163 800.62116 2167.6046)"/><path d="m483.57144 257.71933c0 28.51077-11.32586 55.85382-31.48602 76.01398l-76.01398-76.01398z" fill="none" transform="matrix(-1.1901163 0 0 -1.1901163 1695.75866 2167.6046)"/><path d="m452.08542 333.73331c-20.16016 20.16016-47.5032 31.48602-76.01398 31.48602v-107.5z" fill="none" transform="matrix(-1.1901163 0 0 -1.1901163 1695.75866 2167.6046)"/><path d="m483.57144 257.71933c0 59.37061-48.12939 107.5-107.5 107.5s-107.5-48.12939-107.5-107.5 48.12939-107.5 107.5-107.5 107.5 48.12939 107.5 107.5z" fill="none" transform="matrix(1.1901163 0 0 1.1901163 800.62116 1894.4498)"/><path d="m483.57144 257.71933c0 28.51077-11.32586 55.85382-31.48602 76.01398l-76.01398-76.01398z" fill="none" transform="matrix(1.1901163 0 0 1.1901163 800.62116 1894.4498)"/><path d="m452.08542 333.73331c-20.16016 20.16016-47.5032 31.48602-76.01398 31.48602v-107.5z" fill="none" transform="matrix(1.1901163 0 0 1.1901163 800.62116 1894.4498)"/><path d="m483.57144 257.71933c0 28.51077-11.32586 55.85382-31.48602 76.01398l-76.01398-76.01398z" fill="none" transform="matrix(-1.1901163 0 0 1.1901163 1695.75866 1894.4498)"/><path d="m452.08542 333.73331c-20.16016 20.16016-47.5032 31.48602-76.01398 31.48602v-107.5z" fill="none" transform="matrix(-1.1901163 0 0 1.1901163 1695.75866 1894.4498)"/><path d="m483.57144 257.71933c0 28.51077-11.32586 55.85382-31.48602 76.01398l-76.01398-76.01398z" fill="none" transform="matrix(1.1901163 0 0 -1.1901163 800.62116 2507.8818)"/><path d="m452.08542 333.73331c-20.16016 20.16016-47.5032 31.48602-76.01398 31.48602v-107.5z" fill="none" transform="matrix(1.1901163 0 0 -1.1901163 800.62116 2507.8818)"/><path d="m483.57144 257.71933c0 28.51077-11.32586 55.85382-31.48602 76.01398l-76.01398-76.01398z" stroke="#000" stroke-linecap="round" stroke-linejoin="round" stroke-miterlimit="10" stroke-width=".840254" transform="matrix(-1.1901163 0 0 -1.1901163 1695.75866 2507.8818)"/><path d="m452.08542 333.73331c-20.16016 20.16016-47.5032 31.48602-76.01398 31.48602v-107.5z" fill="none" transform="matrix(-1.1901163 0 0 -1.1901163 1695.75866 2507.8818)"/><path d="m483.57144 257.71933c0 59.37061-48.12939 107.5-107.5 107.5s-107.5-48.12939-107.5-107.5 48.12939-107.5 107.5-107.5 107.5 48.12939 107.5 107.5z" fill="none" transform="matrix(1.1901163 0 0 1.1901163 800.37116 2234.9769)"/><path d="m483.57144 257.71933c0 28.51077-11.32586 55.85382-31.48602 76.01398l-76.01398-76.01398z" fill="none" transform="matrix(1.1901163 0 0 1.1901163 800.37116 2234.9769)"/><path d="m452.08542 333.73331c-20.16016 20.16016-47.5032 31.48602-76.01398 31.48602v-107.5z" fill="none" transform="matrix(1.1901163 0 0 1.1901163 800.37116 2234.9769)"/><path d="m483.57144 257.71933c0 28.51077-11.32586 55.85382-31.48602 76.01398l-76.01398-76.01398z" fill="none" transform="matrix(-1.1901163 0 0 1.1901163 1695.50866 2234.9769)"/><path d="m452.08542 333.73331c-20.16016 20.16016-47.5032 31.48602-76.01398 31.48602v-107.5z" fill="none" transform="matrix(-1.1901163 0 0 1.1901163 1695.50866 2234.9769)"/><path d="m483.57144 257.71933c0 28.51077-11.32586 55.85382-31.48602 76.01398l-76.01398-76.01398z" fill="none" transform="matrix(1.1901163 0 0 -1.1901163 800.37116 2848.4089)"/><path d="m452.08542 333.73331c-20.16016 20.16016-47.5032 31.48602-76.01398 31.48602v-107.5z" fill="none" transform="matrix(1.1901163 0 0 -1.1901163 800.37116 2848.4089)"/><path d="m483.57144 257.71933c0 28.51077-11.32586 55.85382-31.48602 76.01398l-76.01398-76.01398z" fill="none" transform="matrix(-1.1901163 0 0 -1.1901163 1695.50866 2848.4089)"/><path d="m452.08542 333.73331c-20.16016 20.16016-47.5032 31.48602-76.01398 31.48602v-107.5z" stroke="#000" stroke-linecap="round" stroke-linejoin="round" stroke-miterlimit="10" stroke-width=".840254" transform="matrix(-1.1901163 0 0 -1.1901163 1695.50866 2848.4089)"/></svg>