<svg height="100" width="80" xmlns="http://www.w3.org/2000/svg"><g stroke="#000"><g transform="matrix(.92101255 -.38953289 .38953289 .92101255 15.970897 115.134326)"><g transform="matrix(1 0 0 -1 -2.202486 -5.191043)"><path d="m295.133 14.7188-.401-1.0459 1.015-1.7125 1.297.3399-.645 1.0845z" stroke-linecap="round" stroke-linejoin="round" stroke-width=".281441" transform="matrix(0 3.68305 4.84094 0 -13.834512 -1072.634262)"/><path d="m53.16650063 14.47522533c1.758571 3.29482 6.735177 3.560468 11.1161368.588631 4.3835358-2.971805 6.51342034-8.050628 4.7625844-11.3469324-1.7585733-3.2963347-6.7325989-3.5604656-11.1135592-.5886302-4.380956 2.9702899-6.51084 8.0506286-4.765162 11.3469316zm2.792842-1.889422c-.777747-1.463082.550513-4.590792 3.497516-6.5858918 2.9470004-1.9992005 6.0228465-1.856599 6.7982489-.3948928.7824331 1.4616796-.5505121 4.5921416-3.4975143 6.5872406-2.9470006 2.000577-6.0205026 1.856599-6.7982506.393544z" stroke-width="1.01849"/></g><path d="m6.46371842-39.19154976c.095603-.210717.201794-.41483.3034-.620352 3.064669-.647624 6.163815-3.6501168 9.215802-2.5083769 8.900207 3.8035799 17.918506 7.5799629 26.888902 11.3551259.204919.741407.316529 1.489311.341326 2.238661.05609 1.57716-.271307 3.196222-1.023978 4.693092-11.928446-5.021478-23.8832-10.045069-35.725452-15.15815z" stroke-linecap="round" stroke-linejoin="round" stroke-width="2.5"/></g><g transform="matrix(.92101255 .38953289 .38953289 -.92101255 15.970897 37.587412)"><g transform="matrix(1 0 0 -1 -2.202486 -5.191043)"><path d="m295.747 11.9604 1.297.3399-.645 1.0845-1.266 1.334-.401-1.0459z" stroke-linecap="round" stroke-linejoin="round" stroke-width=".281441" transform="matrix(0 3.68305 4.84094 0 -13.834512 -1072.634262)"/><path d="m53.16650063 14.47522533c1.758571 3.29482 6.735177 3.560468 11.1161368.588631 4.3835358-2.971805 6.51342034-8.050628 4.7625844-11.3469324-1.7585733-3.2963347-6.7325989-3.5604656-11.1135592-.5886302-4.380956 2.9702899-6.51084 8.0506286-4.765162 11.3469316zm2.792842-1.889422c-.777747-1.463082.550513-4.590792 3.497516-6.5858918 2.9470004-1.9992005 6.0228465-1.856599 6.7982489-.3948928.7824331 1.4616796-.5505121 4.5921416-3.4975143 6.5872406-2.9470006 2.000577-6.0205026 1.856599-6.7982506.393544z" stroke-width="1.01849"/></g><path d="m6.46371842-39.19154976c.095603-.210717.201794-.41483.3034-.620352 3.064669-.647624 6.163815-3.6501168 9.215802-2.5083769 8.900207 3.8035799 17.918506 7.5799629 26.888902 11.3551259.204919.741407.316529 1.489311.341326 2.238661.05609 1.57716-.271307 3.196222-1.023978 4.693092-11.928446-5.021478-23.8832-10.045069-35.725452-15.15815z" stroke-linecap="round" stroke-linejoin="round" stroke-width="2.5"/></g><g transform="matrix(.9986968 -.05103634 .05103634 .9986968 4.748473 53.796804)"><g transform="matrix(1 0 0 -1 -2.202486 -5.191043)"><path d="m295.747 11.9604 1.297.3399-.645 1.0845-1.266 1.334-.401-1.0459z" stroke-linecap="round" stroke-linejoin="round" stroke-width=".281441" transform="matrix(0 3.68305 4.84094 0 -13.834512 -1072.634262)"/><path d="m53.16650063 14.47522533c1.758571 3.29482 6.735177 3.560468 11.1161368.588631 4.3835358-2.971805 6.51342034-8.050628 4.7625844-11.3469324-1.7585733-3.2963347-6.7325989-3.5604656-11.1135592-.5886302-4.380956 2.9702899-6.51084 8.0506286-4.765162 11.3469316zm2.792842-1.889422c-.777747-1.463082.550513-4.590792 3.497516-6.5858918 2.9470004-1.9992005 6.0228465-1.856599 6.7982489-.3948928.7824331 1.4616796-.5505121 4.5921416-3.4975143 6.5872406-2.9470006 2.000577-6.0205026 1.856599-6.7982506.393544z" stroke-width="1.01849"/></g><path d="m6.46371842-39.19154976c.095603-.210717.201794-.41483.3034-.620352 3.064669-.647624 6.163815-3.6501168 9.215802-2.5083769 8.900207 3.8035799 17.918506 7.5799629 26.888902 11.3551259.204919.741407.316529 1.489311.341326 2.238661.05609 1.57716-.271307 3.196222-1.023978 4.693092-11.928446-5.021478-23.8832-10.045069-35.725452-15.15815z" stroke-linecap="round" stroke-linejoin="round" stroke-width="2.5"/></g><g transform="matrix(.9986968 .05103634 .05103634 -.9986968 4.748473 -3.492756)"><g transform="matrix(1 0 0 -1 -2.202486 -5.191043)"><path d="m295.133 14.7188-.401-1.0459 1.015-1.7125 1.297.3399-.645 1.0845z" stroke-linecap="round" stroke-linejoin="round" stroke-width=".281441" transform="matrix(0 3.68305 4.84094 0 -13.834512 -1072.634262)"/><path d="m53.16650063 14.47522533c1.758571 3.29482 6.735177 3.560468 11.1161368.588631 4.3835358-2.971805 6.51342034-8.050628 4.7625844-11.3469324-1.7585733-3.2963347-6.7325989-3.5604656-11.1135592-.5886302-4.380956 2.9702899-6.51084 8.0506286-4.765162 11.3469316zm2.792842-1.889422c-.777747-1.463082.550513-4.590792 3.497516-6.5858918 2.9470004-1.9992005 6.0228465-1.856599 6.7982489-.3948928.7824331 1.4616796-.5505121 4.5921416-3.4975143 6.5872406-2.9470006 2.000577-6.0205026 1.856599-6.7982506.393544z" stroke-width="1.01849"/></g><path d="m6.46371842-39.19154976c.095603-.210717.201794-.41483.3034-.620352 3.064669-.647624 6.163815-3.6501168 9.215802-2.5083769 8.900207 3.8035799 17.918506 7.5799629 26.888902 11.3551259.204919.741407.316529 1.489311.341326 2.238661.05609 1.57716-.271307 3.196222-1.023978 4.693092-11.928446-5.021478-23.8832-10.045069-35.725452-15.15815z" stroke-linecap="round" stroke-linejoin="round" stroke-width="2.5"/></g></g></svg>