<svg height="235.838" width="298.085" xmlns="http://www.w3.org/2000/svg"><path d="m5.7739922 60.0377419 1.426-2.844 1.426-2.832 1.422-2.808 1.425-2.785 1.426-2.75 1.422-2.708 1.426-2.66 1.426-2.605 1.421-2.547 1.426-2.48 1.422-2.403 1.426-2.328 1.426-2.238 1.422-2.149 1.425-2.05 1.426-1.95 1.426-1.843 1.422-1.731 1.426-1.613 1.421-1.496 1.426-1.375 1.426-1.242 1.422-1.118 1.426-.9799 1.425-.8441 1.422-.711 1.426-.566 1.426-.43 1.422-.2849 1.426-.1451h1.425l1.422.1451 1.426.2849 1.426.43 1.422.566 1.425.711 1.426.8441 1.422.9799 1.426 1.118 1.426 1.246 1.421 1.371 1.426 1.496 1.422 1.613 1.426 1.731 1.426 1.843 1.425 1.95 1.422 2.05 1.426 2.149 1.426 2.238 1.422 2.328 1.426 2.403 1.421 2.48 1.426 2.547 1.426 2.605 1.422 2.66 1.426 2.711 1.425 2.747 1.422 2.785 1.426 2.812 1.426 2.828 1.422 2.844 1.426 2.848 1.425 2.847 1.422 2.836 1.426 2.825 1.426 2.796 1.422 2.77 1.425 2.73 1.426 2.688 1.422 2.633 1.426 2.578 1.426 2.515 1.422 2.446 1.425 2.363 1.426 2.285 1.422 2.196 1.426 2.101 1.425 2.004 1.422 1.898 1.426 1.79 1.426 1.679 1.422 1.559 1.426 1.433 1.421 1.313 1.426 1.183 1.426 1.047 1.426.918 1.422.782 1.425.64 1.422.5 1.426.36 1.426.218 1.422.075 1.426-.071 1.425-.211 1.422-.355 1.426-.496 1.426-.637 1.422-.773 1.425-.914 1.426-1.043 1.422-1.18 1.426-1.309 1.426-1.429 1.422-1.555 1.425-1.672 1.426-1.785 1.422-1.895 1.426-2 1.426-2.097 1.421-2.196 1.426-2.281 1.422-2.363 1.426-2.442 1.426-2.511 1.425-2.575 1.422-2.632 1.426-2.688 1.426-2.73 1.422-2.766 1.425-2.797 1.422-2.82 1.426-2.84 1.426-2.844" fill="none" stroke="#000" stroke-linecap="round"/><g fill="none" stroke="#000" stroke-linecap="round" transform="translate(-171.226556 -241.362424)"><path d="m417.0817842 264.6343731.27448903.5016987.27448903.49958183.27371908.49534809.27429655.49129075.27448903.48511654.27371908.47770749.27448903.46924.27448903.45953767.27352659.44930612.27448903.43748691.27371908.42390365.27448903.4106732.27448903.39479666.27371908.37909652.27429655.36163233.27448903.34399173.27448903.32511628.27371908.30535881.27448903.2845429.27352659.2639034.27448903.24255827.27448903.21909627.27371908.19722192.27448903.17286025.27429655.14890432.27371908.12542468.27448903.0998458.27448903.07585459.27371908.05025807.27448903.02559651h.27429655l.27371908-.02559651.27448903-.05025807.27448903-.07585459.27371908-.0998458.27429655-.12542468.27448903-.14890432.27371908-.17286025.27448903-.19722192.27448903-.21980189.27352659-.24185264.27448903-.2639034.27371908-.2845429.27448903-.30535881.27448903-.32511628.27429655-.34399173.27371908-.36163233.27448903-.37909652.27448903-.39479666.27371908-.4106732.27448903-.42390365.27352659-.43748691.27448903-.44930612.27448903-.45953767.27371908-.46924.27448903-.4782367.27429655-.48458732.27371908-.49129075.27448903-.49605371.27448903-.49887621.27371908-.5016987.27448903-.50240433.27429655-.50222792.27371908-.50028745.27448903-.49834699.27448903-.49323121.27371908-.48864466.27429655-.48158842.27448903-.47417936.27371908-.46447703.27448903-.4547747.27448903-.44366112.27371908-.43148911.27429655-.41684741.27448903-.40308774.27371908-.38738761.27448903-.37062903.27429655-.35351765.27371908-.33481861.27448903-.31576676.27448903-.2961857.27371908-.27501698.27448903-.25278982.27352659-.2316211.27448903-.20868831.27448903-.1846971.27448903-.16194072.27371908-.1379495.27429655-.11289985.27371908-.08820301.27448903-.06350616.27448903-.03845651.27371908-.01323045.27448903.01252483.27429655.03722167.27371908.06262413.27448903.08749738.27448903.11237063.27371908.13636185.27429655.1612351.27448903.18399147.27371908.2081591.27448903.23091547.27448903.25208419.27371908.27431135.27429655.29495085.27448903.31488473.27371908.3342894.27448903.35281203.27448903.36992341.27352659.38738761.27448903.40238212.27371908.41684741.27448903.43078349.27448903.4429555.27429655.45424549.27371908.46430063.27448903.47417936.27448903.48158842.27371908.48793903.27429655.49340762.27371908.49746496.27448903.50099308.27448903.5016987" stroke-width="4.000311"/><path d="m415.069702 245.239548h38.024059v38.024059h-38.024059z" opacity="0" stroke-linejoin="round" stroke-width="1.975942"/></g><g fill="none" stroke="#000" stroke-linecap="round" transform="translate(-168 -81)"><path d="m410.84314 237.274765h38.024059v38.024059h-38.024059z" opacity="0" stroke-linejoin="round" stroke-width="1.975942"/><path d="m412.85524811 255.90399166.27448877-.50170127.27448877-.49958438.27371882-.49535062.27429628-.49129326.27448877-.48511902.27371882-.47770993.27448877-.46924239.27448877-.45954001.27352633-.44930841.27448877-.43748915.27371882-.42390582.27448877-.4106753.27448877-.39479868.27371882-.37909846.27429628-.36163418.27448877-.34399348.27448877-.32511794.27371882-.30536037.27448877-.28454435.27352633-.26390474.27448877-.24255951.27448877-.21909739.27371882-.19722293.27448877-.17286114.27429628-.14890508.27371882-.12542532.27448877-.09984631.27448877-.07585497.27371882-.05025833.27448877-.02559664h.27429628l.27371882.02559664.27448877.05025833.27448877.07585497.27371882.09984631.27429628.12542532.27448877.14890508.27371882.17286114.27448877.19722293.27448877.21980302.27352633.24185388.27448877.26390474.27371882.28454435.27448877.30536037.27448877.32511794.27429628.34399348.27371882.36163418.27448877.37909846.27448877.39479868.27371882.4106753.27448877.42390582.27352633.43748915.27448877.44930841.27448877.45954001.27371882.46924239.27448877.47823915.27429628.48458979.27371882.49129326.27448877.49605624.27448877.49887875.27371882.50170127.27448877.50240689.27429628.50223049.27371882.50029001.27448877.49834953.27448877.49323373.27371882.48864715.27429628.48159088.27448877.47418179.27371882.46447941.27448877.45477703.27448877.44366339.27371882.43149131.27429628.41684954.27448877.4030898.27371882.38738958.27448877.37063093.27429628.35351946.27371882.33482032.27448877.31576838.27448877.29618721.27371882.27501838.27448877.25279111.27352633.23162228.27448877.20868938.27448877.18469804.27448877.16194155.27371882.13795021.27429628.11290043.27371882.08820346.27448877.06350649.27448877.03845671.27371882.01323052.27448877-.01252489.27429628-.03722186.27371882-.06262445.27448877-.08749783.27448877-.1123712.27371882-.13636255.27429628-.16123592.27448877-.18399241.27371882-.20816016.27448877-.23091665.27448877-.25208548.27371882-.27431275.27429628-.29495236.27448877-.31488634.27371882-.3342911.27448877-.35281383.27448877-.3699253.27352633-.38738958.27448877-.40238417.27371882-.41684954.27448877-.43078569.27448877-.44295776.27429628-.45424781.27371882-.464303.27448877-.47418179.27448877-.48159088.27371882-.48794153.27429628-.49341014.27371882-.4974675.27448877-.50099564.27448877-.50170127" stroke-width="4.000277"/></g><text font-family="Bitstream Vera Sans" font-size="10" x="247" y="225.83801"><tspan x="247" y="225.83801">Gfx 64</tspan></text><g fill="none" stroke="#000" stroke-linecap="round" transform="translate(-256.581724 -83.161055)"><path d="m502.08172639 216.79094621.27449002-.20069676.27449002-.19984994.27372006-.19815629.27429753-.19653322.27449002-.19406332.27372006-.19109945.27449002-.18771216.27449002-.18383089.27352757-.17973792.27449002-.17500983.27372006-.16957606.27449002-.16428342.27449002-.15793226.27372006-.15165166.27429753-.14466539.27449002-.13760854.27449002-.13005771.27372006-.12215404.27449002-.11382696.27352757-.10557045.27449002-.09703166.27449002-.08764605.27372006-.07889556.27449002-.06915005.27429753-.05956685.27372006-.05017419.27449002-.03994176.27449002-.03034445.27372006-.02010496.27449002-.01023949h.27429753l.27372006.01023949.27449002.02010496.27449002.03034445.27372006.03994176.27429753.05017419.27449002.05956685.27372006.06915005.27449002.07889556.27449002.08792833.27352757.09674939.27449002.10557045.27372006.11382696.27449002.12215404.27449002.13005771.27429753.13760854.27372006.14466539.27449002.15165166.27449002.15793226.27372006.16428342.27449002.16957606.27352757.17500983.27449002.17973792.27449002.18383089.27372006.18771216.27449002.19131115.27429753.19385162.27372006.19653322.27449002.19843857.27449002.19956766.27372006.20069676.27449002.20097903.27429753.20090846.27372006.20013221.27449002.19935596.27449002.19730947.27372006.19547469.27429753.19265195.27449002.18968808.27372006.18580681.27449002.18192554.27449002.17747973.27372006.1726105.27429753.16675332.27449002.16124898.27372006.15496838.27449002.14826438.27429753.14141923.27372006.13393898.27449002.12631758.27449002.11848448.27372006.11001626.27449002.10112463.27352757.09265641.27449002.08348251.27449002.0738852.27449002.06478187.27372006.05518455.27429753.04516383.27372006.03528424.27449002.02540465.27449002.01538393.27372006.00529264.27449002-.00501036.27429753-.01488995.27372006-.02505181.27449002-.03500197.27449002-.04495212.27372006-.05454944.27429753-.06449959.27449002-.07360293.27372006-.08327081.27449002-.09237414.27449002-.10084236.27372006-.10973399.27429753-.1179905.27449002-.12596474.27372006-.13372727.27449002-.14113696.27449002-.1479821.27352757-.15496838.27449002-.1609667.27372006-.16675332.27449002-.17232823.27449002-.17719745.27429753-.18171384.27372006-.18573624.27449002-.18968808.27449002-.19265195.27372006-.19519242.27429753-.19738004.27372006-.19900312.27449002-.20041448.27449002-.20069676" stroke-width="3.999757"/><path d="m500.069702 197.932053h38.024059v38.024059h-38.024059z" opacity="0" stroke-linejoin="round" stroke-width="1.975942"/></g><g fill="none" stroke="#000" stroke-linecap="round" transform="translate(-251.081673 -202.858617)"><path d="m497.08177056 264.40466286.27448926.20064068.27448926.1997941.2737193.19810093.27429677.1964783.27448926.1940091.2737193.19104605.27448926.18765971.27448926.18377953.27352681.1796877.27448926.17496093.2737193.16952868.27448926.16423752.27448926.15788813.2737193.15160929.27429677.14462496.27448926.13757009.27448926.13002137.2737193.12211991.27448926.11379515.27352681.10554095.27448926.09700455.27448926.08762156.2737193.07887352.27448926.06913073.27429677.05955021.2737193.05016017.27448926.0399306.27448926.03033597.2737193.02009934.27448926.01023663h.27429677l.2737193-.01023663.27448926-.02009934.27448926-.03033597.2737193-.0399306.27429677-.05016017.27448926-.05955021.2737193-.06913073.27448926-.07887352.27448926-.08790376.27352681-.09672235.27448926-.10554095.2737193-.11379515.27448926-.12211991.27448926-.13002137.27429677-.13757009.2737193-.14462496.27448926-.15160929.27448926-.15788813.2737193-.16423752.27448926-.16952868.27352681-.17496093.27448926-.1796877.27448926-.18377953.2737193-.18765971.27448926-.1912577.27429677-.19379745.2737193-.1964783.27448926-.19838312.27448926-.1995119.2737193-.20064068.27448926-.20092288.27429677-.20085233.2737193-.20007629.27448926-.19930026.27448926-.19725434.2737193-.19542007.27429677-.19259812.27448926-.18963507.2737193-.18575489.27448926-.18187471.27448926-.17743014.2737193-.17256227.27429677-.16670673.27448926-.16120392.2737193-.15492508.27448926-.14822295.27429677-.14137972.2737193-.13390155.27448926-.12628229.27448926-.11845137.2737193-.10998552.27448926-.10109638.27352681-.09263053.27448926-.08345919.27448926-.07386455.27448926-.06476376.2737193-.05516913.27429677-.04515121.2737193-.03527438.27448926-.02539755.27448926-.01537963.2737193-.00529116.27448926.00500896.27429677.01488579.2737193.02504481.27448926.03499219.27448926.04493956.2737193.05453419.27429677.06448157.27448926.07358236.2737193.08324754.27448926.09234833.27448926.10081418.2737193.10970333.27429677.11795753.27448926.12592954.2737193.13368991.27448926.14109753.27448926.14794076.27352681.15492508.27448926.16092173.2737193.16670673.27448926.17228008.27448926.17714794.27429677.18166306.2737193.18568434.27448926.18963507.27448926.19259812.2737193.19513788.27429677.19732489.2737193.19894751.27448926.20035849.27448926.20064068" stroke-width="4.000922"/><path d="m495.069702 245.239548h38.024059v38.024059h-38.024059z" opacity="0" stroke-linejoin="round" stroke-width="1.975942"/></g><g fill="none" stroke="#000" stroke-linecap="round" transform="translate(-.353553 -159.452579)"><path d="m74.73164929 351.68198025.1291692.25083742.1291692.24977904.12880687.24766226.12907862.24563369.1291692.24254673.12880687.23884238.1291692.23460884.1291692.2297579.12871629.22464237.1291692.21873305.12880687.21194174.1291692.20532683.1291692.19738894.12880687.18953925.12907862.18080756.1291692.17198768.1291692.16255041.12880687.15267214.1291692.14226468.12871629.13194542.1291692.12127337.1291692.10954292.12880687.09860627.1291692.08642602.12907862.07444862.12880687.06270936.1291692.04992053.1291692.03792549.12880687.02512784.1291692.01279765h.12907862l.12880687-.01279765.1291692-.02512784.1291692-.03792549.12880687-.04992053.12907862-.06270936.1291692-.07444862.12880687-.08642602.1291692-.09860627.1291692-.10989572.12871629-.12092057.1291692-.13194542.12880687-.14226468.1291692-.15267214.1291692-.16255041.12907862-.17198768.12880687-.18080756.1291692-.18953925.1291692-.19738894.12880687-.20532683.1291692-.21194174.12871629-.21873305.1291692-.22464237.1291692-.2297579.12880687-.23460884.1291692-.23910698.12907862-.24228214.12880687-.24563369.1291692-.24801506.1291692-.24942624.12880687-.25083742.1291692-.25119022.12907862-.25110202.12880687-.25013183.1291692-.24916164.1291692-.24660388.12880687-.24431071.12907862-.24078276.1291692-.23707841.12880687-.23222747.1291692-.22737654.1291692-.22182001.12880687-.21573429.12907862-.20841379.1291692-.20153429.12880687-.19368459.1291692-.1853057.12907862-.17675042.12880687-.16740134.1291692-.15787587.1291692-.14808581.12880687-.13750195.1291692-.1263889.12871629-.11580504.1291692-.10433919.1291692-.09234416.1291692-.08096651.12880687-.06897147.12907862-.05644724.12880687-.04409941.1291692-.03175157.1291692-.01922734.12880687-.00661491.1291692.00626212.12907862.01860995.12880687.03131058.1291692.04374661.1291692.05618264.12880687.06817768.12907862.08061371.1291692.09199136.12880687.1040746.1291692.11545224.1291692.1260361.12880687.13714915.12907862.14746841.1291692.15743488.12880687.16713675.1291692.17639762.1291692.18495291.12871629.19368459.1291692.20118149.12880687.20841379.1291692.2153815.1291692.22146722.12907862.22711194.12880687.23213927.1291692.23707841.1291692.24078276.12880687.24395791.12907862.24669208.12880687.24872065.1291692.25048463.1291692.25083742" stroke-width="2.000522"/><path d="m73.225471 341.984589h19.01203v19.01203h-19.01203z" opacity="0" stroke-linejoin="round" stroke-width=".987971"/></g><g fill="none" stroke="#000" stroke-linecap="round" transform="translate(3.889087 -310.419877)"><path d="m70.043495 378.402496h19.01203v19.01203h-19.01203z" opacity="0" stroke-linejoin="round" stroke-width=".987971"/><path d="m71.54967022 387.71711974.1291692-.25083742.1291692-.24977904.12880687-.24766226.12907862-.24563369.1291692-.24254673.12880687-.23884238.1291692-.23460884.1291692-.2297579.12871629-.22464237.1291692-.21873305.12880687-.21194174.1291692-.20532683.1291692-.19738894.12880687-.18953925.12907862-.18080756.1291692-.17198768.1291692-.16255041.12880687-.15267214.1291692-.14226468.12871629-.13194542.1291692-.12127337.1291692-.10954292.12880687-.09860627.1291692-.08642602.12907862-.07444862.12880687-.06270936.1291692-.04992053.1291692-.03792549.12880687-.02512784.1291692-.01279765h.12907862l.12880687.01279765.1291692.02512784.1291692.03792549.12880687.04992053.12907862.06270936.1291692.07444862.12880687.08642602.1291692.09860627.1291692.10989572.12871629.12092057.1291692.13194542.12880687.14226468.1291692.15267214.1291692.16255041.12907862.17198768.12880687.18080756.1291692.18953925.1291692.19738894.12880687.20532683.1291692.21194174.12871629.21873305.1291692.22464237.1291692.2297579.12880687.23460884.1291692.23910698.12907862.24228214.12880687.24563369.1291692.24801506.1291692.24942624.12880687.25083742.1291692.25119022.12907862.25110202.12880687.25013183.1291692.24916164.1291692.24660388.12880687.24431071.12907862.24078276.1291692.23707841.12880687.23222747.1291692.22737654.1291692.22182001.12880687.21573429.12907862.20841379.1291692.20153429.12880687.19368459.1291692.1853057.12907862.17675042.12880687.16740134.1291692.15787587.1291692.14808581.12880687.13750195.1291692.1263889.12871629.11580504.1291692.10433919.1291692.09234416.1291692.08096651.12880687.06897147.12907862.05644724.12880687.04409941.1291692.03175157.1291692.01922734.12880687.00661491.1291692-.00626212.12907862-.01860995.12880687-.03131058.1291692-.04374661.1291692-.05618264.12880687-.06817768.12907862-.08061371.1291692-.09199136.12880687-.1040746.1291692-.11545224.1291692-.1260361.12880687-.13714915.12907862-.14746841.1291692-.15743488.12880687-.16713675.1291692-.17639762.1291692-.18495291.12871629-.19368459.1291692-.20118149.12880687-.20841379.1291692-.2153815.1291692-.22146722.12907862-.22711194.12880687-.23213927.1291692-.23707841.1291692-.24078276.12880687-.24395791.12907862-.24669208.12880687-.24872065.1291692-.25048463.1291692-.25083742" stroke-width="2.000522"/></g><text font-family="Bitstream Vera Sans" font-size="10" x="66.047379" y="222.72734"><tspan x="66.047379" y="222.72734">Gfx 32</tspan></text><g fill="none" stroke="#000" stroke-linecap="round" transform="translate(2.474874 -231.931024)"><path d="m73.67293454 364.16594978h15.59051163" stroke-width="2.409449"/><path d="m71.962173 354.659943h19.01203v19.01203h-19.01203z" opacity="0" stroke-linejoin="round" stroke-width=".987971"/></g><g fill="none" stroke="#000" stroke-linecap="round" transform="translate(-33.941126 -284.61048)"><path d="m108.227264 380.834808h19.01203v19.01203h-19.01203z" opacity="0" stroke-linejoin="round" stroke-width=".987971"/><path d="m109.73317826 390.26425406.12917342-.10035141.12917342-.09992799.12881108-.09908114.12908283-.09826958.12917342-.09703459.12881108-.09555261.12917342-.09385891.12917342-.09191822.12872049-.08987168.12917342-.08750756.12881108-.08479059.12917342-.08214419.12917342-.07896852.12881108-.07582812.12908283-.07233488.12917342-.06880635.12917342-.06503082.12881108-.06107887.12917342-.0569152.12872049-.05278682.12917342-.0485173.12917342-.04382435.12881108-.03944897.12917342-.03457607.12908283-.02978433.12881108-.02508785.12917342-.01997148.12917342-.01517268.12881108-.01005278.12917342-.0051199h.12908283l.12881108.0051199.12917342.01005278.12917342.01517268.12881108.01997148.12908283.02508785.12917342.02978433.12881108.03457607.12917342.03944897.12917342.04396549.12872049.04837615.12917342.05278682.12881108.0569152.12917342.06107887.12917342.06503082.12908283.06880635.12881108.07233488.12917342.07582812.12917342.07896852.12881108.08214419.12917342.08479059.12872049.08750756.12917342.08987168.12917342.09191822.12881108.09385891.12917342.09565847.12908283.09692874.12881108.09826958.12917342.09922228.12917342.09978685.12881108.10035141.12917342.10049255.12908283.10045727.12881108.10006913.12917342.09968099.12917342.09865772.12881108.0977403.12908283.09632889.12917342.0948469.12881108.09290621.12917342.09096552.12917342.08874255.12881108.08630786.12908283.08337918.12917342.08062692.12881108.07748653.12917342.07413443.12908283.07071175.12881108.06697151.12917342.0631607.12917342.05924403.12881108.05500979.12917342.05056384.12872049.04632961.12917342.04174252.12917342.03694372.12917342.03239191.12881108.02759311.12908283.0225826.12881108.01764265.12917342.01270271.12917342.0076922.12881108.0026464.12917342-.00250526.12908283-.0074452.12881108-.01252628.12917342-.01750151.12917342-.02247674.12881108-.02727554.12908283-.03225077.12917342-.03680257.12881108-.04163666.12917342-.04618847.12917342-.0504227.12881108-.05486865.12908283-.05899703.12917342-.06298427.12881108-.06686566.12917342-.07057061.12917342-.07399329.12872049-.07748653.12917342-.08048578.12881108-.08337918.12917342-.08616672.12917342-.0886014.12908283-.09085966.12881108-.09287093.12917342-.0948469.12917342-.09632889.12881108-.09759916.12908283-.098693.12881108-.09950456.12917342-.10021027.12917342-.10035141" stroke-width="1.999817"/></g><g fill="none" stroke="#000" stroke-linecap="round" transform="translate(-54.447222 -191.272384)"><path d="m129.53216328 354.70849133.12917342.10035141.12917342.09992799.12881108.09908114.12908283.09826958.12917342.09703459.12881108.09555261.12917342.09385891.12917342.09191822.12872049.08987168.12917342.08750756.12881108.08479059.12917342.08214419.12917342.07896852.12881108.07582812.12908283.07233488.12917342.06880635.12917342.06503082.12881108.06107887.12917342.0569152.12872049.05278682.12917342.0485173.12917342.04382435.12881108.03944897.12917342.03457607.12908283.02978433.12881108.02508785.12917342.01997148.12917342.01517268.12881108.01005278.12917342.0051199h.12908283l.12881108-.0051199.12917342-.01005278.12917342-.01517268.12881108-.01997148.12908283-.02508785.12917342-.02978433.12881108-.03457607.12917342-.03944897.12917342-.04396549.12872049-.04837615.12917342-.05278682.12881108-.0569152.12917342-.06107887.12917342-.06503082.12908283-.06880635.12881108-.07233488.12917342-.07582812.12917342-.07896852.12881108-.08214419.12917342-.08479059.12872049-.08750756.12917342-.08987168.12917342-.09191822.12881108-.09385891.12917342-.09565847.12908283-.09692874.12881108-.09826958.12917342-.09922228.12917342-.09978685.12881108-.10035141.12917342-.10049255.12908283-.10045727.12881108-.10006913.12917342-.09968099.12917342-.09865772.12881108-.0977403.12908283-.09632889.12917342-.0948469.12881108-.09290621.12917342-.09096552.12917342-.08874255.12881108-.08630786.12908283-.08337918.12917342-.08062692.12881108-.07748653.12917342-.07413443.12908283-.07071175.12881108-.06697151.12917342-.0631607.12917342-.05924403.12881108-.05500979.12917342-.05056384.12872049-.04632961.12917342-.04174252.12917342-.03694372.12917342-.03239191.12881108-.02759311.12908283-.0225826.12881108-.01764265.12917342-.01270271.12917342-.0076922.12881108-.0026464.12917342.00250526.12908283.0074452.12881108.01252628.12917342.01750151.12917342.02247674.12881108.02727554.12908283.03225077.12917342.03680257.12881108.04163666.12917342.04618847.12917342.0504227.12881108.05486865.12908283.05899703.12917342.06298427.12881108.06686566.12917342.07057061.12917342.07399329.12872049.07748653.12917342.08048578.12881108.08337918.12917342.08616672.12917342.0886014.12908283.09085966.12881108.09287093.12917342.0948469.12917342.09632889.12881108.09759916.12908283.098693.12881108.09950456.12917342.10021027.12917342.10035141" stroke-width="1.999817"/><path d="m128.026245 345.125916h19.01203v19.01203h-19.01203z" opacity="0" stroke-linejoin="round" stroke-width=".987971"/></g><g fill="none" stroke="#000" stroke-linecap="round" transform="translate(-2.828427 -287.085353)"><path d="m132.489014 329.179352h22.814434v22.814434h-22.814434z" opacity="0" stroke-linejoin="round" stroke-width="1.185565"/><path d="m134.09613298 340.36453231.15823702-.29100086.15823702-.28977301.15779315-.2873173.15812605-.28496392.15823702-.28138269.15779315-.27708521.15823702-.2721738.15823702-.26654615.15768219-.26061153.15823702-.25375602.15779315-.24587731.15823702-.23820323.15823702-.22899435.15779315-.21988778.15812605-.209758.15823702-.19952591.15823702-.18857756.15779315-.17711761.15823702-.16504374.15768219-.15307218.15823702-.14069134.15823702-.12708265.15779315-.11439485.15823702-.10026433.15812605-.08636914.15779315-.07275021.15823702-.05791367.15823702-.04399802.15779315-.02915125.15823702-.01484677h.15812605l.15779315.01484677.15823702.02915125.15823702.04399802.15779315.05791367.15812605.07275021.15823702.08636914.15779315.10026433.15823702.11439485.15823702.12749194.15768219.14028206.15823702.15307218.15779315.16504374.15823702.17711761.15823702.18857756.15812605.19952591.15779315.209758.15823702.21988778.15823702.22899435.15779315.23820323.15823702.24587731.15768219.25375602.15823702.26061153.15823702.26654615.15779315.2721738.15823702.27739217.15812605.28107572.15779315.28496392.15823702.28772659.15823702.28936372.15779315.29100086.15823702.29141014.15812605.29130782.15779315.29018229.15823702.28905676.15823702.28608945.15779315.28342911.15812605.27933627.15823702.27503879.15779315.26941113.15823702.26378348.15823702.25733726.15779315.25027711.15812605.24178447.15823702.23380343.15779315.22469687.15823702.21497637.15812605.20505124.15779315.19420521.15823702.18315455.15823702.17179692.15779315.1595184.15823702.14662596.15768219.13434744.15823702.12104572.15823702.10713006.15823702.09393066.15779315.080015.15812605.06548543.15779315.05116049.15823702.03683555.15823702.02230597.15779315.00767407.15823702-.00726479.15812605-.02158973.15779315-.03632395.15823702-.0507512.15823702-.06517846.15779315-.07909412.15812605-.09352137.15823702-.10672078.15779315-.12073875.15823702-.13393816.15823702-.14621668.15779315-.15910912.15812605-.17108067.15823702-.18264294.15779315-.19389825.15823702-.20464195.15823702-.21456709.15768219-.22469687.15823702-.23339415.15779315-.24178447.15823702-.24986783.15823702-.25692797.15812605-.26347652.15779315-.26930881.15823702-.27503879.15823702-.27933627.15779315-.28301982.15812605-.28619177.15779315-.28854516.15823702-.29059157.15823702-.29100086" stroke-width="2.399735"/></g><g fill="none" stroke="#000" stroke-linecap="round" transform="translate(-2.828427 -167.937861)"><path d="m133.33216768 289.37094354h19.19969331" stroke-width="2.800153"/><path d="m131.524796 277.963715h22.814434v22.814434h-22.814434z" opacity="0" stroke-linejoin="round" stroke-width="1.185565"/></g><text font-family="Bitstream Vera Sans" font-size="10" x="118.91193" y="220.67992"><tspan x="118.91193" y="220.67992">Gfx 40</tspan></text><g fill="none" stroke="#000" stroke-linecap="round" transform="translate(-66.114484 -261.983063)"><path d="m196.482178 338.62854h22.814434v22.814434h-22.814434z" opacity="0" stroke-linejoin="round" stroke-width="1.185565"/><path d="m198.08939481 349.94770045.15823544-.11540692.15823544-.11491998.15779158-.11394608.15812447-.11301276.15823544-.11159249.15779158-.10988817.15823544-.10794037.15823544-.10570852.15768061-.10335494.15823544-.10063614.15779158-.09751155.15823544-.09446812.15823544-.090816.15779158-.08720446.15812447-.08318713.15823544-.07912922.15823544-.07478726.15779158-.0702424.15823544-.06545407.15768061-.06070631.15823544-.05579625.15823544-.05039923.15779158-.04536742.15823544-.03976345.15812447-.03425281.15779158-.02885173.15823544-.02296776.15823544-.01744901.15779158-.01156098.15823544-.00588803h.15812447l.15779158.00588803.15823544.01156098.15823544.01744901.15779158.02296776.15812447.02885173.15823544.03425281.15779158.03976345.15823544.04536742.15823544.05056154.15768061.05563393.15823544.06070631.15779158.06545407.15823544.0702424.15823544.07478726.15812447.07912922.15779158.08318713.15823544.08720446.15823544.090816.15779158.09446812.15823544.09751155.15768061.10063614.15823544.10335494.15823544.10570852.15779158.10794037.15823544.11000991.15812447.11147075.15779158.11301276.15823544.11410839.15823544.11475766.15779158.11540692.15823544.11556924.15812447.11552866.15779158.11508229.15823544.11463592.15823544.11345913.15779158.11240407.15812447.11078091.15823544.10907659.15779158.10684474.15823544.10461289.15823544.1020564.15779158.09925645.15812447.09588838.15823544.09272321.15779158.08911168.15823544.08525666.15812447.08132049.15779158.07701911.15823544.07263657.15823544.06813229.15779158.0632628.15823544.05814983.15768061.05328034.15823544.04800506.15823544.0424863.15823544.0372516.15779158.03173285.15812447.02597062.15779158.02028954.15823544.01460847.15823544.00884624.15779158.00304343.15823544-.00288112.15812447-.00856219.15779158-.01440558.15823544-.02012723.15823544-.02584888.15779158-.03136763.15812447-.03708929.15823544-.04232399.15779158-.04788332.15823544-.05311803.15823544-.05798752.15779158-.06310048.15812447-.06784823.15823544-.07243367.15779158-.07689737.15823544-.08115817.15823544-.08509435.15768061-.08911168.15823544-.0925609.15779158-.09588838.15823544-.09909413.15823544-.10189409.15812447-.10449115.15779158-.10680416.15823544-.10907659.15823544-.11078091.15779158-.11224176.15812447-.11349971.15779158-.11443303.15823544-.11524461.15823544-.11540692" stroke-width="2.399734"/></g><g fill="none" stroke="#000" stroke-linecap="round" transform="matrix(1 0 0 -1 -69.650019 501.020941)"><path d="m196.482178 338.62854h22.814434v22.814434h-22.814434z" opacity="0" stroke-linejoin="round" stroke-width="1.185565"/><path d="m198.08939481 349.94770045.15823544-.11540692.15823544-.11491998.15779158-.11394608.15812447-.11301276.15823544-.11159249.15779158-.10988817.15823544-.10794037.15823544-.10570852.15768061-.10335494.15823544-.10063614.15779158-.09751155.15823544-.09446812.15823544-.090816.15779158-.08720446.15812447-.08318713.15823544-.07912922.15823544-.07478726.15779158-.0702424.15823544-.06545407.15768061-.06070631.15823544-.05579625.15823544-.05039923.15779158-.04536742.15823544-.03976345.15812447-.03425281.15779158-.02885173.15823544-.02296776.15823544-.01744901.15779158-.01156098.15823544-.00588803h.15812447l.15779158.00588803.15823544.01156098.15823544.01744901.15779158.02296776.15812447.02885173.15823544.03425281.15779158.03976345.15823544.04536742.15823544.05056154.15768061.05563393.15823544.06070631.15779158.06545407.15823544.0702424.15823544.07478726.15812447.07912922.15779158.08318713.15823544.08720446.15823544.090816.15779158.09446812.15823544.09751155.15768061.10063614.15823544.10335494.15823544.10570852.15779158.10794037.15823544.11000991.15812447.11147075.15779158.11301276.15823544.11410839.15823544.11475766.15779158.11540692.15823544.11556924.15812447.11552866.15779158.11508229.15823544.11463592.15823544.11345913.15779158.11240407.15812447.11078091.15823544.10907659.15779158.10684474.15823544.10461289.15823544.1020564.15779158.09925645.15812447.09588838.15823544.09272321.15779158.08911168.15823544.08525666.15812447.08132049.15779158.07701911.15823544.07263657.15823544.06813229.15779158.0632628.15823544.05814983.15768061.05328034.15823544.04800506.15823544.0424863.15823544.0372516.15779158.03173285.15812447.02597062.15779158.02028954.15823544.01460847.15823544.00884624.15779158.00304343.15823544-.00288112.15812447-.00856219.15779158-.01440558.15823544-.02012723.15823544-.02584888.15779158-.03136763.15812447-.03708929.15823544-.04232399.15779158-.04788332.15823544-.05311803.15823544-.05798752.15779158-.06310048.15812447-.06784823.15823544-.07243367.15779158-.07689737.15823544-.08115817.15823544-.08509435.15768061-.08911168.15823544-.0925609.15779158-.09588838.15823544-.09909413.15823544-.10189409.15812447-.10449115.15779158-.10680416.15823544-.10907659.15823544-.11078091.15779158-.11224176.15812447-.11349971.15779158-.11443303.15823544-.11524461.15823544-.11540692" stroke-width="2.399734"/></g><g fill="none" stroke="#000" stroke-linecap="round" transform="matrix(1 0 0 -1 -7.424622 526.927092)"><path d="m132.489014 329.179352h22.814434v22.814434h-22.814434z" opacity="0" stroke-linejoin="round" stroke-width="1.185565"/><path d="m134.09613298 340.36453231.15823702-.29100086.15823702-.28977301.15779315-.2873173.15812605-.28496392.15823702-.28138269.15779315-.27708521.15823702-.2721738.15823702-.26654615.15768219-.26061153.15823702-.25375602.15779315-.24587731.15823702-.23820323.15823702-.22899435.15779315-.21988778.15812605-.209758.15823702-.19952591.15823702-.18857756.15779315-.17711761.15823702-.16504374.15768219-.15307218.15823702-.14069134.15823702-.12708265.15779315-.11439485.15823702-.10026433.15812605-.08636914.15779315-.07275021.15823702-.05791367.15823702-.04399802.15779315-.02915125.15823702-.01484677h.15812605l.15779315.01484677.15823702.02915125.15823702.04399802.15779315.05791367.15812605.07275021.15823702.08636914.15779315.10026433.15823702.11439485.15823702.12749194.15768219.14028206.15823702.15307218.15779315.16504374.15823702.17711761.15823702.18857756.15812605.19952591.15779315.209758.15823702.21988778.15823702.22899435.15779315.23820323.15823702.24587731.15768219.25375602.15823702.26061153.15823702.26654615.15779315.2721738.15823702.27739217.15812605.28107572.15779315.28496392.15823702.28772659.15823702.28936372.15779315.29100086.15823702.29141014.15812605.29130782.15779315.29018229.15823702.28905676.15823702.28608945.15779315.28342911.15812605.27933627.15823702.27503879.15779315.26941113.15823702.26378348.15823702.25733726.15779315.25027711.15812605.24178447.15823702.23380343.15779315.22469687.15823702.21497637.15812605.20505124.15779315.19420521.15823702.18315455.15823702.17179692.15779315.1595184.15823702.14662596.15768219.13434744.15823702.12104572.15823702.10713006.15823702.09393066.15779315.080015.15812605.06548543.15779315.05116049.15823702.03683555.15823702.02230597.15779315.00767407.15823702-.00726479.15812605-.02158973.15779315-.03632395.15823702-.0507512.15823702-.06517846.15779315-.07909412.15812605-.09352137.15823702-.10672078.15779315-.12073875.15823702-.13393816.15823702-.14621668.15779315-.15910912.15812605-.17108067.15823702-.18264294.15779315-.19389825.15823702-.20464195.15823702-.21456709.15768219-.22469687.15823702-.23339415.15779315-.24178447.15823702-.24986783.15823702-.25692797.15812605-.26347652.15779315-.26930881.15823702-.27503879.15823702-.27933627.15779315-.28301982.15812605-.28619177.15779315-.28854516.15823702-.29059157.15823702-.29100086" stroke-width="2.399735"/></g><g fill="none" stroke="#000" stroke-linecap="round" transform="translate(37.5 -374.5)"><path d="m155.446609 382.063965h28.518044v28.518044h-28.518044z" opacity="0" stroke-linejoin="round" stroke-width="1.481956"/><path d="m157.20572395 396.03588232.20182942-.37627861.20182942-.37469093.20126328-.37151559.20168788-.36847255.20182942-.36384183.20126328-.35828497.20182942-.35193428.20182942-.34465744.20112174-.33698369.20182942-.32811918.20126328-.31793161.20182942-.30800865.20182942-.2961011.20126328-.28432585.20168788-.27122755.20182942-.25799693.20182942-.24384018.20126328-.22902189.20182942-.21340977.20112174-.19792996.20182942-.18192092.20182942-.1643242.20126328-.14791824.20182942-.12964677.20168788-.1116796.20126328-.09406965.20182942-.07488526.20182942-.05689163.20126328-.03769401.20182942-.01919762h.20168788l.20126328.01919762.20182942.03769401.20182942.05689163.20126328.07488526.20168788.09406965.20182942.1116796.20126328.12964677.20182942.14791824.20182942.16485343.20112174.18139169.20182942.19792996.20126328.21340977.20182942.22902189.20182942.24384018.20168788.25799693.20126328.27122755.20182942.28432585.20182942.2961011.20126328.30800865.20182942.31793161.20112174.32811918.20182942.33698369.20182942.34465744.20126328.35193428.20182942.35868189.20168788.36344491.20126328.36847255.20182942.37204481.20182942.37416171.20126328.37627861.20182942.37680783.20168788.37667552.20126328.37522016.20182942.37376479.20182942.36992791.20126328.36648795.20168788.36119571.20182942.35563885.20126328.34836202.20182942.34108518.20182942.33274989.20126328.32362077.20168788.31263936.20182942.30231949.20126328.29054424.20182942.27797516.20168788.26514147.20126328.25111702.20182942.23682796.20182942.22214198.20126328.20626524.20182942.18959467.20112174.17371794.20182942.15651814.20182942.13852451.20182942.12145702.20126328.10346339.20168788.08467592.20126328.06615306.20182942.0476302.20182942.02884273.20126328.00992296.20182942-.00939373.20168788-.02791659.20126328-.04696867.20182942-.06562384.20182942-.084279.20126328-.10227263.20168788-.12092779.20182942-.13799528.20126328-.15612122.20182942-.17318871.20182942-.18906545.20126328-.20573602.20168788-.22121583.20182942-.23616642.20126328-.2507201.20182942-.26461224.20182942-.27744593.20112174-.29054424.20182942-.30179026.20126328-.31263936.20182942-.32309155.20182942-.33222067.20168788-.34068826.20126328-.34822971.20182942-.35563885.20182942-.36119571.20126328-.36595873.20168788-.37006022.20126328-.37310326.20182942-.37574938.20182942-.37627861" stroke-width="3.000188"/></g><g fill="none" stroke="#000" stroke-linecap="round" transform="translate(33.5 -242.227922)"><path d="m160.49056233 346.54240107h24.79939365" stroke-width="3.200303"/><path d="m158.631241 332.283386h28.518044v28.518044h-28.518044z" opacity="0" stroke-linejoin="round" stroke-width="1.481956"/></g><text font-family="Bitstream Vera Sans" font-size="10" x="185.76663" y="227.69183"><tspan x="185.76663" y="227.69183">Gfx 48</tspan></text><g fill="none" stroke="#000" stroke-linecap="round"><g transform="translate(-43 -336.5)"><path d="m235.703232 383.859985h28.518044v28.518044h-28.518044z" opacity="0" stroke-linejoin="round" stroke-width="1.481956"/><path d="m237.46225314 398.0041569.20183092-.15052258.20183092-.14988747.20126478-.14861723.20168939-.14739993.20183092-.14554751.20126478-.1433246.20183092-.14078413.20183092-.13787318.20112324-.13480345.20183092-.13125739.20126478-.12718206.20183092-.12321258.20183092-.11844921.20126478-.11373876.20168939-.10849905.20183092-.10320641.20183092-.09754329.20126478-.09161554.20183092-.08537023.20112324-.07917784.20183092-.07277375.20183092-.06573455.20126478-.05917168.20183092-.05186255.20168939-.04467515.20126478-.03763065.20183092-.02995632.20183092-.02275834.20126478-.01507872.20183092-.00767962h.20168939l.20126478.00767962.20183092.01507872.20183092.02275834.20126478.02995632.20168939.03763065.20183092.04467515.20126478.05186255.20183092.05917168.20183092.06594625.20112324.07256205.20183092.07917784.20126478.08537023.20183092.09161554.20183092.09754329.20168939.10320641.20126478.10849905.20183092.11373876.20183092.11844921.20126478.12321258.20183092.12718206.20112324.13125739.20183092.13480345.20183092.13787318.20126478.14078413.20183092.14348338.20168939.14538873.20126478.14739993.20183092.14882894.20183092.14967576.20126478.15052258.20183092.15073429.20168939.15068136.20126478.15009917.20183092.14951698.20183092.14798212.20126478.14660603.20168939.14448898.20183092.14226607.20126478.13935512.20183092.13644417.20183092.13310981.20126478.12945789.20168939.125065.20183092.12093675.20126478.1162263.20183092.11119829.20168939.10606444.20126478.10045424.20183092.09473819.20183092.08886337.20126478.0825122.20183092.07584348.20112324.06949232.20183092.06261189.20183092.0554139.20183092.0485864.20126478.04138842.20168939.03387287.20126478.02646318.20183092.01905349.20183092.01153795.20126478.00396948.20183092-.00375777.20168939-.01116746.20126478-.01878886.20183092-.02625148.20183092-.03371409.20126478-.04091208.20168939-.0483747.20183092-.0552022.20126478-.06245311.20183092-.06928061.20183092-.07563178.20126478-.0823005.20168939-.08849288.20183092-.09447356.20126478-.10029546.20183092-.10585273.20183092-.11098659.20112324-.1162263.20183092-.12072504.20126478-.125065.20183092-.12924618.20183092-.1328981.20168939-.13628539.20126478-.13930219.20183092-.14226607.20183092-.14448898.20126478-.14639433.20168939-.14803504.20126478-.14925235.20183092-.15031088.20183092-.15052258" stroke-width="2.999816"/></g><g transform="matrix(1 0 0 -1 33.828424 583.500125)"><path d="m155.446609 382.063965h28.518044v28.518044h-28.518044z" opacity="0" stroke-linejoin="round" stroke-width="1.481956"/><path d="m157.20572395 396.03588232.20182942-.37627861.20182942-.37469093.20126328-.37151559.20168788-.36847255.20182942-.36384183.20126328-.35828497.20182942-.35193428.20182942-.34465744.20112174-.33698369.20182942-.32811918.20126328-.31793161.20182942-.30800865.20182942-.2961011.20126328-.28432585.20168788-.27122755.20182942-.25799693.20182942-.24384018.20126328-.22902189.20182942-.21340977.20112174-.19792996.20182942-.18192092.20182942-.1643242.20126328-.14791824.20182942-.12964677.20168788-.1116796.20126328-.09406965.20182942-.07488526.20182942-.05689163.20126328-.03769401.20182942-.01919762h.20168788l.20126328.01919762.20182942.03769401.20182942.05689163.20126328.07488526.20168788.09406965.20182942.1116796.20126328.12964677.20182942.14791824.20182942.16485343.20112174.18139169.20182942.19792996.20126328.21340977.20182942.22902189.20182942.24384018.20168788.25799693.20126328.27122755.20182942.28432585.20182942.2961011.20126328.30800865.20182942.31793161.20112174.32811918.20182942.33698369.20182942.34465744.20126328.35193428.20182942.35868189.20168788.36344491.20126328.36847255.20182942.37204481.20182942.37416171.20126328.37627861.20182942.37680783.20168788.37667552.20126328.37522016.20182942.37376479.20182942.36992791.20126328.36648795.20168788.36119571.20182942.35563885.20126328.34836202.20182942.34108518.20182942.33274989.20126328.32362077.20168788.31263936.20182942.30231949.20126328.29054424.20182942.27797516.20168788.26514147.20126328.25111702.20182942.23682796.20182942.22214198.20126328.20626524.20182942.18959467.20112174.17371794.20182942.15651814.20182942.13852451.20182942.12145702.20126328.10346339.20168788.08467592.20126328.06615306.20182942.0476302.20182942.02884273.20126328.00992296.20182942-.00939373.20168788-.02791659.20126328-.04696867.20182942-.06562384.20182942-.084279.20126328-.10227263.20168788-.12092779.20182942-.13799528.20126328-.15612122.20182942-.17318871.20182942-.18906545.20126328-.20573602.20168788-.22121583.20182942-.23616642.20126328-.2507201.20182942-.26461224.20182942-.27744593.20112174-.29054424.20182942-.30179026.20126328-.31263936.20182942-.32309155.20182942-.33222067.20168788-.34068826.20126328-.34822971.20182942-.35563885.20182942-.36119571.20126328-.36595873.20168788-.37006022.20126328-.37310326.20182942-.37574938.20182942-.37627861" stroke-width="3.000188"/></g><g transform="matrix(1 0 0 -1 -46.121326 541.735486)"><path d="m235.703232 383.859985h28.518044v28.518044h-28.518044z" opacity="0" stroke-linejoin="round" stroke-width="1.481956"/><path d="m237.46225314 398.0041569.20183092-.15052258.20183092-.14988747.20126478-.14861723.20168939-.14739993.20183092-.14554751.20126478-.1433246.20183092-.14078413.20183092-.13787318.20112324-.13480345.20183092-.13125739.20126478-.12718206.20183092-.12321258.20183092-.11844921.20126478-.11373876.20168939-.10849905.20183092-.10320641.20183092-.09754329.20126478-.09161554.20183092-.08537023.20112324-.07917784.20183092-.07277375.20183092-.06573455.20126478-.05917168.20183092-.05186255.20168939-.04467515.20126478-.03763065.20183092-.02995632.20183092-.02275834.20126478-.01507872.20183092-.00767962h.20168939l.20126478.00767962.20183092.01507872.20183092.02275834.20126478.02995632.20168939.03763065.20183092.04467515.20126478.05186255.20183092.05917168.20183092.06594625.20112324.07256205.20183092.07917784.20126478.08537023.20183092.09161554.20183092.09754329.20168939.10320641.20126478.10849905.20183092.11373876.20183092.11844921.20126478.12321258.20183092.12718206.20112324.13125739.20183092.13480345.20183092.13787318.20126478.14078413.20183092.14348338.20168939.14538873.20126478.14739993.20183092.14882894.20183092.14967576.20126478.15052258.20183092.15073429.20168939.15068136.20126478.15009917.20183092.14951698.20183092.14798212.20126478.14660603.20168939.14448898.20183092.14226607.20126478.13935512.20183092.13644417.20183092.13310981.20126478.12945789.20168939.125065.20183092.12093675.20126478.1162263.20183092.11119829.20168939.10606444.20126478.10045424.20183092.09473819.20183092.08886337.20126478.0825122.20183092.07584348.20112324.06949232.20183092.06261189.20183092.0554139.20183092.0485864.20126478.04138842.20168939.03387287.20126478.02646318.20183092.01905349.20183092.01153795.20126478.00396948.20183092-.00375777.20168939-.01116746.20126478-.01878886.20183092-.02625148.20183092-.03371409.20126478-.04091208.20168939-.0483747.20183092-.0552022.20126478-.06245311.20183092-.06928061.20183092-.07563178.20126478-.0823005.20168939-.08849288.20183092-.09447356.20126478-.10029546.20183092-.10585273.20183092-.11098659.20112324-.1162263.20183092-.12072504.20126478-.125065.20183092-.12924618.20183092-.1328981.20168939-.13628539.20126478-.13930219.20183092-.14226607.20183092-.14448898.20126478-.14639433.20168939-.14803504.20126478-.14925235.20183092-.15031088.20183092-.15052258" stroke-width="2.999816"/></g><path d="m23.732275 179.938812h9.506015v9.506015h-9.506015z" opacity="0" stroke-linejoin="round" stroke-width=".493985"/><g transform="translate(6.363961 -182.43355)"><path d="m14.746993 316.447845h9.506015v9.506015h-9.506015z" opacity="0" stroke-linejoin="round" stroke-width=".493985"/><path d="m15.99998715 321.10515023.05651287-.12542779.05651287-.12489856.05635435-.1238401.05647324-.12282574.05651287-.12128215.05635435-.11942984.05651287-.11731291.05651287-.11488727.05631472-.11232932.05651287-.10937444.05635435-.10597854.05651287-.10267085.05651287-.09870162.05635435-.09477648.05647324-.09041033.05651287-.08600007.05651287-.08128109.05635435-.0763416.05651287-.07113749.05631472-.06597749.05651287-.06064107.05651287-.05477543.05635435-.04930671.05651287-.04321614.05647324-.037227.05635435-.03135695.05651287-.02496207.05651287-.01896412.05635435-.01256483.05651287-.00639929h.05647324l.05635435.00639929.05651287.01256483.05651287.01896412.05635435.02496207.05647324.03135695.05651287.037227.05635435.04321614.05651287.04930671.05651287.05495184.05631472.06046466.05651287.06597749.05635435.07113749.05651287.0763416.05651287.08128109.05647324.08600007.05635435.09041033.05651287.09477648.05651287.09870162.05635435.10267085.05651287.10597854.05631472.10937444.05651287.11232932.05651287.11488727.05635435.11731291.05651287.11956214.05647324.12114984.05635435.12282574.05651287.12401651.05651287.12472215.05635435.12542779.05651287.1256042.05647324.1255601.05635435.12507497.05651287.12458984.05651287.12331087.05635435.1221642.05647324.12040009.05651287.11854778.05635435.11612214.05651287.1136965.05651287.11091803.05635435.10787496.05647324.10421444.05651287.10077444.05635435.09684931.05651287.09265956.05647324.08838161.05635435.08370673.05651287.07894365.05651287.07404826.05635435.06875595.05651287.06319902.05631472.05790671.05651287.05217337.05651287.04617542.05651287.04048619.05635435.03448823.05647324.02822566.05635435.0220513.05651287.01587694.05651287.00961437.05635435.00330769.05651287-.00313128.05647324-.00930565.05635435-.01565642.05651287-.02187489.05651287-.02809336.05635435-.03409131.05647324-.04030977.05651287-.04599901.05635435-.05204107.05651287-.0577303.05651287-.06302261.05635435-.06857954.05647324-.07373954.05651287-.07872314.05635435-.08357442.05651287-.0882052.05651287-.09248315.05631472-.09684931.05651287-.10059803.05635435-.10421444.05651287-.10769855.05651287-.11074162.05647324-.11356419.05635435-.11607804.05651287-.11854778.05651287-.12040009.05635435-.12198779.05647324-.12335497.05635435-.12436933.05651287-.12525138.05651287-.12542779" stroke-width=".999987"/></g><g transform="translate(6.010408 -149.199531)"><path d="m16.81562135 310.90900751h6.39979905" stroke-width="1.600101"/><path d="m15.262513 306.156006h9.506015v9.506015h-9.506015z" opacity="0" stroke-linejoin="round" stroke-width=".493985"/></g></g><text font-family="Bitstream Vera Sans" font-size="10" x="11.969168" y="223.01166"><tspan x="11.969168" y="223.01166">Gfx 16</tspan></text><g fill="none" stroke="#000" stroke-linecap="round" transform="translate(-24.748737 -171.119841)"><path d="m45.805126 316.998474h9.506015v9.506015h-9.506015z" opacity="0" stroke-linejoin="round" stroke-width=".493985"/><path d="m47.05813348 321.71318957.05651266-.05018541.05651266-.04997366.05635414-.04955015.05647303-.04914429.05651266-.04852668.05635414-.04778554.05651266-.04693853.05651266-.045968.05631451-.04494453.05651266-.04376224.05635414-.04240349.05651266-.04108004.05651266-.03949189.05635414-.03792139.05647303-.03617443.05651266-.03440983.05651266-.0325217.05635414-.03054534.05651266-.0284631.05631451-.02639851.05651266-.02426334.05651266-.02191641.05635414-.0197283.05651266-.01729138.05647303-.01489504.05635414-.01254635.05651266-.00998767.05651266-.00758781.05635414-.00502736.05651266-.00256044h.05647303l.05635414.00256044.05651266.00502736.05651266.00758781.05635414.00998767.05647303.01254635.05651266.01489504.05635414.01729138.05651266.0197283.05651266.021987.05631451.02419275.05651266.02639851.05635414.0284631.05651266.03054534.05651266.0325217.05647303.03440983.05635414.03617443.05651266.03792139.05651266.03949189.05635414.04108004.05651266.04240349.05631451.04376224.05651266.04494453.05651266.045968.05635414.04693853.05651266.04783848.05647303.04847374.05635414.04914429.05651266.04962073.05651266.04990307.05635414.05018541.05651266.05025599.05647303.05023835.05635414.05004424.05651266.04985013.05651266.0493384.05635414.0488796.05647303.04817376.05651266.04743262.05635414.04646209.05651266.04549156.05651266.04437985.05635414.04316227.05647303.04169765.05651266.04032126.05635414.03875076.05651266.03707438.05647303.03536271.05635414.03349223.05651266.03158646.05651266.02962774.05635414.02751022.05651266.02528681.05631451.02316928.05651266.02087529.05651266.01847543.05651266.01619909.05635414.01379922.05647303.01129348.05635414.00882303.05651266.00635258.05651266.00384684.05635414.00132345.05651266-.00125287.05647303-.00372332.05635414-.00626435.05651266-.00875245.05651266-.01124054.05635414-.01364041.05647303-.0161285.05651266-.01840485.05635414-.02082236.05651266-.0230987.05651266-.02521623.05635414-.02743963.05647303-.02950422.05651266-.03149823.05635414-.03343929.05651266-.03529213.05651266-.0370038.05631451-.03875076.05651266-.04025067.05635414-.04169765.05651266-.04309169.05651266-.04430927.05647303-.04543862.05635414-.04644444.05651266-.04743262.05651266-.04817376.05635414-.04880902.05647303-.04935604.05635414-.0497619.05651266-.05011482.05651266-.05018541" stroke-width=".999715"/></g><g fill="none" stroke="#000" stroke-linecap="round" transform="matrix(1 0 0 -1 6.13262 509.309143)"><path d="m14.746993 316.447845h9.506015v9.506015h-9.506015z" opacity="0" stroke-linejoin="round" stroke-width=".493985"/><path d="m15.99998715 321.10515023.05651287-.12542779.05651287-.12489856.05635435-.1238401.05647324-.12282574.05651287-.12128215.05635435-.11942984.05651287-.11731291.05651287-.11488727.05631472-.11232932.05651287-.10937444.05635435-.10597854.05651287-.10267085.05651287-.09870162.05635435-.09477648.05647324-.09041033.05651287-.08600007.05651287-.08128109.05635435-.0763416.05651287-.07113749.05631472-.06597749.05651287-.06064107.05651287-.05477543.05635435-.04930671.05651287-.04321614.05647324-.037227.05635435-.03135695.05651287-.02496207.05651287-.01896412.05635435-.01256483.05651287-.00639929h.05647324l.05635435.00639929.05651287.01256483.05651287.01896412.05635435.02496207.05647324.03135695.05651287.037227.05635435.04321614.05651287.04930671.05651287.05495184.05631472.06046466.05651287.06597749.05635435.07113749.05651287.0763416.05651287.08128109.05647324.08600007.05635435.09041033.05651287.09477648.05651287.09870162.05635435.10267085.05651287.10597854.05631472.10937444.05651287.11232932.05651287.11488727.05635435.11731291.05651287.11956214.05647324.12114984.05635435.12282574.05651287.12401651.05651287.12472215.05635435.12542779.05651287.1256042.05647324.1255601.05635435.12507497.05651287.12458984.05651287.12331087.05635435.1221642.05647324.12040009.05651287.11854778.05635435.11612214.05651287.1136965.05651287.11091803.05635435.10787496.05647324.10421444.05651287.10077444.05635435.09684931.05651287.09265956.05647324.08838161.05635435.08370673.05651287.07894365.05651287.07404826.05635435.06875595.05651287.06319902.05631472.05790671.05651287.05217337.05651287.04617542.05651287.04048619.05635435.03448823.05647324.02822566.05635435.0220513.05651287.01587694.05651287.00961437.05635435.00330769.05651287-.00313128.05647324-.00930565.05635435-.01565642.05651287-.02187489.05651287-.02809336.05635435-.03409131.05647324-.04030977.05651287-.04599901.05635435-.05204107.05651287-.0577303.05651287-.06302261.05635435-.06857954.05647324-.07373954.05651287-.07872314.05635435-.08357442.05651287-.0882052.05651287-.09248315.05631472-.09684931.05651287-.10059803.05635435-.10421444.05651287-.10769855.05651287-.11074162.05647324-.11356419.05635435-.11607804.05651287-.11854778.05651287-.12040009.05635435-.12198779.05647324-.12335497.05635435-.12436933.05651287-.12525138.05651287-.12542779" stroke-width=".999987"/></g><g fill="none" stroke="#000" stroke-linecap="round" transform="matrix(1 0 0 -1 -25.102289 497.308626)"><path d="m45.805126 316.998474h9.506015v9.506015h-9.506015z" opacity="0" stroke-linejoin="round" stroke-width=".493985"/><path d="m47.05813348 321.71318957.05651266-.05018541.05651266-.04997366.05635414-.04955015.05647303-.04914429.05651266-.04852668.05635414-.04778554.05651266-.04693853.05651266-.045968.05631451-.04494453.05651266-.04376224.05635414-.04240349.05651266-.04108004.05651266-.03949189.05635414-.03792139.05647303-.03617443.05651266-.03440983.05651266-.0325217.05635414-.03054534.05651266-.0284631.05631451-.02639851.05651266-.02426334.05651266-.02191641.05635414-.0197283.05651266-.01729138.05647303-.01489504.05635414-.01254635.05651266-.00998767.05651266-.00758781.05635414-.00502736.05651266-.00256044h.05647303l.05635414.00256044.05651266.00502736.05651266.00758781.05635414.00998767.05647303.01254635.05651266.01489504.05635414.01729138.05651266.0197283.05651266.021987.05631451.02419275.05651266.02639851.05635414.0284631.05651266.03054534.05651266.0325217.05647303.03440983.05635414.03617443.05651266.03792139.05651266.03949189.05635414.04108004.05651266.04240349.05631451.04376224.05651266.04494453.05651266.045968.05635414.04693853.05651266.04783848.05647303.04847374.05635414.04914429.05651266.04962073.05651266.04990307.05635414.05018541.05651266.05025599.05647303.05023835.05635414.05004424.05651266.04985013.05651266.0493384.05635414.0488796.05647303.04817376.05651266.04743262.05635414.04646209.05651266.04549156.05651266.04437985.05635414.04316227.05647303.04169765.05651266.04032126.05635414.03875076.05651266.03707438.05647303.03536271.05635414.03349223.05651266.03158646.05651266.02962774.05635414.02751022.05651266.02528681.05631451.02316928.05651266.02087529.05651266.01847543.05651266.01619909.05635414.01379922.05647303.01129348.05635414.00882303.05651266.00635258.05651266.00384684.05635414.00132345.05651266-.00125287.05647303-.00372332.05635414-.00626435.05651266-.00875245.05651266-.01124054.05635414-.01364041.05647303-.0161285.05651266-.01840485.05635414-.02082236.05651266-.0230987.05651266-.02521623.05635414-.02743963.05647303-.02950422.05651266-.03149823.05635414-.03343929.05651266-.03529213.05651266-.0370038.05631451-.03875076.05651266-.04025067.05635414-.04169765.05651266-.04309169.05651266-.04430927.05647303-.04543862.05635414-.04644444.05651266-.04743262.05651266-.04817376.05635414-.04880902.05647303-.04935604.05635414-.0497619.05651266-.05011482.05651266-.05018541" stroke-width=".999715"/></g><g fill="none" stroke="#000" stroke-linecap="round" transform="translate(-243 -38)"><path d="m489.36933071 136.83799735h34.00027107" stroke-width="3.999865"/><path d="m487.357422 117.825966h38.024059v38.024059h-38.024059z" opacity="0" stroke-linejoin="round" stroke-width="1.975942"/></g></svg>