<svg height="348" width="252" xmlns="http://www.w3.org/2000/svg"><g transform="translate(-235.714493 -298.249176)"><path d="m425.42813591 433.67855273c-.00013763 5.3449847-.72898218 10.04198294-2.18653585 14.09100881-1.37684182 4.04924696-3.23944458 7.69346973-5.58781384 10.93267925-2.34862898 3.15842601-5.02105901 6.03331287-8.01729812 8.62466919-2.99648279 2.51055556-6.07382646 4.89954605-9.23204026 7.16697862-3.15843901 2.26760021-6.27627405 4.49462524-9.35351447 6.68108176-2.9964642 2.1866108-5.7093856 4.53510992-8.13877233 7.04550441-2.42957696 2.42955194-4.41365381 5.14247334-5.95223648 8.13877233-1.538761 2.91544017-2.38907965 6.31671476-2.55095849 10.20383397h-32.43361511c.40485946-6.88348016 1.86254857-12.75472796 4.3730717-17.61376102 2.59138875-4.93987706 5.70922379-9.23196166 9.35351447-12.87626667 3.64415487-3.64414053 7.53132583-6.88344967 11.66152453-9.71793711 4.13003958-2.91528626 7.93622781-5.87115584 11.41857611-8.86761761 3.56314906-2.99626012 6.47852728-6.23556925 8.7461434-9.71793711 2.34839939-3.5631295 3.52264895-7.77423137 3.5227522-12.63331825-.00010325-7.12635691-2.34860237-12.75465653-7.04550441-16.88491573-4.61611172-4.12997908-11.21620407-6.19503865-19.80029687-6.19518491-4.13019555.00014625-7.93638378.64800808-11.41857611 1.94358742-3.4823223 1.21488524-6.55966598 2.95601389-9.23204026 5.2233912-2.59150306 2.26765548-4.73754536 5.02106824-6.43813334 8.26024655-1.70068661 3.23943996-2.79395344 6.80268-3.27980378 10.68973082l-34.62015096-1.45769057c.97178132-7.20734122 2.95585816-13.96939903 5.95223648-20.28619372 3.0773263-6.31651092 7.24793681-11.82333645 12.51184403-16.52049309 5.26384746-4.69683984 11.70197435-8.42204534 19.31440001-11.17562768 7.69330999-2.75324318 16.6014101-4.12994956 26.72432706-4.13012327 9.71785147.00017371 18.3830034 1.1339319 25.99548177 3.40127799 7.61227454 2.2676867 14.05040144 5.54748719 19.31440001 9.83941133 5.34473884 4.21126234 9.39387525 9.35366558 12.14742139 15.42722517 2.83426211 6.07384966 4.25145986 12.87639884 4.25159749 20.40766793m-84.42457866 124.63254346v-32.79803775h35.10604782v32.79803775z" fill="#c8c8c8" transform="matrix(.99832258 0 0 1.00168024 -.000021 -.000019)"/><path d="m235.714493 298.249176h252v348h-252z" fill="none" opacity=".99"/></g></svg>