<svg height="4000" width="11000" xmlns="http://www.w3.org/2000/svg"><g transform="matrix(.7071068 .7071068 -.7071068 .7071068 2134.905 174.2881)"><g transform="matrix(-1 0 0 -1 825 825)"><path d="m425 25c-220.8 0-400 179.2-400 400s179.2 400 400 400c-110.4 0-200-89.6-200-200s89.6-200 200-200 200-89.6 200-200-89.6-200-200-200zm0 137.5c34.5 0 62.5 28 62.5 62.5s-28 62.5-62.5 62.5-62.5-28-62.5-62.5 28-62.5 62.5-62.5z" transform="matrix(-1 0 0 -1 825 825)"/><path d="m450 200a50 50 0 1 1 -100 0 50 50 0 1 1 100 0z" transform="matrix(1.25 0 0 1.25 -100 -50)"/></g><g fill="#fff"><path d="m425 25c110.4 0 200 89.6 200 200s-89.6 200-200 200-200 89.6-200 200 89.6 200 200 200c220.8 0 400-179.2 400-400s-179.2-400-400-400zm0 537.5c34.5 0 62.5 28 62.5 62.5s-28 62.5-62.5 62.5-62.5-28-62.5-62.5 28-62.5 62.5-62.5z"/><path d="m450 200a50 50 0 1 1 -100 0 50 50 0 1 1 100 0z" transform="matrix(1.25 0 0 -1.25 -75 475)"/></g></g><g transform="matrix(0 1 -1 0 3921.3753 350.3288)"><g transform="matrix(-1 0 0 -1 825 825)"><path d="m425 25c-220.8 0-400 179.2-400 400s179.2 400 400 400c-110.4 0-200-89.6-200-200s89.6-200 200-200 200-89.6 200-200-89.6-200-200-200zm0 137.5c34.5 0 62.5 28 62.5 62.5s-28 62.5-62.5 62.5-62.5-28-62.5-62.5 28-62.5 62.5-62.5z" transform="matrix(-1 0 0 -1 825 825)"/><path d="m450 200a50 50 0 1 1 -100 0 50 50 0 1 1 100 0z" transform="matrix(1.25 0 0 1.25 -100 -50)"/></g><g fill="#fff"><path d="m425 25c110.4 0 200 89.6 200 200s-89.6 200-200 200-200 89.6-200 200 89.6 200 200 200c220.8 0 400-179.2 400-400s-179.2-400-400-400zm0 537.5c34.5 0 62.5 28 62.5 62.5s-28 62.5-62.5 62.5-62.5-28-62.5-62.5 28-62.5 62.5-62.5z"/><path d="m450 200a50 50 0 1 1 -100 0 50 50 0 1 1 100 0z" transform="matrix(1.25 0 0 -1.25 -75 475)"/></g></g><g transform="matrix(-.7071068 .7071068 -.7071068 -.7071068 5458.88616 775.32877)"><g transform="matrix(-1 0 0 -1 825 825)"><path d="m425 25c-220.8 0-400 179.2-400 400s179.2 400 400 400c-110.4 0-200-89.6-200-200s89.6-200 200-200 200-89.6 200-200-89.6-200-200-200zm0 137.5c34.5 0 62.5 28 62.5 62.5s-28 62.5-62.5 62.5-62.5-28-62.5-62.5 28-62.5 62.5-62.5z" transform="matrix(-1 0 0 -1 825 825)"/><path d="m450 200a50 50 0 1 1 -100 0 50 50 0 1 1 100 0z" transform="matrix(1.25 0 0 1.25 -100 -50)"/></g><g fill="#fff"><path d="m425 25c110.4 0 200 89.6 200 200s-89.6 200-200 200-200 89.6-200 200 89.6 200 200 200c220.8 0 400-179.2 400-400s-179.2-400-400-400zm0 537.5c34.5 0 62.5 28 62.5 62.5s-28 62.5-62.5 62.5-62.5-28-62.5-62.5 28-62.5 62.5-62.5z"/><path d="m450 200a50 50 0 1 1 -100 0 50 50 0 1 1 100 0z" transform="matrix(1.25 0 0 -1.25 -75 475)"/></g></g><g transform="translate(348.4352 350.3288)"><g transform="matrix(-1 0 0 -1 825 825)"><path d="m425 25c-220.8 0-400 179.2-400 400s179.2 400 400 400c-110.4 0-200-89.6-200-200s89.6-200 200-200 200-89.6 200-200-89.6-200-200-200zm0 137.5c34.5 0 62.5 28 62.5 62.5s-28 62.5-62.5 62.5-62.5-28-62.5-62.5 28-62.5 62.5-62.5z" transform="matrix(-1 0 0 -1 825 825)"/><path d="m450 200a50 50 0 1 1 -100 0 50 50 0 1 1 100 0z" transform="matrix(1.25 0 0 1.25 -100 -50)"/></g><g fill="#fff"><path d="m425 25c110.4 0 200 89.6 200 200s-89.6 200-200 200-200 89.6-200 200 89.6 200 200 200c220.8 0 400-179.2 400-400s-179.2-400-400-400zm0 537.5c34.5 0 62.5 28 62.5 62.5s-28 62.5-62.5 62.5-62.5-28-62.5-62.5 28-62.5 62.5-62.5z"/><path d="m450 200a50 50 0 1 1 -100 0 50 50 0 1 1 100 0z" transform="matrix(1.25 0 0 -1.25 -75 475)"/></g></g><g transform="matrix(-1 0 0 -1 6644.3154 1200.3288)"><g transform="matrix(-1 0 0 -1 825 825)"><path d="m425 25c-220.8 0-400 179.2-400 400s179.2 400 400 400c-110.4 0-200-89.6-200-200s89.6-200 200-200 200-89.6 200-200-89.6-200-200-200zm0 137.5c34.5 0 62.5 28 62.5 62.5s-28 62.5-62.5 62.5-62.5-28-62.5-62.5 28-62.5 62.5-62.5z" transform="matrix(-1 0 0 -1 825 825)"/><path d="m450 200a50 50 0 1 1 -100 0 50 50 0 1 1 100 0z" transform="matrix(1.25 0 0 1.25 -100 -50)"/></g><g fill="#fff"><path d="m425 25c110.4 0 200 89.6 200 200s-89.6 200-200 200-200 89.6-200 200 89.6 200 200 200c220.8 0 400-179.2 400-400s-179.2-400-400-400zm0 537.5c34.5 0 62.5 28 62.5 62.5s-28 62.5-62.5 62.5-62.5-28-62.5-62.5 28-62.5 62.5-62.5z"/><path d="m450 200a50 50 0 1 1 -100 0 50 50 0 1 1 100 0z" transform="matrix(1.25 0 0 -1.25 -75 475)"/></g></g><g transform="matrix(-.7071068 -.7071068 .7071068 -.7071068 7580.7858 1376.36956)"><g transform="matrix(-1 0 0 -1 825 825)"><path d="m425 25c-220.8 0-400 179.2-400 400s179.2 400 400 400c-110.4 0-200-89.6-200-200s89.6-200 200-200 200-89.6 200-200-89.6-200-200-200zm0 137.5c34.5 0 62.5 28 62.5 62.5s-28 62.5-62.5 62.5-62.5-28-62.5-62.5 28-62.5 62.5-62.5z" transform="matrix(-1 0 0 -1 825 825)"/><path d="m450 200a50 50 0 1 1 -100 0 50 50 0 1 1 100 0z" transform="matrix(1.25 0 0 1.25 -100 -50)"/></g><g fill="#fff"><path d="m425 25c110.4 0 200 89.6 200 200s-89.6 200-200 200-200 89.6-200 200 89.6 200 200 200c220.8 0 400-179.2 400-400s-179.2-400-400-400zm0 537.5c34.5 0 62.5 28 62.5 62.5s-28 62.5-62.5 62.5-62.5-28-62.5-62.5 28-62.5 62.5-62.5z"/><path d="m450 200a50 50 0 1 1 -100 0 50 50 0 1 1 100 0z" transform="matrix(1.25 0 0 -1.25 -75 475)"/></g></g><g transform="matrix(0 -1 1 0 8517.2558 1200.3288)"><g transform="matrix(-1 0 0 -1 825 825)"><path d="m425 25c-220.8 0-400 179.2-400 400s179.2 400 400 400c-110.4 0-200-89.6-200-200s89.6-200 200-200 200-89.6 200-200-89.6-200-200-200zm0 137.5c34.5 0 62.5 28 62.5 62.5s-28 62.5-62.5 62.5-62.5-28-62.5-62.5 28-62.5 62.5-62.5z" transform="matrix(-1 0 0 -1 825 825)"/><path d="m450 200a50 50 0 1 1 -100 0 50 50 0 1 1 100 0z" transform="matrix(1.25 0 0 1.25 -100 -50)"/></g><g fill="#fff"><path d="m425 25c110.4 0 200 89.6 200 200s-89.6 200-200 200-200 89.6-200 200 89.6 200 200 200c220.8 0 400-179.2 400-400s-179.2-400-400-400zm0 537.5c34.5 0 62.5 28 62.5 62.5s-28 62.5-62.5 62.5-62.5-28-62.5-62.5 28-62.5 62.5-62.5z"/><path d="m450 200a50 50 0 1 1 -100 0 50 50 0 1 1 100 0z" transform="matrix(1.25 0 0 -1.25 -75 475)"/></g></g><g transform="matrix(.7071068 -.7071068 .7071068 .7071068 9702.68454 775.3288)"><g transform="matrix(-1 0 0 -1 825 825)"><path d="m425 25c-220.8 0-400 179.2-400 400s179.2 400 400 400c-110.4 0-200-89.6-200-200s89.6-200 200-200 200-89.6 200-200-89.6-200-200-200zm0 137.5c34.5 0 62.5 28 62.5 62.5s-28 62.5-62.5 62.5-62.5-28-62.5-62.5 28-62.5 62.5-62.5z" transform="matrix(-1 0 0 -1 825 825)"/><path d="m450 200a50 50 0 1 1 -100 0 50 50 0 1 1 100 0z" transform="matrix(1.25 0 0 1.25 -100 -50)"/></g><g fill="#fff"><path d="m425 25c110.4 0 200 89.6 200 200s-89.6 200-200 200-200 89.6-200 200 89.6 200 200 200c220.8 0 400-179.2 400-400s-179.2-400-400-400zm0 537.5c34.5 0 62.5 28 62.5 62.5s-28 62.5-62.5 62.5-62.5-28-62.5-62.5 28-62.5 62.5-62.5z"/><path d="m450 200a50 50 0 1 1 -100 0 50 50 0 1 1 100 0z" transform="matrix(1.25 0 0 -1.25 -75 475)"/></g></g><g transform="translate(348.4352 1590.437913)"><g transform="matrix(-1 0 0 -1 825 825)"><path d="m425 25c-220.8 0-400 179.2-400 400s179.2 400 400 400c-110.4 0-200-89.6-200-200s89.6-200 200-200 200-89.6 200-200-89.6-200-200-200zm0 137.5c34.5 0 62.5 28 62.5 62.5s-28 62.5-62.5 62.5-62.5-28-62.5-62.5 28-62.5 62.5-62.5z" transform="matrix(-1 0 0 -1 825 825)"/><path d="m450 200a50 50 0 1 1 -100 0 50 50 0 1 1 100 0z" transform="matrix(1.25 0 0 1.25 -100 -50)"/></g><g fill="#fff"><path d="m425 25c110.4 0 200 89.6 200 200s-89.6 200-200 200-200 89.6-200 200 89.6 200 200 200c220.8 0 400-179.2 400-400s-179.2-400-400-400zm0 537.5c34.5 0 62.5 28 62.5 62.5s-28 62.5-62.5 62.5-62.5-28-62.5-62.5 28-62.5 62.5-62.5z"/><path d="m450 200a50 50 0 1 1 -100 0 50 50 0 1 1 100 0z" transform="matrix(1.25 0 0 -1.25 -75 475)"/></g></g><g transform="matrix(.5 .8660254 -.8660254 .5 2734.4956 1434.877118)"><g transform="matrix(-1 0 0 -1 825 825)"><path d="m425 25c-220.8 0-400 179.2-400 400s179.2 400 400 400c-110.4 0-200-89.6-200-200s89.6-200 200-200 200-89.6 200-200-89.6-200-200-200zm0 137.5c34.5 0 62.5 28 62.5 62.5s-28 62.5-62.5 62.5-62.5-28-62.5-62.5 28-62.5 62.5-62.5z" transform="matrix(-1 0 0 -1 825 825)"/><path d="m450 200a50 50 0 1 1 -100 0 50 50 0 1 1 100 0z" transform="matrix(1.25 0 0 1.25 -100 -50)"/></g><g fill="#fff"><path d="m425 25c110.4 0 200 89.6 200 200s-89.6 200-200 200-200 89.6-200 200 89.6 200 200 200c220.8 0 400-179.2 400-400s-179.2-400-400-400zm0 537.5c34.5 0 62.5 28 62.5 62.5s-28 62.5-62.5 62.5-62.5-28-62.5-62.5 28-62.5 62.5-62.5z"/><path d="m450 200a50 50 0 1 1 -100 0 50 50 0 1 1 100 0z" transform="matrix(1.25 0 0 -1.25 -75 475)"/></g></g><g transform="matrix(-.5 .8660254 -.8660254 -.5 4964.99522 1859.87712)"><g transform="matrix(-1 0 0 -1 825 825)"><path d="m425 25c-220.8 0-400 179.2-400 400s179.2 400 400 400c-110.4 0-200-89.6-200-200s89.6-200 200-200 200-89.6 200-200-89.6-200-200-200zm0 137.5c34.5 0 62.5 28 62.5 62.5s-28 62.5-62.5 62.5-62.5-28-62.5-62.5 28-62.5 62.5-62.5z" transform="matrix(-1 0 0 -1 825 825)"/><path d="m450 200a50 50 0 1 1 -100 0 50 50 0 1 1 100 0z" transform="matrix(1.25 0 0 1.25 -100 -50)"/></g><g fill="#fff"><path d="m425 25c110.4 0 200 89.6 200 200s-89.6 200-200 200-200 89.6-200 200 89.6 200 200 200c220.8 0 400-179.2 400-400s-179.2-400-400-400zm0 537.5c34.5 0 62.5 28 62.5 62.5s-28 62.5-62.5 62.5-62.5-28-62.5-62.5 28-62.5 62.5-62.5z"/><path d="m450 200a50 50 0 1 1 -100 0 50 50 0 1 1 100 0z" transform="matrix(1.25 0 0 -1.25 -75 475)"/></g></g><g transform="matrix(-1 0 0 -1 6614.9341 2440.437913)"><g transform="matrix(-1 0 0 -1 825 825)"><path d="m425 25c-220.8 0-400 179.2-400 400s179.2 400 400 400c-110.4 0-200-89.6-200-200s89.6-200 200-200 200-89.6 200-200-89.6-200-200-200zm0 137.5c34.5 0 62.5 28 62.5 62.5s-28 62.5-62.5 62.5-62.5-28-62.5-62.5 28-62.5 62.5-62.5z" transform="matrix(-1 0 0 -1 825 825)"/><path d="m450 200a50 50 0 1 1 -100 0 50 50 0 1 1 100 0z" transform="matrix(1.25 0 0 1.25 -100 -50)"/></g><g fill="#fff"><path d="m425 25c110.4 0 200 89.6 200 200s-89.6 200-200 200-200 89.6-200 200 89.6 200 200 200c220.8 0 400-179.2 400-400s-179.2-400-400-400zm0 537.5c34.5 0 62.5 28 62.5 62.5s-28 62.5-62.5 62.5-62.5-28-62.5-62.5 28-62.5 62.5-62.5z"/><path d="m450 200a50 50 0 1 1 -100 0 50 50 0 1 1 100 0z" transform="matrix(1.25 0 0 -1.25 -75 475)"/></g></g><g transform="matrix(-.5 -.8660254 .8660254 -.5 7839.87281 2595.998708)"><g transform="matrix(-1 0 0 -1 825 825)"><path d="m425 25c-220.8 0-400 179.2-400 400s179.2 400 400 400c-110.4 0-200-89.6-200-200s89.6-200 200-200 200-89.6 200-200-89.6-200-200-200zm0 137.5c34.5 0 62.5 28 62.5 62.5s-28 62.5-62.5 62.5-62.5-28-62.5-62.5 28-62.5 62.5-62.5z" transform="matrix(-1 0 0 -1 825 825)"/><path d="m450 200a50 50 0 1 1 -100 0 50 50 0 1 1 100 0z" transform="matrix(1.25 0 0 1.25 -100 -50)"/></g><g fill="#fff"><path d="m425 25c110.4 0 200 89.6 200 200s-89.6 200-200 200-200 89.6-200 200 89.6 200 200 200c220.8 0 400-179.2 400-400s-179.2-400-400-400zm0 537.5c34.5 0 62.5 28 62.5 62.5s-28 62.5-62.5 62.5-62.5-28-62.5-62.5 28-62.5 62.5-62.5z"/><path d="m450 200a50 50 0 1 1 -100 0 50 50 0 1 1 100 0z" transform="matrix(1.25 0 0 -1.25 -75 475)"/></g></g><g transform="matrix(.5 -.8660254 .8660254 .5 9220.37261 2170.99871)"><g transform="matrix(-1 0 0 -1 825 825)"><path d="m425 25c-220.8 0-400 179.2-400 400s179.2 400 400 400c-110.4 0-200-89.6-200-200s89.6-200 200-200 200-89.6 200-200-89.6-200-200-200zm0 137.5c34.5 0 62.5 28 62.5 62.5s-28 62.5-62.5 62.5-62.5-28-62.5-62.5 28-62.5 62.5-62.5z" transform="matrix(-1 0 0 -1 825 825)"/><path d="m450 200a50 50 0 1 1 -100 0 50 50 0 1 1 100 0z" transform="matrix(1.25 0 0 1.25 -100 -50)"/></g><g fill="#fff"><path d="m425 25c110.4 0 200 89.6 200 200s-89.6 200-200 200-200 89.6-200 200 89.6 200 200 200c220.8 0 400-179.2 400-400s-179.2-400-400-400zm0 537.5c34.5 0 62.5 28 62.5 62.5s-28 62.5-62.5 62.5-62.5-28-62.5-62.5 28-62.5 62.5-62.5z"/><path d="m450 200a50 50 0 1 1 -100 0 50 50 0 1 1 100 0z" transform="matrix(1.25 0 0 -1.25 -75 475)"/></g></g><g transform="translate(348.4352 2666.0509)"><g transform="matrix(-1 0 0 -1 825 825)"><path d="m425 25c-220.8 0-400 179.2-400 400s179.2 400 400 400c-110.4 0-200-89.6-200-200s89.6-200 200-200 200-89.6 200-200-89.6-200-200-200zm0 137.5c34.5 0 62.5 28 62.5 62.5s-28 62.5-62.5 62.5-62.5-28-62.5-62.5 28-62.5 62.5-62.5z" transform="matrix(-1 0 0 -1 825 825)"/><path d="m450 200a50 50 0 1 1 -100 0 50 50 0 1 1 100 0z" transform="matrix(1.25 0 0 1.25 -100 -50)"/></g><g fill="#fff"><path d="m425 25c110.4 0 200 89.6 200 200s-89.6 200-200 200-200 89.6-200 200 89.6 200 200 200c220.8 0 400-179.2 400-400s-179.2-400-400-400zm0 537.5c34.5 0 62.5 28 62.5 62.5s-28 62.5-62.5 62.5-62.5-28-62.5-62.5 28-62.5 62.5-62.5z"/><path d="m450 200a50 50 0 1 1 -100 0 50 50 0 1 1 100 0z" transform="matrix(1.25 0 0 -1.25 -75 475)"/></g></g><g transform="matrix(0 1 -1 0 3976.38771 2666.0509)"><g transform="matrix(-1 0 0 -1 825 825)"><path d="m425 25c-220.8 0-400 179.2-400 400s179.2 400 400 400c-110.4 0-200-89.6-200-200s89.6-200 200-200 200-89.6 200-200-89.6-200-200-200zm0 137.5c34.5 0 62.5 28 62.5 62.5s-28 62.5-62.5 62.5-62.5-28-62.5-62.5 28-62.5 62.5-62.5z" transform="matrix(-1 0 0 -1 825 825)"/><path d="m450 200a50 50 0 1 1 -100 0 50 50 0 1 1 100 0z" transform="matrix(1.25 0 0 1.25 -100 -50)"/></g><g fill="#fff"><path d="m425 25c110.4 0 200 89.6 200 200s-89.6 200-200 200-200 89.6-200 200 89.6 200 200 200c220.8 0 400-179.2 400-400s-179.2-400-400-400zm0 537.5c34.5 0 62.5 28 62.5 62.5s-28 62.5-62.5 62.5-62.5-28-62.5-62.5 28-62.5 62.5-62.5z"/><path d="m450 200a50 50 0 1 1 -100 0 50 50 0 1 1 100 0z" transform="matrix(1.25 0 0 -1.25 -75 475)"/></g></g><g transform="matrix(-1 0 0 -1 6754.3401 3516.0509)"><g transform="matrix(-1 0 0 -1 825 825)"><path d="m425 25c-220.8 0-400 179.2-400 400s179.2 400 400 400c-110.4 0-200-89.6-200-200s89.6-200 200-200 200-89.6 200-200-89.6-200-200-200zm0 137.5c34.5 0 62.5 28 62.5 62.5s-28 62.5-62.5 62.5-62.5-28-62.5-62.5 28-62.5 62.5-62.5z" transform="matrix(-1 0 0 -1 825 825)"/><path d="m450 200a50 50 0 1 1 -100 0 50 50 0 1 1 100 0z" transform="matrix(1.25 0 0 1.25 -100 -50)"/></g><g fill="#fff"><path d="m425 25c110.4 0 200 89.6 200 200s-89.6 200-200 200-200 89.6-200 200 89.6 200 200 200c220.8 0 400-179.2 400-400s-179.2-400-400-400zm0 537.5c34.5 0 62.5 28 62.5 62.5s-28 62.5-62.5 62.5-62.5-28-62.5-62.5 28-62.5 62.5-62.5z"/><path d="m450 200a50 50 0 1 1 -100 0 50 50 0 1 1 100 0z" transform="matrix(1.25 0 0 -1.25 -75 475)"/></g></g><g transform="matrix(0 -1 1 0 8682.2924 3516.0509)"><g transform="matrix(-1 0 0 -1 825 825)"><path d="m425 25c-220.8 0-400 179.2-400 400s179.2 400 400 400c-110.4 0-200-89.6-200-200s89.6-200 200-200 200-89.6 200-200-89.6-200-200-200zm0 137.5c34.5 0 62.5 28 62.5 62.5s-28 62.5-62.5 62.5-62.5-28-62.5-62.5 28-62.5 62.5-62.5z" transform="matrix(-1 0 0 -1 825 825)"/><path d="m450 200a50 50 0 1 1 -100 0 50 50 0 1 1 100 0z" transform="matrix(1.25 0 0 1.25 -100 -50)"/></g><g fill="#fff"><path d="m425 25c110.4 0 200 89.6 200 200s-89.6 200-200 200-200 89.6-200 200 89.6 200 200 200c220.8 0 400-179.2 400-400s-179.2-400-400-400zm0 537.5c34.5 0 62.5 28 62.5 62.5s-28 62.5-62.5 62.5-62.5-28-62.5-62.5 28-62.5 62.5-62.5z"/><path d="m450 200a50 50 0 1 1 -100 0 50 50 0 1 1 100 0z" transform="matrix(1.25 0 0 -1.25 -75 475)"/></g></g></svg>