<svg height="40" width="40" xmlns="http://www.w3.org/2000/svg" xmlns:xlink="http://www.w3.org/1999/xlink"><radialGradient id="a" cx="6" cy="66" gradientUnits="userSpaceOnUse" r="4.65"><stop offset="0" stop-color="#323232"/><stop offset="1" stop-color="#787878"/></radialGradient><radialGradient id="b" cx="6" cy="66" gradientUnits="userSpaceOnUse" r="4.65"><stop offset="0" stop-color="#a5a5a5"/><stop offset="1" stop-color="#4b4b4b"/></radialGradient><path d="m1.75 1.75h38v38h-38z" fill="none"/><path d="m.75.75h40v40h-40z" fill="none" stroke="#323232" stroke-linejoin="round" stroke-width="1.5"/><g fill="none" stroke-linecap="round" stroke-linejoin="round" stroke-width="1.2" transform="translate(194.999995 -670)"><path d="m-155.21923 671.74289v38.01422h-38.06153" stroke="#4b4b4b"/><path d="m-155.2508 671.80603h-37.99839v37.88794" stroke="#7d7d7d"/></g><g transform="translate(188.300001 -677.799994)"><use height="40" transform="translate(0 27.8)" width="40" xlink:href="#c"/><use height="40" transform="translate(27.8)" width="40" xlink:href="#c"/><use height="40" transform="translate(27.8 27.8)" width="40" xlink:href="#c"/><path id="c" d="m10 66a4 4 0 1 1 -8 0 4 4 0 1 1 8 0z" fill="url(#b)" stroke="#505050" stroke-linejoin="round" stroke-width="1.3" transform="translate(-187.45 618.65)"/><path d="m-185.55 680.54999h36v36h-36z" fill="none" stroke="#5f5f5f" stroke-linejoin="round" stroke-width="1.1"/></g><g stroke-linejoin="round"><g fill="none" stroke-linecap="round" stroke-width="1.4" transform="translate(200.2829 -671.7829)"><path d="m-160.50213 723.52579v38.01421h-38.06153" stroke="#464646"/><path d="m-160.5337 723.58893h-37.99839v37.88794" stroke="#6e6e6e"/></g><g transform="translate(215.282901 -689.782889)"><g fill="url(#a)" stroke="#3c3c3c" stroke-width="1.3"><path d="m10 66c0 2.209139-1.790861 4-4 4s-4-1.790861-4-4 1.790861-4 4-4 4 1.790861 4 4z" transform="translate(-186.65 680.65)"/><path d="m10 66c0 2.209139-1.790861 4-4 4s-4-1.790861-4-4 1.790861-4 4-4 4 1.790861 4 4z" transform="translate(-186.65 708.41578)"/><path d="m10 66c0 2.209139-1.790861 4-4 4s-4-1.790861-4-4 1.790861-4 4-4 4 1.790861 4 4z" transform="translate(-214.41579 708.41578)"/><path d="m10 66c0 2.209139-1.790861 4-4 4s-4-1.790861-4-4 1.790861-4 4-4 4 1.790861 4 4z" transform="translate(-214.41579 680.65)"/></g><path d="m-212.51579 742.54999h35.965786v35.965786h-35.965786z" fill="none" stroke="#505050" stroke-width="1.1"/></g><path d="m.75 50.75h40v40h-40z" fill="none" stroke="#141414" stroke-width="1.5"/><path d="m60.75.75h40v40h-40z" fill="none" stroke="#323232" stroke-linecap="round" stroke-width="1.5"/><g fill="none" stroke-linecap="round" stroke-width="1.6" transform="translate(205.54919 -658.99397)"><path d="m-105.76843 660.73686v38.01422h-38.06152" stroke="#4b4b4b"/><path d="m-105.8 660.8h-37.99838v37.88794" stroke="#7d7d7d"/></g></g><g transform="translate(190 -720)"><use height="40" transform="translate(0 27.1)" width="40" xlink:href="#d"/><use height="40" transform="translate(27.1)" width="40" xlink:href="#d"/><use height="40" transform="translate(27.1 27.1)" width="40" xlink:href="#d"/><path id="d" d="m10 66a4 4 0 1 1 -8 0 4 4 0 1 1 8 0z" fill="url(#b)" stroke="#505050" stroke-linejoin="round" stroke-width="1.3" transform="translate(-128.8 661.2)"/><path d="m-127.25 722.75h36v36h-36z" fill="none" stroke="#5f5f5f" stroke-linejoin="round" stroke-width="1.6"/></g><path d="m60.75 50.75h40v40h-40z" fill="none" stroke="#141414" stroke-linejoin="round" stroke-width="1.5"/><g fill="none" stroke-linecap="round" stroke-linejoin="round" stroke-width="1.6" transform="translate(204.999995 -670.00001)"><path d="m-105.21923 721.7429v38.01422h-38.06153" stroke="#464646"/><path d="m-105.25081 721.80604h-37.99838v37.88794" stroke="#6e6e6e"/></g><g transform="translate(203.580767 -670.057112)"><use height="40" transform="translate(27.065789 -.000002)" width="40" xlink:href="#e"/><use height="40" transform="translate(.000003 27.065784)" width="40" xlink:href="#e"/><use height="40" transform="translate(27.065789 27.065784)" width="40" xlink:href="#e"/><path id="e" d="m10 66a4 4 0 1 1 -8 0 4 4 0 1 1 8 0z" fill="url(#a)" stroke="#3c3c3c" stroke-linejoin="round" stroke-width="1.3" transform="translate(-142.36366 661.27421)"/><path d="m-140.81366 722.82422h35.965786v35.965786h-35.965786z" fill="none" stroke="#505050" stroke-linejoin="round" stroke-width="1.6"/></g><text font-family="Bitstream Vera Sans" font-size="10" x="123.94043" y="27.597656"><tspan x="123.94043" y="27.597656">&lt;- Released</tspan></text><text font-family="Bitstream Vera Sans" font-size="10" x="123.94043" y="77.597656"><tspan x="123.94043" y="77.597656">&lt;- Pressed</tspan></text><text font-family="Bitstream Vera Sans" font-size="10" x="59.438477" y="-16.630859"><tspan x="59.438477" y="-16.630859">Gfx{16,32}</tspan></text><text font-family="Bitstream Vera Sans" font-size="10" x="-35.551758" y="-17.080078"><tspan x="-35.551758" y="-17.080078">gfx{40,48,64}</tspan></text></svg>